<svg width="638" height="97" viewBox="0 0 638 97" fill="none" xmlns="http://www.w3.org/2000/svg">
<path d="M4.08514 52.0859C4.08514 52.0859 1.59813 29.9808 16.3345 22.0722C31.0709 14.1598 54.2272 4.38967 72.5982 12.9978C90.9692 21.6059 89.2462 23.9337 90.0133 26.491C90.7804 29.0482 96.5216 21.6059 96.5216 21.6059C96.5216 21.6059 110.683 8.34584 124.463 7.87954C138.241 7.41324 151.065 6.25118 164.459 21.1396C164.459 21.1396 165.512 23.4082 167.57 21.4319C169.628 19.4557 190.2 5.907 212.687 7.65009C235.173 9.39318 236.129 5.9033 252.78 26.7278C252.78 26.7278 267.23 5.4407 280.432 4.39337C293.638 3.34603 301.674 -2.81954 312.968 6.72118C324.258 16.2619 326.267 21.9612 326.267 21.9612C326.267 21.9612 336.696 7.88324 347.128 7.06906C357.557 6.25488 365.691 3.34603 375.07 10.7921C384.448 18.2381 384.543 15.444 387.319 19.2855C390.095 23.1232 390.765 25.3363 390.765 25.3363C390.765 25.3363 399.09 15.0998 415.166 13.5862C431.242 12.0726 436.886 9.5153 443.872 12.6573C450.858 15.7993 457.939 20.9175 458.8 22.3127C458.8 22.3127 464.733 11.1437 473.153 8.12009C481.573 5.09652 496.595 0.67404 508.747 8.81955C520.899 16.9614 517.837 16.1472 520.899 19.2892C523.962 22.4312 527.216 28.9446 527.216 28.9446C527.216 28.9446 533.051 15.4514 538.314 13.1236C543.578 10.7958 545.301 5.4444 561.087 6.14385C576.877 6.84331 579.747 6.95804 588.74 21.3838C588.74 21.3838 593.236 13.9378 599.552 13.9378C605.869 13.9378 608.833 10.3332 616.967 15.0998C625.101 19.8665 628.927 21.2506 631.32 26.7833C633.713 32.3161 636.008 40.5763 636.583 55.7016C637.159 70.8231 635.722 75.2456 634.86 77.9213C633.999 80.597 634.86 96.999 634.86 96.999H7.91154L7.14748 69.08C7.14748 69.08 3.15365 65.642 4.08514 52.097V52.0859Z" fill="#537384"/>
<path d="M4.08514 52.0859C4.08514 52.0859 1.59813 29.9808 16.3345 22.0722C31.0709 14.1598 54.2272 4.38967 72.5982 12.9978C90.9692 21.6059 89.2462 23.9337 90.0133 26.491C90.7804 29.0482 96.5216 21.6059 96.5216 21.6059C96.5216 21.6059 110.683 8.34584 124.463 7.87954C138.241 7.41324 151.065 6.25118 164.459 21.1396C164.459 21.1396 165.512 23.4082 167.57 21.4319C169.628 19.4557 190.2 5.907 212.687 7.65009C235.173 9.39318 236.129 5.9033 252.78 26.7278C252.78 26.7278 267.23 5.4407 280.432 4.39337C293.638 3.34603 301.674 -2.81954 312.968 6.72118C324.258 16.2619 326.267 21.9612 326.267 21.9612C326.267 21.9612 336.696 7.88324 347.128 7.06906C357.557 6.25488 365.691 3.34603 375.07 10.7921C384.448 18.2381 384.543 15.444 387.319 19.2855C390.095 23.1232 390.765 25.3363 390.765 25.3363C390.765 25.3363 399.09 15.0998 415.166 13.5862C431.242 12.0726 436.886 9.5153 443.872 12.6573C450.858 15.7993 457.939 20.9175 458.8 22.3127C458.8 22.3127 464.733 11.1437 473.153 8.12009C481.573 5.09652 496.595 0.67404 508.747 8.81955C520.899 16.9614 517.837 16.1472 520.899 19.2892C523.962 22.4312 527.216 28.9446 527.216 28.9446C527.216 28.9446 533.051 15.4514 538.314 13.1236C543.578 10.7958 545.301 5.4444 561.087 6.14385C576.877 6.84331 579.747 6.95804 588.74 21.3838C588.74 21.3838 593.236 13.9378 599.552 13.9378C605.869 13.9378 608.833 10.3332 616.967 15.0998C625.101 19.8665 628.927 21.2506 631.32 26.7833C633.713 32.3161 636.008 40.5763 636.583 55.7016C637.159 70.8231 635.722 75.2456 634.86 77.9213C633.999 80.597 634.86 96.999 634.86 96.999H7.91154L7.14748 69.08C7.14748 69.08 3.15365 65.642 4.08514 52.097V52.0859Z" fill="#537384"/>
<path d="M2.78272 35.4167C2.78272 35.4167 -1.32069 51.3191 2.78272 62.2328C6.88614 73.1466 27.4032 78.757 27.4032 78.757C27.4032 78.757 54.3311 84.9929 66.9001 78.757C79.466 72.5211 93.0609 50.0719 92.2907 44.7724C91.5206 39.4728 89.4689 24.8175 85.8799 20.7651C82.2879 16.7127 69.4663 2.67923 39.9722 9.54055C10.4782 16.3982 4.05515 28.4517 2.78272 35.4167Z" fill="#3F5864"/>
<path d="M2.78272 35.4167C2.78272 35.4167 -1.32069 51.3191 2.78272 62.2328C6.88614 73.1466 27.4032 78.757 27.4032 78.757C27.4032 78.757 54.3311 84.9929 66.9001 78.757C79.466 72.5211 93.0609 50.0719 92.2907 44.7724C91.5206 39.4728 89.4689 24.8175 85.8799 20.7651C82.2879 16.7127 69.4663 2.67923 39.9722 9.54055C10.4782 16.3982 4.05515 28.4517 2.78272 35.4167Z" fill="#3F5864"/>
<path d="M91.3926 22.7902C91.3926 22.7902 105.755 3.7717 129.605 5.48518C153.455 7.19866 161.79 16.7098 163.842 21.543C165.893 26.3763 171.15 41.0316 168.329 46.7975C165.507 52.567 158.454 65.5051 142.427 69.2466C126.396 72.9882 105.73 70.1089 98.187 60.5164C90.6438 50.9239 80.4918 39.0035 91.3896 22.7902H91.3926Z" fill="#2B3C45"/>
<path d="M91.3926 22.7902C91.3926 22.7902 105.755 3.7717 129.605 5.48518C153.455 7.19866 161.79 16.7098 163.842 21.543C165.893 26.3763 171.15 41.0316 168.329 46.7975C165.507 52.567 158.454 65.5051 142.427 69.2466C126.396 72.9882 105.73 70.1089 98.187 60.5164C90.6438 50.9239 80.4918 39.0035 91.3896 22.7902H91.3926Z" fill="#2B3C45"/>
<path d="M167.945 18.1119C167.945 18.1119 184.103 5.26639 207.825 5.37372C231.548 5.48474 235.396 5.48474 243.73 15.1476C252.065 24.8141 256.424 31.6718 258.348 41.4937C260.272 51.3157 263.992 63.3212 255.143 69.7125C246.293 76.1038 243.602 81.248 229.752 80.4708C215.901 79.6936 205.774 82.8097 196.282 82.3434C186.794 81.8771 166.916 81.718 161.787 75.4821C156.658 69.2462 153.58 50.3831 159.735 32.6118C159.735 32.6118 161.446 22.2458 167.942 18.1119H167.945Z" fill="#3F5864"/>
<path d="M167.945 18.1119C167.945 18.1119 184.103 5.26639 207.825 5.37372C231.548 5.48474 235.396 5.48474 243.73 15.1476C252.065 24.8141 256.424 31.6718 258.348 41.4937C260.272 51.3157 263.992 63.3212 255.143 69.7125C246.293 76.1038 243.602 81.248 229.752 80.4708C215.901 79.6936 205.774 82.8097 196.282 82.3434C186.794 81.8771 166.916 81.718 161.787 75.4821C156.658 69.2462 153.58 50.3831 159.735 32.6118C159.735 32.6118 161.446 22.2458 167.942 18.1119H167.945Z" fill="#3F5864"/>
<path d="M255.785 18.8929C255.785 18.8929 270.147 1.11789 287.331 0.185282C304.514 -0.751026 318.876 4.70769 324.776 17.9566C330.675 31.2093 326.7 32.6119 326.185 42.7447C325.671 52.8776 320.03 58.3363 315.157 65.0385C310.283 71.7407 298.101 75.0159 281.431 72.0552C264.762 69.0946 254.245 61.1415 251.426 54.7502C248.607 48.3589 242.978 30.4654 255.785 18.8929Z" fill="#2B3C45"/>
<path d="M255.785 18.8929C255.785 18.8929 270.147 1.11789 287.331 0.185282C304.514 -0.751026 318.876 4.70769 324.776 17.9566C330.675 31.2093 326.7 32.6119 326.185 42.7447C325.671 52.8776 320.03 58.3363 315.157 65.0385C310.283 71.7407 298.101 75.0159 281.431 72.0552C264.762 69.0946 254.245 61.1415 251.426 54.7502C248.607 48.3589 242.978 30.4654 255.785 18.8929Z" fill="#2B3C45"/>
<path d="M327.969 16.3985C327.969 16.3985 345.034 -0.906515 362.857 4.23763C380.68 9.38177 380.425 13.5933 385.043 15.3068C389.66 17.0203 390.172 24.6625 390.942 29.3366C391.712 34.0144 393.636 39.1586 386.839 47.7334C380.041 56.3082 376.58 65.9747 367.603 67.6882C358.626 69.4017 347.342 74.0795 335.287 68.9354C323.233 63.7912 316.307 54.7501 318.873 45.7053C321.44 36.6642 317.187 25.7505 327.966 16.3948L327.969 16.3985Z" fill="#3F5864"/>
<path d="M327.969 16.3985C327.969 16.3985 345.034 -0.906515 362.857 4.23763C380.68 9.38177 380.425 13.5933 385.043 15.3068C389.66 17.0203 390.172 24.6625 390.942 29.3366C391.712 34.0144 393.636 39.1586 386.839 47.7334C380.041 56.3082 376.58 65.9747 367.603 67.6882C358.626 69.4017 347.342 74.0795 335.287 68.9354C323.233 63.7912 316.307 54.7501 318.873 45.7053C321.44 36.6642 317.187 25.7505 327.966 16.3948L327.969 16.3985Z" fill="#3F5864"/>
<path d="M393.505 20.4511C393.505 20.4511 400.303 13.9043 412.613 12.0317C424.923 10.1591 427.873 7.35385 436.591 9.22646C445.312 11.0991 453.519 14.0597 457.492 19.3593C461.467 24.6589 462.621 39.9396 459.799 43.2111C456.977 46.4863 446.847 61.4525 442.36 65.0386C437.873 68.6246 419.663 77.1995 406.966 70.0273C394.272 62.8551 384.397 45.6944 386.961 37.2824C389.527 28.8704 387.228 24.6959 393.499 20.4511H393.505Z" fill="#2B3C45"/>
<path d="M393.505 20.4511C393.505 20.4511 400.303 13.9043 412.613 12.0317C424.923 10.1591 427.873 7.35385 436.591 9.22646C445.312 11.0991 453.519 14.0597 457.492 19.3593C461.467 24.6589 462.621 39.9396 459.799 43.2111C456.977 46.4863 446.847 61.4525 442.36 65.0386C437.873 68.6246 419.663 77.1995 406.966 70.0273C394.272 62.8551 384.397 45.6944 386.961 37.2824C389.527 28.8704 387.228 24.6959 393.499 20.4511H393.505Z" fill="#2B3C45"/>
<path d="M463.391 14.3704C463.391 14.3704 470.699 1.58773 488.909 2.20947C507.119 2.83491 514.172 10.4734 519.301 14.3704C524.43 18.2673 527.892 24.1923 528.15 30.5837C528.409 36.975 528.022 53.4992 525.971 61.1413C523.919 68.7798 519.56 81.5625 506.096 81.8771C492.632 82.1879 484.297 86.8658 467.114 81.8771C449.93 76.8883 442.749 76.7329 445.056 65.0383C447.364 53.3474 448.548 31.6088 453.391 26.065C458.234 20.5211 462.143 16.1394 463.394 14.3741L463.391 14.3704Z" fill="#3F5864"/>
<path d="M463.391 14.3704C463.391 14.3704 470.699 1.58773 488.909 2.20947C507.119 2.83491 514.172 10.4734 519.301 14.3704C524.43 18.2673 527.892 24.1923 528.15 30.5837C528.409 36.975 528.022 53.4992 525.971 61.1413C523.919 68.7798 519.56 81.5625 506.096 81.8771C492.632 82.1879 484.297 86.8658 467.114 81.8771C449.93 76.8883 442.749 76.7329 445.056 65.0383C447.364 53.3474 448.548 31.6088 453.391 26.065C458.234 20.5211 462.143 16.1394 463.394 14.3741L463.391 14.3704Z" fill="#3F5864"/>
<path d="M529.56 24.037C529.56 24.037 531.74 12.0316 543.795 7.82374C555.849 3.61591 566.235 2.2096 572.646 3.92678C579.057 5.64026 584.445 10.7881 588.162 16.554C591.879 22.3199 590.984 34.7953 590.214 38.5369C589.444 42.2784 588.29 48.8251 586.88 54.1284C585.471 59.428 585.855 64.1058 574.57 67.8474C563.286 71.5889 558.799 78.6057 544.82 72.2143C530.842 65.823 526.099 67.6919 526.611 56.6228C527.125 45.5536 524.175 34.7953 524.943 32.301C525.713 29.8066 529.56 24.037 529.56 24.037Z" fill="#2B3C45"/>
<path d="M529.56 24.037C529.56 24.037 531.74 12.0316 543.795 7.82374C555.849 3.61591 566.235 2.2096 572.646 3.92678C579.057 5.64026 584.445 10.7881 588.162 16.554C591.879 22.3199 590.984 34.7953 590.214 38.5369C589.444 42.2784 588.29 48.8251 586.88 54.1284C585.471 59.428 585.855 64.1058 574.57 67.8474C563.286 71.5889 558.799 78.6057 544.82 72.2143C530.842 65.823 526.099 67.6919 526.611 56.6228C527.125 45.5536 524.175 34.7953 524.943 32.301C525.713 29.8066 529.56 24.037 529.56 24.037Z" fill="#2B3C45"/>
<path d="M588.676 27.6238C588.676 27.6238 586.496 17.9572 595.346 14.3711C604.195 10.785 612.657 9.22699 618.94 13.4348C625.223 17.6427 628.429 17.0209 632.148 24.9703C635.868 32.9196 637.022 46.6386 637.022 50.6947C637.022 54.7508 638.818 60.0504 631.509 60.983C624.2 61.9193 604.453 61.6084 598.426 56.7751C592.399 51.9419 587.397 48.9072 587.014 43.1746C586.63 37.4421 587.27 30.5844 588.682 27.6201L588.676 27.6238Z" fill="#3F5864"/>
<path d="M588.676 27.6238C588.676 27.6238 586.496 17.9572 595.346 14.3711C604.195 10.785 612.657 9.22699 618.94 13.4348C625.223 17.6427 628.429 17.0209 632.148 24.9703C635.868 32.9196 637.022 46.6386 637.022 50.6947C637.022 54.7508 638.818 60.0504 631.509 60.983C624.2 61.9193 604.453 61.6084 598.426 56.7751C592.399 51.9419 587.397 48.9072 587.014 43.1746C586.63 37.4421 587.27 30.5844 588.682 27.6201L588.676 27.6238Z" fill="#3F5864"/>
</svg>
