<svg width="637" height="98" viewBox="0 0 637 98" fill="none" xmlns="http://www.w3.org/2000/svg">
<path d="M3.12615 52.4032C3.12615 52.4032 0.639143 30.2982 15.3755 22.3896C30.1119 14.4772 53.2682 4.70705 71.6392 13.3152C90.0102 21.9233 88.2872 24.2511 89.0543 26.8084C89.8214 29.3656 95.5626 21.9233 95.5626 21.9233C95.5626 21.9233 109.724 8.66323 123.504 8.19692C137.282 7.73062 150.106 6.56856 163.5 21.457C163.5 21.457 164.554 23.7256 166.611 21.7493C168.669 19.7731 189.241 6.22438 211.728 7.96747C234.214 9.71056 235.17 6.22068 251.821 27.0452C251.821 27.0452 266.271 5.75808 279.473 4.71075C292.679 3.66342 300.715 -2.50215 312.009 7.03857C323.299 16.5793 325.308 22.2785 325.308 22.2785C325.308 22.2785 335.737 8.20062 346.169 7.38644C356.598 6.57226 364.732 3.66342 374.111 11.1095C383.49 18.5555 383.584 15.7614 386.36 19.6029C389.136 23.4406 389.806 25.6537 389.806 25.6537C389.806 25.6537 398.132 15.4172 414.207 13.9036C430.283 12.39 435.927 9.83269 442.913 12.9747C449.899 16.1167 456.98 21.2349 457.841 22.6301C457.841 22.6301 463.774 11.461 472.194 8.43748C480.614 5.4139 495.636 0.991423 507.788 9.13693C519.94 17.2787 516.878 16.4646 519.94 19.6066C523.003 22.7486 526.257 29.262 526.257 29.262C526.257 29.262 532.092 15.7688 537.355 13.441C542.619 11.1132 544.342 5.76178 560.128 6.46124C575.918 7.16069 578.788 7.27542 587.781 21.7012C587.781 21.7012 592.277 14.2552 598.593 14.2552C604.91 14.2552 607.874 10.6506 616.008 15.4172C624.142 20.1839 627.968 21.568 630.361 27.1007C632.754 32.6334 635.049 40.8937 635.624 56.0189C636.2 71.1405 634.763 75.563 633.901 78.2387C633.04 80.9144 633.901 97.3164 633.901 97.3164H6.95256L6.18849 69.3974C6.18849 69.3974 2.19467 65.9594 3.12615 52.4143V52.4032Z" fill="#537384"/>
<path d="M3.12615 52.4032C3.12615 52.4032 0.639143 30.2982 15.3755 22.3896C30.1119 14.4772 53.2682 4.70705 71.6392 13.3152C90.0102 21.9233 88.2872 24.2511 89.0543 26.8084C89.8214 29.3656 95.5626 21.9233 95.5626 21.9233C95.5626 21.9233 109.724 8.66323 123.504 8.19692C137.282 7.73062 150.106 6.56856 163.5 21.457C163.5 21.457 164.554 23.7256 166.611 21.7493C168.669 19.7731 189.241 6.22438 211.728 7.96747C234.214 9.71056 235.17 6.22068 251.821 27.0452C251.821 27.0452 266.271 5.75808 279.473 4.71075C292.679 3.66342 300.715 -2.50215 312.009 7.03857C323.299 16.5793 325.308 22.2785 325.308 22.2785C325.308 22.2785 335.737 8.20062 346.169 7.38644C356.598 6.57226 364.732 3.66342 374.111 11.1095C383.49 18.5555 383.584 15.7614 386.36 19.6029C389.136 23.4406 389.806 25.6537 389.806 25.6537C389.806 25.6537 398.132 15.4172 414.207 13.9036C430.283 12.39 435.927 9.83269 442.913 12.9747C449.899 16.1167 456.98 21.2349 457.841 22.6301C457.841 22.6301 463.774 11.461 472.194 8.43748C480.614 5.4139 495.636 0.991423 507.788 9.13693C519.94 17.2787 516.878 16.4646 519.94 19.6066C523.003 22.7486 526.257 29.262 526.257 29.262C526.257 29.262 532.092 15.7688 537.355 13.441C542.619 11.1132 544.342 5.76178 560.128 6.46124C575.918 7.16069 578.788 7.27542 587.781 21.7012C587.781 21.7012 592.277 14.2552 598.593 14.2552C604.91 14.2552 607.874 10.6506 616.008 15.4172C624.142 20.1839 627.968 21.568 630.361 27.1007C632.754 32.6334 635.049 40.8937 635.624 56.0189C636.2 71.1405 634.763 75.563 633.901 78.2387C633.04 80.9144 633.901 97.3164 633.901 97.3164H6.95256L6.18849 69.3974C6.18849 69.3974 2.19467 65.9594 3.12615 52.4143V52.4032Z" fill="#537384"/>
<path d="M1.82276 35.736C1.82276 35.736 -2.28065 51.6385 1.82276 62.5522C5.92618 73.4659 26.4433 79.0763 26.4433 79.0763C26.4433 79.0763 53.3711 85.3122 65.9401 79.0763C78.5061 72.8405 92.1009 50.3913 91.3308 45.0917C90.5606 39.7921 88.5089 25.1369 84.9199 21.0845C81.3279 17.0321 68.5063 2.99856 39.0122 9.85989C9.51819 16.7175 3.09519 28.7711 1.82276 35.736Z" fill="#3F5864"/>
<path d="M1.82276 35.736C1.82276 35.736 -2.28065 51.6385 1.82276 62.5522C5.92618 73.4659 26.4433 79.0763 26.4433 79.0763C26.4433 79.0763 53.3711 85.3122 65.9401 79.0763C78.5061 72.8405 92.1009 50.3913 91.3308 45.0917C90.5606 39.7921 88.5089 25.1369 84.9199 21.0845C81.3279 17.0321 68.5063 2.99856 39.0122 9.85989C9.51819 16.7175 3.09519 28.7711 1.82276 35.736Z" fill="#3F5864"/>
<path d="M90.4327 23.1086C90.4327 23.1086 104.795 4.09005 128.645 5.80354C152.495 7.51702 160.83 17.0281 162.882 21.8614C164.933 26.6947 170.19 41.3499 167.369 47.1158C164.547 52.8854 157.494 65.8235 141.467 69.565C125.436 73.3065 104.77 70.4273 97.227 60.8348C89.6838 51.2422 79.5318 39.3219 90.4296 23.1086H90.4327Z" fill="#2B3C45"/>
<path d="M90.4327 23.1086C90.4327 23.1086 104.795 4.09005 128.645 5.80354C152.495 7.51702 160.83 17.0281 162.882 21.8614C164.933 26.6947 170.19 41.3499 167.369 47.1158C164.547 52.8854 157.494 65.8235 141.467 69.565C125.436 73.3065 104.77 70.4273 97.227 60.8348C89.6838 51.2422 79.5318 39.3219 90.4296 23.1086H90.4327Z" fill="#2B3C45"/>
<path d="M166.985 18.4293C166.985 18.4293 183.143 5.58377 206.865 5.6911C230.587 5.80212 234.435 5.80212 242.77 15.465C251.105 25.1315 255.464 31.9891 257.388 41.8111C259.311 51.6331 263.031 63.6386 254.182 70.0299C245.333 76.4212 242.642 81.5653 228.791 80.7882C214.941 80.011 204.813 83.1271 195.322 82.6608C185.833 82.1945 165.956 82.0353 160.826 75.7995C155.697 69.5636 152.62 50.7005 158.775 32.9291C158.775 32.9291 160.485 22.5631 166.982 18.4293H166.985Z" fill="#3F5864"/>
<path d="M166.985 18.4293C166.985 18.4293 183.143 5.58377 206.865 5.6911C230.587 5.80212 234.435 5.80212 242.77 15.465C251.105 25.1315 255.464 31.9891 257.388 41.8111C259.311 51.6331 263.031 63.6386 254.182 70.0299C245.333 76.4212 242.642 81.5653 228.791 80.7882C214.941 80.011 204.813 83.1271 195.322 82.6608C185.833 82.1945 165.956 82.0353 160.826 75.7995C155.697 69.5636 152.62 50.7005 158.775 32.9291C158.775 32.9291 160.485 22.5631 166.982 18.4293H166.985Z" fill="#3F5864"/>
<path d="M254.825 19.2113C254.825 19.2113 269.187 1.43625 286.371 0.503641C303.554 -0.432666 317.916 5.02605 323.816 18.275C329.715 31.5276 325.74 32.9302 325.225 43.0631C324.711 53.1959 319.07 58.6546 314.197 65.3568C309.323 72.059 297.141 75.3342 280.471 72.3736C263.802 69.4129 253.285 61.4599 250.466 55.0685C247.647 48.6772 242.018 30.7838 254.825 19.2113Z" fill="#2B3C45"/>
<path d="M254.825 19.2113C254.825 19.2113 269.187 1.43625 286.371 0.503641C303.554 -0.432666 317.916 5.02605 323.816 18.275C329.715 31.5276 325.74 32.9302 325.225 43.0631C324.711 53.1959 319.07 58.6546 314.197 65.3568C309.323 72.059 297.141 75.3342 280.471 72.3736C263.802 69.4129 253.285 61.4599 250.466 55.0685C247.647 48.6772 242.018 30.7838 254.825 19.2113Z" fill="#2B3C45"/>
<path d="M327.009 16.7169C327.009 16.7169 344.074 -0.588155 361.897 4.55599C379.72 9.70013 379.465 13.9117 384.083 15.6251C388.7 17.3386 389.212 24.9808 389.982 29.655C390.752 34.3328 392.676 39.4769 385.879 48.0517C379.081 56.6265 375.62 66.2931 366.643 68.0066C357.666 69.72 346.382 74.3979 334.327 69.2537C322.273 64.1096 315.347 55.0685 317.913 46.0237C320.48 36.9826 316.227 26.0689 327.006 16.7132L327.009 16.7169Z" fill="#3F5864"/>
<path d="M327.009 16.7169C327.009 16.7169 344.074 -0.588155 361.897 4.55599C379.72 9.70013 379.465 13.9117 384.083 15.6251C388.7 17.3386 389.212 24.9808 389.982 29.655C390.752 34.3328 392.676 39.4769 385.879 48.0517C379.081 56.6265 375.62 66.2931 366.643 68.0066C357.666 69.72 346.382 74.3979 334.327 69.2537C322.273 64.1096 315.347 55.0685 317.913 46.0237C320.48 36.9826 316.227 26.0689 327.006 16.7132L327.009 16.7169Z" fill="#3F5864"/>
<path d="M392.545 20.7694C392.545 20.7694 399.343 14.2227 411.653 12.35C423.963 10.4774 426.913 7.6722 435.631 9.54482C444.352 11.4174 452.559 14.3781 456.532 19.6777C460.507 24.9772 461.661 40.2579 458.839 43.5295C456.017 46.8047 445.887 61.7708 441.4 65.3569C436.913 68.943 418.703 77.5178 406.006 70.3456C393.312 63.1734 383.437 46.0127 386.001 37.6007C388.567 29.1888 386.268 25.0143 392.539 20.7694H392.545Z" fill="#2B3C45"/>
<path d="M392.545 20.7694C392.545 20.7694 399.343 14.2227 411.653 12.35C423.963 10.4774 426.913 7.6722 435.631 9.54482C444.352 11.4174 452.559 14.3781 456.532 19.6777C460.507 24.9772 461.661 40.2579 458.839 43.5295C456.017 46.8047 445.887 61.7708 441.4 65.3569C436.913 68.943 418.703 77.5178 406.006 70.3456C393.312 63.1734 383.437 46.0127 386.001 37.6007C388.567 29.1888 386.268 25.0143 392.539 20.7694H392.545Z" fill="#2B3C45"/>
<path d="M462.431 14.6887C462.431 14.6887 469.739 1.90609 487.949 2.52783C506.159 3.15327 513.212 10.7918 518.341 14.6887C523.47 18.5857 526.932 24.5107 527.19 30.902C527.449 37.2933 527.062 53.8175 525.011 61.4597C522.959 69.0982 518.6 81.8808 505.136 82.1954C491.672 82.5063 483.337 87.1841 466.154 82.1954C448.97 77.2067 441.789 77.0513 444.096 65.3567C446.404 53.6658 447.588 31.9272 452.431 26.3833C457.274 20.8395 461.183 16.4577 462.434 14.6924L462.431 14.6887Z" fill="#3F5864"/>
<path d="M462.431 14.6887C462.431 14.6887 469.739 1.90609 487.949 2.52783C506.159 3.15327 513.212 10.7918 518.341 14.6887C523.47 18.5857 526.932 24.5107 527.19 30.902C527.449 37.2933 527.062 53.8175 525.011 61.4597C522.959 69.0982 518.6 81.8808 505.136 82.1954C491.672 82.5063 483.337 87.1841 466.154 82.1954C448.97 77.2067 441.789 77.0513 444.096 65.3567C446.404 53.6658 447.588 31.9272 452.431 26.3833C457.274 20.8395 461.183 16.4577 462.434 14.6924L462.431 14.6887Z" fill="#3F5864"/>
<path d="M528.6 24.3554C528.6 24.3554 530.78 12.3499 542.834 8.1421C554.889 3.93427 565.275 2.52796 571.686 4.24514C578.097 5.95862 583.485 11.1065 587.202 16.8723C590.918 22.6382 590.023 35.1137 589.253 38.8552C588.483 42.5968 587.329 49.1435 585.92 54.4468C584.511 59.7464 584.894 64.4242 573.61 68.1657C562.325 71.9073 557.838 78.924 543.86 72.5327C529.882 66.1414 525.139 68.0103 525.65 56.9411C526.165 45.872 523.215 35.1137 523.982 32.6193C524.752 30.125 528.6 24.3554 528.6 24.3554Z" fill="#2B3C45"/>
<path d="M528.6 24.3554C528.6 24.3554 530.78 12.3499 542.834 8.1421C554.889 3.93427 565.275 2.52796 571.686 4.24514C578.097 5.95862 583.485 11.1065 587.202 16.8723C590.918 22.6382 590.023 35.1137 589.253 38.8552C588.483 42.5968 587.329 49.1435 585.92 54.4468C584.511 59.7464 584.894 64.4242 573.61 68.1657C562.325 71.9073 557.838 78.924 543.86 72.5327C529.882 66.1414 525.139 68.0103 525.65 56.9411C526.165 45.872 523.215 35.1137 523.982 32.6193C524.752 30.125 528.6 24.3554 528.6 24.3554Z" fill="#2B3C45"/>
<path d="M587.716 27.9421C587.716 27.9421 585.536 18.2756 594.386 14.6895C603.235 11.1034 611.697 9.54535 617.98 13.7532C624.263 17.961 627.469 17.3393 631.188 25.2886C634.908 33.238 636.062 46.9569 636.062 51.013C636.062 55.0691 637.858 60.3687 630.549 61.3013C623.24 62.2376 603.493 61.9268 597.466 57.0935C591.439 52.2602 586.437 49.2256 586.054 43.493C585.67 37.7604 586.31 30.9028 587.722 27.9384L587.716 27.9421Z" fill="#3F5864"/>
<path d="M587.716 27.9421C587.716 27.9421 585.536 18.2756 594.386 14.6895C603.235 11.1034 611.697 9.54535 617.98 13.7532C624.263 17.961 627.469 17.3393 631.188 25.2886C634.908 33.238 636.062 46.9569 636.062 51.013C636.062 55.0691 637.858 60.3687 630.549 61.3013C623.24 62.2376 603.493 61.9268 597.466 57.0935C591.439 52.2602 586.437 49.2256 586.054 43.493C585.67 37.7604 586.31 30.9028 587.722 27.9384L587.716 27.9421Z" fill="#3F5864"/>
</svg>
