<svg width="129" height="124" viewBox="0 0 129 124" fill="none" xmlns="http://www.w3.org/2000/svg">
<g clip-path="url(#clip0_428_1778)">
<path d="M48.7346 19.4673C48.7346 19.4673 34.2601 21.2319 24.109 29.576C13.9579 37.92 13.5605 38.4476 8.00023 46.0412C2.43996 53.6348 1.64511 60.5188 1.02854 68.9037C0.411972 77.2887 1.73425 79.2316 3.14567 85.2352C4.5571 91.2388 6.49966 96.3581 8.44222 98.4757C10.3848 100.593 10.7376 101.478 11.1796 102.362C11.6216 103.246 13.2113 105.453 15.6813 107.392C18.1513 109.331 25.8324 115.513 29.0081 116.925C32.1838 118.337 40.0395 120.722 50.1906 122.839C60.3417 124.957 76.0494 123.37 87.6119 121.427C99.1744 119.484 107.205 112.69 111.796 108.362C116.386 104.033 123.622 95.7377 125.828 86.3794C128.034 77.0212 128.829 69.0784 127.418 62.1014C126.006 55.1245 120.535 44.1799 116.033 39.2389C111.532 34.2941 105.708 29.706 103.591 28.2906C101.474 26.8751 97.2356 23.8771 89.1162 21.3174C80.9968 18.7577 76.0531 18.141 69.5234 17.9627C62.9937 17.7843 50.8629 19.1143 48.7383 19.4635L48.7346 19.4673Z" fill="#E7EDF0"/>
<path d="M34.9353 46.0306C34.8016 46.6027 34.6716 47.3049 34.8165 47.8881C34.9613 48.4714 35.5853 48.7835 36.1313 48.4937C36.5993 48.2448 36.8259 47.6541 37.0785 47.2194C37.409 46.6436 37.7433 46.064 38.0739 45.4882L36.7145 45.3099C37.0116 46.3204 37.3905 47.3011 37.8325 48.2596C38.1296 48.8986 38.9876 48.6163 39.1919 48.0813C39.5745 47.0671 39.9236 46.0417 40.2356 45.0015H38.8019C39.2439 46.2683 39.7936 47.4906 40.4585 48.6571C40.8559 49.3556 41.7585 48.9655 41.8439 48.2819L42.2785 44.6894L40.8187 44.8863C41.1085 45.8671 41.5096 46.8107 42.0222 47.6987C42.3267 48.2225 43.2516 48.163 43.3816 47.5203L44.0799 44.043H42.6462C42.9136 45.1427 43.3222 46.2015 43.8496 47.2008C44.1244 47.7172 44.8413 47.6429 45.131 47.2008C45.6696 46.3798 46.0744 45.4845 46.3419 44.5408H44.9082C45.2276 45.4362 45.4802 46.3501 45.6621 47.2826C45.7327 47.6392 46.1376 47.8658 46.4756 47.8138C46.8656 47.7544 47.081 47.4609 47.1181 47.0857C47.1961 46.3575 47.2704 45.6331 47.3484 44.9049C47.3893 44.5037 46.977 44.1619 46.6056 44.1619C46.1673 44.1619 45.9036 44.5037 45.8627 44.9049C45.7847 45.6331 45.7104 46.3575 45.6324 47.0857L47.0921 46.8888C46.9064 45.9563 46.6576 45.0424 46.3381 44.147C46.1004 43.4783 45.1162 43.404 44.9044 44.147C44.6704 44.9755 44.3176 45.7334 43.8459 46.4541H45.1273C44.6556 45.5625 44.3102 44.6337 44.0724 43.6529C43.9053 42.9619 42.7836 42.9285 42.6387 43.6529L41.9405 47.1302L43.2999 46.9519C42.8505 46.1718 42.5013 45.3582 42.2487 44.4925C41.9962 43.6269 40.8856 43.8944 40.789 44.6894L40.3545 48.2819L41.7399 47.9067C41.1382 46.8516 40.633 45.7557 40.2319 44.6077C39.9942 43.9279 39.0173 43.8796 38.7982 44.6077C38.4862 45.6479 38.1408 46.6733 37.7545 47.6875L39.1139 47.5092C38.7239 46.6696 38.4082 45.804 38.1445 44.9161C37.9662 44.3105 37.1119 44.1768 36.785 44.7377C36.5288 45.1835 36.2725 45.6294 36.0162 46.0752C35.8936 46.2869 35.7748 46.495 35.6522 46.7067C35.5928 46.8107 35.5296 46.9185 35.4702 47.0225C35.4405 47.0745 35.4108 47.1265 35.3811 47.1785C35.2993 47.2974 35.3291 47.29 35.4628 47.1525L36.0348 47.2268L35.953 47.186L36.2205 47.4535C36.1499 47.3271 36.3133 46.625 36.3579 46.4281C36.5733 45.4993 35.1433 45.1018 34.9242 46.0343L34.9353 46.0306Z" fill="#698EA1"/>
<path d="M75.2462 43.051C75.1385 44.0392 75.2351 45.0311 75.5099 45.9859C75.6845 46.584 76.5536 46.7363 76.8693 46.1642C77.3708 45.254 77.8722 44.3438 78.3736 43.4336L76.9882 43.0584C77.0142 43.7494 76.9771 44.433 76.8508 45.1128C76.7245 45.7927 77.5639 46.4503 78.0913 45.8373C78.6596 45.176 79.2279 44.5147 79.7925 43.8497L78.5259 43.3259C78.4888 44.2138 78.4479 45.1017 78.4108 45.9859C78.381 46.7029 79.4693 47.0224 79.7962 46.3611C80.3756 45.1871 80.955 44.0132 81.5345 42.8392L80.149 42.464C80.1973 43.6937 80.2419 44.9234 80.2902 46.1531C80.3162 46.8812 81.2893 47.1747 81.6756 46.5283C82.1919 45.6589 82.7119 44.7896 83.2282 43.9203L81.8428 43.5451C81.9282 44.2955 81.9133 45.0385 81.7647 45.7815C81.6087 46.558 82.7193 47.1487 83.1242 46.3537C83.6107 45.3877 84.2756 44.5816 85.1225 43.9129L83.8559 43.389C83.8819 44.407 83.9116 45.4249 83.9376 46.4428C83.9599 47.2081 84.9107 47.4162 85.323 46.8181C86.0027 45.8224 86.7827 44.9122 87.6444 44.0689L86.4039 43.742C86.5376 44.5593 86.5227 45.4026 86.3667 46.2199C86.2256 46.9667 87.0279 47.431 87.6073 46.9444C88.1867 46.4577 88.625 45.789 88.8924 45.046C89.2193 44.1469 87.7819 43.7568 87.4587 44.6522C87.2767 45.1537 86.961 45.5512 86.5562 45.893L87.7967 46.6174C88.001 45.5215 88.0122 44.4516 87.8339 43.3519C87.741 42.7761 86.9573 42.6683 86.5933 43.025C85.6387 43.9537 84.7882 44.9754 84.0379 46.075L85.4233 46.4503C85.3973 45.4323 85.3676 44.4144 85.3416 43.3965C85.323 42.7018 84.5653 42.4826 84.075 42.8726C83.1427 43.6119 82.3813 44.5519 81.8465 45.6144L83.2059 46.1865C83.3805 45.3134 83.4362 44.4404 83.3396 43.5562C83.2616 42.8615 82.3628 42.4974 81.9542 43.181C81.4379 44.0503 80.9179 44.9197 80.4016 45.789L81.787 46.1642C81.7388 44.9345 81.6942 43.7048 81.6459 42.4751C81.6199 41.7841 80.6059 41.4015 80.2605 42.0999C79.681 43.2739 79.1016 44.4478 78.5222 45.6218L79.9076 45.997C79.9448 45.1091 79.9856 44.2212 80.0228 43.337C80.0488 42.7203 79.1722 42.3228 78.7562 42.8132C78.1879 43.4745 77.6196 44.1358 77.0551 44.8008L78.2956 45.5252C78.4442 44.7153 78.5148 43.898 78.4851 43.0733C78.4591 42.3637 77.4711 42.0293 77.0996 42.698C76.5982 43.6082 76.0968 44.5184 75.5953 45.4286L76.9548 45.6069C76.7096 44.7673 76.6465 43.9389 76.7431 43.0695C76.7876 42.6683 76.3716 42.3265 76.0002 42.3265C75.5619 42.3265 75.3019 42.6683 75.2574 43.0695L75.2462 43.051Z" fill="#698EA1"/>
<path d="M38.8652 82.684C39.8458 78.1477 35.1209 73.2766 28.3119 71.8042C21.5029 70.3317 15.1882 72.8154 14.2076 77.3517C13.227 81.888 17.9519 86.7591 24.7609 88.2316C31.5699 89.7041 37.8846 87.2203 38.8652 82.684Z" fill="#F9FAFB"/>
<path d="M19.6155 80.2672C21.0842 80.2672 22.2749 79.0763 22.2749 77.6073C22.2749 76.1382 21.0842 74.9473 19.6155 74.9473C18.1467 74.9473 16.9561 76.1382 16.9561 77.6073C16.9561 79.0763 18.1467 80.2672 19.6155 80.2672Z" fill="#E7EDF0"/>
<path d="M25.7068 84.9899C27.1755 84.9899 28.3662 83.799 28.3662 82.3299C28.3662 80.8608 27.1755 79.6699 25.7068 79.6699C24.238 79.6699 23.0474 80.8608 23.0474 82.3299C23.0474 83.799 24.238 84.9899 25.7068 84.9899Z" fill="#E7EDF0"/>
<path d="M32.8567 82.0319C34.3254 82.0319 35.5161 80.841 35.5161 79.3719C35.5161 77.9028 34.3254 76.7119 32.8567 76.7119C31.3879 76.7119 30.1973 77.9028 30.1973 79.3719C30.1973 80.841 31.3879 82.0319 32.8567 82.0319Z" fill="#E7EDF0"/>
<path d="M104.155 87.332C110.98 85.8636 115.721 80.995 114.746 76.4577C113.77 71.9204 107.446 69.4325 100.622 70.9009C93.7971 72.3692 89.0557 77.2378 90.0315 81.7751C91.0074 86.3125 97.3308 88.8004 104.155 87.332Z" fill="#F9FAFB"/>
<path d="M109.317 79.3688C110.788 79.3688 111.98 78.1779 111.98 76.7088C111.98 75.2397 110.788 74.0488 109.317 74.0488C107.846 74.0488 106.654 75.2397 106.654 76.7088C106.654 78.1779 107.846 79.3688 109.317 79.3688Z" fill="#E7EDF0"/>
<path d="M103.215 84.0944C104.686 84.0944 105.879 82.9035 105.879 81.4344C105.879 79.9653 104.686 78.7744 103.215 78.7744C101.745 78.7744 100.552 79.9653 100.552 81.4344C100.552 82.9035 101.745 84.0944 103.215 84.0944Z" fill="#E7EDF0"/>
<path d="M96.0503 81.1335C97.5211 81.1335 98.7135 79.9425 98.7135 78.4735C98.7135 77.0044 97.5211 75.8135 96.0503 75.8135C94.5795 75.8135 93.3872 77.0044 93.3872 78.4735C93.3872 79.9425 94.5795 81.1335 96.0503 81.1335Z" fill="#E7EDF0"/>
<path d="M58.0162 80.8593C57.9271 81.684 58.1536 82.5125 58.6031 83.2109C59.2011 84.1323 60.3599 85.3545 62.4659 85.8078C66.0242 86.5694 68.821 85.0127 69.913 83.4227C71.005 81.8326 71.3542 80.1126 70.5927 78.7566C69.8313 77.4006 68.873 78.3776 68.7727 78.7566C68.6725 79.1355 67.7625 81.1899 66.1579 81.7212C64.5533 82.2524 62.5662 82.2673 61.1288 80.6624C59.6876 79.0575 58.6959 79.5367 58.3319 80.0011C58.1499 80.2314 58.0534 80.5175 58.0162 80.863V80.8593Z" fill="#698EA1"/>
<path d="M43.4004 78.9498C50.7668 78.9498 56.7384 73.2214 56.7384 66.1551C56.7384 59.0887 50.7668 53.3604 43.4004 53.3604C36.0341 53.3604 30.0625 59.0887 30.0625 66.1551C30.0625 73.2214 36.0341 78.9498 43.4004 78.9498Z" fill="white"/>
<path d="M47.2076 73.8519C51.1564 73.8519 54.3576 70.65 54.3576 66.7003C54.3576 62.7507 51.1564 59.5488 47.2076 59.5488C43.2588 59.5488 40.0576 62.7507 40.0576 66.7003C40.0576 70.65 43.2588 73.8519 47.2076 73.8519Z" fill="#698EA1"/>
<path d="M43.5343 68.5959C44.7958 68.5959 45.8186 67.573 45.8186 66.3111C45.8186 65.0493 44.7958 64.0264 43.5343 64.0264C42.2727 64.0264 41.25 65.0493 41.25 66.3111C41.25 67.573 42.2727 68.5959 43.5343 68.5959Z" fill="white"/>
<path d="M88.5243 77.9604C95.691 76.2566 100.176 69.3023 98.5427 62.4275C96.9091 55.5527 89.775 51.3607 82.6083 53.0645C75.4416 54.7683 70.9562 61.7225 72.5898 68.5974C74.2235 75.4722 81.3576 79.6641 88.5243 77.9604Z" fill="white"/>
<path d="M81.7398 73.0052C85.6886 73.0052 88.8898 69.8033 88.8898 65.8537C88.8898 61.904 85.6886 58.7021 81.7398 58.7021C77.791 58.7021 74.5898 61.904 74.5898 65.8537C74.5898 69.8033 77.791 73.0052 81.7398 73.0052Z" fill="#698EA1"/>
<path d="M85.402 67.6701C86.6635 67.6701 87.6862 66.6472 87.6862 65.3854C87.6862 64.1235 86.6635 63.1006 85.402 63.1006C84.1404 63.1006 83.1177 64.1235 83.1177 65.3854C83.1177 66.6472 84.1404 67.6701 85.402 67.6701Z" fill="white"/>
<path d="M29.8954 6.61683C29.8954 6.61683 29.4089 11.2087 34.1743 16.1943C38.9397 21.1799 42.9994 23.4758 50.9442 24.2709C58.889 25.0659 59.1973 22.8146 61.6673 24.0925C64.1373 25.3705 63.829 25.3297 64.1373 23.8733C64.4456 22.417 65.9907 12.8396 60.6496 7.09979C55.3122 1.36372 44.9865 -1.77181 38.3231 1.05537C38.3231 1.05537 36.8226 1.67207 35.8086 2.37793C34.7946 3.0838 33.424 3.78966 32.0126 3.74508C30.6012 3.7005 29.5612 3.7748 29.8954 6.61311V6.61683Z" fill="#A7BDC8"/>
<path d="M37.3985 8.79044C37.3985 8.79044 40.4888 9.9161 44.2402 10.4882C47.9916 11.0603 52.7124 13.1817 56.7721 16.4472C60.8318 19.7128 59.907 20.6415 61.7158 20.3332C63.5247 20.0248 62.1578 18.6577 60.3936 17.1122C58.6293 15.5667 52.3187 10.7557 47.0668 9.78608C41.8148 8.81644 40.1396 9.08021 38.2416 8.11058C36.3437 7.14094 36.7782 8.24061 36.7782 8.24061C36.7782 8.24061 36.8079 8.43751 37.4022 8.79415L37.3985 8.79044Z" fill="#88A6B4"/>
</g>
<defs>
<clipPath id="clip0_428_1778">
<rect width="127.251" height="123.849" fill="white" transform="translate(0.871094)"/>
</clipPath>
</defs>
</svg>
