<svg width="129" height="125" viewBox="0 0 129 125" fill="none" xmlns="http://www.w3.org/2000/svg">
<g clip-path="url(#clip0_261_202)">
<path d="M48.7337 20.3657C48.7337 20.3657 34.2591 22.1304 24.108 30.4744C13.9569 38.8185 13.5595 39.346 7.99925 46.9396C2.43899 54.5332 1.64413 61.4173 1.02756 69.8022C0.410995 78.1871 1.73328 80.1301 3.1447 86.1336C4.55612 92.1372 6.49868 97.2566 8.44125 99.3742C10.3838 101.492 10.7367 102.376 11.1787 103.26C11.6207 104.144 13.2104 106.351 15.6804 108.29C18.1503 110.23 25.8315 116.411 29.0072 117.823C32.1829 119.235 40.0385 121.62 50.1896 123.738C60.3407 125.855 76.0484 124.269 87.6109 122.326C99.1734 120.383 107.204 113.588 111.795 109.26C116.385 104.932 123.621 96.6362 125.827 87.2779C128.033 77.9196 128.828 69.9768 127.417 62.9999C126.005 56.023 120.534 45.0784 116.032 40.1373C111.531 35.1926 105.707 30.6044 103.59 29.189C101.473 27.7736 97.2346 24.7755 89.1152 22.2158C80.9958 19.6561 76.0521 19.0394 69.5224 18.8611C62.9927 18.6828 50.8619 20.0128 48.7374 20.362L48.7337 20.3657Z" fill="#FF6600"/>
<path d="M34.9353 46.928C34.8016 47.5002 34.6716 48.2023 34.8165 48.7856C34.9613 49.3688 35.5853 49.6809 36.1313 49.3911C36.5993 49.1422 36.8259 48.5515 37.0785 48.1169C37.409 47.541 37.7433 46.9615 38.0739 46.3856L36.7145 46.2073C37.0116 47.2178 37.3905 48.1986 37.8325 49.1571C38.1296 49.7961 38.9876 49.5137 39.1919 48.9788C39.5745 47.9645 39.9236 46.9392 40.2356 45.899H38.8019C39.2439 47.1658 39.7936 48.3881 40.4585 49.5546C40.8559 50.253 41.7585 49.863 41.8439 49.1794L42.2785 45.5869L40.8187 45.7838C41.1085 46.7646 41.5096 47.7082 42.0222 48.5961C42.3267 49.1199 43.2516 49.0605 43.3816 48.4178L44.0799 44.9405H42.6462C42.9136 46.0401 43.3222 47.0989 43.8496 48.0983C44.1244 48.6147 44.8413 48.5404 45.131 48.0983C45.6696 47.2773 46.0744 46.3819 46.3419 45.4383H44.9082C45.2276 46.3336 45.4802 47.2475 45.6622 48.18C45.7327 48.5367 46.1376 48.7633 46.4756 48.7113C46.8656 48.6518 47.081 48.3583 47.1181 47.9831C47.1961 47.255 47.2704 46.5305 47.3484 45.8024C47.3893 45.4011 46.977 45.0594 46.6056 45.0594C46.1673 45.0594 45.9036 45.4011 45.8627 45.8024C45.7847 46.5305 45.7104 47.255 45.6324 47.9831L47.0921 47.7862C46.9064 46.8537 46.6576 45.9398 46.3382 45.0445C46.1004 44.3758 45.1162 44.3015 44.9044 45.0445C44.6704 45.873 44.3176 46.6308 43.8459 47.3516H45.1273C44.6556 46.4599 44.3102 45.5312 44.0724 44.5504C43.9053 43.8594 42.7836 43.826 42.6387 44.5504L41.9405 48.0277L43.2999 47.8494C42.8505 47.0692 42.5013 46.2556 42.2487 45.39C41.9962 44.5244 40.8856 44.7919 40.789 45.5869L40.3545 49.1794L41.7399 48.8042C41.1382 47.7491 40.633 46.6531 40.2319 45.5052C39.9942 44.8253 39.0173 44.777 38.7982 45.5052C38.4862 46.5454 38.1408 47.5708 37.7545 48.585L39.1139 48.4066C38.7239 47.567 38.4082 46.7014 38.1445 45.8135C37.9662 45.208 37.1119 45.0742 36.785 45.6352C36.5288 46.081 36.2725 46.5268 36.0162 46.9726C35.8936 47.1844 35.7748 47.3924 35.6522 47.6042C35.5928 47.7082 35.5296 47.8159 35.4702 47.92C35.4405 47.972 35.4108 48.024 35.3811 48.076C35.2993 48.1949 35.3291 48.1875 35.4628 48.05L36.0348 48.1243L35.953 48.0834L36.2205 48.3509C36.1499 48.2246 36.3133 47.5225 36.3579 47.3256C36.5733 46.3968 35.1433 45.9993 34.9242 46.9318L34.9353 46.928Z" fill="#331400"/>
<path d="M75.2462 43.9484C75.1385 44.9366 75.2351 45.9286 75.5099 46.8833C75.6845 47.4815 76.5536 47.6338 76.8693 47.0617C77.3708 46.1515 77.8722 45.2413 78.3736 44.3311L76.9882 43.9559C77.0142 44.6469 76.9771 45.3304 76.8508 46.0103C76.7245 46.6902 77.5639 47.3477 78.0913 46.7347C78.6596 46.0735 79.2279 45.4122 79.7925 44.7472L78.5259 44.2233C78.4888 45.1112 78.4479 45.9991 78.4108 46.8833C78.3811 47.6003 79.4693 47.9198 79.7962 47.2586C80.3756 46.0846 80.955 44.9106 81.5345 43.7367L80.149 43.3614C80.1973 44.5911 80.2419 45.8208 80.2902 47.0505C80.3162 47.7787 81.2893 48.0722 81.6756 47.4257C82.1919 46.5564 82.7119 45.6871 83.2282 44.8178L81.8428 44.4425C81.9282 45.193 81.9133 45.936 81.7648 46.679C81.6088 47.4555 82.7193 48.0462 83.1242 47.2511C83.6107 46.2852 84.2756 45.479 85.1225 44.8103L83.8559 44.2865C83.8819 45.3044 83.9116 46.3224 83.9376 47.3403C83.9599 48.1056 84.9107 48.3136 85.323 47.7155C86.0027 46.7199 86.7827 45.8097 87.6444 44.9664L86.4039 44.6394C86.5376 45.4567 86.5227 46.3001 86.3667 47.1174C86.2256 47.8641 87.0279 48.3285 87.6073 47.8418C88.1867 47.3552 88.625 46.6864 88.8924 45.9434C89.2193 45.0444 87.7819 44.6543 87.4587 45.5496C87.2767 46.0512 86.961 46.4487 86.5562 46.7905L87.7967 47.5149C88.001 46.419 88.0122 45.349 87.8339 44.2494C87.741 43.6735 86.9573 43.5658 86.5933 43.9224C85.6387 44.8512 84.7882 45.8728 84.0379 46.9725L85.4233 47.3477C85.3973 46.3298 85.3676 45.3119 85.3416 44.2939C85.323 43.5992 84.5653 43.38 84.075 43.7701C83.1427 44.5094 82.3813 45.4493 81.8465 46.5118L83.2059 47.084C83.3805 46.2109 83.4362 45.3379 83.3396 44.4537C83.2616 43.759 82.3628 43.3949 81.9542 44.0785C81.4379 44.9478 80.9179 45.8171 80.4016 46.6864L81.787 47.0617C81.7388 45.832 81.6942 44.6023 81.6459 43.3726C81.6199 42.6816 80.6059 42.2989 80.2605 42.9974C79.681 44.1713 79.1016 45.3453 78.5222 46.5193L79.9076 46.8945C79.9448 46.0066 79.9856 45.1187 80.0228 44.2345C80.0488 43.6178 79.1722 43.2203 78.7562 43.7107C78.1879 44.3719 77.6196 45.0332 77.0551 45.6982L78.2956 46.4227C78.4442 45.6128 78.5148 44.7955 78.4851 43.9707C78.4591 43.2611 77.4711 42.9268 77.0996 43.5955C76.5982 44.5057 76.0968 45.4159 75.5953 46.3261L76.9548 46.5044C76.7096 45.6648 76.6465 44.8363 76.7431 43.967C76.7876 43.5658 76.3716 43.224 76.0002 43.224C75.5619 43.224 75.3019 43.5658 75.2574 43.967L75.2462 43.9484Z" fill="#331400"/>
<path d="M38.8647 83.5825C39.8453 79.0462 35.1204 74.1751 28.3114 72.7026C21.5024 71.2301 15.1877 73.7138 14.2071 78.2502C13.2266 82.7865 17.9514 87.6575 24.7604 89.13C31.5694 90.6025 37.8841 88.1188 38.8647 83.5825Z" fill="#FFA366"/>
<path d="M19.6135 81.1657C21.0823 81.1657 22.2729 79.9748 22.2729 78.5057C22.2729 77.0366 21.0823 75.8457 19.6135 75.8457C18.1448 75.8457 16.9541 77.0366 16.9541 78.5057C16.9541 79.9748 18.1448 81.1657 19.6135 81.1657Z" fill="#FFC299"/>
<path d="M25.7053 85.8874C27.1741 85.8874 28.3647 84.6965 28.3647 83.2274C28.3647 81.7583 27.1741 80.5674 25.7053 80.5674C24.2366 80.5674 23.0459 81.7583 23.0459 83.2274C23.0459 84.6965 24.2366 85.8874 25.7053 85.8874Z" fill="#FFC299"/>
<path d="M32.8552 82.9303C34.324 82.9303 35.5146 81.7394 35.5146 80.2703C35.5146 78.8013 34.324 77.6104 32.8552 77.6104C31.3865 77.6104 30.1958 78.8013 30.1958 80.2703C30.1958 81.7394 31.3865 82.9303 32.8552 82.9303Z" fill="#FFC299"/>
<path d="M104.155 88.2304C110.98 86.7621 115.721 81.8935 114.746 77.3562C113.77 72.8188 107.446 70.3309 100.622 71.7993C93.7971 73.2677 89.0557 78.1362 90.0315 82.6736C91.0074 87.2109 97.3308 89.6988 104.155 88.2304Z" fill="#FFA366"/>
<path d="M109.317 80.2672C110.788 80.2672 111.981 79.0763 111.981 77.6073C111.981 76.1382 110.788 74.9473 109.317 74.9473C107.847 74.9473 106.654 76.1382 106.654 77.6073C106.654 79.0763 107.847 80.2672 109.317 80.2672Z" fill="#FFC299"/>
<path d="M103.214 84.9928C104.685 84.9928 105.878 83.8019 105.878 82.3328C105.878 80.8638 104.685 79.6729 103.214 79.6729C101.744 79.6729 100.551 80.8638 100.551 82.3328C100.551 83.8019 101.744 84.9928 103.214 84.9928Z" fill="#FFC299"/>
<path d="M96.0498 82.0319C97.5207 82.0319 98.713 80.841 98.713 79.3719C98.713 77.9028 97.5207 76.7119 96.0498 76.7119C94.579 76.7119 93.3867 77.9028 93.3867 79.3719C93.3867 80.841 94.579 82.0319 96.0498 82.0319Z" fill="#FFC299"/>
<path d="M58.0157 81.7568C57.9266 82.5815 58.1532 83.41 58.6026 84.1084C59.2006 85.0297 60.3594 86.252 62.4654 86.7052C66.0237 87.4668 68.8205 85.9102 69.9125 84.3202C71.0045 82.7301 71.3537 81.01 70.5922 79.654C69.8308 78.298 68.8725 79.2751 68.7723 79.654C68.672 80.033 67.762 82.0874 66.1574 82.6187C64.5528 83.1499 62.5657 83.1648 61.1283 81.5599C59.6871 79.9549 58.6954 80.4342 58.3314 80.8986C58.1494 81.1289 58.0529 81.415 58.0157 81.7605V81.7568Z" fill="#331400"/>
<path d="M43.3995 79.8472C50.7658 79.8472 56.7374 74.1189 56.7374 67.0525C56.7374 59.9862 50.7658 54.2578 43.3995 54.2578C36.0331 54.2578 30.0615 59.9862 30.0615 67.0525C30.0615 74.1189 36.0331 79.8472 43.3995 79.8472Z" fill="white"/>
<path d="M47.2066 74.7503C51.1554 74.7503 54.3566 71.5485 54.3566 67.5988C54.3566 63.6491 51.1554 60.4473 47.2066 60.4473C43.2578 60.4473 40.0566 63.6491 40.0566 67.5988C40.0566 71.5485 43.2578 74.7503 47.2066 74.7503Z" fill="#331400"/>
<path d="M43.5333 69.4934C44.7949 69.4934 45.8176 68.4704 45.8176 67.2086C45.8176 65.9468 44.7949 64.9238 43.5333 64.9238C42.2717 64.9238 41.249 65.9468 41.249 67.2086C41.249 68.4704 42.2717 69.4934 43.5333 69.4934Z" fill="white"/>
<path d="M88.5233 78.8588C95.69 77.1551 100.175 70.2008 98.5418 63.326C96.9081 56.4512 89.774 52.2592 82.6073 53.9629C75.4406 55.6667 70.9552 62.621 72.5889 69.4958C74.2225 76.3706 81.3566 80.5626 88.5233 78.8588Z" fill="white"/>
<path d="M81.7383 73.9036C85.6872 73.9036 88.8883 70.7018 88.8883 66.7521C88.8883 62.8024 85.6872 59.6006 81.7383 59.6006C77.7895 59.6006 74.5884 62.8024 74.5884 66.7521C74.5884 70.7018 77.7895 73.9036 81.7383 73.9036Z" fill="#331400"/>
<path d="M85.401 68.5686C86.6625 68.5686 87.6853 67.5456 87.6853 66.2838C87.6853 65.0219 86.6625 63.999 85.401 63.999C84.1394 63.999 83.1167 65.0219 83.1167 66.2838C83.1167 67.5456 84.1394 68.5686 85.401 68.5686Z" fill="white"/>
<path d="M29.895 7.51527C29.895 7.51527 29.4084 12.1071 34.1738 17.0927C38.9392 22.0784 42.9989 24.3743 50.9437 25.1693C58.8885 25.9643 59.1968 23.713 61.6668 24.991C64.1368 26.269 63.8285 26.2281 64.1368 24.7718C64.4451 23.3155 65.9902 13.738 60.6491 7.99823C55.3117 2.26215 44.986 -0.873368 38.3226 1.9538C38.3226 1.9538 36.8221 2.57051 35.8081 3.27637C34.7941 3.98223 33.4235 4.6881 32.0121 4.64352C30.6007 4.59894 29.5607 4.67324 29.895 7.51155V7.51527Z" fill="#3195A3"/>
<path d="M37.398 9.68887C37.398 9.68887 40.4883 10.8145 44.2397 11.3867C47.9911 11.9588 52.712 14.0801 56.7717 17.3456C60.8313 20.6112 59.9065 21.54 61.7153 21.2316C63.5242 20.9233 62.1573 19.5561 60.3931 18.0106C58.6288 16.4652 52.3182 11.6541 47.0663 10.6845C41.8143 9.71488 40.1392 9.97865 38.2412 9.00902C36.3432 8.03938 36.7777 9.13904 36.7777 9.13904C36.7777 9.13904 36.8074 9.33594 37.4017 9.69259L37.398 9.68887Z" fill="#297E8A"/>
</g>
<defs>
<clipPath id="clip0_261_202">
<rect width="127.251" height="123.849" fill="white" transform="translate(0.871094 0.898438)"/>
</clipPath>
</defs>
</svg>
