<svg width="129" height="124" viewBox="0 0 129 124" fill="none" xmlns="http://www.w3.org/2000/svg">
<g clip-path="url(#clip0_261_229)">
<path d="M48.8367 19.2201C48.8367 19.2201 34.3622 20.9846 24.2111 29.328C14.06 37.6714 13.6625 38.1989 8.10228 45.7919C2.54201 53.385 1.74716 60.2685 1.13059 68.6527C0.514022 77.037 1.8363 78.9798 3.24773 84.9829C4.65915 90.986 6.60171 96.105 8.54427 98.2224C10.4868 100.34 10.8397 101.224 11.2817 102.108C11.7237 102.992 13.3134 105.199 15.7834 107.138C18.2534 109.077 25.9345 115.258 29.1102 116.67C32.2859 118.082 40.1416 120.467 50.2927 122.584C60.4438 124.701 76.1514 123.115 87.7139 121.172C99.2765 119.23 107.307 112.435 111.898 108.107C116.488 103.78 123.724 95.4846 125.93 86.1271C128.136 76.7695 128.931 68.8273 127.52 61.851C126.108 54.8746 120.637 43.9308 116.136 38.9902C111.634 34.0458 105.81 29.458 103.693 28.0427C101.576 26.6274 97.3376 23.6295 89.2182 21.07C81.0988 18.5106 76.1551 17.8939 69.6254 17.7156C63.0958 17.5373 50.965 18.8672 48.8404 19.2164L48.8367 19.2201Z" fill="#FF6600"/>
<path d="M30.2832 84.2136C37.1622 83.1141 42.1452 78.5078 41.4129 73.9252C40.6806 69.3426 34.5104 66.519 27.6314 67.6185C20.7523 68.718 15.7694 73.3243 16.5017 77.9069C17.234 82.4895 23.4041 85.3131 30.2832 84.2136Z" fill="#FFA366"/>
<path d="M21.6301 78.8459C23.0989 78.8459 24.2895 77.6551 24.2895 76.1862C24.2895 74.7172 23.0989 73.5264 21.6301 73.5264C20.1614 73.5264 18.9707 74.7172 18.9707 76.1862C18.9707 77.6551 20.1614 78.8459 21.6301 78.8459Z" fill="#FFC299"/>
<path d="M29.981 80.8566C31.3497 80.3237 32.0273 78.782 31.4945 77.4131C30.9617 76.0442 29.4202 75.3665 28.0515 75.8994C26.6828 76.4323 26.0052 77.974 26.538 79.3429C27.0708 80.7118 28.6123 81.3895 29.981 80.8566Z" fill="#FFC299"/>
<path d="M35.5679 75.5099C36.9366 74.977 37.6142 73.4353 37.0814 72.0664C36.5486 70.6975 35.0071 70.0198 33.6384 70.5527C32.2697 71.0856 31.5921 72.6273 32.1249 73.9962C32.6577 75.3651 34.1992 76.0428 35.5679 75.5099Z" fill="#FFC299"/>
<path d="M114.607 77.7006C115.258 73.1057 110.182 68.5873 103.27 67.6084C96.3585 66.6295 90.228 69.5608 89.5774 74.1557C88.9268 78.7507 94.0025 83.2691 100.914 84.248C107.826 85.2269 113.956 82.2956 114.607 77.7006Z" fill="#FFA366"/>
<path d="M111.936 76.9829C112.444 75.6043 111.736 74.0749 110.355 73.567C108.975 73.059 107.445 73.7648 106.938 75.1435C106.431 76.5221 107.139 78.0514 108.519 78.5594C109.899 79.0673 111.429 78.3615 111.936 76.9829Z" fill="#FFC299"/>
<path d="M104.573 79.3051C105.08 77.9265 104.372 76.3972 102.992 75.8892C101.611 75.3813 100.081 76.0871 99.5741 77.4657C99.0669 78.8443 99.7747 80.3737 101.155 80.8816C102.535 81.3896 104.066 80.6837 104.573 79.3051Z" fill="#FFC299"/>
<path d="M98.8745 74.0561C99.3816 72.6775 98.6738 71.1481 97.2934 70.6402C95.9131 70.1323 94.383 70.8381 93.8758 72.2167C93.3687 73.5953 94.0765 75.1247 95.4568 75.6326C96.8372 76.1405 98.3673 75.4347 98.8745 74.0561Z" fill="#FFC299"/>
<path d="M45.1119 72.9849C52.4782 72.9849 58.4498 67.257 58.4498 60.1912C58.4498 53.1254 52.4782 47.3975 45.1119 47.3975C37.7455 47.3975 31.7739 53.1254 31.7739 60.1912C31.7739 67.257 37.7455 72.9849 45.1119 72.9849Z" fill="white"/>
<path d="M45.1119 67.342C49.0607 67.342 52.2619 64.1404 52.2619 60.191C52.2619 56.2416 49.0607 53.04 45.1119 53.04C41.1631 53.04 37.9619 56.2416 37.9619 60.191C37.9619 64.1404 41.1631 67.342 45.1119 67.342Z" fill="#331400"/>
<path d="M44.6437 58.8094C45.9052 58.8094 46.9279 57.7866 46.9279 56.5248C46.9279 55.2631 45.9052 54.2402 44.6437 54.2402C43.3821 54.2402 42.3594 55.2631 42.3594 56.5248C42.3594 57.7866 43.3821 58.8094 44.6437 58.8094Z" fill="white"/>
<path d="M90.2948 71.8317C97.4615 70.1281 101.947 63.1744 100.313 56.3001C98.6796 49.4258 91.5455 45.2342 84.3788 46.9378C77.2121 48.6414 72.7267 55.5952 74.3603 62.4694C75.994 69.3437 83.1281 73.5354 90.2948 71.8317Z" fill="white"/>
<path d="M86.5816 67.341C90.5304 67.341 93.7316 64.1394 93.7316 60.19C93.7316 56.2407 90.5304 53.0391 86.5816 53.0391C82.6328 53.0391 79.4316 56.2407 79.4316 60.19C79.4316 64.1394 82.6328 67.341 86.5816 67.341Z" fill="#331400"/>
<path d="M86.1134 58.8084C87.3749 58.8084 88.3976 57.7856 88.3976 56.5238C88.3976 55.2621 87.3749 54.2393 86.1134 54.2393C84.8518 54.2393 83.8291 55.2621 83.8291 56.5238C83.8291 57.7856 84.8518 58.8084 86.1134 58.8084Z" fill="white"/>
<path d="M36.4609 6.64225C36.4609 6.64225 35.9743 11.2337 40.7397 16.219C45.5051 21.2042 49.5648 23.5 57.5096 24.2949C65.4545 25.0899 65.7627 22.8387 68.2327 24.1166C70.7027 25.3945 70.3944 25.3536 70.7027 23.8974C71.011 22.4412 72.5561 12.8645 67.215 7.12517C61.8739 1.38583 51.552 -1.74574 44.8885 1.08122C44.8885 1.08122 43.388 1.69787 42.374 2.40368C41.36 3.10949 39.9894 3.8153 38.578 3.77072C37.1666 3.72614 36.1266 3.80044 36.4609 6.63854V6.64225Z" fill="#3195A3"/>
<path d="M43.9634 8.81477C43.9634 8.81477 47.0537 9.94035 50.8051 10.5124C54.5565 11.0845 59.2774 13.2056 63.3371 16.4709C67.3968 19.7362 66.4719 20.6649 68.2808 20.3566C70.0896 20.0483 68.7228 18.6812 66.9585 17.1359C65.1942 15.5905 58.8837 10.7799 53.6317 9.81033C48.3797 8.84077 46.7046 9.10452 44.8066 8.13496C42.9086 7.1654 43.3432 8.26498 43.3432 8.26498C43.3432 8.26498 43.3729 8.46186 43.9672 8.81848L43.9634 8.81477Z" fill="#297E8A"/>
<path d="M34.0208 39.8486C34.4554 40.625 35.0682 41.2602 35.8111 41.7469C36.2753 42.0515 37.0813 41.7729 37.1742 41.1934C37.3153 40.3167 37.3673 39.4437 37.2782 38.5596L35.6922 39.2171C35.8928 39.3843 36.0822 39.5589 36.2568 39.752C36.3459 39.8486 36.4313 39.9452 36.5093 40.0492C36.4425 39.9601 36.6282 40.2275 36.6468 40.2573C37.0739 40.8999 38.1325 40.8442 38.3442 40.0344C38.5819 39.1168 38.6971 38.1658 38.6636 37.2186L36.9328 37.6866C37.3859 38.5336 37.9319 39.3174 38.5448 40.0567C39.0536 40.6696 40.179 40.1718 40.1308 39.3991C40.0788 38.5856 39.9599 37.7758 39.7705 36.9845L38.2179 37.8872C38.5485 38.2661 38.8716 38.6525 39.2059 39.0277C39.6145 39.4883 40.1939 39.7632 40.7956 39.5106C41.5348 39.1985 41.4976 38.3924 41.3936 37.7312C41.3156 37.2223 41.1373 36.7468 40.9108 36.2861C40.6953 35.8478 40.0416 35.6955 39.6405 35.9518C39.191 36.2416 39.0759 36.7542 39.3062 37.2223C39.3359 37.2817 39.3656 37.3411 39.3916 37.4006C39.3619 37.33 39.3656 37.3486 39.4102 37.4563C39.451 37.5826 39.4919 37.7089 39.5253 37.8352C39.5402 37.8984 39.555 37.9652 39.5699 38.0284C39.5885 38.1435 39.5922 38.1584 39.5848 38.0767C39.5922 38.1435 39.5996 38.2067 39.6033 38.2736C39.6033 38.5039 39.659 38.4147 39.7816 38.0024L40.1902 37.7646C40.3239 37.7089 40.491 37.8166 40.6099 37.8278C40.6508 37.8612 40.6508 37.8575 40.6136 37.8241C40.5913 37.8018 40.5728 37.7795 40.5505 37.7572C40.4316 37.6235 40.3165 37.486 40.1976 37.3486C39.9748 37.0923 39.7519 36.8322 39.529 36.5759C39.2728 36.2787 38.7305 36.2193 38.4036 36.431C38.0471 36.6613 37.8762 37.0662 37.9765 37.4786C38.1436 38.1733 38.2291 38.7193 38.2699 39.3991L39.8559 38.7416C39.7259 38.5856 39.633 38.4704 39.5625 38.3739C39.4325 38.1955 39.3062 38.0172 39.1836 37.8352C38.9496 37.4823 38.7342 37.122 38.5336 36.7468C38.0991 35.9407 36.7731 36.301 36.8028 37.2148C36.8288 38.073 36.7582 38.7342 36.5465 39.5366L38.2439 39.3137C37.8948 38.7862 37.4862 38.3033 36.9959 37.8984C36.7025 37.6532 36.3496 37.5492 35.9819 37.7052C35.6699 37.8352 35.3765 38.1918 35.4099 38.5522C35.4805 39.2617 35.4694 40.0864 35.3728 40.6919L36.7359 40.1384C36.6579 40.0864 36.5799 40.0344 36.5056 39.9786C36.5836 40.0381 36.5056 39.9786 36.4722 39.9489C36.3422 39.8375 36.2159 39.7186 36.0971 39.5923C36.0451 39.5366 35.9931 39.4771 35.9411 39.4177L35.8816 39.3434C35.9225 39.3954 35.9225 39.3954 35.8853 39.3434C35.7851 39.2023 35.6959 39.0574 35.6105 38.9051C35.3728 38.4816 34.7562 38.3033 34.3402 38.5707C33.9242 38.8382 33.7534 39.388 34.0059 39.8412L34.0208 39.8486Z" fill="#331400"/>
<path d="M83.8701 34.3916C83.573 35.0417 83.3352 35.7103 83.1941 36.4124C83.1198 36.7839 83.2127 37.1554 83.5284 37.3894C83.8107 37.6012 84.2452 37.6717 84.561 37.4637C85.3855 36.9139 86.2101 36.3641 87.0347 35.8143L85.6381 35.012C85.6752 35.5506 85.6047 35.9704 85.3744 36.4013C85.1812 36.769 85.2184 37.226 85.5192 37.5269C85.7867 37.7943 86.3178 37.9169 86.6447 37.6717C87.2018 37.252 87.7255 36.9882 88.3607 36.8099L87.2167 35.6658C86.9827 36.3456 86.7524 37.0254 86.5184 37.7015C86.3995 38.0469 86.5704 38.4704 86.8527 38.6784C87.1349 38.8865 87.5918 38.9756 87.8852 38.7527C88.4795 38.2958 89.0924 37.8649 89.7238 37.46L88.3607 36.4124C88.1638 37.0811 87.9669 37.746 87.7738 38.4147C87.6698 38.7676 87.8147 39.1725 88.1081 39.3917C88.3792 39.5923 88.8435 39.6889 89.1406 39.466C89.7164 39.0276 90.2921 38.5893 90.8678 38.1509C91.2652 37.8463 91.4769 37.3523 91.2021 36.8805C90.9718 36.4867 90.3329 36.2415 89.9318 36.5462C89.3561 36.9845 88.7804 37.4228 88.2047 37.8612L89.5678 38.9088C89.7647 38.2401 89.9615 37.5752 90.1546 36.9065C90.3775 36.1487 89.4749 35.4169 88.7915 35.8589C88.1601 36.2638 87.5472 36.6948 86.9529 37.1517L88.3161 38.1992C88.5501 37.5194 88.7804 36.8396 89.0144 36.1635C89.2484 35.4874 88.5241 34.8374 87.8704 35.0194C87.0941 35.2386 86.3549 35.5877 85.7124 36.0707L86.9827 37.3411C87.3615 36.6242 87.5584 35.8255 87.4989 35.012C87.4507 34.3581 86.7301 33.7898 86.1024 34.2096C85.2778 34.7593 84.4532 35.3091 83.6287 35.8589L84.9918 36.9065C85.0995 36.3604 85.2704 35.7883 85.4784 35.3277C85.6864 34.8671 85.6084 34.3284 85.1441 34.0573C84.743 33.8232 84.0818 33.9309 83.8738 34.3916H83.8701Z" fill="#331400"/>
<path d="M67.9947 76.2275C69.3917 76.2275 70.5242 74.8404 70.5242 73.1294C70.5242 71.4183 69.3917 70.0312 67.9947 70.0312C66.5978 70.0312 65.4653 71.4183 65.4653 73.1294C65.4653 74.8404 66.5978 76.2275 67.9947 76.2275Z" fill="#331400"/>
<path d="M111.222 37.3413C113.171 37.3413 114.75 35.7613 114.75 33.8123C114.75 31.8632 113.171 30.2832 111.222 30.2832C109.273 30.2832 107.693 31.8632 107.693 33.8123C107.693 35.7613 109.273 37.3413 111.222 37.3413Z" fill="#331400"/>
<path d="M100.904 12.9684L105.372 13.7708C105.372 13.7708 106.616 9.42079 109.844 10.0857C113.072 10.7507 112.726 13.3065 112.726 13.3065C112.726 13.3065 112.522 16.9395 108.154 18.8081L108.425 28.1507L112.983 28.0282L112.867 20.9255C112.867 20.9255 118.097 18.106 118.662 14.4506C119.226 10.7953 117.079 5.50169 110.691 5.18222C104.302 4.86275 100.911 9.63996 100.908 12.9721L100.904 12.9684Z" fill="#331400"/>
</g>
<defs>
<clipPath id="clip0_261_229">
<rect width="127.251" height="123.569" fill="white" transform="translate(0.974609 0.0263672)"/>
</clipPath>
</defs>
</svg>
