<svg width="129" height="124" viewBox="0 0 129 124" fill="none" xmlns="http://www.w3.org/2000/svg">
<g clip-path="url(#clip0_428_1750)">
<path d="M48.8362 19.3216C48.8362 19.3216 34.3617 21.0862 24.2106 29.4296C14.0595 37.773 13.6621 38.3005 8.10179 45.8935C2.54153 53.4865 1.74667 60.37 1.1301 68.7543C0.513534 77.1386 1.83581 79.0814 3.24724 85.0845C4.65866 91.0876 6.60122 96.2066 8.54379 98.324C10.4863 100.441 10.8392 101.326 11.2812 102.21C11.7232 103.094 13.3129 105.3 15.7829 107.239C18.2529 109.179 25.934 115.36 29.1097 116.772C32.2854 118.183 40.1411 120.568 50.2922 122.686C60.4433 124.803 76.1509 123.217 87.7135 121.274C99.276 119.331 107.306 112.537 111.897 108.209C116.488 103.881 123.723 95.5862 125.93 86.2286C128.136 76.8711 128.931 68.9289 127.519 61.9525C126.108 54.9761 120.637 44.0324 116.135 39.0917C111.633 34.1473 105.809 29.5596 103.692 28.1443C101.575 26.7289 97.3371 23.7311 89.2177 21.1716C81.0983 18.6121 76.1546 17.9955 69.625 17.8171C63.0953 17.6388 50.9645 18.9687 48.8399 19.3179L48.8362 19.3216Z" fill="#E7EDF0"/>
<path d="M30.2822 84.3152C37.1612 83.2156 42.1442 78.6093 41.4119 74.0267C40.6796 69.4441 34.5094 66.6205 27.6304 67.7201C20.7514 68.8196 15.7684 73.4259 16.5007 78.0085C17.233 82.5911 23.4032 85.4147 30.2822 84.3152Z" fill="#F9FAFB"/>
<path d="M21.6287 78.9475C23.0974 78.9475 24.2881 77.7567 24.2881 76.2877C24.2881 74.8188 23.0974 73.6279 21.6287 73.6279C20.1599 73.6279 18.9692 74.8188 18.9692 76.2877C18.9692 77.7567 20.1599 78.9475 21.6287 78.9475Z" fill="#E7EDF0"/>
<path d="M29.98 80.9591C31.3487 80.4263 32.0263 78.8846 31.4935 77.5157C30.9607 76.1468 29.4192 75.469 28.0505 76.0019C26.6818 76.5348 26.0042 78.0765 26.537 79.4454C27.0698 80.8143 28.6113 81.492 29.98 80.9591Z" fill="#E7EDF0"/>
<path d="M35.5679 75.6105C36.9366 75.0776 37.6142 73.5359 37.0814 72.167C36.5486 70.7981 35.0071 70.1204 33.6384 70.6533C32.2697 71.1862 31.5921 72.7279 32.1249 74.0968C32.6577 75.4657 34.1992 76.1434 35.5679 75.6105Z" fill="#E7EDF0"/>
<path d="M114.607 77.8032C115.257 73.2083 110.181 68.6898 103.27 67.7109C96.358 66.732 90.2275 69.6634 89.5769 74.2583C88.9263 78.8532 94.002 83.3717 100.914 84.3506C107.825 85.3295 113.956 82.3981 114.607 77.8032Z" fill="#F9FAFB"/>
<path d="M111.936 77.0854C112.443 75.7068 111.735 74.1774 110.355 73.6695C108.975 73.1616 107.444 73.8674 106.937 75.246C106.43 76.6246 107.138 78.154 108.518 78.6619C109.899 79.1698 111.429 78.464 111.936 77.0854Z" fill="#E7EDF0"/>
<path d="M104.572 79.4077C105.079 78.0291 104.371 76.4997 102.991 75.9918C101.61 75.4838 100.08 76.1897 99.5731 77.5683C99.0659 78.9469 99.7738 80.4762 101.154 80.9842C102.534 81.4921 104.065 80.7863 104.572 79.4077Z" fill="#E7EDF0"/>
<path d="M98.8735 74.1586C99.3807 72.78 98.6728 71.2507 97.2925 70.7428C95.9121 70.2348 94.382 70.9406 93.8748 72.3192C93.3677 73.6979 94.0755 75.2272 95.4559 75.7351C96.8362 76.2431 98.3663 75.5373 98.8735 74.1586Z" fill="#E7EDF0"/>
<path d="M45.1114 73.0855C52.4777 73.0855 58.4493 67.3576 58.4493 60.2918C58.4493 53.226 52.4777 47.498 45.1114 47.498C37.745 47.498 31.7734 53.226 31.7734 60.2918C31.7734 67.3576 37.745 73.0855 45.1114 73.0855Z" fill="white"/>
<path d="M45.1114 67.4426C49.0602 67.4426 52.2614 64.241 52.2614 60.2916C52.2614 56.3422 49.0602 53.1406 45.1114 53.1406C41.1626 53.1406 37.9614 56.3422 37.9614 60.2916C37.9614 64.241 41.1626 67.4426 45.1114 67.4426Z" fill="#698EA1"/>
<path d="M44.6427 58.91C45.9042 58.91 46.927 57.8872 46.927 56.6254C46.927 55.3637 45.9042 54.3408 44.6427 54.3408C43.3811 54.3408 42.3584 55.3637 42.3584 56.6254C42.3584 57.8872 43.3811 58.91 44.6427 58.91Z" fill="white"/>
<path d="M90.2948 71.9343C97.4615 70.2307 101.947 63.2769 100.313 56.4026C98.6796 49.5284 91.5455 45.3367 84.3788 47.0403C77.2121 48.7439 72.7267 55.6977 74.3603 62.572C75.994 69.4463 83.1281 73.6379 90.2948 71.9343Z" fill="white"/>
<path d="M86.5821 67.4435C90.5309 67.4435 93.7321 64.2419 93.7321 60.2926C93.7321 56.3432 90.5309 53.1416 86.5821 53.1416C82.6333 53.1416 79.4321 56.3432 79.4321 60.2926C79.4321 64.2419 82.6333 67.4435 86.5821 67.4435Z" fill="#698EA1"/>
<path d="M86.1139 58.91C87.3754 58.91 88.3981 57.8872 88.3981 56.6254C88.3981 55.3637 87.3754 54.3408 86.1139 54.3408C84.8523 54.3408 83.8296 55.3637 83.8296 56.6254C83.8296 57.8872 84.8523 58.91 86.1139 58.91Z" fill="white"/>
<path d="M36.4604 6.74284C36.4604 6.74284 35.9738 11.3343 40.7392 16.3196C45.5046 21.3048 49.5643 23.6005 57.5092 24.3955C65.454 25.1905 65.7623 22.9393 68.2323 24.2172C70.7022 25.4951 70.394 25.4542 70.7022 23.998C71.0105 22.5418 72.5557 12.9651 67.2145 7.22576C61.8734 1.48642 51.5515 -1.64515 44.8881 1.1818C44.8881 1.1818 43.3875 1.79846 42.3735 2.50427C41.3595 3.21008 39.9889 3.91589 38.5775 3.87131C37.1661 3.82673 36.1261 3.90103 36.4604 6.73912V6.74284Z" fill="#A7BDC8"/>
<path d="M43.963 8.91633C43.963 8.91633 47.0532 10.0419 50.8046 10.614C54.5561 11.1861 59.2769 13.3072 63.3366 16.5725C67.3963 19.8378 66.4714 20.7665 68.2803 20.4582C70.0891 20.1498 68.7223 18.7828 66.958 17.2375C65.1937 15.6921 58.8832 10.8815 53.6312 9.91189C48.3792 8.94233 46.7041 9.20608 44.8061 8.23652C42.9081 7.26697 43.3427 8.36654 43.3427 8.36654C43.3427 8.36654 43.3724 8.56343 43.9667 8.92005L43.963 8.91633Z" fill="#88A6B4"/>
<path d="M34.0203 39.9502C34.4549 40.7266 35.0677 41.3618 35.8106 41.8484C36.2749 42.1531 37.0809 41.8744 37.1737 41.2949C37.3149 40.4182 37.3669 39.5453 37.2777 38.6612L35.6917 39.3187C35.8923 39.4858 36.0817 39.6604 36.2563 39.8536C36.3454 39.9502 36.4309 40.0468 36.5089 40.1508C36.442 40.0616 36.6277 40.3291 36.6463 40.3588C37.0734 41.0015 38.132 40.9457 38.3437 40.1359C38.5814 39.2184 38.6966 38.2674 38.6631 37.3201L36.9323 37.7882C37.3854 38.6352 37.9314 39.419 38.5443 40.1582C39.0531 40.7712 40.1786 40.2734 40.1303 39.5007C40.0783 38.6872 39.9594 37.8773 39.77 37.0861L38.2174 37.9888C38.548 38.3677 38.8711 38.754 39.2054 39.1292C39.614 39.5899 40.1934 39.8647 40.7951 39.6121C41.5343 39.3001 41.4971 38.494 41.3931 37.8328C41.3151 37.3238 41.1368 36.8483 40.9103 36.3877C40.6948 35.9494 40.0411 35.7971 39.64 36.0534C39.1906 36.3431 39.0754 36.8558 39.3057 37.3238C39.3354 37.3833 39.3651 37.4427 39.3911 37.5021C39.3614 37.4316 39.3651 37.4501 39.4097 37.5579C39.4506 37.6842 39.4914 37.8105 39.5248 37.9368C39.5397 37.9999 39.5546 38.0668 39.5694 38.1299C39.588 38.2451 39.5917 38.26 39.5843 38.1782C39.5917 38.2451 39.5991 38.3083 39.6028 38.3751C39.6028 38.6054 39.6586 38.5163 39.7811 38.1039L40.1897 37.8662C40.3234 37.8105 40.4906 37.9182 40.6094 37.9293C40.6503 37.9628 40.6503 37.9591 40.6131 37.9256C40.5908 37.9033 40.5723 37.8811 40.55 37.8588C40.4311 37.725 40.316 37.5876 40.1971 37.4501C39.9743 37.1938 39.7514 36.9338 39.5286 36.6775C39.2723 36.3803 38.73 36.3208 38.4031 36.5326C38.0466 36.7629 37.8757 37.1678 37.976 37.5802C38.1431 38.2748 38.2286 38.8209 38.2694 39.5007L39.8554 38.8432C39.7254 38.6872 39.6326 38.572 39.562 38.4754C39.432 38.2971 39.3057 38.1188 39.1831 37.9368C38.9491 37.5839 38.7337 37.2235 38.5331 36.8483C38.0986 36.0422 36.7726 36.4026 36.8023 37.3164C36.8283 38.1745 36.7577 38.8358 36.546 39.6381L38.2434 39.4153C37.8943 38.8878 37.4857 38.4048 36.9954 37.9999C36.702 37.7547 36.3491 37.6507 35.9814 37.8068C35.6694 37.9368 35.376 38.2934 35.4094 38.6537C35.48 39.3632 35.4689 40.1879 35.3723 40.7934L36.7354 40.2399C36.6574 40.1879 36.5794 40.1359 36.5051 40.0802C36.5831 40.1396 36.5051 40.0802 36.4717 40.0505C36.3417 39.939 36.2154 39.8202 36.0966 39.6939C36.0446 39.6381 35.9926 39.5787 35.9406 39.5193L35.8811 39.445C35.922 39.497 35.922 39.497 35.8849 39.445C35.7846 39.3038 35.6954 39.1589 35.61 39.0066C35.3723 38.5831 34.7557 38.4048 34.3397 38.6723C33.9237 38.9398 33.7529 39.4896 34.0054 39.9428L34.0203 39.9502Z" fill="#698EA1"/>
<path d="M83.8696 34.4931C83.5725 35.1432 83.3348 35.8119 83.1936 36.514C83.1193 36.8855 83.2122 37.2569 83.5279 37.491C83.8102 37.7027 84.2448 37.7733 84.5605 37.5653C85.385 37.0155 86.2096 36.4657 87.0342 35.9159L85.6376 35.1135C85.6747 35.6522 85.6042 36.0719 85.3739 36.5028C85.1807 36.8706 85.2179 37.3275 85.5187 37.6284C85.7862 37.8959 86.3173 38.0185 86.6442 37.7733C87.2013 37.3535 87.725 37.0898 88.3602 36.9115L87.2162 35.7673C86.9822 36.4471 86.7519 37.1269 86.5179 37.803C86.399 38.1485 86.5699 38.572 86.8522 38.78C87.1345 38.988 87.5913 39.0772 87.8847 38.8543C88.479 38.3974 89.0919 37.9665 89.7233 37.5616L88.3602 36.514C88.1633 37.1826 87.9665 37.8476 87.7733 38.5163C87.6693 38.8692 87.8142 39.2741 88.1076 39.4932C88.3787 39.6938 88.843 39.7904 89.1402 39.5675C89.7159 39.1292 90.2916 38.6909 90.8673 38.2525C91.2647 37.9479 91.4764 37.4538 91.2016 36.9821C90.9713 36.5883 90.3324 36.3431 89.9313 36.6477C89.3556 37.0861 88.7799 37.5244 88.2042 37.9628L89.5673 39.0103C89.7642 38.3417 89.961 37.6767 90.1542 37.0081C90.377 36.2502 89.4744 35.5184 88.791 35.9605C88.1596 36.3654 87.5467 36.7963 86.9525 37.2532L88.3156 38.3008C88.5496 37.621 88.7799 36.9412 89.0139 36.2651C89.2479 35.589 88.5236 34.9389 87.8699 35.1209C87.0936 35.3401 86.3545 35.6893 85.7119 36.1722L86.9822 37.4427C87.361 36.7257 87.5579 35.9271 87.4985 35.1135C87.4502 34.4597 86.7296 33.8913 86.1019 34.3111C85.2773 34.8609 84.4528 35.4107 83.6282 35.9605L84.9913 37.0081C85.099 36.462 85.2699 35.8899 85.4779 35.4293C85.6859 34.9686 85.6079 34.43 85.1436 34.1588C84.7425 33.9248 84.0813 34.0325 83.8733 34.4931H83.8696Z" fill="#698EA1"/>
<path d="M67.9947 76.3291C69.3917 76.3291 70.5242 74.942 70.5242 73.2309C70.5242 71.5199 69.3917 70.1328 67.9947 70.1328C66.5978 70.1328 65.4653 71.5199 65.4653 73.2309C65.4653 74.942 66.5978 76.3291 67.9947 76.3291Z" fill="#698EA1"/>
<path d="M111.22 37.4419C113.169 37.4419 114.749 35.8619 114.749 33.9128C114.749 31.9638 113.169 30.3838 111.22 30.3838C109.272 30.3838 107.692 31.9638 107.692 33.9128C107.692 35.8619 109.272 37.4419 111.22 37.4419Z" fill="#88A6B4"/>
<path d="M100.902 13.07L105.371 13.8724C105.371 13.8724 106.615 9.52235 109.843 10.1873C113.07 10.8522 112.725 13.408 112.725 13.408C112.725 13.408 112.521 17.0411 108.153 18.9096L108.424 28.2523L112.981 28.1297L112.866 21.027C112.866 21.027 118.096 18.2075 118.66 14.5522C119.225 10.8968 117.078 5.60325 110.689 5.28378C104.301 4.96431 100.91 9.74153 100.906 13.0737L100.902 13.07Z" fill="#88A6B4"/>
</g>
<defs>
<clipPath id="clip0_428_1750">
<rect width="127.251" height="123.569" fill="white" transform="translate(0.974609 0.126953)"/>
</clipPath>
</defs>
</svg>
