<svg width="128" height="124" viewBox="0 0 128 124" fill="none" xmlns="http://www.w3.org/2000/svg">
<g clip-path="url(#clip0_428_1672)">
<path d="M48.4343 19.3132C48.4343 19.3132 33.9598 21.0769 23.8087 29.4168C13.6576 37.7566 13.2602 38.2839 7.69993 45.8736C2.13967 53.4597 1.34482 60.344 0.728247 68.7247C0.111679 77.1053 1.43396 79.0473 2.84538 85.0479C4.2568 91.0484 6.19937 96.1652 8.14193 98.2817C10.0845 100.398 10.4373 101.282 10.8793 102.166C11.3213 103.049 12.9111 105.255 15.381 107.193C17.851 109.132 25.5321 115.31 28.7078 116.721C31.8835 118.132 39.7392 120.516 49.8903 122.633C60.0414 124.749 75.7491 123.164 87.3116 121.222C98.8741 119.28 106.904 112.488 111.495 108.162C116.086 103.837 123.321 95.5451 125.528 86.1915C127.734 76.838 128.529 68.8992 127.117 61.9258C125.706 54.9524 120.235 44.0133 115.733 39.0748C111.231 34.1362 105.408 29.5467 103.29 28.132C101.173 26.721 96.9353 23.7207 88.8159 21.1623C80.6965 18.604 75.7528 17.9876 69.2231 17.8093C62.6934 17.6311 50.5626 18.9604 48.438 19.3095L48.4343 19.3132Z" fill="#E7EDF0"/>
<path d="M38.9306 82.3593C39.9112 77.8253 35.1863 72.9567 28.3773 71.485C21.5683 70.0132 15.2536 72.4957 14.273 77.0297C13.2925 81.5637 18.0173 86.4323 24.8264 87.9041C31.6354 89.3758 37.9501 86.8933 38.9306 82.3593Z" fill="#F9FAFB"/>
<path d="M19.6853 79.9423C21.1541 79.9423 22.3447 78.752 22.3447 77.2836C22.3447 75.8153 21.1541 74.625 19.6853 74.625C18.2165 74.625 17.0259 75.8153 17.0259 77.2836C17.0259 78.752 18.2165 79.9423 19.6853 79.9423Z" fill="#E7EDF0"/>
<path d="M25.7761 84.6649C27.2449 84.6649 28.4355 83.4746 28.4355 82.0063C28.4355 80.538 27.2449 79.3477 25.7761 79.3477C24.3074 79.3477 23.1167 80.538 23.1167 82.0063C23.1167 83.4746 24.3074 84.6649 25.7761 84.6649Z" fill="#E7EDF0"/>
<path d="M32.926 81.7089C34.3948 81.7089 35.5854 80.5186 35.5854 79.0503C35.5854 77.5819 34.3948 76.3916 32.926 76.3916C31.4573 76.3916 30.2666 77.5819 30.2666 79.0503C30.2666 80.5186 31.4573 81.7089 32.926 81.7089Z" fill="#E7EDF0"/>
<path d="M104.223 87.0086C111.047 85.541 115.789 80.6749 114.813 76.1398C113.837 71.6048 107.514 69.1182 100.689 70.5858C93.8644 72.0534 89.1231 76.9195 90.0989 81.4546C91.0747 85.9896 97.3982 88.4762 104.223 87.0086Z" fill="#F9FAFB"/>
<path d="M109.389 79.0468C110.86 79.0468 112.052 77.8565 112.052 76.3881C112.052 74.9198 110.86 73.7295 109.389 73.7295C107.918 73.7295 106.726 74.9198 106.726 76.3881C106.726 77.8565 107.918 79.0468 109.389 79.0468Z" fill="#E7EDF0"/>
<path d="M103.287 83.7665C104.758 83.7665 105.95 82.5762 105.95 81.1079C105.95 79.6395 104.758 78.4492 103.287 78.4492C101.816 78.4492 100.624 79.6395 100.624 81.1079C100.624 82.5762 101.816 83.7665 103.287 83.7665Z" fill="#E7EDF0"/>
<path d="M96.1221 80.8105C97.5929 80.8105 98.7853 79.6201 98.7853 78.1518C98.7853 76.6835 97.5929 75.4932 96.1221 75.4932C94.6513 75.4932 93.459 76.6835 93.459 78.1518C93.459 79.6201 94.6513 80.8105 96.1221 80.8105Z" fill="#E7EDF0"/>
<path d="M43.2369 79.1058C50.6032 79.1058 56.5748 73.3803 56.5748 66.3175C56.5748 59.2548 50.6032 53.5293 43.2369 53.5293C35.8705 53.5293 29.8989 59.2548 29.8989 66.3175C29.8989 73.3803 35.8705 79.1058 43.2369 79.1058Z" fill="white"/>
<path d="M47.044 74.0116C50.9928 74.0116 54.194 70.8114 54.194 66.8637C54.194 62.916 50.9928 59.7158 47.044 59.7158C43.0952 59.7158 39.894 62.916 39.894 66.8637C39.894 70.8114 43.0952 74.0116 47.044 74.0116Z" fill="#698EA1"/>
<path d="M43.3707 68.7567C44.6323 68.7567 45.655 67.7343 45.655 66.4731C45.655 65.2119 44.6323 64.1895 43.3707 64.1895C42.1091 64.1895 41.0864 65.2119 41.0864 66.4731C41.0864 67.7343 42.1091 68.7567 43.3707 68.7567Z" fill="white"/>
<path d="M88.3592 78.1183C95.5259 76.4154 100.011 69.4646 98.3777 62.5933C96.744 55.722 89.6099 51.5321 82.4432 53.235C75.2766 54.9379 70.7911 61.8887 72.4248 68.76C74.0584 75.6313 81.1925 79.8212 88.3592 78.1183Z" fill="white"/>
<path d="M81.5733 73.1649C85.5221 73.1649 88.7233 69.9647 88.7233 66.017C88.7233 62.0694 85.5221 58.8691 81.5733 58.8691C77.6245 58.8691 74.4233 62.0694 74.4233 66.017C74.4233 69.9647 77.6245 73.1649 81.5733 73.1649Z" fill="#698EA1"/>
<path d="M85.2389 67.8289C86.5004 67.8289 87.5231 66.8065 87.5231 65.5453C87.5231 64.2841 86.5004 63.2617 85.2389 63.2617C83.9773 63.2617 82.9546 64.2841 82.9546 65.5453C82.9546 66.8065 83.9773 67.8289 85.2389 67.8289Z" fill="white"/>
<path d="M30.7497 53.5625C35.2403 51.9287 38.4828 48.3269 41.5285 44.8068C42.1525 44.0864 41.1051 43.0319 40.4774 43.7559C37.6248 47.0532 34.5717 50.5993 30.356 52.1292C29.4646 52.4522 29.8509 53.8892 30.7497 53.5625Z" fill="#537384"/>
<path d="M36.058 6.74C36.058 6.74 35.5715 11.3295 40.3369 16.3126C45.1023 21.2994 49.162 23.5905 57.1068 24.3851C65.0516 25.1797 65.3599 22.9295 67.8299 24.2069C70.2999 25.4842 69.9916 25.4434 70.2999 23.9878C70.6082 22.5322 72.1533 12.9596 66.8122 7.22272C61.4711 1.48583 51.1491 -1.64439 44.4857 1.18135C44.4857 1.18135 42.9852 1.79774 41.9712 2.50325C40.9572 3.20875 39.5866 3.91426 38.1752 3.8697C36.7637 3.82514 35.7238 3.89941 36.058 6.73629V6.74Z" fill="#A7BDC8"/>
<path d="M43.5606 8.91196C43.5606 8.91196 46.6509 10.0371 50.4023 10.6089C54.1537 11.1807 58.8745 13.301 62.9342 16.5649C66.9939 19.8288 66.0691 20.7571 67.8779 20.4489C69.6868 20.1407 68.3199 18.7742 66.5557 17.2295C64.7914 15.6848 58.4808 10.8762 53.2289 9.9071C47.9769 8.93795 46.3017 9.20159 44.4038 8.23245C42.5058 7.2633 42.9403 8.36241 42.9403 8.36241C42.9403 8.36241 42.97 8.55921 43.5643 8.91567L43.5606 8.91196Z" fill="#88A6B4"/>
<path d="M75.1017 86.8558C75.0795 85.8606 74.8269 85.4522 74.1806 84.6167C73.3263 83.5102 71.5546 81.4791 68.5312 80.9369C63.4278 80.0235 60.0924 82.0249 58.525 83.9335C56.9575 85.8383 55.8284 87.8323 56.9204 89.4587C58.0124 91.0851 59.5798 89.7818 59.799 89.3584C60.709 87.5724 61.5855 85.8606 63.8884 85.2257C66.1912 84.5907 69.0698 84.7207 71.0383 86.7481C72.9215 88.6901 73.772 88.7643 74.7452 88.1368C75.0869 87.9177 75.1166 87.331 75.1055 86.8558H75.1017Z" fill="#698EA1"/>
<path d="M28.8421 51.5541C28.7864 52.6235 29.2841 53.5667 30.1198 54.2053C30.4058 54.4244 30.8627 54.1905 30.937 53.8711C31.1041 53.1656 31.0967 52.4601 30.8924 51.7658L29.819 52.0628C30.1533 52.8983 30.5915 53.6521 31.1524 54.3576C31.457 54.74 32.1218 54.417 32.1033 53.964C32.0587 52.8871 32.0178 51.8066 31.9733 50.7298L30.9333 51.012C31.3715 51.7026 31.8321 52.3747 32.3224 53.0282C32.6641 53.4813 33.2992 53.3142 33.3624 52.746C33.459 51.866 33.4924 50.986 33.459 50.1023L32.419 50.3845C32.8015 51.2793 33.2658 52.1259 33.8155 52.928C34.1907 53.4738 34.9187 53.1137 34.8332 52.4973C34.6921 51.4576 34.525 50.4216 34.3318 49.393L33.3141 49.8238C33.7338 50.5441 34.2464 51.1976 34.8481 51.7732C35.227 52.1371 35.7432 51.8437 35.799 51.3796C35.9104 50.4513 35.8027 49.5156 35.4907 48.6318L34.473 49.0626C34.7552 49.6901 35.1861 50.1765 35.7284 50.5887C36.0701 50.8486 36.5752 50.4959 36.5678 50.106C36.5492 49.3299 36.6644 48.5947 36.9132 47.8632L35.8955 47.9969C36.4564 48.7321 37.0172 49.471 37.5744 50.2062C37.8901 50.6221 38.6069 50.5256 38.6144 49.924C38.6255 48.7209 38.3507 47.5699 37.8232 46.493L36.9467 47.1688C37.2921 47.5736 37.6375 47.9746 37.9829 48.3793C38.2392 48.6801 38.8484 48.539 38.9152 48.1343C39.0824 47.0834 38.9487 46.0883 38.4992 45.1266C38.2355 44.5622 37.2512 44.9669 37.4815 45.5573C37.7675 46.2851 38.1129 46.9757 38.5438 47.633C38.8484 48.0934 39.5615 47.9152 39.5838 47.3508C39.6098 46.6453 39.5578 45.9546 39.4427 45.2602L38.4249 45.691C38.8484 46.2814 39.2681 46.8718 39.6915 47.4622C39.9515 47.8224 40.5941 47.8335 40.7092 47.3285C40.9209 46.3928 40.8912 45.4459 40.5941 44.5362L39.5764 44.9669C39.8512 45.4125 40.1298 45.8581 40.4046 46.3037C40.6795 46.7492 41.2626 46.6156 41.4224 46.17C41.7046 45.3791 41.7269 44.5547 41.5152 43.7453L40.4975 44.176C40.6869 44.5844 40.8801 44.9966 41.0695 45.4051C41.3704 46.0549 42.3324 45.4905 42.0315 44.8444C41.8421 44.4359 41.6489 44.0238 41.4595 43.6153C41.1884 43.0323 40.2858 43.4482 40.4418 44.046C40.6052 44.6736 40.5681 45.2714 40.3489 45.8804L41.3666 45.7467C41.0918 45.3011 40.8132 44.8555 40.5384 44.4099C40.2152 43.8901 39.3164 44.2206 39.5207 44.8407C39.7584 45.5647 39.8067 46.2962 39.6358 47.0426L40.6535 46.9089C40.2301 46.3185 39.8104 45.7281 39.3869 45.1377C39.0118 44.6142 38.2652 44.9372 38.3692 45.5684C38.4658 46.1626 38.4918 46.7604 38.4695 47.3619L39.5095 47.0797C39.1307 46.5079 38.8075 45.9101 38.5587 45.2714L37.5409 45.7021C37.8529 46.3705 37.9607 47.1243 37.8455 47.8521L38.7778 47.607C38.4324 47.2022 38.0869 46.8012 37.7415 46.3965C37.3069 45.8915 36.6012 46.5339 36.8649 47.0723C37.3069 47.9709 37.5149 48.94 37.5038 49.9426L38.5438 49.6604C37.9829 48.9252 37.4221 48.1862 36.8649 47.451C36.5752 47.0686 36.0107 47.102 35.8472 47.5847C35.5687 48.4053 35.4387 49.2594 35.461 50.1245L36.3004 49.6418C35.9141 49.3485 35.643 48.9549 35.4461 48.5167C35.1898 47.9449 34.2204 48.3496 34.4284 48.9474C34.7107 49.7532 34.7961 50.5515 34.6958 51.3982L35.6467 51.0046C35.1118 50.4884 34.6624 49.9203 34.2872 49.2779C33.953 48.7098 33.1544 49.1034 33.2695 49.7087C33.4627 50.7409 33.6298 51.7769 33.771 52.8129L34.7887 52.3822C34.239 51.5801 33.7747 50.7335 33.3921 49.8386C33.1693 49.3188 32.3335 49.5973 32.3521 50.1208C32.3855 51.0046 32.3521 51.8846 32.2555 52.7646L33.2955 52.4824C32.8053 51.8289 32.341 51.1568 31.9064 50.4661C31.6241 50.0206 30.8441 50.1728 30.8664 50.7483C30.911 51.8252 30.9518 52.9057 30.9964 53.9825L31.9473 53.5889C31.5127 53.0431 31.1561 52.4341 30.8998 51.788C30.6435 51.1419 29.6184 51.3796 29.8264 52.0851C29.975 52.5938 29.9973 53.0839 29.871 53.6001L30.6881 53.2659C30.1607 52.8612 29.9267 52.2225 29.9601 51.5764C29.9973 50.8597 28.883 50.8635 28.8458 51.5764L28.8421 51.5541Z" fill="#698EA1"/>
<path d="M30.4756 51.279C30.5276 51.8545 30.6724 52.3929 30.9213 52.9165C31.0439 53.1727 31.1887 53.4772 31.445 53.6183C31.939 53.8968 32.4033 53.4363 32.5259 52.9796C32.6001 52.6974 32.433 52.3632 32.1359 52.2927C31.8387 52.2221 31.5304 52.3818 31.4487 52.6826C31.4413 52.7123 31.4339 52.7383 31.4227 52.768L31.4784 52.6343C31.4636 52.664 31.4302 52.7086 31.4227 52.7383C31.4822 52.6677 31.4933 52.6529 31.4562 52.6937C31.4153 52.7308 31.4339 52.7197 31.5119 52.6491L31.6456 52.5934L31.6233 52.6009L31.7719 52.5823H31.7496C31.7979 52.5897 31.8499 52.5972 31.8981 52.6046H31.8759C31.9204 52.6194 31.965 52.638 32.0096 52.6566C31.9762 52.638 31.9799 52.6454 32.0282 52.6751C32.069 52.7011 32.0987 52.7345 32.121 52.7754C32.1062 52.7494 32.0876 52.7234 32.0727 52.6974C32.043 52.6454 32.0096 52.5935 31.9836 52.5415C31.9242 52.4301 31.8684 52.3187 31.8202 52.1999L31.8759 52.3335C31.7384 52.0105 31.6456 51.6726 31.5973 51.3235L31.6159 51.4721C31.6084 51.4052 31.601 51.3421 31.5936 51.2753C31.5787 51.123 31.5416 50.9931 31.4302 50.8817C31.3336 50.7851 31.1739 50.7109 31.0364 50.7183C30.7579 50.7294 30.4533 50.9634 30.4793 51.2753L30.4756 51.279Z" fill="#698EA1"/>
<path d="M34.763 50.2096C34.9562 50.7851 35.2533 51.2975 35.6507 51.7543C35.9219 52.0662 36.4939 51.9028 36.583 51.5092C36.6982 50.9856 36.7576 50.4472 36.7576 49.9125L36.349 50.4509L36.375 50.4435L36.2265 50.4621C36.2265 50.4621 36.2636 50.4621 36.2785 50.4621L36.1299 50.4435C36.1856 50.4584 36.167 50.4472 36.0742 50.4175C36.1225 50.4472 36.1076 50.4361 36.0296 50.3841C36.0296 50.3952 36.0779 50.4398 36.0927 50.4509C36.0333 50.373 36.0259 50.3618 36.0667 50.4175C36.0816 50.4398 36.0965 50.4621 36.115 50.4843C36.141 50.5215 36.1707 50.5586 36.1967 50.5995C36.3082 50.7554 36.4233 50.9151 36.5347 51.071C36.6685 51.2567 36.8505 51.3681 37.0882 51.3384C37.2999 51.3087 37.5004 51.1527 37.5524 50.9411C37.675 50.4212 37.7604 49.894 37.8087 49.363C37.8347 49.0733 37.5339 48.7948 37.2516 48.806C36.9285 48.8208 36.7242 49.0511 36.6945 49.363C36.6796 49.5078 36.6647 49.6489 36.6462 49.79L36.6647 49.6415C36.6202 49.9794 36.557 50.3098 36.4753 50.6403L37.493 50.5066C37.337 50.2913 37.181 50.0722 37.025 49.8568C36.9173 49.7083 36.8207 49.5895 36.6685 49.4818C36.4902 49.3555 36.2562 49.3258 36.0482 49.3815C35.8142 49.4409 35.6396 49.6786 35.6396 49.9199C35.6396 50.2281 35.621 50.5363 35.5802 50.8408L35.5987 50.6923C35.5727 50.8705 35.543 51.045 35.5022 51.2233L36.4345 50.9782C36.3973 50.9336 36.3602 50.8928 36.323 50.8482C36.245 50.7517 36.3973 50.9522 36.323 50.852C36.3082 50.8297 36.2896 50.8074 36.271 50.7814C36.2005 50.6849 36.1373 50.5809 36.0779 50.4769C36.0185 50.373 35.9702 50.2764 35.9219 50.1724C35.9145 50.1576 35.907 50.1427 35.8996 50.1242C35.881 50.087 35.8885 50.1019 35.9219 50.1799C35.9145 50.1539 35.8996 50.1242 35.8885 50.1019C35.8662 50.0425 35.8439 49.9831 35.8253 49.9237C35.7325 49.6489 35.439 49.4372 35.1382 49.5338C34.8633 49.6229 34.6479 49.9237 34.7482 50.2207L34.763 50.2096Z" fill="#698EA1"/>
<path d="M37.5589 48.6759C37.9675 49.0992 38.4726 49.4074 39.0297 49.5968C39.1969 49.6525 39.3826 49.5968 39.5163 49.4965C39.6426 49.4 39.7577 49.2292 39.7354 49.0584C39.7057 48.8319 39.6797 48.6054 39.65 48.3751L39.6092 48.0521C39.598 47.9481 39.5757 47.8441 39.5869 47.7439L39.5683 47.8924C39.5869 47.7959 39.5014 48.0038 39.5534 47.9184L38.6769 48.0298C38.818 48.1858 38.9592 48.3454 39.104 48.5014C39.234 48.6462 39.4197 48.7427 39.6203 48.7353C39.8692 48.7279 40.0623 48.5831 40.1997 48.3826C40.4709 47.9852 40.5303 47.4728 40.4337 47.0124C40.3743 46.7265 40.0214 46.5334 39.7466 46.6225C39.4457 46.719 39.2934 47.0012 39.3566 47.3094C39.364 47.3429 39.3677 47.3726 39.3752 47.406L39.3566 47.2575C39.3714 47.3651 39.3714 47.4728 39.3566 47.5805L39.3752 47.432C39.3677 47.4803 39.3603 47.5285 39.3492 47.5768C39.3417 47.6102 39.3306 47.6919 39.3046 47.7142C39.3157 47.703 39.3603 47.5991 39.3232 47.6696C39.312 47.6882 39.3046 47.7068 39.2934 47.729C39.2823 47.7513 39.2637 47.7736 39.2526 47.7996C39.2377 47.8256 39.2414 47.8182 39.2712 47.781C39.3157 47.7105 39.3863 47.6659 39.4717 47.6473L39.6203 47.6288H39.5943C39.6426 47.6362 39.6946 47.6436 39.7429 47.6473L39.9249 47.7513C39.9249 47.7513 39.9026 47.729 39.8952 47.7179C39.8766 47.6993 39.8617 47.6808 39.8432 47.6622C39.7986 47.6139 39.7577 47.5657 39.7132 47.5174C39.6314 47.4283 39.5497 47.3354 39.468 47.2463C39.2192 46.9678 38.7772 47.0718 38.5914 47.3577C38.4057 47.6436 38.4837 47.9555 38.5209 48.2637C38.5543 48.5274 38.5877 48.7947 38.6174 49.0584L39.3232 48.5199C39.2674 48.5014 39.2117 48.4791 39.156 48.4568C39.0929 48.4308 39.2749 48.5088 39.1857 48.468C39.156 48.4531 39.1263 48.442 39.0966 48.4271C38.9926 48.3788 38.896 48.3231 38.7994 48.26C38.7549 48.2303 38.7103 48.2006 38.6657 48.1709C38.6434 48.1561 38.6249 48.1338 38.5989 48.1226C38.6657 48.1746 38.6806 48.1858 38.6472 48.1598C38.636 48.1486 38.6212 48.1412 38.61 48.1301C38.5172 48.0558 38.4317 47.9741 38.3463 47.885C38.142 47.6733 37.7595 47.6659 37.5589 47.885C37.3583 48.1041 37.3435 48.4494 37.5589 48.6722V48.6759Z" fill="#698EA1"/>
<path d="M82.1193 42.818L82.1304 44.3701C82.1304 44.8082 82.7693 45.1647 83.0813 44.7637C83.2744 44.5149 83.4713 44.2624 83.6644 44.0136L82.7321 43.4715C82.6356 44.0173 82.5427 44.5632 82.4461 45.109C82.3496 45.6548 82.9327 46.0002 83.3784 45.6511C84.0136 45.1535 84.5224 44.5297 84.8864 43.8094C85.2096 43.1744 84.2847 42.6211 83.9244 43.2487C83.5641 43.8762 83.2967 44.5334 83.1221 45.2278C82.9959 45.7254 83.5084 46.0596 83.9393 45.8553C84.5967 45.5471 85.1687 45.1016 85.6367 44.5446L84.7601 43.8688C84.4296 44.6189 84.1547 45.3838 83.943 46.1784C83.8278 46.6165 84.3478 47.0993 84.7601 46.8059C85.373 46.3715 85.9376 45.8888 86.4464 45.3392L85.5141 44.7971C85.4138 45.4135 85.2541 46.0113 85.035 46.598C84.8716 47.0361 85.4658 47.504 85.8521 47.2255C86.3981 46.8319 86.9441 46.4383 87.4901 46.0447L86.673 45.4172C86.4835 46.1635 86.205 46.8616 85.8224 47.53C85.4956 48.1093 86.2236 48.592 86.699 48.2058C87.3601 47.6637 88.025 47.1215 88.6861 46.5794L87.7353 46.1858C87.6907 46.8393 87.5235 47.4743 87.2413 48.0684C86.985 48.6031 87.6647 49.2455 88.1178 48.7442L89.2953 47.4372L88.363 46.895C88.1364 47.5968 87.9061 48.3023 87.6795 49.0041C87.4715 49.6465 88.3481 49.9139 88.6973 49.4349C89.0835 48.9039 89.5478 48.4174 90.0715 48.0164L89.2544 47.3889C89.1021 48.0721 88.9535 48.7591 88.8013 49.4423C88.6898 49.9547 89.1764 50.2592 89.6184 50.0698C90.547 49.6762 91.3678 49.0858 92.0438 48.3395L91.093 47.9459C91.0632 48.618 91.0038 49.2826 90.8998 49.9473C90.807 50.5414 91.5684 50.9498 91.9175 50.378C92.2444 49.8433 92.5712 49.3049 92.8981 48.7702L91.8581 48.488C91.8841 49.2715 91.9138 50.0513 91.9398 50.8347C91.9584 51.3954 92.6752 51.5811 92.9798 51.1169C93.3587 50.534 93.7375 49.951 94.1127 49.368L93.0727 49.0858C93.1581 49.7876 93.1767 50.4894 93.1284 51.1949C93.0838 51.8447 94.0347 51.919 94.2241 51.3434C94.3801 50.8682 94.5807 50.4263 94.8332 49.9956L93.8155 49.8619C93.8638 50.1589 93.8675 50.456 93.8452 50.7568C93.7969 51.4734 94.9112 51.4697 94.9595 50.7568C94.9855 50.352 94.9558 49.9658 94.8889 49.5648C94.8072 49.0747 94.0941 49.0487 93.8712 49.4311C93.5704 49.9436 93.3327 50.482 93.147 51.0464L94.2427 51.1949C94.2909 50.4894 94.2724 49.7876 94.1869 49.0858C94.1238 48.5511 93.4701 48.3098 93.147 48.8036C92.7681 49.3866 92.3892 49.9696 92.0141 50.5525L93.0541 50.8347C93.0281 50.0513 92.9984 49.2715 92.9724 48.488C92.9538 47.9384 92.2258 47.7268 91.9324 48.2058C91.6055 48.7405 91.2787 49.2789 90.9518 49.8136L91.9695 50.2443C92.0884 49.4831 92.1701 48.7182 92.2035 47.9459C92.2258 47.4743 91.5721 47.1995 91.2527 47.5523C90.6324 48.2355 89.9007 48.7479 89.0538 49.1081L89.871 49.7356C90.0232 49.0524 90.1718 48.3655 90.3241 47.6822C90.417 47.2626 89.923 46.7317 89.507 47.0547C88.8235 47.582 88.2441 48.1761 87.7353 48.8742L88.753 49.3049C88.9795 48.6031 89.2098 47.8976 89.4364 47.1958C89.6073 46.6722 88.8755 46.2415 88.5041 46.6537L87.3267 47.9607L88.2033 48.6365C88.5747 47.8568 88.7901 47.0547 88.8495 46.1932C88.8867 45.666 88.2367 45.5212 87.8987 45.7996C87.2375 46.3418 86.5727 46.8839 85.9116 47.426L86.7881 48.1018C87.2115 47.3518 87.5384 46.5571 87.7501 45.7217C87.8615 45.2872 87.3453 44.7934 86.933 45.0941C86.387 45.4877 85.841 45.8813 85.295 46.2749L86.1121 46.9025C86.3313 46.3158 86.491 45.718 86.5913 45.1016C86.673 44.5966 86.075 44.1139 85.659 44.5594C85.2133 45.0384 84.7304 45.4729 84.1956 45.8516L85.0127 46.4792C85.1984 45.7811 85.4287 45.0979 85.7184 44.4369C85.9487 43.9133 85.2876 43.2301 84.8418 43.7611C84.4296 44.255 83.9541 44.6226 83.371 44.8973L84.1881 45.5249C84.3404 44.9159 84.567 44.3552 84.879 43.8131L83.917 43.2524C83.5901 43.8948 83.1519 44.422 82.5836 44.8676L83.5158 45.4098C83.6124 44.8639 83.7053 44.3181 83.8018 43.7722C83.8836 43.297 83.2521 42.74 82.8696 43.2301C82.6764 43.4789 82.4796 43.7314 82.2864 43.9802L83.2373 44.3738L83.2261 42.8217C83.2187 42.105 82.1044 42.105 82.1119 42.8217L82.1193 42.818Z" fill="#698EA1"/>
<path d="M89.5515 47.3963C89.507 47.5708 89.455 47.7453 89.3918 47.9162C89.3621 48.0016 89.3212 48.087 89.2915 48.1761C89.247 48.2986 89.2618 48.436 89.3138 48.5548C89.3287 48.592 89.3398 48.6179 89.3584 48.6514C89.4475 48.785 89.5664 48.8816 89.7224 48.9299C89.8598 48.9744 90.0232 48.967 90.157 48.9187C90.3092 48.863 90.4244 48.7925 90.5432 48.6811C90.6621 48.5697 90.7884 48.4434 90.8961 48.3172C91.0484 48.1389 91.1932 47.9496 91.3195 47.7528L90.3018 47.322C90.2944 47.3703 90.2795 47.4149 90.261 47.4594L90.3167 47.3258C90.2944 47.374 90.2684 47.4186 90.235 47.4631L90.3204 47.3517C90.287 47.3926 90.2498 47.4297 90.209 47.4631L90.3204 47.3777L90.3092 47.3889C90.2461 47.4223 90.1904 47.4706 90.1532 47.5337C90.105 47.5857 90.0715 47.6488 90.053 47.7231C90.0158 47.8567 90.0344 48.035 90.1087 48.1538C90.183 48.2726 90.2981 48.3766 90.443 48.41C90.5878 48.4434 90.7549 48.4434 90.8738 48.3543C90.9407 48.3023 91.0112 48.2541 91.0707 48.1946C91.1301 48.1352 91.1858 48.061 91.2304 47.9867C91.2749 47.9124 91.3084 47.8345 91.3381 47.7565C91.3567 47.7156 91.3678 47.6711 91.3752 47.6265C91.4012 47.4817 91.4012 47.3258 91.3195 47.1958C91.2527 47.0918 91.1672 47.0176 91.0521 46.9693C90.937 46.921 90.8069 46.9025 90.6881 46.9396C90.5469 46.9841 90.4355 47.0695 90.3538 47.1958C90.2907 47.2961 90.2201 47.3926 90.1458 47.4854L90.2312 47.374C90.0752 47.5745 89.9007 47.7788 89.7038 47.9384L89.8152 47.853C89.7855 47.8753 89.7595 47.8902 89.7261 47.905L89.8598 47.8493C89.8375 47.8567 89.8115 47.8642 89.7892 47.8679L89.9378 47.8493C89.9378 47.8493 89.9081 47.8493 89.8932 47.8493L90.0418 47.8679C90.0418 47.8679 90.0232 47.8642 90.0121 47.8605L90.1458 47.9162C90.1458 47.9162 90.1347 47.9087 90.1272 47.905L90.2387 47.9904C90.2387 47.9904 90.2275 47.983 90.2238 47.9756L90.3092 48.087C90.3092 48.087 90.2981 48.0684 90.2944 48.0573L90.3501 48.488C90.4578 48.2281 90.547 47.9644 90.6138 47.6934C90.651 47.5523 90.6324 47.3926 90.5581 47.2626C90.4912 47.1475 90.3575 47.0361 90.2238 47.0064C90.0827 46.973 89.923 46.9804 89.793 47.0621C89.663 47.1438 89.5738 47.2515 89.5367 47.3963H89.5515Z" fill="#698EA1"/>
<path d="M37.6445 79.1612C39.7951 79.1612 39.7988 75.8193 37.6445 75.8193C35.4902 75.8193 35.4902 79.1612 37.6445 79.1612Z" fill="#A7BDC8"/>
<path d="M37.3437 78.472C37.5109 78.9621 37.7449 79.3965 38.1237 79.7567C38.5026 80.1169 38.9409 80.362 39.4497 80.5402C39.8434 80.6776 40.3894 80.5773 40.7386 80.3731C41.0877 80.1689 41.4146 79.7716 41.5074 79.3743C41.604 78.9473 41.5854 78.4683 41.3403 78.0858C41.0952 77.7033 40.7683 77.4694 40.3412 77.3172C40.304 77.306 40.2706 77.2912 40.2334 77.2763L40.6309 77.4434C40.512 77.3914 40.4006 77.3283 40.2929 77.2503L40.6309 77.5102C40.5306 77.4323 40.4414 77.3469 40.3597 77.2503L40.6197 77.5882C40.5454 77.488 40.4823 77.3877 40.434 77.2726L40.6012 77.6699C40.5863 77.6365 40.5752 77.6068 40.564 77.5734C40.4229 77.1612 40.1814 76.801 39.7952 76.5745C39.4386 76.3666 38.9074 76.2775 38.5063 76.4074C38.1052 76.5374 37.7115 76.7899 37.5072 77.1761C37.3029 77.5622 37.1952 78.0375 37.34 78.4645L37.3437 78.472Z" fill="#A7BDC8"/>
<path d="M40.6304 79.1612C42.7809 79.1612 42.7846 75.8193 40.6304 75.8193C38.4761 75.8193 38.4761 79.1612 40.6304 79.1612Z" fill="#A7BDC8"/>
<path d="M43.1723 80.6733C46.7566 80.6733 46.764 75.1035 43.1723 75.1035C39.5806 75.1035 39.5806 80.6733 43.1723 80.6733Z" fill="#A7BDC8"/>
<path d="M46.6073 80.6733C50.1916 80.6733 50.199 75.1035 46.6073 75.1035C43.0156 75.1035 43.0156 80.6733 46.6073 80.6733Z" fill="#A7BDC8"/>
<path d="M49.4453 79.7964C52.075 79.7964 52.0787 75.7119 49.4453 75.7119C46.8119 75.7119 46.8119 79.7964 49.4453 79.7964Z" fill="#A7BDC8"/>
<path d="M77.602 78.6753C80.2317 78.6753 80.2354 74.5908 77.602 74.5908C74.9686 74.5908 74.9686 78.6753 77.602 78.6753Z" fill="#A7BDC8"/>
<path d="M79.7563 78.8501C82.386 78.8501 82.3897 74.7656 79.7563 74.7656C77.1229 74.7656 77.1229 78.8501 79.7563 78.8501Z" fill="#A7BDC8"/>
<path d="M81.1938 79.1025C84.2989 79.1025 84.3064 74.2754 81.1938 74.2754C78.0812 74.2754 78.0812 79.1025 81.1938 79.1025Z" fill="#A7BDC8"/>
<path d="M84.9721 79.0772C88.0772 79.0772 88.0847 74.25 84.9721 74.25C81.8596 74.25 81.8596 79.0772 84.9721 79.0772Z" fill="#A7BDC8"/>
<path d="M87.8452 79.0176C90.9503 79.0176 90.9577 74.1904 87.8452 74.1904C84.7326 74.1904 84.7326 79.0176 87.8452 79.0176Z" fill="#A7BDC8"/>
<path d="M90.3603 78.732C92.99 78.732 92.9937 74.6475 90.3603 74.6475C87.7269 74.6475 87.7269 78.732 90.3603 78.732Z" fill="#A7BDC8"/>
<path d="M92.8744 78.2635C94.7873 78.2635 94.791 75.293 92.8744 75.293C90.9579 75.293 90.9579 78.2635 92.8744 78.2635Z" fill="#A7BDC8"/>
</g>
<defs>
<clipPath id="clip0_428_1672">
<rect width="127.251" height="123.516" fill="white" transform="translate(0.572266 0.126953)"/>
</clipPath>
</defs>
</svg>
