<svg width="128" height="125" viewBox="0 0 128 125" fill="none" xmlns="http://www.w3.org/2000/svg">
<g clip-path="url(#clip0_414_1501)">
<path d="M47.8622 19.8657C47.8622 19.8657 33.3878 21.6303 23.2368 29.9743C13.0858 38.3183 12.6883 38.8459 7.1281 46.4394C1.56788 54.033 0.773033 60.917 0.156469 69.3018C-0.460095 77.6867 0.862175 79.6296 2.27359 85.6332C3.685 91.6367 5.62755 96.756 7.5701 98.8736C9.51265 100.991 9.8655 101.875 10.3075 102.76C10.7495 103.644 12.3392 105.85 14.8092 107.79C17.2791 109.729 24.9602 115.911 28.1359 117.323C31.3115 118.734 39.1672 121.119 49.3182 123.237C59.4692 125.354 75.1768 123.768 86.7392 121.825C98.3016 119.882 106.332 113.087 110.923 108.759C115.513 104.431 122.749 96.1356 124.955 86.7774C127.161 77.4192 127.956 69.4764 126.545 62.4996C125.133 55.5227 119.662 44.5782 115.161 39.6372C110.659 34.6924 104.835 30.1044 102.718 28.6889C100.601 27.2735 96.3628 24.2754 88.2435 21.7158C80.1241 19.1561 75.1805 18.5394 68.6508 18.3611C62.1212 18.1828 49.9905 19.5128 47.8659 19.862L47.8622 19.8657Z" fill="#FF6600"/>
<path d="M34.0908 45.8977C33.9078 46.456 33.7172 47.1442 33.8108 47.7378C33.9044 48.3315 34.4988 48.6967 35.068 48.4555C35.5558 48.2482 35.8329 47.6795 36.1224 47.2685C36.5018 46.7236 36.8852 46.1753 37.2646 45.6304L35.9259 45.3345C36.134 46.367 36.4261 47.377 36.783 48.3703C37.0234 49.0327 37.9027 48.8261 38.1528 48.3109C38.6221 47.3339 39.0591 46.3428 39.4605 45.3336L38.0322 45.2089C38.3623 46.5094 38.8036 47.7748 39.3644 48.9948C39.6996 49.7251 40.6327 49.4151 40.7772 48.7415L41.5227 45.2005L40.0514 45.2696C40.2547 46.2719 40.5722 47.2468 41.0056 48.176C41.2634 48.7243 42.1899 48.7455 42.3754 48.1166L43.3735 44.7132L41.9452 44.5885C42.116 45.7073 42.4309 46.7976 42.8694 47.839C43.0983 48.3774 43.8189 48.3657 44.1459 47.9505C44.7539 47.1794 45.2351 46.3227 45.5836 45.4059L44.1553 45.2812C44.3957 46.2009 44.5678 47.1334 44.6679 48.0781C44.7072 48.4396 45.0908 48.7005 45.4321 48.6781C45.8258 48.6528 46.0659 48.3792 46.1355 48.0086C46.2766 47.29 46.4136 46.5748 46.5547 45.8562C46.6303 45.4601 46.2493 45.0837 45.8793 45.0514C45.4427 45.0133 45.1502 45.3308 45.0746 45.727C44.9335 46.4456 44.7965 47.1608 44.6555 47.8794L46.1268 47.8102C46.0229 46.8651 45.8545 45.933 45.6142 45.0133C45.4355 44.3265 44.4614 44.1668 44.1859 44.8886C43.8807 45.6936 43.4633 46.4179 42.9306 47.0948L44.2072 47.2063C43.8148 46.277 43.5515 45.3217 43.4 44.324C43.2936 43.6211 42.1791 43.4902 41.9718 44.1993L40.9736 47.6026L42.3434 47.5432C41.9636 46.7269 41.6865 45.886 41.5102 45.0018C41.3339 44.1175 40.2043 44.2873 40.0389 45.0709L39.2935 48.6119L40.7063 48.3587C40.1986 47.2552 39.7908 46.1195 39.491 44.941C39.3133 44.2431 38.3444 44.11 38.0628 44.8163C37.6614 45.8254 37.2281 46.8168 36.7551 47.7936L38.1248 47.7342C37.8094 46.8639 37.5702 45.9741 37.3847 45.0666C37.2598 44.4478 36.4204 44.2403 36.046 44.7707C35.7519 45.1925 35.4578 45.6143 35.1637 46.0361C35.0231 46.2364 34.8866 46.4334 34.7461 46.6336C34.6779 46.7321 34.6056 46.8339 34.5373 46.9324C34.5032 46.9816 34.4691 47.0309 34.435 47.0801C34.3432 47.1914 34.3734 47.1866 34.5186 47.0613L35.082 47.1851L35.0041 47.1372L35.2473 47.427C35.188 47.295 35.4118 46.6097 35.4734 46.4175C35.7688 45.511 34.3788 44.9906 34.0794 45.9004L34.0908 45.8977Z" fill="#331400"/>
<path d="M74.8515 41.9751C74.528 42.915 74.403 43.9038 74.46 44.8957C74.4981 45.5176 75.3121 45.8582 75.7464 45.37C76.4366 44.5932 77.1268 43.8163 77.817 43.0395L76.5488 42.3673C76.4214 43.047 76.2341 43.7054 75.9607 44.3406C75.6872 44.9757 76.3606 45.8025 77.0104 45.3213C77.7108 44.802 78.4112 44.2826 79.1088 43.7589L77.9893 42.9681C77.7568 43.8258 77.5208 44.6827 77.2891 45.5368C77.1017 46.2295 78.0924 46.7816 78.5573 46.2089C79.3819 45.1921 80.2064 44.1752 81.031 43.1584L79.7628 42.4862C79.5381 43.6962 79.3098 44.9053 79.0851 46.1152C78.9495 46.8311 79.8337 47.3324 80.3533 46.7874C81.049 46.0537 81.7482 45.3208 82.4439 44.5871L81.1757 43.9149C81.0931 44.6657 80.9144 45.387 80.6053 46.0788C80.2815 46.8016 81.2341 47.6231 81.8046 46.9373C82.4926 46.1028 83.3192 45.4635 84.2929 44.9985L83.1735 44.2077C82.9739 45.2062 82.7778 46.2055 82.5782 47.204C82.4308 47.9553 83.3122 48.3683 83.8464 47.8761C84.7294 47.0554 85.6913 46.3401 86.718 45.7081L85.5804 45.115C85.5302 45.9417 85.3293 46.7609 84.9965 47.5235C84.6938 48.2206 85.3736 48.8508 86.0463 48.5042C86.7189 48.1576 87.2942 47.6023 87.7192 46.9368C88.2367 46.1322 86.921 45.4341 86.408 46.2359C86.1197 46.6848 85.7239 47.0027 85.2535 47.2465L86.3033 48.2272C86.7447 47.2035 86.9921 46.1625 87.0613 45.0507C87.098 44.4686 86.3575 44.1903 85.9236 44.4576C84.7874 45.1525 83.7321 45.9608 82.7573 46.8675L84.0255 47.5396C84.2252 46.5411 84.4212 45.5418 84.6208 44.5433C84.7562 43.8617 84.0657 43.4804 83.5013 43.7525C82.4287 44.2675 81.4784 45.0158 80.7219 45.9338L81.9213 46.7923C82.2845 45.9794 82.5318 45.1403 82.633 44.2566C82.7105 43.5618 81.9143 43.0081 81.3648 43.5845C80.6691 44.3182 79.9699 45.0511 79.2742 45.7848L80.5424 46.4569C80.7671 45.247 80.9955 44.0379 81.2202 42.8279C81.3475 42.1483 80.4432 41.551 79.9519 42.1558C79.1274 43.1726 78.3028 44.1895 77.4782 45.2064L78.7465 45.8785C78.9789 45.0208 79.215 44.1639 79.4467 43.3098C79.6083 42.7141 78.8413 42.1326 78.3272 42.519C77.6268 43.0383 76.9264 43.5576 76.2289 44.0814L77.2786 45.0621C77.6025 44.3051 77.852 43.5236 78.0053 42.7127C78.1368 42.0149 77.2471 41.4704 76.7371 42.0405C76.0469 42.8174 75.3567 43.5942 74.6665 44.3711L75.9529 44.8454C75.8994 43.9724 76.0209 43.1505 76.3072 42.324C76.4394 41.9426 76.1092 41.5173 75.747 41.4352C75.3195 41.3383 74.9904 41.6142 74.8583 41.9956L74.8515 41.9751Z" fill="#331400"/>
<path d="M37.9934 83.0835C38.974 78.5472 34.2492 73.6761 27.4402 72.2037C20.6312 70.7312 14.3166 73.2149 13.336 77.7512C12.3555 82.2875 17.0803 87.1585 23.8893 88.631C30.6982 90.1034 37.0129 87.6197 37.9934 83.0835Z" fill="#FFA366"/>
<path d="M18.7424 80.6666C20.2112 80.6666 21.4018 79.4757 21.4018 78.0066C21.4018 76.5376 20.2112 75.3467 18.7424 75.3467C17.2737 75.3467 16.083 76.5376 16.083 78.0066C16.083 79.4757 17.2737 80.6666 18.7424 80.6666Z" fill="#FFC299"/>
<path d="M24.8342 85.3883C26.3029 85.3883 27.4936 84.1974 27.4936 82.7283C27.4936 81.2593 26.3029 80.0684 24.8342 80.0684C23.3655 80.0684 22.1748 81.2593 22.1748 82.7283C22.1748 84.1974 23.3655 85.3883 24.8342 85.3883Z" fill="#FFC299"/>
<path d="M31.9846 82.4313C33.4533 82.4313 34.644 81.2404 34.644 79.7713C34.644 78.3022 33.4533 77.1113 31.9846 77.1113C30.5158 77.1113 29.3252 78.3022 29.3252 79.7713C29.3252 81.2404 30.5158 82.4313 31.9846 82.4313Z" fill="#FFC299"/>
<path d="M103.283 87.7313C110.108 86.263 114.849 81.3944 113.873 76.8571C112.897 72.3198 106.574 69.8319 99.7495 71.3003C92.925 72.7686 88.1836 77.6372 89.1594 82.1745C90.1353 86.7118 96.4587 89.1997 103.283 87.7313Z" fill="#FFA366"/>
<path d="M108.445 79.7672C109.916 79.7672 111.108 78.5763 111.108 77.1072C111.108 75.6382 109.916 74.4473 108.445 74.4473C106.975 74.4473 105.782 75.6382 105.782 77.1072C105.782 78.5763 106.975 79.7672 108.445 79.7672Z" fill="#FFC299"/>
<path d="M102.343 84.4938C103.814 84.4938 105.006 83.3029 105.006 81.8338C105.006 80.3647 103.814 79.1738 102.343 79.1738C100.872 79.1738 99.6797 80.3647 99.6797 81.8338C99.6797 83.3029 100.872 84.4938 102.343 84.4938Z" fill="#FFC299"/>
<path d="M95.1778 81.5328C96.6486 81.5328 97.8409 80.3419 97.8409 78.8729C97.8409 77.4038 96.6486 76.2129 95.1778 76.2129C93.707 76.2129 92.5146 77.4038 92.5146 78.8729C92.5146 80.3419 93.707 81.5328 95.1778 81.5328Z" fill="#FFC299"/>
<path d="M57.8223 86.657C58.0559 87.4529 58.5826 88.1314 59.2653 88.6044C60.1706 89.2263 61.7093 89.9114 63.8282 89.5232C67.4068 88.8635 69.3939 86.3542 69.7934 84.4671C70.1929 82.5801 69.8565 80.8575 68.6337 79.8966C67.4109 78.9358 66.9 80.2054 66.9526 80.5939C67.0051 80.9823 66.9516 83.2286 65.673 84.334C64.3944 85.4395 62.5645 86.2145 60.6219 85.2827C58.6759 84.3523 57.9435 85.1749 57.7852 85.7433C57.7053 86.0258 57.7257 86.327 57.8237 86.6604L57.8223 86.657Z" fill="#331400"/>
<path d="M45.6159 82.1633C54.2959 82.1633 61.3324 75.47 61.3324 67.2135C61.3324 58.9569 54.2959 52.2637 45.6159 52.2637C36.9359 52.2637 29.8994 58.9569 29.8994 67.2135C29.8994 75.47 36.9359 82.1633 45.6159 82.1633Z" fill="#182126"/>
<rect x="52.1328" y="61.4639" width="22.2331" height="2.29997" fill="#182126"/>
<path d="M85.1274 81.7978C93.572 79.7903 98.8573 71.5959 96.9323 63.4952C95.0074 55.3946 86.6012 50.4551 78.1565 52.4627C69.7119 54.4702 64.4267 62.6646 66.3517 70.7652C68.2766 78.8659 76.6828 83.8054 85.1274 81.7978Z" fill="#182126"/>
<path opacity="0.2" d="M46.8306 58.405C46.3455 57.7321 45.6232 57.2674 44.8221 57.0484C43.7614 56.763 42.0825 56.6287 40.2133 57.6995C37.0579 59.5118 36.0185 62.5392 36.2693 64.4517C36.5202 66.3642 37.4104 67.8768 38.8832 68.3763C40.3559 68.8757 40.4154 67.5085 40.2367 67.1596C40.058 66.8107 39.3613 64.6745 40.1995 63.2068C41.0376 61.739 42.5055 60.3996 44.6474 60.6322C46.7921 60.8624 47.2092 59.843 47.1695 59.2543C47.1509 58.9613 47.0315 58.684 46.8281 58.4022L46.8306 58.405Z" fill="#F9FAFB"/>
<path opacity="0.2" d="M82.0972 58.405C81.6121 57.7321 80.8898 57.2674 80.0887 57.0484C79.028 56.763 77.3491 56.6287 75.4799 57.6995C72.3245 59.5118 71.2851 62.5392 71.5359 64.4517C71.7868 66.3642 72.677 67.8768 74.1498 68.3763C75.6225 68.8757 75.682 67.5085 75.5033 67.1596C75.3246 66.8107 74.6279 64.6745 75.4661 63.2068C76.3042 61.739 77.7721 60.3996 79.914 60.6322C82.0587 60.8624 82.4758 59.843 82.4361 59.2543C82.4175 58.9613 82.2981 58.684 82.0947 58.4022L82.0972 58.405Z" fill="#F9FAFB"/>
<path d="M29.1176 7.28378C29.1176 7.28378 28.631 11.8756 33.3964 16.8612C38.1618 21.8468 42.2215 24.1427 50.1662 24.9377C58.111 25.7327 58.4193 23.4814 60.8892 24.7594C63.3592 26.0373 63.0509 25.9965 63.3592 24.5402C63.6675 23.0839 65.2126 13.5065 59.8715 7.76673C54.5342 2.0307 44.2086 -1.1048 37.5452 1.72235C37.5452 1.72235 36.0447 2.33905 35.0307 3.04491C34.0167 3.75077 32.6461 4.45662 31.2347 4.41204C29.8233 4.36746 28.7833 4.44176 29.1176 7.28006V7.28378Z" fill="#3195A3"/>
<path d="M36.6202 9.45742C36.6202 9.45742 39.7104 10.5831 43.4618 11.1552C47.2132 11.7273 51.934 13.8486 55.9937 17.1141C60.0533 20.3797 59.1285 21.3084 60.9373 21.0001C62.7462 20.6917 61.3793 19.3246 59.6151 17.7791C57.8508 16.2337 51.5403 11.4227 46.2884 10.4531C41.0364 9.48343 39.3613 9.7472 37.4633 8.77757C35.5653 7.80794 35.9999 8.90759 35.9999 8.90759C35.9999 8.90759 36.0296 9.10449 36.6239 9.46114L36.6202 9.45742Z" fill="#297E8A"/>
</g>
<defs>
<clipPath id="clip0_414_1501">
<rect width="127.25" height="123.849" fill="white" transform="translate(0 0.399414)"/>
</clipPath>
</defs>
</svg>
