<svg width="128" height="124" viewBox="0 0 128 124" fill="none" xmlns="http://www.w3.org/2000/svg">
<g clip-path="url(#clip0_261_164)">
<path d="M48.136 19.2084C48.136 19.2084 33.6615 20.9718 23.5104 29.3101C13.3593 37.6484 12.9619 38.1755 7.40159 45.7639C1.84133 53.3485 1.04648 60.2315 0.429908 68.6106C-0.186661 76.9897 1.13562 78.9313 2.54704 84.9307C3.95846 90.9301 5.90103 96.0459 7.84359 98.162C9.78615 100.278 10.139 101.162 10.581 102.045C11.023 102.929 12.6127 105.134 15.0827 107.072C17.5527 109.01 25.2338 115.188 28.4095 116.598C31.5852 118.009 39.4409 120.392 49.592 122.509C59.7431 124.625 75.4507 123.039 87.0133 121.098C98.5758 119.156 106.606 112.366 111.197 108.041C115.788 103.716 123.023 95.4259 125.229 86.0741C127.436 76.7224 128.231 68.785 126.819 61.813C125.408 54.8409 119.937 43.9039 115.435 38.9663C110.933 34.0287 105.109 29.44 102.992 28.0256C100.875 26.6148 96.6369 23.6151 88.5175 21.0572C80.3981 18.4993 75.4545 17.883 68.9248 17.7048C62.3951 17.5266 50.2643 18.8557 48.1397 19.2047L48.136 19.2084Z" fill="#FF6600"/>
<path d="M38.3834 74.2861C38.7313 69.6613 33.3819 65.4889 26.4352 64.9668C19.4885 64.4447 13.575 67.7707 13.2271 72.3955C12.8792 77.0204 18.2286 81.1928 25.1753 81.7148C32.122 82.2369 38.0355 78.911 38.3834 74.2861Z" fill="#FFA366"/>
<path d="M18.6184 74.5624C20.0872 74.5624 21.2778 73.3723 21.2778 71.9042C21.2778 70.4362 20.0872 69.2461 18.6184 69.2461C17.1496 69.2461 15.959 70.4362 15.959 71.9042C15.959 73.3723 17.1496 74.5624 18.6184 74.5624Z" fill="#FFC299"/>
<path d="M25.6709 78.3761C27.1257 78.1743 28.1414 76.8319 27.9395 75.3778C27.7377 73.9237 26.3947 72.9085 24.9398 73.1102C23.485 73.312 22.4693 74.6544 22.6712 76.1085C22.8731 77.5626 24.2161 78.5779 25.6709 78.3761Z" fill="#FFC299"/>
<path d="M32.3428 74.4669C33.7976 74.2651 34.8133 72.9228 34.6114 71.4686C34.4095 70.0145 33.0665 68.9993 31.6117 69.2011C30.1569 69.4028 29.1412 70.7452 29.3431 72.1993C29.5449 73.6534 30.8879 74.6687 32.3428 74.4669Z" fill="#FFC299"/>
<path d="M100.96 78.1515C107.875 77.1925 112.963 72.691 112.325 68.0971C111.687 63.5032 105.565 60.5565 98.6506 61.5155C91.7361 62.4745 86.6479 66.976 87.2856 71.5699C87.9234 76.1638 94.0457 79.1105 100.96 78.1515Z" fill="#FFA366"/>
<path d="M109.557 68.1402C109.665 66.6762 108.564 65.4012 107.097 65.2925C105.631 65.1838 104.354 66.2826 104.245 67.7466C104.136 69.2106 105.237 70.4856 106.704 70.5943C108.171 70.703 109.448 69.6042 109.557 68.1402Z" fill="#FFC299"/>
<path d="M103.119 72.3941C103.227 70.9301 102.126 69.6551 100.659 69.5464C99.1927 69.4377 97.9156 70.5365 97.807 72.0005C97.6984 73.4645 98.7994 74.7395 100.266 74.8482C101.733 74.9569 103.01 73.8581 103.119 72.3941Z" fill="#FFC299"/>
<path d="M96.1983 68.9185C96.3068 67.4545 95.2058 66.1795 93.739 66.0708C92.2722 65.9621 90.9952 67.0609 90.8866 68.5249C90.778 69.9889 91.879 71.2639 93.3458 71.3726C94.8126 71.4813 96.0897 70.3826 96.1983 68.9185Z" fill="#FFC299"/>
<path d="M40.8892 65.4066C48.2556 65.4066 54.2272 59.6822 54.2272 52.6208C54.2272 45.5594 48.2556 39.835 40.8892 39.835C33.5229 39.835 27.5513 45.5594 27.5513 52.6208C27.5513 59.6822 33.5229 65.4066 40.8892 65.4066Z" fill="white"/>
<path d="M44.1612 60.339C48.11 60.339 51.3112 57.1394 51.3112 53.1925C51.3112 49.2455 48.11 46.0459 44.1612 46.0459C40.2124 46.0459 37.0112 49.2455 37.0112 53.1925C37.0112 57.1394 40.2124 60.339 44.1612 60.339Z" fill="#331400"/>
<path d="M43.6935 51.8115C44.955 51.8115 45.9777 50.7893 45.9777 49.5283C45.9777 48.2673 44.955 47.2451 43.6935 47.2451C42.4319 47.2451 41.4092 48.2673 41.4092 49.5283C41.4092 50.7893 42.4319 51.8115 43.6935 51.8115Z" fill="white"/>
<path d="M85.1522 63.7558C92.3189 62.0532 96.8043 55.1038 95.1707 48.2337C93.537 41.3637 86.4029 37.1746 79.2362 38.8772C72.0695 40.5798 67.5841 47.5292 69.2178 54.3993C70.8514 61.2693 77.9855 65.4584 85.1522 63.7558Z" fill="white"/>
<path d="M85.0479 59.7677C88.9967 59.7677 92.1979 56.5681 92.1979 52.6212C92.1979 48.6742 88.9967 45.4746 85.0479 45.4746C81.0991 45.4746 77.8979 48.6742 77.8979 52.6212C77.8979 56.5681 81.0991 59.7677 85.0479 59.7677Z" fill="#331400"/>
<path d="M84.5768 51.2441C85.8383 51.2441 86.861 50.2219 86.861 48.9609C86.861 47.6999 85.8383 46.6777 84.5768 46.6777C83.3152 46.6777 82.2925 47.6999 82.2925 48.9609C82.2925 50.2219 83.3152 51.2441 84.5768 51.2441Z" fill="white"/>
<path d="M35.7602 6.63817C35.7602 6.63817 35.2736 11.2268 40.039 16.209C44.8044 21.1949 48.8641 23.4855 56.809 24.2799C64.7538 25.0744 65.0621 22.8246 67.5321 24.1017C70.002 25.3788 69.6938 25.338 70.002 23.8827C70.3103 22.4274 71.8555 12.8566 66.5143 7.12079C61.1732 1.38499 50.8513 -1.74464 44.1879 1.08057C44.1879 1.08057 42.6873 1.69684 41.6733 2.40221C40.6593 3.10759 39.2887 3.81296 37.8773 3.76841C36.4659 3.72386 35.4259 3.79811 35.7602 6.63446V6.63817Z" fill="#3195A3"/>
<path d="M43.2633 8.8102C43.2633 8.8102 46.3535 9.93508 50.1049 10.5068C53.8564 11.0785 58.5772 13.1984 62.6369 16.4616C66.6966 19.7249 65.7717 20.6531 67.5806 20.3449C69.3894 20.0368 68.0226 18.6706 66.2583 17.1262C64.494 15.5818 58.1835 10.7741 52.9315 9.80514C47.6795 8.83618 46.0044 9.09977 44.1064 8.13081C42.2084 7.16185 42.643 8.26075 42.643 8.26075C42.643 8.26075 42.6727 8.45751 43.267 8.81391L43.2633 8.8102Z" fill="#297E8A"/>
<path d="M26.7493 37.184C27.1839 37.9599 27.7967 38.5948 28.5396 39.0811C29.0039 39.3855 29.8099 39.1071 29.9027 38.528C30.0439 37.6518 30.0959 36.7794 30.0067 35.8958L28.4207 36.5529C28.6213 36.72 28.8107 36.8945 28.9853 37.0875C29.0744 37.184 29.1599 37.2806 29.2379 37.3845C29.171 37.2954 29.3567 37.5627 29.3753 37.5924C29.8024 38.2347 30.861 38.179 31.0727 37.3697C31.3104 36.4527 31.4256 35.5023 31.3921 34.5556L29.6613 35.0234C30.1144 35.8698 30.6604 36.6531 31.2733 37.3919C31.7821 38.0045 32.9076 37.507 32.8593 36.7348C32.8073 35.9218 32.6884 35.1125 32.499 34.3217L30.9464 35.2238C31.277 35.6025 31.6001 35.9886 31.9344 36.3636C32.343 36.8239 32.9224 37.0986 33.5241 36.8462C34.2633 36.5343 34.2261 35.7287 34.1221 35.0679C34.0441 34.5593 33.8658 34.0841 33.6393 33.6238C33.4238 33.1857 32.7701 33.0335 32.369 33.2896C31.9196 33.5792 31.8044 34.0915 32.0347 34.5593C32.0644 34.6187 32.0941 34.6781 32.1201 34.7375C32.0904 34.667 32.0941 34.6855 32.1387 34.7932C32.1796 34.9194 32.2204 35.0456 32.2538 35.1719C32.2687 35.235 32.2836 35.3018 32.2984 35.3649C32.317 35.48 32.3207 35.4948 32.3133 35.4132C32.3207 35.48 32.3281 35.5431 32.3318 35.6099C32.3318 35.8401 32.3876 35.751 32.5101 35.3389L32.9187 35.1013C33.0524 35.0456 33.2196 35.1533 33.3384 35.1644C33.3793 35.1978 33.3793 35.1941 33.3421 35.1607C33.3198 35.1384 33.3013 35.1162 33.279 35.0939C33.1601 34.9602 33.045 34.8229 32.9261 34.6855C32.7033 34.4294 32.4804 34.1695 32.2576 33.9133C32.0013 33.6163 31.459 33.5569 31.1321 33.7685C30.7756 33.9987 30.6047 34.4034 30.705 34.8155C30.8721 35.5097 30.9576 36.0554 30.9984 36.7348L32.5844 36.0777C32.4544 35.9218 32.3616 35.8067 32.291 35.7102C32.161 35.532 32.0347 35.3538 31.9121 35.1719C31.6781 34.8192 31.4627 34.4591 31.2621 34.0841C30.8276 33.2785 29.5016 33.6386 29.5313 34.5519C29.5573 35.4095 29.4867 36.0703 29.275 36.8722L30.9724 36.6494C30.6233 36.1223 30.2147 35.6396 29.7244 35.235C29.431 34.9899 29.0781 34.886 28.7104 35.0419C28.3984 35.1719 28.105 35.5283 28.1384 35.8884C28.209 36.5975 28.1979 37.4216 28.1013 38.0268L29.4644 37.4736C29.3864 37.4216 29.3084 37.3697 29.2341 37.314C29.3121 37.3734 29.2341 37.314 29.2007 37.2843C29.0707 37.1729 28.9444 37.0541 28.8256 36.9279C28.7736 36.8722 28.7216 36.8128 28.6696 36.7534L28.6102 36.6791C28.651 36.7311 28.651 36.7311 28.6139 36.6791C28.5136 36.5381 28.4244 36.3933 28.339 36.2411C28.1013 35.8178 27.4847 35.6396 27.0687 35.9069C26.6527 36.1742 26.4819 36.7237 26.7344 37.1766L26.7493 37.184Z" fill="#331400"/>
<path d="M84.9927 30.3717C84.8701 31.0808 84.8144 31.7899 84.859 32.5064C84.8813 32.8776 85.0707 33.2118 85.431 33.3528C85.7579 33.4828 86.1961 33.4419 86.445 33.1598C87.1024 32.4173 87.7561 31.6748 88.4136 30.9323L86.861 30.5239C87.0281 31.0103 87.069 31.4558 86.9613 31.9272C86.8684 32.3319 87.0207 32.7625 87.3884 32.9742C87.7153 33.1635 88.2613 33.1486 88.5138 32.8294C88.9521 32.2725 89.3867 31.8864 89.9513 31.5523L88.5547 30.7504C88.5027 31.4669 88.4544 32.1797 88.4024 32.8962C88.3727 33.2971 88.7107 33.687 89.0858 33.7909C89.5167 33.9097 89.8807 33.6944 90.1333 33.364C90.5381 32.8368 90.9801 32.3245 91.4333 31.8344L89.8473 31.1773C89.8287 31.8716 89.8101 32.5658 89.7953 33.26C89.7841 33.6238 90.0367 33.9765 90.3673 34.1065C90.6793 34.2327 91.1547 34.2067 91.3813 33.9134C91.8233 33.3417 92.269 32.77 92.711 32.1983C93.0192 31.801 93.0972 31.2701 92.711 30.884C92.3915 30.5648 91.7081 30.4868 91.3961 30.884C90.9541 31.4558 90.5084 32.0275 90.0664 32.5992L91.6524 33.2563C91.671 32.5621 91.6895 31.8678 91.7044 31.1736C91.723 30.3866 90.6607 29.9225 90.1184 30.5165C89.5761 31.1105 89.0338 31.7676 88.5287 32.4247L90.2595 32.8925C90.3115 32.176 90.3598 31.4632 90.4118 30.7467C90.4638 30.0302 89.591 29.6069 89.0153 29.9448C88.3244 30.3531 87.7004 30.8803 87.199 31.5114L88.7516 32.4136C88.9336 31.6191 88.915 30.7986 88.6513 30.0264C88.4396 29.4102 87.5927 29.0612 87.0987 29.6181C86.4413 30.3606 85.7876 31.1031 85.1301 31.8456L86.7161 32.5027C86.679 31.9495 86.6938 31.3741 86.783 30.8617C86.8721 30.3494 86.653 29.8631 86.133 29.7183C85.6873 29.5958 85.0744 29.8705 84.989 30.368L84.9927 30.3717Z" fill="#331400"/>
<path d="M62.3389 80.9849C67.0241 80.9849 70.8223 76.3375 70.8223 70.6047C70.8223 64.872 67.0241 60.2246 62.3389 60.2246C57.6536 60.2246 53.8555 64.872 53.8555 70.6047C53.8555 76.3375 57.6536 80.9849 62.3389 80.9849Z" fill="#331400"/>
<path d="M69.6825 75.8132C68.1114 73.6414 65.5077 72.2158 62.5586 72.2158C59.4497 72.2158 56.7234 73.7936 55.1895 76.1696C56.6937 79.0654 59.3383 80.9847 62.3506 80.9847C65.3628 80.9847 68.2191 78.9057 69.6862 75.8132H69.6825Z" fill="#E83828"/>
<path d="M112.215 40.1504C114.163 40.1504 115.743 38.5714 115.743 36.6235C115.743 34.6757 114.163 33.0967 112.215 33.0967C110.266 33.0967 108.686 34.6757 108.686 36.6235C108.686 38.5714 110.266 40.1504 112.215 40.1504Z" fill="#331400"/>
<path d="M118.35 13.3389L112.173 29.8892L117.89 32.3394L126.139 16.6764L118.35 13.3389Z" fill="#331400"/>
</g>
<defs>
<clipPath id="clip0_261_164">
<rect width="127.251" height="123.492" fill="white" transform="translate(0.273438 0.0263672)"/>
</clipPath>
</defs>
</svg>
