<svg width="128" height="124" viewBox="0 0 128 124" fill="none" xmlns="http://www.w3.org/2000/svg">
<g clip-path="url(#clip0_428_1720)">
<path d="M48.135 19.309C48.135 19.309 33.6605 21.0724 23.5094 29.4107C13.3583 37.7489 12.9609 38.2761 7.40062 45.8645C1.84035 53.4491 1.0455 60.3321 0.428931 68.7112C-0.187638 77.0903 1.13464 79.0319 2.54606 85.0313C3.95749 91.0307 5.90005 96.1465 7.84261 98.2626C9.78518 100.379 10.138 101.262 10.58 102.146C11.022 103.029 12.6117 105.235 15.0817 107.173C17.5517 109.111 25.2328 115.288 28.4085 116.699C31.5842 118.11 39.4399 120.493 49.591 122.609C59.7421 124.725 75.4498 123.14 87.0123 121.198C98.5748 119.257 106.605 112.467 111.196 108.142C115.787 103.817 123.022 95.5265 125.228 86.1747C127.435 76.823 128.23 68.8856 126.818 61.9136C125.407 54.9415 119.936 44.0045 115.434 39.0669C110.932 34.1293 105.108 29.5406 102.991 28.1262C100.874 26.7154 96.636 23.7157 88.5166 21.1578C80.3972 18.5999 75.4535 17.9836 68.9238 17.8054C62.3941 17.6272 50.2633 18.9563 48.1387 19.3053L48.135 19.309Z" fill="#E7EDF0"/>
<path d="M38.3834 74.3867C38.7313 69.7619 33.3819 65.5894 26.4352 65.0674C19.4885 64.5453 13.575 67.8712 13.2271 72.4961C12.8792 77.1209 18.2286 81.2933 25.1753 81.8154C32.122 82.3375 38.0355 79.0115 38.3834 74.3867Z" fill="#F9FAFB"/>
<path d="M18.6184 74.662C20.0872 74.662 21.2778 73.4719 21.2778 72.0039C21.2778 70.5358 20.0872 69.3457 18.6184 69.3457C17.1496 69.3457 15.959 70.5358 15.959 72.0039C15.959 73.4719 17.1496 74.662 18.6184 74.662Z" fill="#E7EDF0"/>
<path d="M25.6704 78.4757C27.1252 78.2739 28.1409 76.9315 27.9391 75.4774C27.7372 74.0233 26.3942 73.0081 24.9394 73.2098C23.4845 73.4116 22.4688 74.754 22.6707 76.2081C22.8726 77.6622 24.2156 78.6775 25.6704 78.4757Z" fill="#E7EDF0"/>
<path d="M32.3428 74.5675C33.7976 74.3657 34.8133 73.0233 34.6114 71.5692C34.4095 70.1151 33.0665 69.0999 31.6117 69.3016C30.1569 69.5034 29.1412 70.8458 29.3431 72.2999C29.5449 73.754 30.8879 74.7693 32.3428 74.5675Z" fill="#E7EDF0"/>
<path d="M100.958 78.253C107.873 77.294 112.961 72.7925 112.323 68.1986C111.685 63.6047 105.563 60.6581 98.6486 61.6171C91.7342 62.5761 86.6459 67.0776 87.2837 71.6715C87.9214 76.2654 94.0437 79.212 100.958 78.253Z" fill="#F9FAFB"/>
<path d="M109.555 68.2408C109.663 66.7767 108.562 65.5018 107.095 65.3931C105.629 65.2844 104.352 66.3831 104.243 67.8472C104.134 69.3112 105.235 70.5862 106.702 70.6948C108.169 70.8035 109.446 69.7048 109.555 68.2408Z" fill="#E7EDF0"/>
<path d="M103.117 72.4957C103.226 71.0316 102.125 69.7567 100.658 69.648C99.1912 69.5393 97.9141 70.638 97.8055 72.1021C97.6969 73.5661 98.7979 74.841 100.265 74.9497C101.732 75.0584 103.009 73.9597 103.117 72.4957Z" fill="#E7EDF0"/>
<path d="M96.1958 69.0191C96.3044 67.5551 95.2034 66.2801 93.7366 66.1714C92.2698 66.0627 90.9927 67.1615 90.8841 68.6255C90.7755 70.0895 91.8766 71.3645 93.3433 71.4732C94.8101 71.5819 96.0872 70.4831 96.1958 69.0191Z" fill="#E7EDF0"/>
<path d="M40.8887 65.5082C48.2551 65.5082 54.2267 59.7838 54.2267 52.7224C54.2267 45.6609 48.2551 39.9365 40.8887 39.9365C33.5224 39.9365 27.5508 45.6609 27.5508 52.7224C27.5508 59.7838 33.5224 65.5082 40.8887 65.5082Z" fill="white"/>
<path d="M44.1617 60.4406C48.1105 60.4406 51.3117 57.2409 51.3117 53.294C51.3117 49.3471 48.1105 46.1475 44.1617 46.1475C40.2129 46.1475 37.0117 49.3471 37.0117 53.294C37.0117 57.2409 40.2129 60.4406 44.1617 60.4406Z" fill="#698EA1"/>
<path d="M43.693 51.913C44.9545 51.913 45.9772 50.8908 45.9772 49.6299C45.9772 48.3689 44.9545 47.3467 43.693 47.3467C42.4314 47.3467 41.4087 48.3689 41.4087 49.6299C41.4087 50.8908 42.4314 51.913 43.693 51.913Z" fill="white"/>
<path d="M85.1532 63.8574C92.3199 62.1548 96.8053 55.2053 95.1716 48.3353C93.538 41.4652 86.4039 37.2762 79.2372 38.9788C72.0705 40.6813 67.5851 47.6308 69.2187 54.5008C70.8524 61.3709 77.9865 65.5599 85.1532 63.8574Z" fill="white"/>
<path d="M85.0499 59.8703C88.9987 59.8703 92.1998 56.6706 92.1998 52.7237C92.1998 48.7768 88.9987 45.5771 85.0499 45.5771C81.1011 45.5771 77.8999 48.7768 77.8999 52.7237C77.8999 56.6706 81.1011 59.8703 85.0499 59.8703Z" fill="#698EA1"/>
<path d="M84.5787 51.3457C85.8403 51.3457 86.863 50.3234 86.863 49.0625C86.863 47.8015 85.8403 46.7793 84.5787 46.7793C83.3171 46.7793 82.2944 47.8015 82.2944 49.0625C82.2944 50.3234 83.3171 51.3457 84.5787 51.3457Z" fill="white"/>
<path d="M35.7602 6.73876C35.7602 6.73876 35.2736 11.3274 40.039 16.3096C44.8044 21.2954 48.8641 23.5861 56.809 24.3805C64.7538 25.175 65.0621 22.9252 67.5321 24.2023C70.002 25.4794 69.6938 25.4386 70.002 23.9833C70.3103 22.528 71.8555 12.9572 66.5143 7.22138C61.1732 1.48558 50.8513 -1.64406 44.1879 1.18115C44.1879 1.18115 42.6873 1.79743 41.6733 2.5028C40.6593 3.20817 39.2887 3.91355 37.8773 3.869C36.4659 3.82445 35.4259 3.8987 35.7602 6.73504V6.73876Z" fill="#A7BDC8"/>
<path d="M43.2633 8.91078C43.2633 8.91078 46.3535 10.0357 50.1049 10.6074C53.8564 11.1791 58.5772 13.299 62.6369 16.5622C66.6966 19.8255 65.7717 20.7536 67.5806 20.4455C69.3894 20.1374 68.0226 18.7712 66.2583 17.2268C64.494 15.6824 58.1835 10.8747 52.9315 9.90573C47.6795 8.93677 46.0044 9.20036 44.1064 8.2314C42.2084 7.26243 42.643 8.36133 42.643 8.36133C42.643 8.36133 42.6727 8.55809 43.267 8.91449L43.2633 8.91078Z" fill="#88A6B4"/>
<path d="M26.7493 37.2856C27.1839 38.0615 27.7967 38.6963 28.5396 39.1827C29.0039 39.4871 29.8099 39.2087 29.9027 38.6295C30.0439 37.7534 30.0959 36.8809 30.0067 35.9974L28.4207 36.6545C28.6213 36.8215 28.8107 36.996 28.9853 37.1891C29.0744 37.2856 29.1599 37.3821 29.2379 37.4861C29.171 37.397 29.3567 37.6643 29.3753 37.694C29.8024 38.3362 30.861 38.2805 31.0727 37.4712C31.3104 36.5542 31.4256 35.6038 31.3921 34.6572L29.6613 35.1249C30.1144 35.9714 30.6604 36.7547 31.2733 37.4935C31.7821 38.1061 32.9076 37.6086 32.8593 36.8364C32.8073 36.0233 32.6884 35.214 32.499 34.4233L30.9464 35.3254C31.277 35.7041 31.6001 36.0902 31.9344 36.4651C32.343 36.9255 32.9224 37.2002 33.5241 36.9478C34.2633 36.6359 34.2261 35.8303 34.1221 35.1695C34.0441 34.6609 33.8658 34.1857 33.6393 33.7253C33.4238 33.2872 32.7701 33.135 32.369 33.3912C31.9196 33.6808 31.8044 34.1931 32.0347 34.6609C32.0644 34.7203 32.0941 34.7797 32.1201 34.8391C32.0904 34.7685 32.0941 34.7871 32.1387 34.8948C32.1796 35.021 32.2204 35.1472 32.2538 35.2734C32.2687 35.3365 32.2836 35.4034 32.2984 35.4665C32.317 35.5816 32.3207 35.5964 32.3133 35.5147C32.3207 35.5816 32.3281 35.6447 32.3318 35.7115C32.3318 35.9417 32.3876 35.8526 32.5101 35.4405L32.9187 35.2029C33.0524 35.1472 33.2196 35.2549 33.3384 35.266C33.3793 35.2994 33.3793 35.2957 33.3421 35.2623C33.3198 35.24 33.3013 35.2177 33.279 35.1955C33.1601 35.0618 33.045 34.9244 32.9261 34.7871C32.7033 34.5309 32.4804 34.271 32.2576 34.0149C32.0013 33.7179 31.459 33.6585 31.1321 33.8701C30.7756 34.1003 30.6047 34.5049 30.705 34.917C30.8721 35.6113 30.9576 36.157 30.9984 36.8364L32.5844 36.1793C32.4544 36.0233 32.3616 35.9083 32.291 35.8117C32.161 35.6335 32.0347 35.4553 31.9121 35.2734C31.6781 34.9207 31.4627 34.5606 31.2621 34.1857C30.8276 33.3801 29.5016 33.7402 29.5313 34.6534C29.5573 35.511 29.4867 36.1718 29.275 36.9737L30.9724 36.751C30.6233 36.2238 30.2147 35.7412 29.7244 35.3365C29.431 35.0915 29.0781 34.9876 28.7104 35.1435C28.3984 35.2734 28.105 35.6298 28.1384 35.9899C28.209 36.699 28.1979 37.5232 28.1013 38.1283L29.4644 37.5752C29.3864 37.5232 29.3084 37.4712 29.2341 37.4155C29.3121 37.4749 29.2341 37.4155 29.2007 37.3858C29.0707 37.2745 28.9444 37.1557 28.8256 37.0294C28.7736 36.9737 28.7216 36.9143 28.6696 36.8549L28.6102 36.7807C28.651 36.8327 28.651 36.8327 28.6139 36.7807C28.5136 36.6396 28.4244 36.4948 28.339 36.3426C28.1013 35.9194 27.4847 35.7412 27.0687 36.0085C26.6527 36.2758 26.4819 36.8252 26.7344 37.2782L26.7493 37.2856Z" fill="#698EA1"/>
<path d="M84.9927 30.4733C84.8701 31.1824 84.8144 31.8914 84.859 32.6079C84.8813 32.9792 85.0707 33.3133 85.431 33.4544C85.7579 33.5843 86.1961 33.5435 86.445 33.2613C87.1024 32.5188 87.7561 31.7764 88.4136 31.0339L86.861 30.6255C87.0281 31.1118 87.069 31.5573 86.9613 32.0288C86.8684 32.4335 87.0207 32.8641 87.3884 33.0757C87.7153 33.2651 88.2613 33.2502 88.5138 32.9309C88.9521 32.3741 89.3867 31.988 89.9513 31.6538L88.5547 30.8519C88.5027 31.5685 88.4544 32.2812 88.4024 32.9978C88.3727 33.3987 88.7107 33.7885 89.0858 33.8925C89.5167 34.0113 89.8807 33.7959 90.1333 33.4655C90.5381 32.9384 90.9801 32.426 91.4333 31.936L89.8473 31.2789C89.8287 31.9731 89.8101 32.6673 89.7953 33.3616C89.7841 33.7254 90.0367 34.0781 90.3673 34.208C90.6793 34.3343 91.1547 34.3083 91.3813 34.015C91.8233 33.4433 92.269 32.8715 92.711 32.2998C93.0192 31.9026 93.0972 31.3717 92.711 30.9856C92.3915 30.6663 91.7081 30.5884 91.3961 30.9856C90.9541 31.5573 90.5084 32.129 90.0664 32.7008L91.6524 33.3579C91.671 32.6636 91.6895 31.9694 91.7044 31.2752C91.723 30.4881 90.6607 30.0241 90.1184 30.6181C89.5761 31.212 89.0338 31.8692 88.5287 32.5263L90.2595 32.994C90.3115 32.2775 90.3598 31.5647 90.4118 30.8482C90.4638 30.1317 89.591 29.7085 89.0153 30.0463C88.3244 30.4547 87.7004 30.9819 87.199 31.613L88.7516 32.5151C88.9336 31.7207 88.915 30.9002 88.6513 30.128C88.4396 29.5117 87.5927 29.1628 87.0987 29.7196C86.4413 30.4621 85.7876 31.2046 85.1301 31.9471L86.7161 32.6042C86.679 32.0511 86.6938 31.4756 86.783 30.9633C86.8721 30.451 86.653 29.9647 86.133 29.8199C85.6873 29.6974 85.0744 29.9721 84.989 30.4696L84.9927 30.4733Z" fill="#698EA1"/>
<path d="M62.3389 81.0855C67.0241 81.0855 70.8223 76.4381 70.8223 70.7053C70.8223 64.9725 67.0241 60.3252 62.3389 60.3252C57.6536 60.3252 53.8555 64.9725 53.8555 70.7053C53.8555 76.4381 57.6536 81.0855 62.3389 81.0855Z" fill="#88A6B4"/>
<path d="M69.6825 75.9148C68.1114 73.743 65.5077 72.3174 62.5586 72.3174C59.4497 72.3174 56.7234 73.8952 55.1895 76.2712C56.6937 79.1669 59.3383 81.0863 62.3506 81.0863C65.3628 81.0863 68.2191 79.0073 69.6862 75.9148H69.6825Z" fill="#A7BDC8"/>
<path d="M112.213 40.251C114.162 40.251 115.742 38.672 115.742 36.7241C115.742 34.7763 114.162 33.1973 112.213 33.1973C110.264 33.1973 108.685 34.7763 108.685 36.7241C108.685 38.672 110.264 40.251 112.213 40.251Z" fill="#88A6B4"/>
<path d="M118.349 13.4395L112.172 29.9898L117.888 32.44L126.138 16.777L118.349 13.4395Z" fill="#88A6B4"/>
</g>
<defs>
<clipPath id="clip0_428_1720">
<rect width="127.251" height="123.492" fill="white" transform="translate(0.273438 0.126953)"/>
</clipPath>
</defs>
</svg>
