<svg width="128" height="124" viewBox="0 0 128 124" fill="none" xmlns="http://www.w3.org/2000/svg">
<g clip-path="url(#clip0_261_115)">
<path d="M48.4348 19.2126C48.4348 19.2126 33.9603 20.9764 23.8092 29.3162C13.6581 37.656 13.2607 38.1833 7.70042 45.7731C2.14016 53.3591 1.3453 60.2434 0.728736 68.6241C0.112167 77.0047 1.43445 78.9467 2.84587 84.9473C4.25729 90.9478 6.19985 96.0646 8.14242 98.1811C10.085 100.298 10.4378 101.181 10.8798 102.065C11.3218 102.949 12.9115 105.154 15.3815 107.093C17.8515 109.031 25.5326 115.21 28.7083 116.621C31.884 118.032 39.7397 120.416 49.8908 122.532C60.0419 124.649 75.7496 123.063 87.3121 121.121C98.8746 119.179 106.905 112.388 111.496 108.062C116.087 103.736 123.322 95.4445 125.528 86.0909C127.734 76.7374 128.529 68.7986 127.118 61.8252C125.706 54.8518 120.235 43.9128 115.734 38.9742C111.232 34.0357 105.408 29.4461 103.291 28.0314C101.174 26.6204 96.9358 23.6201 88.8164 21.0618C80.697 18.5034 75.7533 17.887 69.2236 17.7087C62.6939 17.5305 50.5631 18.8598 48.4385 19.2089L48.4348 19.2126Z" fill="#FF6600"/>
<path d="M38.9316 82.2587C39.9122 77.7247 35.1873 72.8561 28.3783 71.3844C21.5693 69.9126 15.2546 72.3951 14.274 76.9291C13.2934 81.4631 18.0183 86.3317 24.8273 87.8035C31.6363 89.2752 37.951 86.7927 38.9316 82.2587Z" fill="#FFA366"/>
<path d="M19.6858 79.8407C21.1545 79.8407 22.3452 78.6504 22.3452 77.1821C22.3452 75.7138 21.1545 74.5234 19.6858 74.5234C18.217 74.5234 17.0264 75.7138 17.0264 77.1821C17.0264 78.6504 18.217 79.8407 19.6858 79.8407Z" fill="#FFC299"/>
<path d="M25.7776 84.5644C27.2463 84.5644 28.437 83.374 28.437 81.9057C28.437 80.4374 27.2463 79.2471 25.7776 79.2471C24.3088 79.2471 23.1182 80.4374 23.1182 81.9057C23.1182 83.374 24.3088 84.5644 25.7776 84.5644Z" fill="#FFC299"/>
<path d="M32.9275 81.6083C34.3962 81.6083 35.5869 80.418 35.5869 78.9497C35.5869 77.4813 34.3962 76.291 32.9275 76.291C31.4587 76.291 30.2681 77.4813 30.2681 78.9497C30.2681 80.418 31.4587 81.6083 32.9275 81.6083Z" fill="#FFC299"/>
<path d="M104.223 86.9071C111.047 85.4394 115.789 80.5733 114.813 76.0383C113.837 71.5032 107.514 69.0166 100.689 70.4842C93.8644 71.9519 89.1231 76.818 90.0989 81.353C91.0747 85.888 97.3982 88.3747 104.223 86.9071Z" fill="#FFA366"/>
<path d="M109.39 78.9462C110.861 78.9462 112.053 77.7559 112.053 76.2876C112.053 74.8192 110.861 73.6289 109.39 73.6289C107.919 73.6289 106.727 74.8192 106.727 76.2876C106.727 77.7559 107.919 78.9462 109.39 78.9462Z" fill="#FFC299"/>
<path d="M103.287 83.6659C104.758 83.6659 105.95 82.4756 105.95 81.0073C105.95 79.539 104.758 78.3486 103.287 78.3486C101.816 78.3486 100.624 79.539 100.624 81.0073C100.624 82.4756 101.816 83.6659 103.287 83.6659Z" fill="#FFC299"/>
<path d="M96.1221 80.7099C97.5929 80.7099 98.7853 79.5196 98.7853 78.0512C98.7853 76.5829 97.5929 75.3926 96.1221 75.3926C94.6513 75.3926 93.459 76.5829 93.459 78.0512C93.459 79.5196 94.6513 80.7099 96.1221 80.7099Z" fill="#FFC299"/>
<path d="M43.2393 79.0062C50.6057 79.0062 56.5773 73.2807 56.5773 66.2179C56.5773 59.1552 50.6057 53.4297 43.2393 53.4297C35.873 53.4297 29.9014 59.1552 29.9014 66.2179C29.9014 73.2807 35.873 79.0062 43.2393 79.0062Z" fill="white"/>
<path d="M47.0465 73.912C50.9953 73.912 54.1964 70.7118 54.1964 66.7641C54.1964 62.8164 50.9953 59.6162 47.0465 59.6162C43.0976 59.6162 39.8965 62.8164 39.8965 66.7641C39.8965 70.7118 43.0976 73.912 47.0465 73.912Z" fill="#331400"/>
<path d="M43.3731 68.6571C44.6347 68.6571 45.6574 67.6347 45.6574 66.3735C45.6574 65.1123 44.6347 64.0898 43.3731 64.0898C42.1116 64.0898 41.0889 65.1123 41.0889 66.3735C41.0889 67.6347 42.1116 68.6571 43.3731 68.6571Z" fill="white"/>
<path d="M88.3597 78.0187C95.5264 76.3158 100.012 69.365 98.3782 62.4937C96.7445 55.6224 89.6104 51.4325 82.4437 53.1354C75.277 54.8383 70.7916 61.7891 72.4253 68.6604C74.0589 75.5317 81.193 79.7216 88.3597 78.0187Z" fill="white"/>
<path d="M81.5738 73.0653C85.5226 73.0653 88.7238 69.8651 88.7238 65.9174C88.7238 61.9698 85.5226 58.7695 81.5738 58.7695C77.625 58.7695 74.4238 61.9698 74.4238 65.9174C74.4238 69.8651 77.625 73.0653 81.5738 73.0653Z" fill="#331400"/>
<path d="M85.2398 67.7293C86.5014 67.7293 87.5241 66.7069 87.5241 65.4457C87.5241 64.1845 86.5014 63.1621 85.2398 63.1621C83.9783 63.1621 82.9556 64.1845 82.9556 65.4457C82.9556 66.7069 83.9783 67.7293 85.2398 67.7293Z" fill="white"/>
<path d="M30.7512 53.4629C35.2417 51.8291 38.4843 48.2273 41.53 44.7072C42.154 43.9868 41.1066 42.9322 40.4789 43.6563C37.6263 46.9536 34.5732 50.4997 30.3575 52.0296C29.4661 52.3526 29.8523 53.7896 30.7512 53.4629Z" fill="#331400"/>
<path d="M36.059 6.63942C36.059 6.63942 35.5724 11.2289 40.3379 16.212C45.1033 21.1989 49.163 23.4899 57.1078 24.2845C65.0526 25.0791 65.3609 22.8289 67.8309 24.1063C70.3009 25.3836 69.9926 25.3428 70.3009 23.8872C70.6092 22.4316 72.1543 12.859 66.8132 7.12213C61.472 1.38525 51.1501 -1.74498 44.4867 1.08076C44.4867 1.08076 42.9861 1.69715 41.9721 2.40266C40.9581 3.10817 39.5876 3.81368 38.1761 3.76912C36.7647 3.72456 35.7247 3.79882 36.059 6.6357V6.63942Z" fill="#3195A3"/>
<path d="M43.5616 8.81138C43.5616 8.81138 46.6519 9.93647 50.4033 10.5083C54.1547 11.0801 58.8755 13.2004 62.9352 16.4643C66.9949 19.7282 66.0701 20.6565 67.8789 20.3483C69.6878 20.0401 68.3209 18.6736 66.5566 17.1289C64.7924 15.5842 58.4818 10.7757 53.2298 9.80651C47.9779 8.83737 46.3027 9.101 44.4047 8.13186C42.5067 7.16272 42.9413 8.26182 42.9413 8.26182C42.9413 8.26182 42.971 8.45862 43.5653 8.81509L43.5616 8.81138Z" fill="#297E8A"/>
<path d="M75.1032 86.7552C75.0809 85.76 74.8284 85.3516 74.1821 84.5161C73.3278 83.4096 71.5561 81.3785 68.5327 80.8363C63.4293 79.9229 60.0938 81.9243 58.5264 83.8329C56.959 85.7378 55.8299 87.7317 56.9219 89.3581C58.0139 90.9845 59.5813 89.6812 59.8004 89.2579C60.7104 87.4718 61.587 85.76 63.8898 85.1251C66.1927 84.4901 69.0712 84.6201 71.0398 86.6475C72.9229 88.5895 73.7735 88.6638 74.7466 88.0362C75.0884 87.8171 75.1181 87.2305 75.1069 86.7552H75.1032Z" fill="#331400"/>
<path d="M28.8411 51.4535C28.7854 52.5229 29.2831 53.4661 30.1189 54.1047C30.4049 54.3238 30.8617 54.0899 30.936 53.7706C31.1031 53.0651 31.0957 52.3595 30.8914 51.6652L29.818 51.9622C30.1523 52.7977 30.5906 53.5515 31.1514 54.257C31.456 54.6394 32.1208 54.3164 32.1023 53.8634C32.0577 52.7866 32.0168 51.706 31.9723 50.6292L30.9323 50.9114C31.3706 51.6021 31.8311 52.2741 32.3214 52.9277C32.6631 53.3807 33.2983 53.2136 33.3614 52.6455C33.458 51.7654 33.4914 50.8854 33.458 50.0017L32.418 50.2839C32.8006 51.1788 33.2648 52.0254 33.8146 52.8274C34.1897 53.3732 34.9177 53.0131 34.8323 52.3967C34.6911 51.357 34.524 50.321 34.3308 49.2924L33.3131 49.7232C33.7328 50.4435 34.2454 51.0971 34.8471 51.6726C35.226 52.0365 35.7423 51.7432 35.798 51.279C35.9094 50.3507 35.8017 49.415 35.4897 48.5312L34.472 48.962C34.7543 49.5895 35.1851 50.0759 35.7274 50.4881C36.0691 50.748 36.5743 50.3953 36.5668 50.0054C36.5483 49.2293 36.6634 48.4941 36.9123 47.7626L35.8945 47.8963C36.4554 48.6315 37.0163 49.3704 37.5734 50.1056C37.8891 50.5215 38.606 50.425 38.6134 49.8234C38.6245 48.6204 38.3497 47.4693 37.8223 46.3924L36.9457 47.0682C37.2911 47.473 37.6365 47.874 37.982 48.2787C38.2383 48.5795 38.8474 48.4384 38.9143 48.0337C39.0814 46.9828 38.9477 45.9877 38.4983 45.026C38.2345 44.4616 37.2503 44.8663 37.4805 45.4567C37.7665 46.1845 38.112 46.8752 38.5428 47.5324C38.8474 47.9928 39.5605 47.8146 39.5828 47.2502C39.6088 46.5447 39.5568 45.854 39.4417 45.1597L38.424 45.5904C38.8474 46.1808 39.2671 46.7712 39.6905 47.3616C39.9505 47.7218 40.5931 47.7329 40.7082 47.2279C40.92 46.2922 40.8902 45.3453 40.5931 44.4356L39.5754 44.8663C39.8502 45.3119 40.1288 45.7575 40.4037 46.2031C40.6785 46.6487 41.2617 46.515 41.4214 46.0694C41.7037 45.2785 41.726 44.4542 41.5142 43.6447L40.4965 44.0754C40.686 44.4839 40.8791 44.896 41.0685 45.3045C41.3694 45.9543 42.3314 45.3899 42.0305 44.7438C41.8411 44.3353 41.648 43.9232 41.4585 43.5147C41.1874 42.9317 40.2848 43.3476 40.4408 43.9454C40.6042 44.573 40.5671 45.1708 40.348 45.7798L41.3657 45.6461C41.0908 45.2005 40.8122 44.7549 40.5374 44.3093C40.2142 43.7895 39.3154 44.12 39.5197 44.7401C39.7574 45.4641 39.8057 46.1956 39.6348 46.942L40.6525 46.8083C40.2291 46.2179 39.8094 45.6275 39.386 45.0371C39.0108 44.5136 38.2643 44.8366 38.3683 45.4679C38.4648 46.062 38.4908 46.6598 38.4685 47.2613L39.5085 46.9791C39.1297 46.4073 38.8065 45.8095 38.5577 45.1708L37.54 45.6015C37.852 46.2699 37.9597 47.0237 37.8445 47.7515L38.7768 47.5064C38.4314 47.1017 38.086 46.7006 37.7405 46.2959C37.306 45.7909 36.6003 46.4333 36.864 46.9717C37.306 47.8703 37.514 48.8394 37.5028 49.842L38.5428 49.5598C37.982 48.8246 37.4211 48.0857 36.864 47.3504C36.5743 46.968 36.0097 47.0014 35.8463 47.4841C35.5677 48.3047 35.4377 49.1588 35.46 50.0239L36.2994 49.5412C35.9131 49.2479 35.642 48.8543 35.4451 48.4161C35.1888 47.8443 34.2194 48.249 34.4274 48.8469C34.7097 49.6526 34.7951 50.451 34.6948 51.2976L35.6457 50.904C35.1108 50.3878 34.6614 49.8197 34.2863 49.1773C33.952 48.6092 33.1534 49.0028 33.2686 49.6081C33.4617 50.6403 33.6288 51.6763 33.77 52.7123L34.7877 52.2816C34.238 51.4795 33.7737 50.6329 33.3911 49.738C33.1683 49.2182 32.3326 49.4967 32.3511 50.0202C32.3846 50.904 32.3511 51.784 32.2546 52.664L33.2946 52.3818C32.8043 51.7283 32.34 51.0562 31.9054 50.3656C31.6231 49.92 30.8431 50.0722 30.8654 50.6478C30.91 51.7246 30.9509 52.8051 30.9954 53.882L31.9463 53.4884C31.5117 52.9425 31.1551 52.3336 30.8989 51.6875C30.6426 51.0414 29.6174 51.279 29.8254 51.9845C29.974 52.4932 29.9963 52.9834 29.87 53.4995L30.6871 53.1653C30.1597 52.7606 29.9257 52.1219 29.9591 51.4758C29.9963 50.7592 28.882 50.7629 28.8449 51.4758L28.8411 51.4535Z" fill="#331400"/>
<path d="M30.4756 51.1784C30.5276 51.7539 30.6724 52.2923 30.9213 52.8159C31.0439 53.0721 31.1887 53.3766 31.445 53.5177C31.939 53.7962 32.4033 53.3358 32.5259 52.879C32.6001 52.5968 32.433 52.2626 32.1359 52.1921C31.8387 52.1215 31.5304 52.2812 31.4487 52.582C31.4413 52.6117 31.4339 52.6377 31.4227 52.6674L31.4784 52.5337C31.4636 52.5634 31.4302 52.608 31.4227 52.6377C31.4822 52.5671 31.4933 52.5523 31.4562 52.5931C31.4153 52.6303 31.4339 52.6191 31.5119 52.5486L31.6456 52.4929L31.6233 52.5003L31.7719 52.4817H31.7496C31.7979 52.4892 31.8499 52.4966 31.8981 52.504H31.8759C31.9204 52.5189 31.965 52.5374 32.0096 52.556C31.9762 52.5374 31.9799 52.5448 32.0282 52.5746C32.069 52.6005 32.0987 52.634 32.121 52.6748C32.1062 52.6488 32.0876 52.6228 32.0727 52.5968C32.043 52.5448 32.0096 52.4929 31.9836 52.4409C31.9242 52.3295 31.8684 52.2181 31.8202 52.0993L31.8759 52.2329C31.7384 51.9099 31.6456 51.572 31.5973 51.223L31.6159 51.3715C31.6084 51.3046 31.601 51.2415 31.5936 51.1747C31.5787 51.0224 31.5416 50.8925 31.4302 50.7811C31.3336 50.6845 31.1739 50.6103 31.0364 50.6177C30.7579 50.6288 30.4533 50.8628 30.4793 51.1747L30.4756 51.1784Z" fill="#331400"/>
<path d="M34.7616 50.109C34.9547 50.6845 35.2519 51.197 35.6493 51.6537C35.9204 51.9656 36.4924 51.8022 36.5816 51.4086C36.6967 50.885 36.7561 50.3466 36.7561 49.8119L36.3476 50.3503L36.3736 50.3429L36.225 50.3615C36.225 50.3615 36.2621 50.3615 36.277 50.3615L36.1284 50.3429C36.1841 50.3578 36.1656 50.3466 36.0727 50.3169C36.121 50.3466 36.1061 50.3355 36.0281 50.2835C36.0281 50.2946 36.0764 50.3392 36.0913 50.3503C36.0318 50.2724 36.0244 50.2612 36.0653 50.3169C36.0801 50.3392 36.095 50.3615 36.1136 50.3838C36.1396 50.4209 36.1693 50.458 36.1953 50.4989C36.3067 50.6548 36.4218 50.8145 36.5333 50.9704C36.667 51.1561 36.849 51.2675 37.0867 51.2378C37.2984 51.2081 37.499 51.0521 37.551 50.8405C37.6736 50.3206 37.759 49.7934 37.8073 49.2624C37.8333 48.9728 37.5324 48.6943 37.2501 48.7054C36.927 48.7203 36.7227 48.9505 36.693 49.2624C36.6781 49.4072 36.6633 49.5483 36.6447 49.6894L36.6633 49.5409C36.6187 49.8788 36.5556 50.2092 36.4738 50.5397L37.4916 50.406C37.3356 50.1907 37.1796 49.9716 37.0236 49.7562C36.9158 49.6077 36.8193 49.4889 36.667 49.3812C36.4887 49.255 36.2547 49.2252 36.0467 49.2809C35.8127 49.3404 35.6381 49.578 35.6381 49.8194C35.6381 50.1276 35.6196 50.4357 35.5787 50.7402L35.5973 50.5917C35.5713 50.7699 35.5416 50.9445 35.5007 51.1227L36.433 50.8776C36.3958 50.8331 36.3587 50.7922 36.3216 50.7477C36.2436 50.6511 36.3958 50.8516 36.3216 50.7514C36.3067 50.7291 36.2881 50.7068 36.2696 50.6808C36.199 50.5843 36.1358 50.4803 36.0764 50.3763C36.017 50.2724 35.9687 50.1758 35.9204 50.0719C35.913 50.057 35.9056 50.0421 35.8981 50.0236C35.8796 49.9864 35.887 50.0013 35.9204 50.0793C35.913 50.0533 35.8981 50.0236 35.887 50.0013C35.8647 49.9419 35.8424 49.8825 35.8239 49.8231C35.731 49.5483 35.4376 49.3366 35.1367 49.4332C34.8619 49.5223 34.6464 49.8231 34.7467 50.1201L34.7616 50.109Z" fill="#331400"/>
<path d="M37.5584 48.5763C37.967 48.9996 38.4721 49.3078 39.0292 49.4972C39.1964 49.5529 39.3821 49.4972 39.5158 49.3969C39.6421 49.3004 39.7572 49.1296 39.735 48.9587C39.7052 48.7322 39.6792 48.5057 39.6495 48.2755L39.6087 47.9525C39.5975 47.8485 39.5752 47.7445 39.5864 47.6443L39.5678 47.7928C39.5864 47.6963 39.501 47.9042 39.553 47.8188L38.6764 47.9302C38.8175 48.0861 38.9587 48.2458 39.1035 48.4018C39.2335 48.5466 39.4192 48.6431 39.6198 48.6357C39.8687 48.6283 40.0618 48.4835 40.1992 48.283C40.4704 47.8856 40.5298 47.3732 40.4332 46.9128C40.3738 46.6269 40.021 46.4338 39.7461 46.5229C39.4452 46.6194 39.293 46.9016 39.3561 47.2098C39.3635 47.2433 39.3672 47.273 39.3747 47.3064L39.3561 47.1579C39.371 47.2655 39.371 47.3732 39.3561 47.4809L39.3747 47.3324C39.3672 47.3806 39.3598 47.4289 39.3487 47.4772C39.3412 47.5106 39.3301 47.5923 39.3041 47.6146C39.3152 47.6034 39.3598 47.4995 39.3227 47.57C39.3115 47.5886 39.3041 47.6071 39.293 47.6294C39.2818 47.6517 39.2632 47.674 39.2521 47.7C39.2372 47.726 39.241 47.7185 39.2707 47.6814C39.3152 47.6109 39.3858 47.5663 39.4712 47.5477L39.6198 47.5292H39.5938C39.6421 47.5366 39.6941 47.544 39.7424 47.5477L39.9244 47.6517C39.9244 47.6517 39.9021 47.6294 39.8947 47.6183C39.8761 47.5997 39.8612 47.5812 39.8427 47.5626C39.7981 47.5143 39.7572 47.466 39.7127 47.4178C39.631 47.3287 39.5492 47.2358 39.4675 47.1467C39.2187 46.8682 38.7767 46.9722 38.591 47.2581C38.4052 47.544 38.4832 47.8559 38.5204 48.1641C38.5538 48.4278 38.5872 48.6951 38.617 48.9587L39.3227 48.4203C39.267 48.4018 39.2112 48.3795 39.1555 48.3572C39.0924 48.3312 39.2744 48.4092 39.1852 48.3684C39.1555 48.3535 39.1258 48.3424 39.0961 48.3275C38.9921 48.2792 38.8955 48.2235 38.799 48.1604C38.7544 48.1307 38.7098 48.101 38.6652 48.0713C38.643 48.0564 38.6244 48.0342 38.5984 48.023C38.6652 48.075 38.6801 48.0861 38.6467 48.0602C38.6355 48.049 38.6207 48.0416 38.6095 48.0305C38.5167 47.9562 38.4312 47.8745 38.3458 47.7854C38.1415 47.5737 37.759 47.5663 37.5584 47.7854C37.3578 48.0045 37.343 48.3498 37.5584 48.5726V48.5763Z" fill="#331400"/>
<path d="M82.1193 42.7164L82.1304 44.2685C82.1304 44.7067 82.7693 45.0631 83.0813 44.6621C83.2744 44.4133 83.4713 44.1608 83.6644 43.912L82.7321 43.3699C82.6356 43.9158 82.5427 44.4616 82.4461 45.0074C82.3496 45.5533 82.9327 45.8986 83.3784 45.5496C84.0136 45.052 84.5224 44.4282 84.8864 43.7078C85.2096 43.0729 84.2847 42.5196 83.9244 43.1471C83.5641 43.7746 83.2967 44.4319 83.1221 45.1263C82.9959 45.6238 83.5084 45.958 83.9393 45.7538C84.5967 45.4456 85.1687 45 85.6367 44.443L84.7601 43.7672C84.4296 44.5173 84.1547 45.2822 83.943 46.0768C83.8278 46.515 84.3478 46.9977 84.7601 46.7044C85.373 46.2699 85.9376 45.7872 86.4464 45.2376L85.5141 44.6955C85.4138 45.3119 85.2541 45.9097 85.035 46.4964C84.8716 46.9346 85.4658 47.4024 85.8521 47.1239C86.3981 46.7304 86.9441 46.3368 87.4901 45.9432L86.673 45.3156C86.4835 46.062 86.205 46.7601 85.8224 47.4284C85.4956 48.0077 86.2236 48.4904 86.699 48.1042C87.3601 47.5621 88.025 47.02 88.6861 46.4779L87.7353 46.0843C87.6907 46.7378 87.5235 47.3727 87.2413 47.9668C86.985 48.5015 87.6647 49.1439 88.1178 48.6426L89.2953 47.3356L88.363 46.7935C88.1364 47.4953 87.9061 48.2008 87.6795 48.9026C87.4715 49.545 88.3481 49.8123 88.6973 49.3333C89.0835 48.8023 89.5478 48.3159 90.0715 47.9149L89.2544 47.2873C89.1021 47.9706 88.9535 48.6575 88.8013 49.3407C88.6898 49.8531 89.1764 50.1576 89.6184 49.9683C90.547 49.5747 91.3678 48.9843 92.0438 48.2379L91.093 47.8443C91.0632 48.5164 91.0038 49.1811 90.8998 49.8457C90.807 50.4398 91.5684 50.8483 91.9175 50.2765C92.2444 49.7418 92.5712 49.2033 92.8981 48.6686L91.8581 48.3864C91.8841 49.1699 91.9138 49.9497 91.9398 50.7332C91.9584 51.2939 92.6752 51.4795 92.9798 51.0154C93.3587 50.4324 93.7375 49.8494 94.1127 49.2665L93.0727 48.9843C93.1581 49.6861 93.1767 50.3878 93.1284 51.0934C93.0838 51.7432 94.0347 51.8174 94.2241 51.2419C94.3801 50.7666 94.5807 50.3247 94.8332 49.894L93.8155 49.7603C93.8638 50.0574 93.8675 50.3544 93.8452 50.6552C93.7969 51.3718 94.9112 51.3681 94.9595 50.6552C94.9855 50.2505 94.9558 49.8643 94.8889 49.4633C94.8072 48.9731 94.0941 48.9471 93.8712 49.3296C93.5704 49.842 93.3327 50.3804 93.147 50.9448L94.2427 51.0934C94.2909 50.3878 94.2724 49.6861 94.1869 48.9843C94.1238 48.4496 93.4701 48.2082 93.147 48.7021C92.7681 49.285 92.3892 49.868 92.0141 50.451L93.0541 50.7332C93.0281 49.9497 92.9984 49.1699 92.9724 48.3864C92.9538 47.8369 92.2258 47.6252 91.9324 48.1042C91.6055 48.6389 91.2787 49.1773 90.9518 49.712L91.9695 50.1428C92.0884 49.3816 92.1701 48.6167 92.2035 47.8443C92.2258 47.3727 91.5721 47.098 91.2527 47.4507C90.6324 48.1339 89.9007 48.6464 89.0538 49.0065L89.871 49.6341C90.0232 48.9508 90.1718 48.2639 90.3241 47.5807C90.417 47.1611 89.923 46.6301 89.507 46.9531C88.8235 47.4804 88.2441 48.0745 87.7353 48.7726L88.753 49.2033C88.9795 48.5015 89.2098 47.796 89.4364 47.0942C89.6073 46.5707 88.8755 46.14 88.5041 46.5521L87.3267 47.8592L88.2033 48.535C88.5747 47.7552 88.7901 46.9531 88.8495 46.0917C88.8867 45.5644 88.2367 45.4196 87.8987 45.6981C87.2375 46.2402 86.5727 46.7823 85.9116 47.3245L86.7881 48.0003C87.2115 47.2502 87.5384 46.4556 87.7501 45.6201C87.8615 45.1857 87.3453 44.6918 86.933 44.9926C86.387 45.3862 85.841 45.7798 85.295 46.1734L86.1121 46.8009C86.3313 46.2142 86.491 45.6164 86.5913 45C86.673 44.495 86.075 44.0123 85.659 44.4579C85.2133 44.9369 84.7304 45.3713 84.1956 45.7501L85.0127 46.3776C85.1984 45.6795 85.4287 44.9963 85.7184 44.3353C85.9487 43.8118 85.2876 43.1286 84.8418 43.6595C84.4296 44.1534 83.9541 44.521 83.371 44.7958L84.1881 45.4233C84.3404 44.8143 84.567 44.2537 84.879 43.7115L83.917 43.1508C83.5901 43.7932 83.1519 44.3205 82.5836 44.7661L83.5158 45.3082C83.6124 44.7624 83.7053 44.2165 83.8018 43.6707C83.8836 43.1954 83.2521 42.6384 82.8696 43.1286C82.6764 43.3773 82.4796 43.6298 82.2864 43.8786L83.2373 44.2722L83.2261 42.7201C83.2187 42.0035 82.1044 42.0035 82.1119 42.7201L82.1193 42.7164Z" fill="#331400"/>
<path d="M89.5515 47.2947C89.507 47.4693 89.455 47.6438 89.3918 47.8146C89.3621 47.9 89.3212 47.9854 89.2915 48.0745C89.247 48.197 89.2618 48.3344 89.3138 48.4533C89.3287 48.4904 89.3398 48.5164 89.3584 48.5498C89.4475 48.6835 89.5664 48.78 89.7224 48.8283C89.8598 48.8728 90.0232 48.8654 90.157 48.8172C90.3092 48.7615 90.4244 48.6909 90.5432 48.5795C90.6621 48.4681 90.7884 48.3419 90.8961 48.2156C91.0484 48.0374 91.1932 47.848 91.3195 47.6512L90.3018 47.2205C90.2944 47.2688 90.2795 47.3133 90.261 47.3579L90.3167 47.2242C90.2944 47.2725 90.2684 47.317 90.235 47.3616L90.3204 47.2502C90.287 47.291 90.2498 47.3282 90.209 47.3616L90.3204 47.2762L90.3092 47.2873C90.2461 47.3207 90.1904 47.369 90.1532 47.4321C90.105 47.4841 90.0715 47.5472 90.053 47.6215C90.0158 47.7552 90.0344 47.9334 90.1087 48.0522C90.183 48.1711 90.2981 48.275 90.443 48.3084C90.5878 48.3419 90.7549 48.3419 90.8738 48.2528C90.9407 48.2008 91.0112 48.1525 91.0707 48.0931C91.1301 48.0337 91.1858 47.9594 91.2304 47.8851C91.2749 47.8109 91.3084 47.7329 91.3381 47.6549C91.3567 47.6141 91.3678 47.5695 91.3752 47.525C91.4012 47.3801 91.4012 47.2242 91.3195 47.0942C91.2527 46.9903 91.1672 46.916 91.0521 46.8677C90.937 46.8195 90.8069 46.8009 90.6881 46.838C90.5469 46.8826 90.4355 46.968 90.3538 47.0942C90.2907 47.1945 90.2201 47.291 90.1458 47.3839L90.2312 47.2725C90.0752 47.473 89.9007 47.6772 89.7038 47.8369L89.8152 47.7515C89.7855 47.7737 89.7595 47.7886 89.7261 47.8035L89.8598 47.7478C89.8375 47.7552 89.8115 47.7626 89.7892 47.7663L89.9378 47.7478C89.9378 47.7478 89.9081 47.7478 89.8932 47.7478L90.0418 47.7663C90.0418 47.7663 90.0232 47.7626 90.0121 47.7589L90.1458 47.8146C90.1458 47.8146 90.1347 47.8072 90.1272 47.8035L90.2387 47.8889C90.2387 47.8889 90.2275 47.8814 90.2238 47.874L90.3092 47.9854C90.3092 47.9854 90.2981 47.9668 90.2944 47.9557L90.3501 48.3864C90.4578 48.1265 90.547 47.8629 90.6138 47.5918C90.651 47.4507 90.6324 47.291 90.5581 47.1611C90.4912 47.046 90.3575 46.9346 90.2238 46.9049C90.0827 46.8714 89.923 46.8789 89.793 46.9606C89.663 47.0422 89.5738 47.1499 89.5367 47.2947H89.5515Z" fill="#331400"/>
<path d="M37.6445 79.0616C39.7951 79.0616 39.7988 75.7197 37.6445 75.7197C35.4902 75.7197 35.4902 79.0616 37.6445 79.0616Z" fill="#94BFE6"/>
<path d="M37.3437 78.3714C37.5109 78.8615 37.7449 79.296 38.1237 79.6561C38.5026 80.0163 38.9409 80.2614 39.4497 80.4396C39.8434 80.577 40.3894 80.4768 40.7386 80.2725C41.0877 80.0683 41.4146 79.671 41.5074 79.2737C41.604 78.8467 41.5854 78.3677 41.3403 77.9852C41.0952 77.6027 40.7683 77.3688 40.3412 77.2166C40.304 77.2054 40.2706 77.1906 40.2334 77.1757L40.6309 77.3428C40.512 77.2908 40.4006 77.2277 40.2929 77.1497L40.6309 77.4097C40.5306 77.3317 40.4414 77.2463 40.3597 77.1497L40.6197 77.4876C40.5454 77.3874 40.4823 77.2871 40.434 77.172L40.6012 77.5693C40.5863 77.5359 40.5752 77.5062 40.564 77.4728C40.4229 77.0606 40.1814 76.7004 39.7952 76.4739C39.4386 76.266 38.9074 76.1769 38.5063 76.3068C38.1052 76.4368 37.7115 76.6893 37.5072 77.0755C37.3029 77.4616 37.1952 77.9369 37.34 78.364L37.3437 78.3714Z" fill="#94BFE6"/>
<path d="M40.6308 79.0616C42.7814 79.0616 42.7851 75.7197 40.6308 75.7197C38.4766 75.7197 38.4766 79.0616 40.6308 79.0616Z" fill="#94BFE6"/>
<path d="M43.1713 80.5727C46.7556 80.5727 46.763 75.0029 43.1713 75.0029C39.5796 75.0029 39.5796 80.5727 43.1713 80.5727Z" fill="#94BFE6"/>
<path d="M46.6069 80.5727C50.1911 80.5727 50.1986 75.0029 46.6069 75.0029C43.0152 75.0029 43.0152 80.5727 46.6069 80.5727Z" fill="#94BFE6"/>
<path d="M49.4448 79.6968C52.0745 79.6968 52.0782 75.6123 49.4448 75.6123C46.8114 75.6123 46.8114 79.6968 49.4448 79.6968Z" fill="#94BFE6"/>
<path d="M77.602 78.5757C80.2317 78.5757 80.2354 74.4912 77.602 74.4912C74.9686 74.4912 74.9686 78.5757 77.602 78.5757Z" fill="#94BFE6"/>
<path d="M79.7563 78.7496C82.386 78.7496 82.3897 74.665 79.7563 74.665C77.1229 74.665 77.1229 78.7496 79.7563 78.7496Z" fill="#94BFE6"/>
<path d="M81.1938 79.0029C84.2989 79.0029 84.3064 74.1758 81.1938 74.1758C78.0812 74.1758 78.0812 79.0029 81.1938 79.0029Z" fill="#94BFE6"/>
<path d="M84.9711 78.9766C88.0763 78.9766 88.0837 74.1494 84.9711 74.1494C81.8586 74.1494 81.8586 78.9766 84.9711 78.9766Z" fill="#94BFE6"/>
<path d="M87.8456 78.917C90.9508 78.917 90.9582 74.0898 87.8456 74.0898C84.7331 74.0898 84.7331 78.917 87.8456 78.917Z" fill="#94BFE6"/>
<path d="M90.3603 78.6314C92.99 78.6314 92.9937 74.5469 90.3603 74.5469C87.7269 74.5469 87.7269 78.6314 90.3603 78.6314Z" fill="#94BFE6"/>
<path d="M92.8749 78.1629C94.7878 78.1629 94.7915 75.1924 92.8749 75.1924C90.9584 75.1924 90.9584 78.1629 92.8749 78.1629Z" fill="#94BFE6"/>
</g>
<defs>
<clipPath id="clip0_261_115">
<rect width="127.251" height="123.516" fill="white" transform="translate(0.572266 0.0263672)"/>
</clipPath>
</defs>
</svg>
