<svg width="20" height="14" viewBox="0 0 20 14" fill="none" xmlns="http://www.w3.org/2000/svg">
<g id="_?&#235;&#141;&#137;&#236;&#148;&#160;??1" clip-path="url(#clip0_554_1996)">
<path id="Vector" d="M18.125 1.945H16.495C16.465 1.42 16.035 1 15.5 1H3.5C2.95 1 2.5 1.45 2.5 2V7.05C2.5 10.915 5.635 14.05 9.5 14.05C12.52 14.05 15.085 12.135 16.065 9.455V9.5C17.96 9.5 19.5 7.965 19.5 6.065V3.32C19.5 2.56 18.885 1.945 18.125 1.945ZM18.125 5.93C18.125 6.94 17.395 7.78 16.435 7.955C16.475 7.66 16.5 7.36 16.5 7.05V3.455H17.3C17.755 3.455 18.125 3.825 18.125 4.28V5.93Z" fill="#FF6600"/>
<path id="Vector_2" d="M18 12H1C0.725 12 0.5 12.225 0.5 12.5C0.5 12.775 0.725 13 1 13H1.59C1.795 13.58 2.345 14 3 14H16C16.65 14 17.2 13.58 17.41 13H18C18.275 13 18.5 12.775 18.5 12.5C18.5 12.225 18.275 12 18 12Z" fill="#38ACBC"/>
<g id="Intersect" opacity="0.5" filter="url(#filter0_f_554_1996)">
<path fill-rule="evenodd" clip-rule="evenodd" d="M14.4414 12H4.55127C5.63156 13.08 7.06303 13.8088 8.65934 14H10.3403C11.9356 13.8088 13.3638 13.0799 14.4414 12Z" fill="#FF6600"/>
</g>
</g>
<defs>
<filter id="filter0_f_554_1996" x="3.55127" y="11" width="11.8901" height="4" filterUnits="userSpaceOnUse" color-interpolation-filters="sRGB">
<feFlood flood-opacity="0" result="BackgroundImageFix"/>
<feBlend mode="normal" in="SourceGraphic" in2="BackgroundImageFix" result="shape"/>
<feGaussianBlur stdDeviation="0.5" result="effect1_foregroundBlur_554_1996"/>
</filter>
<clipPath id="clip0_554_1996">
<rect width="19" height="14" fill="white" transform="translate(0.5)"/>
</clipPath>
</defs>
</svg>
