<svg width="16" height="20" viewBox="0 0 16 20" fill="none" xmlns="http://www.w3.org/2000/svg">
<g id="vector" clip-path="url(#clip0_554_1985)">
<path id="Vector" d="M5 9.75C5 9.33579 4.66421 9 4.25 9C3.83579 9 3.5 9.33579 3.5 9.75V19.25C3.5 19.6642 3.83579 20 4.25 20C4.66421 20 5 19.6642 5 19.25V9.75Z" fill="#FF6600"/>
<path id="Vector_2" d="M4.25 10C6.59721 10 8.5 7.76142 8.5 5C8.5 2.23858 6.59721 0 4.25 0C1.90279 0 0 2.23858 0 5C0 7.76142 1.90279 10 4.25 10Z" fill="#38ACBC"/>
<g id="Intersect" opacity="0.5" filter="url(#filter0_f_554_1985)">
<path fill-rule="evenodd" clip-rule="evenodd" d="M5 9.92239C4.75654 9.97339 4.50591 10 4.25 10C3.99409 10 3.74346 9.97339 3.5 9.92239V9.75C3.5 9.33579 3.83579 9 4.25 9C4.66421 9 5 9.33579 5 9.75V9.92239Z" fill="#FF6600"/>
</g>
<path id="Vector_3" d="M13.0049 0.75C13.0049 0.335786 12.6691 0 12.2549 0C11.8407 0 11.5049 0.335786 11.5049 0.75V19.25C11.5049 19.6642 11.8407 20 12.2549 20C12.6691 20 13.0049 19.6642 13.0049 19.25V0.75Z" fill="#FF6600"/>
<path id="Vector_4" d="M15.5 0.75C15.5 0.335786 15.1642 0 14.75 0C14.3358 0 14 0.335786 14 0.75V19.25C14 19.6642 14.3358 20 14.75 20C15.1642 20 15.5 19.6642 15.5 19.25V0.75Z" fill="#FF6600"/>
</g>
<defs>
<filter id="filter0_f_554_1985" x="2.5" y="8" width="3.5" height="3" filterUnits="userSpaceOnUse" color-interpolation-filters="sRGB">
<feFlood flood-opacity="0" result="BackgroundImageFix"/>
<feBlend mode="normal" in="SourceGraphic" in2="BackgroundImageFix" result="shape"/>
<feGaussianBlur stdDeviation="0.5" result="effect1_foregroundBlur_554_1985"/>
</filter>
<clipPath id="clip0_554_1985">
<rect width="15.5" height="20" fill="white"/>
</clipPath>
</defs>
</svg>
