<svg width="21" height="18" viewBox="0 0 21 18" fill="none" xmlns="http://www.w3.org/2000/svg">
<g id="Group 6">
<path id="Vector" d="M2 1.5303C2 0.961282 1.55228 0.5 1 0.5C0.447715 0.5 0 0.961282 0 1.5303V16.4697C0 17.0387 0.447715 17.5 1 17.5C1.55228 17.5 2 17.0387 2 16.4697V1.5303Z" fill="#FF6600"/>
<path id="Vector_2" d="M19.9854 10.2881C19.9854 9.71909 19.5376 9.25781 18.9854 9.25781C18.4331 9.25781 17.9854 9.71909 17.9854 10.2881V16.4699C17.9854 17.039 18.4331 17.5002 18.9854 17.5002C19.5376 17.5002 19.9854 17.039 19.9854 16.4699V10.2881Z" fill="#FF6600"/>
<path id="Vector_3" d="M20 9.25781H0V14.9245H20V9.25781Z" fill="#FF6600"/>
<path id="Vector_4" d="M10 4.0293H17.985C19.09 4.0293 19.985 4.95142 19.985 6.0899V11.8338C19.985 12.4005 19.535 12.8641 18.985 12.8641H10C9.45 12.8641 9 12.4005 9 11.8338V5.0596C9 4.49293 9.45 4.0293 10 4.0293Z" fill="#38ACBC"/>
<g id="Intersect" opacity="0.5" filter="url(#filter0_f_554_1973)">
<path fill-rule="evenodd" clip-rule="evenodd" d="M19.985 9.25781V11.8336C19.985 12.4003 19.535 12.8639 18.985 12.8639H10C9.45 12.8639 9 12.4003 9 11.8336V9.25781H19.985Z" fill="#FF6600"/>
</g>
<path id="Vector_5" d="M5.5 9C7.15685 9 8.5 7.65685 8.5 6C8.5 4.34315 7.15685 3 5.5 3C3.84315 3 2.5 4.34315 2.5 6C2.5 7.65685 3.84315 9 5.5 9Z" fill="#38ACBC"/>
</g>
<defs>
<filter id="filter0_f_554_1973" x="8" y="8.25781" width="12.9849" height="5.60547" filterUnits="userSpaceOnUse" color-interpolation-filters="sRGB">
<feFlood flood-opacity="0" result="BackgroundImageFix"/>
<feBlend mode="normal" in="SourceGraphic" in2="BackgroundImageFix" result="shape"/>
<feGaussianBlur stdDeviation="0.5" result="effect1_foregroundBlur_554_1973"/>
</filter>
</defs>
</svg>
