<svg width="20" height="20" viewBox="0 0 20 20" fill="none" xmlns="http://www.w3.org/2000/svg">
<g id="vector" clip-path="url(#clip0_554_1964)">
<path id="Vector" d="M17.8513 4.21094L16.2126 1.87594C16.0327 1.61594 15.748 1.46094 15.4482 1.46094H1.57915C0.984617 1.46094 0.5 1.98594 0.5 2.63594V11.2909C0.5 11.9409 0.984617 12.4659 1.57915 12.4659H15.3932C15.728 12.4659 16.0477 12.2959 16.2526 12.0059L17.8563 9.71594L19.2852 7.67594C19.5799 7.25594 19.5799 6.67594 19.2852 6.25594L17.8563 4.21594L17.8513 4.21094Z" fill="#FF6600"/>
<path id="Vector_2" d="M2.49842 1C2.49842 0.447715 2.05106 0 1.49921 0C0.947362 0 0.5 0.447715 0.5 1V19C0.5 19.5523 0.947362 20 1.49921 20C2.05106 20 2.49842 19.5523 2.49842 19V1Z" fill="#38ACBC"/>
<g id="Intersect" opacity="0.5" filter="url(#filter0_f_554_1964)">
<path fill-rule="evenodd" clip-rule="evenodd" d="M2.49842 1.46094H1.57915C0.984617 1.46094 0.5 1.98594 0.5 2.63594V11.2909C0.5 11.9409 0.984617 12.4659 1.57915 12.4659H2.49842V1.46094Z" fill="#FF6600"/>
</g>
</g>
<defs>
<filter id="filter0_f_554_1964" x="-0.5" y="0.460938" width="3.99854" height="13.0059" filterUnits="userSpaceOnUse" color-interpolation-filters="sRGB">
<feFlood flood-opacity="0" result="BackgroundImageFix"/>
<feBlend mode="normal" in="SourceGraphic" in2="BackgroundImageFix" result="shape"/>
<feGaussianBlur stdDeviation="0.5" result="effect1_foregroundBlur_554_1964"/>
</filter>
<clipPath id="clip0_554_1964">
<rect width="19" height="20" fill="white" transform="translate(0.5)"/>
</clipPath>
</defs>
</svg>
