<svg width="20" height="20" viewBox="0 0 20 20" fill="none" xmlns="http://www.w3.org/2000/svg">
<g id="Group 5">
<path id="Vector" d="M9.04547 13.8954L19.431 3.36622C20.206 2.58128 20.186 1.32637 19.391 0.561426C18.596 -0.203517 17.3209 -0.183519 16.5459 0.601424L6.16032 11.1257L2.10511 10.2607L0 12.3956L5.7153 14.4204L7.92541 20L10.0305 17.8702L9.04047 13.8954H9.04547Z" fill="#FF6600"/>
<path id="Vector_2" d="M16.7544 6.0842L13.8642 3.31896L2.8828 2.5L1.5 3.94491L9.71583 7.65369L12.606 10.4189L16.6735 18.4624L18.0563 17.0175L16.7544 6.0842Z" fill="#38ACBC"/>
<g id="Intersect" opacity="0.5" filter="url(#filter0_f_554_2008)">
<path d="M9.58594 7.65331L9.71556 7.71182L12.5082 10.3838L16.7221 6.11166L13.8639 3.37709L13.8098 3.37305L9.58594 7.65331Z" fill="#FF6600"/>
</g>
</g>
<defs>
<filter id="filter0_f_554_2008" x="8.58594" y="2.37305" width="9.13623" height="9.00977" filterUnits="userSpaceOnUse" color-interpolation-filters="sRGB">
<feFlood flood-opacity="0" result="BackgroundImageFix"/>
<feBlend mode="normal" in="SourceGraphic" in2="BackgroundImageFix" result="shape"/>
<feGaussianBlur stdDeviation="0.5" result="effect1_foregroundBlur_554_2008"/>
</filter>
</defs>
</svg>
