<svg width="228" height="228" viewBox="0 0 228 228" fill="none" xmlns="http://www.w3.org/2000/svg">
<rect width="228" height="228" fill="#E7EDF0"/>
<path d="M61.4017 134.05C58.3683 134.083 55.5517 133.333 52.9517 131.8C50.385 130.266 48.3183 128.166 46.7517 125.5C45.2183 122.8 44.4183 119.816 44.3517 116.55C44.3183 113.416 45.0517 110.516 46.5517 107.85C48.0517 105.183 50.1183 103.066 52.7517 101.5C55.385 99.8997 58.2683 99.0997 61.4017 99.0997C64.4683 99.0663 67.3017 99.833 69.9017 101.4C72.535 102.966 74.6183 105.116 76.1517 107.85C77.685 110.583 78.4517 113.6 78.4517 116.9C78.4517 120 77.685 122.85 76.1517 125.45C74.6183 128.05 72.535 130.116 69.9017 131.65C67.3017 133.183 64.4683 133.983 61.4017 134.05ZM61.5517 124.3C63.085 124.3 64.385 123.75 65.4517 122.65C66.5517 121.55 67.085 120.116 67.0517 118.35C67.0517 116.55 66.5183 115.1 65.4517 114C64.385 112.9 63.085 112.35 61.5517 112.35C60.0183 112.35 58.7183 112.9 57.6517 114C56.585 115.1 56.0517 116.55 56.0517 118.35C56.0517 120.116 56.585 121.55 57.6517 122.65C58.7183 123.75 60.0183 124.3 61.5517 124.3Z" fill="#C7D5DC"/>
<path d="M51.5953 98.2294C48.301 96.3152 42.0001 97.1802 42.0001 97.1802C42.0001 97.1802 45.3687 103.589 49.2295 105.025C52.1403 106.107 57.1151 105.025 57.1151 105.025C57.1151 105.025 54.5284 99.9336 51.5953 98.2294Z" fill="#88A6B4"/>
<g filter="url(#filter0_f_355_83)">
<path fill-rule="evenodd" clip-rule="evenodd" d="M54.2722 100.678C53.7565 100.923 53.2496 101.197 52.7517 101.5C51.2145 102.414 49.8705 103.516 48.7195 104.805C48.8884 104.888 49.0584 104.961 49.2295 105.025C52.1403 106.107 57.1151 105.025 57.1151 105.025C57.1151 105.025 55.9383 102.709 54.2722 100.678Z" fill="#A7BDC8"/>
</g>
<path d="M151.197 98.4043C151.197 99.179 151.051 99.9082 150.758 100.592C150.465 101.269 150.064 101.861 149.557 102.369C149.055 102.87 148.463 103.268 147.779 103.561C147.102 103.854 146.376 104 145.602 104C145.133 104 144.664 103.941 144.195 103.824V100.816C144.404 100.94 144.628 101.035 144.869 101.1C145.11 101.165 145.354 101.197 145.602 101.197C145.986 101.197 146.347 101.126 146.686 100.982C147.031 100.833 147.33 100.631 147.584 100.377C147.838 100.123 148.036 99.8268 148.18 99.4883C148.329 99.1497 148.404 98.7884 148.404 98.4043V89.9961H151.197V98.4043ZM163.238 104H153.639V89.9961H163.238V92.7988H156.441V95.6016H161.041V98.4043H156.441V101.197H163.238V104ZM171.1 98.4043C171.1 99.179 170.953 99.9082 170.66 100.592C170.367 101.269 169.967 101.861 169.459 102.369C168.958 102.87 168.365 103.268 167.682 103.561C167.005 103.854 166.279 104 165.504 104C165.035 104 164.566 103.941 164.098 103.824V100.816C164.306 100.94 164.531 101.035 164.771 101.1C165.012 101.165 165.257 101.197 165.504 101.197C165.888 101.197 166.249 101.126 166.588 100.982C166.933 100.833 167.232 100.631 167.486 100.377C167.74 100.123 167.939 99.8268 168.082 99.4883C168.232 99.1497 168.307 98.7884 168.307 98.4043V89.9961H171.1V98.4043ZM184.586 98.4043C184.586 99.179 184.439 99.9082 184.146 100.592C183.854 101.269 183.453 101.861 182.945 102.369C182.438 102.87 181.842 103.268 181.158 103.561C180.481 103.854 179.755 104 178.98 104C178.206 104 177.477 103.854 176.793 103.561C176.116 103.268 175.523 102.87 175.016 102.369C174.514 101.861 174.117 101.269 173.824 100.592C173.531 99.9082 173.385 99.179 173.385 98.4043V89.9961H176.178V98.4043C176.178 98.7884 176.249 99.1497 176.393 99.4883C176.542 99.8268 176.744 100.123 176.998 100.377C177.252 100.631 177.548 100.833 177.887 100.982C178.232 101.126 178.596 101.197 178.98 101.197C179.365 101.197 179.726 101.126 180.064 100.982C180.41 100.833 180.709 100.631 180.963 100.377C181.217 100.123 181.415 99.8268 181.559 99.4883C181.708 99.1497 181.783 98.7884 181.783 98.4043V89.9961H184.586V98.4043Z" fill="#C7D5DC"/>
<path d="M87.1 133.9C85.4333 133.9 84.1833 133.283 83.35 132.05C82.5167 130.817 81.95 129 81.65 126.6C81.3833 124.167 81.25 120.783 81.25 116.45C81.25 112.283 81.35 109.033 81.55 106.7C81.7833 104.367 82.3167 102.5 83.15 101.1C84.0167 99.7 85.35 99 87.15 99C88.95 99 90.2667 99.7 91.1 101.1C91.9667 102.5 92.5 104.367 92.7 106.7C92.9333 109.033 93.05 112.283 93.05 116.45C93.05 120.55 92.8667 123.867 92.5 126.4C92.1667 128.9 91.5667 130.783 90.7 132.05C89.8333 133.283 88.6333 133.9 87.1 133.9ZM101.407 133.9C99.74 133.9 98.49 133.283 97.6566 132.05C96.8233 130.817 96.2566 129 95.9566 126.6C95.69 124.167 95.5566 120.783 95.5566 116.45C95.5566 112.283 95.6566 109.033 95.8566 106.7C96.09 104.367 96.6233 102.5 97.4566 101.1C98.3233 99.7 99.6566 99 101.457 99C103.257 99 104.573 99.7 105.407 101.1C106.273 102.5 106.807 104.367 107.007 106.7C107.24 109.033 107.357 112.283 107.357 116.45C107.357 120.55 107.173 123.867 106.807 126.4C106.473 128.9 105.873 130.783 105.007 132.05C104.14 133.283 102.94 133.9 101.407 133.9ZM121.437 134C118.97 134 116.787 133.517 114.887 132.55C112.987 131.583 111.503 130.233 110.437 128.5C109.403 126.733 108.887 124.75 108.887 122.55C108.887 120.383 109.403 118.383 110.437 116.55C111.503 114.717 112.97 113.25 114.837 112.15C116.703 111.05 118.82 110.5 121.187 110.5C123.32 110.5 125.203 110.933 126.837 111.8C128.47 112.667 129.72 113.817 130.587 115.25C131.453 116.65 131.887 118.117 131.887 119.65C131.887 122.15 130.937 123.983 129.037 125.15C127.17 126.283 124.937 126.85 122.337 126.85C120.603 126.85 119.137 126.633 117.937 126.2C118.937 127.833 120.587 128.65 122.887 128.65C123.82 128.65 124.82 128.533 125.887 128.3C126.287 128.2 126.67 128.15 127.037 128.15C127.77 128.15 128.353 128.333 128.787 128.7C129.253 129.067 129.487 129.567 129.487 130.2C129.487 131.233 128.853 132.133 127.587 132.9C126.32 133.633 124.27 134 121.437 134ZM118.087 120.1C118.387 120.567 118.787 120.917 119.287 121.15C119.82 121.35 120.403 121.45 121.037 121.45C121.77 121.45 122.403 121.283 122.937 120.95C123.503 120.617 123.787 120.183 123.787 119.65C123.787 119.05 123.537 118.533 123.037 118.1C122.57 117.667 121.887 117.45 120.987 117.45C120.087 117.45 119.37 117.733 118.837 118.3C118.337 118.833 118.087 119.433 118.087 120.1ZM141.211 141.4C139.411 141.4 137.911 141.05 136.711 140.35C135.511 139.65 134.911 138.617 134.911 137.25C134.911 136.15 135.428 135.283 136.461 134.65C137.495 134.017 138.711 133.733 140.111 133.8C141.578 133.867 142.711 133.8 143.511 133.6C144.345 133.4 144.978 133.033 145.411 132.5C142.345 132.5 139.895 132.067 138.061 131.2C136.228 130.3 134.895 128.917 134.061 127.05C133.261 125.15 132.861 122.65 132.861 119.55C132.861 116.883 133.261 114.733 134.061 113.1C134.895 111.433 136.195 110.6 137.961 110.6C139.528 110.6 140.678 111.05 141.411 111.95C142.178 112.817 142.561 113.95 142.561 115.35L142.511 117.55C142.478 117.983 142.461 118.617 142.461 119.45C142.461 121.05 142.661 122.267 143.061 123.1C143.461 123.9 144.261 124.3 145.461 124.3C146.661 124.3 147.461 123.9 147.861 123.1C148.261 122.267 148.461 121.067 148.461 119.5C148.461 118.667 148.445 118.033 148.411 117.6L148.361 115.45C148.361 113.95 148.728 112.767 149.461 111.9C150.228 111.033 151.395 110.6 152.961 110.6C154.728 110.6 156.028 111.433 156.861 113.1C157.695 114.767 158.111 116.917 158.111 119.55C158.111 123.483 157.545 127.1 156.411 130.4C155.311 133.667 153.495 136.317 150.961 138.35C148.461 140.383 145.211 141.4 141.211 141.4ZM172.119 134.05C169.719 134.083 167.569 133.583 165.669 132.55C163.802 131.517 162.336 130.1 161.269 128.3C160.236 126.467 159.686 124.433 159.619 122.2C159.586 119.967 160.102 117.967 161.169 116.2C162.236 114.433 163.719 113.033 165.619 112C167.552 110.967 169.719 110.45 172.119 110.45C174.452 110.45 176.552 110.95 178.419 111.95C180.319 112.95 181.819 114.35 182.919 116.15C184.019 117.95 184.602 119.967 184.669 122.2C184.702 124.367 184.186 126.35 183.119 128.15C182.052 129.917 180.552 131.333 178.619 132.4C176.719 133.467 174.552 134.017 172.119 134.05ZM172.269 126.75C173.169 126.75 173.952 126.4 174.619 125.7C175.286 125 175.619 124.183 175.619 123.25C175.619 122.317 175.286 121.517 174.619 120.85C173.952 120.15 173.169 119.8 172.269 119.8C171.369 119.8 170.586 120.15 169.919 120.85C169.252 121.517 168.919 122.317 168.919 123.25C168.919 124.183 169.252 125 169.919 125.7C170.586 126.4 171.369 126.75 172.269 126.75Z" fill="#C7D5DC"/>
<defs>
<filter id="filter0_f_355_83" x="47.7197" y="99.6777" width="10.3955" height="6.82812" filterUnits="userSpaceOnUse" color-interpolation-filters="sRGB">
<feFlood flood-opacity="0" result="BackgroundImageFix"/>
<feBlend mode="normal" in="SourceGraphic" in2="BackgroundImageFix" result="shape"/>
<feGaussianBlur stdDeviation="0.5" result="effect1_foregroundBlur_355_83"/>
</filter>
</defs>
</svg>
