<svg width="300" height="210" viewBox="0 0 300 210" fill="none" xmlns="http://www.w3.org/2000/svg">
<rect width="299.204" height="209.831" fill="#E7EDF0"/>
<path d="M90.4017 124.05C87.3683 124.083 84.5517 123.333 81.9517 121.8C79.385 120.266 77.3183 118.166 75.7517 115.5C74.2183 112.8 73.4183 109.816 73.3517 106.55C73.3183 103.416 74.0517 100.516 75.5517 97.8497C77.0517 95.183 79.1183 93.0663 81.7517 91.4997C84.385 89.8997 87.2683 89.0997 90.4017 89.0997C93.4683 89.0663 96.3017 89.833 98.9017 91.3997C101.535 92.9663 103.618 95.1163 105.152 97.8497C106.685 100.583 107.452 103.6 107.452 106.9C107.452 110 106.685 112.85 105.152 115.45C103.618 118.05 101.535 120.116 98.9017 121.65C96.3017 123.183 93.4683 123.983 90.4017 124.05ZM90.5517 114.3C92.085 114.3 93.385 113.75 94.4517 112.65C95.5517 111.55 96.085 110.116 96.0517 108.35C96.0517 106.55 95.5183 105.1 94.4517 104C93.385 102.9 92.085 102.35 90.5517 102.35C89.0183 102.35 87.7183 102.9 86.6517 104C85.585 105.1 85.0517 106.55 85.0517 108.35C85.0517 110.116 85.585 111.55 86.6517 112.65C87.7183 113.75 89.0183 114.3 90.5517 114.3Z" fill="#C7D5DC"/>
<path d="M80.5953 88.2294C77.301 86.3152 71.0001 87.1802 71.0001 87.1802C71.0001 87.1802 74.3687 93.5893 78.2295 95.0245C81.1403 96.1066 86.1151 95.0247 86.1151 95.0247C86.1151 95.0247 83.5284 89.9336 80.5953 88.2294Z" fill="#88A6B4"/>
<g filter="url(#filter0_f_355_193)">
<path fill-rule="evenodd" clip-rule="evenodd" d="M83.2722 90.6779C82.7565 90.9232 82.2496 91.1971 81.7517 91.4997C80.2145 92.4142 78.8705 93.5161 77.7195 94.8054C77.8884 94.8876 78.0584 94.9609 78.2295 95.0245C81.1403 96.1066 86.1151 95.0247 86.1151 95.0247C86.1151 95.0247 84.9383 92.7087 83.2722 90.6779Z" fill="#A7BDC8"/>
</g>
<path d="M180.197 88.4043C180.197 89.179 180.051 89.9082 179.758 90.5918C179.465 91.2689 179.064 91.8613 178.557 92.3691C178.055 92.8704 177.463 93.2676 176.779 93.5605C176.102 93.8535 175.376 94 174.602 94C174.133 94 173.664 93.9414 173.195 93.8242V90.8164C173.404 90.9401 173.628 91.0345 173.869 91.0996C174.11 91.1647 174.354 91.1973 174.602 91.1973C174.986 91.1973 175.347 91.1257 175.686 90.9824C176.031 90.8327 176.33 90.6309 176.584 90.377C176.838 90.123 177.036 89.8268 177.18 89.4883C177.329 89.1497 177.404 88.7884 177.404 88.4043V79.9961H180.197V88.4043ZM192.238 94H182.639V79.9961H192.238V82.7988H185.441V85.6016H190.041V88.4043H185.441V91.1973H192.238V94ZM200.1 88.4043C200.1 89.179 199.953 89.9082 199.66 90.5918C199.367 91.2689 198.967 91.8613 198.459 92.3691C197.958 92.8704 197.365 93.2676 196.682 93.5605C196.005 93.8535 195.279 94 194.504 94C194.035 94 193.566 93.9414 193.098 93.8242V90.8164C193.306 90.9401 193.531 91.0345 193.771 91.0996C194.012 91.1647 194.257 91.1973 194.504 91.1973C194.888 91.1973 195.249 91.1257 195.588 90.9824C195.933 90.8327 196.232 90.6309 196.486 90.377C196.74 90.123 196.939 89.8268 197.082 89.4883C197.232 89.1497 197.307 88.7884 197.307 88.4043V79.9961H200.1V88.4043ZM213.586 88.4043C213.586 89.179 213.439 89.9082 213.146 90.5918C212.854 91.2689 212.453 91.8613 211.945 92.3691C211.438 92.8704 210.842 93.2676 210.158 93.5605C209.481 93.8535 208.755 94 207.98 94C207.206 94 206.477 93.8535 205.793 93.5605C205.116 93.2676 204.523 92.8704 204.016 92.3691C203.514 91.8613 203.117 91.2689 202.824 90.5918C202.531 89.9082 202.385 89.179 202.385 88.4043V79.9961H205.178V88.4043C205.178 88.7884 205.249 89.1497 205.393 89.4883C205.542 89.8268 205.744 90.123 205.998 90.377C206.252 90.6309 206.548 90.8327 206.887 90.9824C207.232 91.1257 207.596 91.1973 207.98 91.1973C208.365 91.1973 208.726 91.1257 209.064 90.9824C209.41 90.8327 209.709 90.6309 209.963 90.377C210.217 90.123 210.415 89.8268 210.559 89.4883C210.708 89.1497 210.783 88.7884 210.783 88.4043V79.9961H213.586V88.4043Z" fill="#C7D5DC"/>
<path d="M116.1 123.9C114.433 123.9 113.183 123.283 112.35 122.05C111.517 120.817 110.95 119 110.65 116.6C110.383 114.167 110.25 110.783 110.25 106.45C110.25 102.283 110.35 99.0333 110.55 96.7C110.783 94.3667 111.317 92.5 112.15 91.1C113.017 89.7 114.35 89 116.15 89C117.95 89 119.267 89.7 120.1 91.1C120.967 92.5 121.5 94.3667 121.7 96.7C121.933 99.0333 122.05 102.283 122.05 106.45C122.05 110.55 121.867 113.867 121.5 116.4C121.167 118.9 120.567 120.783 119.7 122.05C118.833 123.283 117.633 123.9 116.1 123.9ZM130.407 123.9C128.74 123.9 127.49 123.283 126.657 122.05C125.823 120.817 125.257 119 124.957 116.6C124.69 114.167 124.557 110.783 124.557 106.45C124.557 102.283 124.657 99.0333 124.857 96.7C125.09 94.3667 125.623 92.5 126.457 91.1C127.323 89.7 128.657 89 130.457 89C132.257 89 133.573 89.7 134.407 91.1C135.273 92.5 135.807 94.3667 136.007 96.7C136.24 99.0333 136.357 102.283 136.357 106.45C136.357 110.55 136.173 113.867 135.807 116.4C135.473 118.9 134.873 120.783 134.007 122.05C133.14 123.283 131.94 123.9 130.407 123.9ZM150.437 124C147.97 124 145.787 123.517 143.887 122.55C141.987 121.583 140.503 120.233 139.437 118.5C138.403 116.733 137.887 114.75 137.887 112.55C137.887 110.383 138.403 108.383 139.437 106.55C140.503 104.717 141.97 103.25 143.837 102.15C145.703 101.05 147.82 100.5 150.187 100.5C152.32 100.5 154.203 100.933 155.837 101.8C157.47 102.667 158.72 103.817 159.587 105.25C160.453 106.65 160.887 108.117 160.887 109.65C160.887 112.15 159.937 113.983 158.037 115.15C156.17 116.283 153.937 116.85 151.337 116.85C149.603 116.85 148.137 116.633 146.937 116.2C147.937 117.833 149.587 118.65 151.887 118.65C152.82 118.65 153.82 118.533 154.887 118.3C155.287 118.2 155.67 118.15 156.037 118.15C156.77 118.15 157.353 118.333 157.787 118.7C158.253 119.067 158.487 119.567 158.487 120.2C158.487 121.233 157.853 122.133 156.587 122.9C155.32 123.633 153.27 124 150.437 124ZM147.087 110.1C147.387 110.567 147.787 110.917 148.287 111.15C148.82 111.35 149.403 111.45 150.037 111.45C150.77 111.45 151.403 111.283 151.937 110.95C152.503 110.617 152.787 110.183 152.787 109.65C152.787 109.05 152.537 108.533 152.037 108.1C151.57 107.667 150.887 107.45 149.987 107.45C149.087 107.45 148.37 107.733 147.837 108.3C147.337 108.833 147.087 109.433 147.087 110.1ZM170.211 131.4C168.411 131.4 166.911 131.05 165.711 130.35C164.511 129.65 163.911 128.617 163.911 127.25C163.911 126.15 164.428 125.283 165.461 124.65C166.495 124.017 167.711 123.733 169.111 123.8C170.578 123.867 171.711 123.8 172.511 123.6C173.345 123.4 173.978 123.033 174.411 122.5C171.345 122.5 168.895 122.067 167.061 121.2C165.228 120.3 163.895 118.917 163.061 117.05C162.261 115.15 161.861 112.65 161.861 109.55C161.861 106.883 162.261 104.733 163.061 103.1C163.895 101.433 165.195 100.6 166.961 100.6C168.528 100.6 169.678 101.05 170.411 101.95C171.178 102.817 171.561 103.95 171.561 105.35L171.511 107.55C171.478 107.983 171.461 108.617 171.461 109.45C171.461 111.05 171.661 112.267 172.061 113.1C172.461 113.9 173.261 114.3 174.461 114.3C175.661 114.3 176.461 113.9 176.861 113.1C177.261 112.267 177.461 111.067 177.461 109.5C177.461 108.667 177.445 108.033 177.411 107.6L177.361 105.45C177.361 103.95 177.728 102.767 178.461 101.9C179.228 101.033 180.395 100.6 181.961 100.6C183.728 100.6 185.028 101.433 185.861 103.1C186.695 104.767 187.111 106.917 187.111 109.55C187.111 113.483 186.545 117.1 185.411 120.4C184.311 123.667 182.495 126.317 179.961 128.35C177.461 130.383 174.211 131.4 170.211 131.4ZM201.119 124.05C198.719 124.083 196.569 123.583 194.669 122.55C192.802 121.517 191.336 120.1 190.269 118.3C189.236 116.467 188.686 114.433 188.619 112.2C188.586 109.967 189.102 107.967 190.169 106.2C191.236 104.433 192.719 103.033 194.619 102C196.552 100.967 198.719 100.45 201.119 100.45C203.452 100.45 205.552 100.95 207.419 101.95C209.319 102.95 210.819 104.35 211.919 106.15C213.019 107.95 213.602 109.967 213.669 112.2C213.702 114.367 213.186 116.35 212.119 118.15C211.052 119.917 209.552 121.333 207.619 122.4C205.719 123.467 203.552 124.017 201.119 124.05ZM201.269 116.75C202.169 116.75 202.952 116.4 203.619 115.7C204.286 115 204.619 114.183 204.619 113.25C204.619 112.317 204.286 111.517 203.619 110.85C202.952 110.15 202.169 109.8 201.269 109.8C200.369 109.8 199.586 110.15 198.919 110.85C198.252 111.517 197.919 112.317 197.919 113.25C197.919 114.183 198.252 115 198.919 115.7C199.586 116.4 200.369 116.75 201.269 116.75Z" fill="#C7D5DC"/>
<defs>
<filter id="filter0_f_355_193" x="76.7197" y="89.6777" width="10.3955" height="6.82812" filterUnits="userSpaceOnUse" color-interpolation-filters="sRGB">
<feFlood flood-opacity="0" result="BackgroundImageFix"/>
<feBlend mode="normal" in="SourceGraphic" in2="BackgroundImageFix" result="shape"/>
<feGaussianBlur stdDeviation="0.5" result="effect1_foregroundBlur_355_193"/>
</filter>
</defs>
</svg>
