<svg width="127" height="127" viewBox="0 0 127 127" fill="none" xmlns="http://www.w3.org/2000/svg">
<rect width="126.742" height="126.742" fill="#C7D5DC"/>
<g clip-path="url(#clip0_428_1839)">
<path d="M53.154 37.171C53.154 37.171 44.0542 38.2805 37.6724 43.5262C31.2906 48.7719 31.0408 49.1036 27.5452 53.8775C24.0495 58.6515 23.5498 62.9793 23.1622 68.2507C22.7746 73.5222 23.6059 74.7437 24.4932 78.518C25.3805 82.2923 26.6018 85.5107 27.823 86.842C29.0443 88.1733 29.2661 88.7292 29.544 89.2851C29.8219 89.8409 30.8213 91.2283 32.3741 92.4474C33.9269 93.6666 38.7559 97.553 40.7524 98.4406C42.7489 99.3281 47.6876 100.828 54.0694 102.159C60.4512 103.49 70.3262 102.493 77.5954 101.271C84.8645 100.05 89.9129 95.778 92.7991 93.057C95.6853 90.3361 100.234 85.1207 101.621 79.2374C103.008 73.354 103.508 68.3605 102.62 63.9743C101.733 59.588 98.2935 52.7074 95.4634 49.6011C92.6333 46.4924 88.9719 43.6079 87.6409 42.7181C86.3099 41.8282 83.6456 39.9434 78.5411 38.3342C73.4366 36.725 70.3286 36.3372 66.2235 36.2251C62.1184 36.113 54.492 36.9492 53.1564 37.1687L53.154 37.171Z" fill="#E7EDF0"/>
<path d="M44.478 53.8705C44.3939 54.2302 44.3122 54.6716 44.4032 55.0383C44.4943 55.405 44.8866 55.6012 45.2299 55.419C45.5241 55.2625 45.6665 54.8912 45.8253 54.6179C46.0331 54.2559 46.2433 53.8915 46.4511 53.5295L45.5965 53.4174C45.7833 54.0527 46.0215 54.6693 46.2993 55.2719C46.4861 55.6736 47.0255 55.4961 47.154 55.1598C47.3945 54.5221 47.614 53.8775 47.8101 53.2236H46.9088C47.1867 54.02 47.5322 54.7884 47.9502 55.5218C48.2001 55.9609 48.7675 55.7156 48.8212 55.2859L49.0944 53.0274L48.1767 53.1512C48.3589 53.7677 48.6111 54.361 48.9333 54.9192C49.1248 55.2485 49.7062 55.2111 49.7879 54.8071L50.2269 52.621H49.3256C49.4937 53.3123 49.7506 53.978 50.0822 54.6062C50.255 54.9309 50.7056 54.8842 50.8878 54.6062C51.2264 54.0901 51.4809 53.5272 51.649 52.9339H50.7477C50.9485 53.4968 51.1073 54.0714 51.2217 54.6576C51.266 54.8818 51.5206 55.0243 51.7331 54.9916C51.9782 54.9542 52.1137 54.7697 52.137 54.5338C52.1861 54.076 52.2328 53.6206 52.2818 53.1628C52.3075 52.9106 52.0483 52.6957 51.8148 52.6957C51.5393 52.6957 51.3735 52.9106 51.3478 53.1628C51.2987 53.6206 51.252 54.076 51.203 54.5338L52.1207 54.41C52.0039 53.8238 51.8475 53.2492 51.6467 52.6864C51.4972 52.266 50.8784 52.2193 50.7453 52.6864C50.5982 53.2072 50.3764 53.6837 50.0798 54.1368H50.8854C50.5889 53.5762 50.3717 52.9923 50.2223 52.3757C50.1172 51.9413 49.412 51.9203 49.3209 52.3757L48.8819 54.5618L49.7366 54.4497C49.454 53.9593 49.2345 53.4478 49.0757 52.9036C48.917 52.3594 48.2188 52.5275 48.1581 53.0274L47.8848 55.2859L48.7558 55.05C48.3775 54.3867 48.06 53.6977 47.8078 52.976C47.6583 52.5486 47.0442 52.5182 46.9064 52.976C46.7103 53.6299 46.4931 54.2746 46.2503 54.9122L47.1049 54.8001C46.8597 54.2722 46.6613 53.728 46.4955 53.1698C46.3834 52.7891 45.8463 52.7051 45.6408 53.0577C45.4797 53.338 45.3186 53.6183 45.1575 53.8985C45.0804 54.0317 45.0057 54.1625 44.9286 54.2956C44.8913 54.361 44.8516 54.4287 44.8142 54.4941C44.7955 54.5268 44.7769 54.5595 44.7582 54.5922C44.7068 54.6669 44.7255 54.6623 44.8095 54.5759L45.1691 54.6226L45.1178 54.5969L45.2859 54.765C45.2415 54.6856 45.3443 54.2442 45.3723 54.1204C45.5077 53.5365 44.6087 53.2866 44.471 53.8728L44.478 53.8705Z" fill="#698EA1"/>
<path d="M69.821 51.9978C69.7533 52.619 69.814 53.2426 69.9868 53.8429C70.0966 54.2189 70.643 54.3147 70.8415 53.955C71.1567 53.3828 71.4719 52.8106 71.7872 52.2383L70.9162 52.0024C70.9325 52.4369 70.9092 52.8666 70.8298 53.294C70.7504 53.7214 71.2781 54.1348 71.6097 53.7495C71.967 53.3337 72.3242 52.918 72.6792 52.4999L71.8829 52.1706C71.8596 52.7288 71.8339 53.287 71.8105 53.8429C71.7918 54.2937 72.476 54.4945 72.6815 54.0788C73.0458 53.3407 73.4101 52.6027 73.7743 51.8646L72.9033 51.6288C72.9337 52.4018 72.9617 53.1749 72.9921 53.948C73.0084 54.4058 73.6202 54.5903 73.8631 54.1839C74.1876 53.6374 74.5145 53.0908 74.8391 52.5443L73.9681 52.3084C74.0218 52.7802 74.0125 53.2473 73.9191 53.7144C73.821 54.2026 74.5192 54.5739 74.7737 54.0741C75.0796 53.4669 75.4976 52.96 76.03 52.5396L75.2338 52.2103C75.2501 52.8503 75.2688 53.4902 75.2851 54.1302C75.2991 54.6113 75.8969 54.7421 76.1561 54.3661C76.5834 53.7401 77.0738 53.1679 77.6155 52.6377L76.8356 52.4322C76.9197 52.946 76.9103 53.4762 76.8123 53.99C76.7235 54.4595 77.2279 54.7514 77.5922 54.4455C77.9565 54.1395 78.232 53.7191 78.4001 53.252C78.6056 52.6868 77.7019 52.4415 77.4988 53.0044C77.3844 53.3197 77.1859 53.5696 76.9314 53.7845L77.7113 54.2399C77.8397 53.5509 77.8467 52.8783 77.7346 52.187C77.6763 51.8249 77.1836 51.7572 76.9547 51.9814C76.3546 52.5653 75.8199 53.2076 75.3482 53.8989L76.2192 54.1348C76.2028 53.4949 76.1841 52.8549 76.1678 52.215C76.1561 51.7782 75.6798 51.6404 75.3715 51.8857C74.7854 52.3505 74.3067 52.9414 73.9705 53.6093L74.8251 53.969C74.9349 53.4202 74.9699 52.8713 74.9092 52.3154C74.8601 51.8787 74.2951 51.6498 74.0382 52.0795C73.7136 52.6261 73.3867 53.1726 73.0621 53.7191L73.9331 53.955C73.9028 53.1819 73.8747 52.4088 73.8444 51.6358C73.828 51.2013 73.1906 50.9608 72.9734 51.3999C72.6091 52.1379 72.2448 52.876 71.8806 53.614L72.7516 53.8499C72.7749 53.2917 72.8006 52.7335 72.824 52.1776C72.8403 51.7899 72.2892 51.54 72.0277 51.8483C71.6704 52.264 71.3131 52.6798 70.9582 53.0978L71.7381 53.5533C71.8315 53.0441 71.8759 52.5303 71.8572 52.0118C71.8409 51.5657 71.2197 51.3555 70.9862 51.7759C70.671 52.3481 70.3558 52.9203 70.0405 53.4926L70.8952 53.6047C70.7411 53.0768 70.7014 52.556 70.7621 52.0095C70.7901 51.7572 70.5286 51.5423 70.2951 51.5423C70.0195 51.5423 69.8561 51.7572 69.828 52.0095L69.821 51.9978Z" fill="#698EA1"/>
<path d="M46.949 76.9131C47.5654 74.0613 44.595 70.9989 40.3143 70.0732C36.0337 69.1475 32.0637 70.7089 31.4473 73.5608C30.8308 76.4127 33.8012 79.4751 38.0819 80.4008C42.3626 81.3265 46.3325 79.765 46.949 76.9131Z" fill="#F9FAFB"/>
<path d="M34.8467 75.3953C35.7701 75.3953 36.5186 74.6466 36.5186 73.7231C36.5186 72.7995 35.7701 72.0508 34.8467 72.0508C33.9233 72.0508 33.1748 72.7995 33.1748 73.7231C33.1748 74.6466 33.9233 75.3953 34.8467 75.3953Z" fill="#E7EDF0"/>
<path d="M38.6768 78.3641C39.6002 78.3641 40.3487 77.6154 40.3487 76.6918C40.3487 75.7682 39.6002 75.0195 38.6768 75.0195C37.7534 75.0195 37.0049 75.7682 37.0049 76.6918C37.0049 77.6154 37.7534 78.3641 38.6768 78.3641Z" fill="#E7EDF0"/>
<path d="M43.1709 76.5037C44.0943 76.5037 44.8429 75.755 44.8429 74.8315C44.8429 73.9079 44.0943 73.1592 43.1709 73.1592C42.2476 73.1592 41.499 73.9079 41.499 74.8315C41.499 75.755 42.2476 76.5037 43.1709 76.5037Z" fill="#E7EDF0"/>
<path d="M87.9941 79.8362C92.2846 78.913 95.2654 75.8523 94.6519 72.9997C94.0384 70.1472 90.063 68.5831 85.7725 69.5063C81.482 70.4294 78.5012 73.4902 79.1147 76.3427C79.7282 79.1952 83.7036 80.7593 87.9941 79.8362Z" fill="#F9FAFB"/>
<path d="M91.2387 74.8299C92.1634 74.8299 92.913 74.0812 92.913 73.1576C92.913 72.2341 92.1634 71.4854 91.2387 71.4854C90.314 71.4854 89.5645 72.2341 89.5645 73.1576C89.5645 74.0812 90.314 74.8299 91.2387 74.8299Z" fill="#E7EDF0"/>
<path d="M87.4028 77.8006C88.3274 77.8006 89.077 77.0519 89.077 76.1283C89.077 75.2048 88.3274 74.4561 87.4028 74.4561C86.4781 74.4561 85.7285 75.2048 85.7285 76.1283C85.7285 77.0519 86.4781 77.8006 87.4028 77.8006Z" fill="#E7EDF0"/>
<path d="M82.8979 75.9393C83.8226 75.9393 84.5721 75.1906 84.5721 74.267C84.5721 73.3434 83.8226 72.5947 82.8979 72.5947C81.9732 72.5947 81.2236 73.3434 81.2236 74.267C81.2236 75.1906 81.9732 75.9393 82.8979 75.9393Z" fill="#E7EDF0"/>
<path d="M58.9886 75.7673C58.9326 76.2858 59.075 76.8067 59.3575 77.2458C59.7335 77.825 60.462 78.5934 61.786 78.8783C64.023 79.3571 65.7814 78.3785 66.4679 77.3789C67.1544 76.3793 67.3739 75.2979 66.8952 74.4454C66.4165 73.5929 65.814 74.2072 65.751 74.4454C65.688 74.6836 65.1159 75.9752 64.1071 76.3092C63.0983 76.6432 61.8491 76.6525 60.9454 75.6435C60.0394 74.6346 59.4159 74.9359 59.1871 75.2278C59.0727 75.3726 59.012 75.5525 58.9886 75.7697V75.7673Z" fill="#698EA1"/>
<path d="M49.7994 74.567C54.4304 74.567 58.1846 70.9657 58.1846 66.5233C58.1846 62.0808 54.4304 58.4795 49.7994 58.4795C45.1683 58.4795 41.4141 62.0808 41.4141 66.5233C41.4141 70.9657 45.1683 74.567 49.7994 74.567Z" fill="white"/>
<path d="M52.1933 71.3621C54.6758 71.3621 56.6883 69.3492 56.6883 66.8661C56.6883 64.383 54.6758 62.3701 52.1933 62.3701C49.7107 62.3701 47.6982 64.383 47.6982 66.8661C47.6982 69.3492 49.7107 71.3621 52.1933 71.3621Z" fill="#698EA1"/>
<path d="M49.8833 68.0583C50.6765 68.0583 51.3194 67.4152 51.3194 66.6219C51.3194 65.8286 50.6765 65.1855 49.8833 65.1855C49.0902 65.1855 48.4473 65.8286 48.4473 66.6219C48.4473 67.4152 49.0902 68.0583 49.8833 68.0583Z" fill="white"/>
<path d="M78.1683 73.9445C82.6738 72.8734 85.4937 68.5014 84.4667 64.1793C83.4396 59.8573 78.9546 57.2219 74.449 58.293C69.9435 59.3641 67.1236 63.7361 68.1506 68.0582C69.1777 72.3802 73.6627 75.0156 78.1683 73.9445Z" fill="white"/>
<path d="M73.9032 70.8289C76.3858 70.8289 78.3983 68.816 78.3983 66.3329C78.3983 63.8498 76.3858 61.8369 73.9032 61.8369C71.4207 61.8369 69.4082 63.8498 69.4082 66.3329C69.4082 68.816 71.4207 70.8289 73.9032 70.8289Z" fill="#698EA1"/>
<path d="M76.2046 67.4743C76.9978 67.4743 77.6407 66.8312 77.6407 66.0379C77.6407 65.2447 76.9978 64.6016 76.2046 64.6016C75.4115 64.6016 74.7686 65.2447 74.7686 66.0379C74.7686 66.8312 75.4115 67.4743 76.2046 67.4743Z" fill="white"/>
<path d="M41.3101 29.0935C41.3101 29.0935 41.0042 31.9802 44.0001 35.1146C46.996 38.249 49.5482 39.6924 54.543 40.1922C59.5377 40.692 59.7315 39.2766 61.2844 40.0801C62.8372 40.8835 62.6434 40.8578 62.8372 39.9423C63.031 39.0267 64.0024 33.0056 60.6446 29.3971C57.2891 25.7909 50.7975 23.8197 46.6084 25.5971C46.6084 25.5971 45.665 25.9848 45.0275 26.4286C44.39 26.8723 43.5284 27.3161 42.6411 27.288C41.7537 27.26 41.0999 27.3067 41.3101 29.0911V29.0935Z" fill="#A7BDC8"/>
<path d="M46.0273 30.4599C46.0273 30.4599 47.9701 31.1676 50.3285 31.5273C52.6869 31.887 55.6548 33.2206 58.2071 35.2736C60.7593 37.3265 60.1779 37.9104 61.3151 37.7166C62.4522 37.5227 61.5929 36.6632 60.4838 35.6916C59.3746 34.72 55.4073 31.6954 52.1055 31.0858C48.8037 30.4763 47.7506 30.6421 46.5573 30.0325C45.3641 29.4229 45.6373 30.1142 45.6373 30.1142C45.6373 30.1142 45.656 30.238 46.0296 30.4622L46.0273 30.4599Z" fill="#88A6B4"/>
</g>
<defs>
<clipPath id="clip0_428_1839">
<rect width="80" height="77.8615" fill="white" transform="translate(23.0625 24.9326)"/>
</clipPath>
</defs>
</svg>
