<svg width="49" height="48" viewBox="0 0 49 48" fill="none" xmlns="http://www.w3.org/2000/svg">
<rect x="1" y="0.5" width="47" height="47" rx="23.5" fill="white"/>
<rect x="1" y="0.5" width="47" height="47" rx="23.5" stroke="#E7EDF0"/>
<mask id="mask0_444_1228" style="mask-type:luminance" maskUnits="userSpaceOnUse" x="11" y="16" width="10" height="16">
<path d="M11.3818 16.0664H20.5427V31.9331H11.3818V16.0664Z" fill="white"/>
</mask>
<g mask="url(#mask0_444_1228)">
<mask id="mask1_444_1228" style="mask-type:luminance" maskUnits="userSpaceOnUse" x="11" y="10" width="27" height="28">
<path d="M37.2901 21.5599H24.7932V26.7411H31.9866C31.3159 30.0327 28.5118 31.9224 24.7932 31.9224C20.404 31.9224 16.8683 28.3869 16.8683 23.9981C16.8683 19.6093 20.404 16.0738 24.7932 16.0738C26.683 16.0738 28.3899 16.7444 29.731 17.8416L33.6324 13.9405C31.255 11.8679 28.207 10.5879 24.7932 10.5879C17.356 10.5879 11.3818 16.5615 11.3818 23.9981C11.3818 31.4347 17.356 37.4083 24.7932 37.4083C31.4988 37.4083 37.5949 32.5319 37.5949 23.9981C37.5949 23.2057 37.473 22.3523 37.2901 21.5599Z" fill="white"/>
</mask>
<g mask="url(#mask1_444_1228)">
<path d="M10.1626 31.9227V16.0742L20.5259 23.9984L10.1626 31.9227Z" fill="#FBBC05"/>
</g>
</g>
<mask id="mask2_444_1228" style="mask-type:luminance" maskUnits="userSpaceOnUse" x="11" y="10" width="27" height="14">
<path d="M11.3818 10.5781H37.5949V23.9995H11.3818V10.5781Z" fill="white"/>
</mask>
<g mask="url(#mask2_444_1228)">
<mask id="mask3_444_1228" style="mask-type:luminance" maskUnits="userSpaceOnUse" x="11" y="10" width="27" height="28">
<path d="M37.2901 21.5599H24.7932V26.7411H31.9866C31.3159 30.0327 28.5118 31.9224 24.7932 31.9224C20.404 31.9224 16.8683 28.3869 16.8683 23.9981C16.8683 19.6093 20.404 16.0738 24.7932 16.0738C26.683 16.0738 28.3899 16.7444 29.731 17.8416L33.6324 13.9405C31.255 11.8679 28.207 10.5879 24.7932 10.5879C17.356 10.5879 11.3818 16.5615 11.3818 23.9981C11.3818 31.4347 17.356 37.4083 24.7932 37.4083C31.4988 37.4083 37.5949 32.5319 37.5949 23.9981C37.5949 23.2057 37.473 22.3523 37.2901 21.5599Z" fill="white"/>
</mask>
<g mask="url(#mask3_444_1228)">
<path d="M10.1626 16.0743L20.5259 23.9985L24.7931 20.2802L39.4236 17.9029V9.36914H10.1626V16.0743Z" fill="#EA4335"/>
</g>
</g>
<mask id="mask4_444_1228" style="mask-type:luminance" maskUnits="userSpaceOnUse" x="11" y="10" width="27" height="28">
<path d="M11.3818 10.5781H37.5949V37.4083H11.3818V10.5781Z" fill="white"/>
</mask>
<g mask="url(#mask4_444_1228)">
<mask id="mask5_444_1228" style="mask-type:luminance" maskUnits="userSpaceOnUse" x="11" y="10" width="27" height="28">
<path d="M37.2901 21.5599H24.7932V26.7411H31.9866C31.3159 30.0327 28.5118 31.9224 24.7932 31.9224C20.404 31.9224 16.8683 28.3869 16.8683 23.9981C16.8683 19.6093 20.404 16.0738 24.7932 16.0738C26.683 16.0738 28.3899 16.7444 29.731 17.8416L33.6324 13.9405C31.255 11.8679 28.207 10.5879 24.7932 10.5879C17.356 10.5879 11.3818 16.5615 11.3818 23.9981C11.3818 31.4347 17.356 37.4083 24.7932 37.4083C31.4988 37.4083 37.5949 32.5319 37.5949 23.9981C37.5949 23.2057 37.473 22.3523 37.2901 21.5599Z" fill="white"/>
</mask>
<g mask="url(#mask5_444_1228)">
<path d="M10.1626 31.9228L28.4508 17.9029L33.2666 18.5125L39.4236 9.36914V38.6279H10.1626V31.9228Z" fill="#34A853"/>
</g>
</g>
<mask id="mask6_444_1228" style="mask-type:luminance" maskUnits="userSpaceOnUse" x="18" y="16" width="20" height="22">
<path d="M18.0786 16.0664H37.5948V37.4086H18.0786V16.0664Z" fill="white"/>
</mask>
<g mask="url(#mask6_444_1228)">
<mask id="mask7_444_1228" style="mask-type:luminance" maskUnits="userSpaceOnUse" x="11" y="10" width="27" height="28">
<path d="M37.2901 21.5599H24.7932V26.7411H31.9866C31.3159 30.0327 28.5118 31.9224 24.7932 31.9224C20.404 31.9224 16.8683 28.3869 16.8683 23.9981C16.8683 19.6093 20.404 16.0738 24.7932 16.0738C26.683 16.0738 28.3899 16.7444 29.731 17.8416L33.6324 13.9405C31.255 11.8679 28.207 10.5879 24.7932 10.5879C17.356 10.5879 11.3818 16.5615 11.3818 23.9981C11.3818 31.4347 17.356 37.4083 24.7932 37.4083C31.4988 37.4083 37.5949 32.5319 37.5949 23.9981C37.5949 23.2057 37.473 22.3523 37.2901 21.5599Z" fill="white"/>
</mask>
<g mask="url(#mask7_444_1228)">
<path d="M39.4235 38.6279L20.5258 23.9984L18.0874 22.1698L39.4235 16.0742V38.6279Z" fill="#4285F4"/>
</g>
</g>
</svg>
