<svg width="48" height="48" viewBox="0 0 48 48" fill="none" xmlns="http://www.w3.org/2000/svg">
<path d="M6 12C6 10.8954 6.89543 10 8 10H40C41.1046 10 42 10.8954 42 12C42 13.1046 41.1046 14 40 14H8C6.89543 14 6 13.1046 6 12Z" fill="#FF6600"/>
<path d="M6 36C6 34.8954 6.89543 34 8 34H40C41.1046 34 42 34.8954 42 36C42 37.1046 41.1046 38 40 38H8C6.89543 38 6 37.1046 6 36Z" fill="#FF6600"/>
<path d="M6 24C6 22.8954 6.89543 22 8 22H40C41.1046 22 42 22.8954 42 24C42 25.1046 41.1046 26 40 26H8C6.89543 26 6 25.1046 6 24Z" fill="#38ACBC"/>
</svg>
