<svg width="48" height="48" viewBox="0 0 48 48" fill="none" xmlns="http://www.w3.org/2000/svg">
<path fill-rule="evenodd" clip-rule="evenodd" d="M21.8726 13.8809C22.4368 13.3169 23.202 13 23.9998 13C24.7976 13 25.5627 13.3169 26.1269 13.8809L43.1471 30.9011C43.6952 31.4686 43.9984 32.2286 43.9916 33.0174C43.9847 33.8063 43.6683 34.5609 43.1105 35.1188C42.5526 35.6766 41.798 35.993 41.0091 35.9999C40.2203 36.0067 39.4603 35.7035 38.8928 35.1554L23.9998 20.2624L9.10669 35.1554C8.53924 35.7035 7.77924 36.0067 6.99037 35.9999C6.2015 35.993 5.44688 35.6766 4.88904 35.1188C4.3312 34.5609 4.01478 33.8063 4.00793 33.0174C4.00107 32.2286 4.30433 31.4686 4.85239 30.9011L21.8726 13.8809Z" fill="black"/>
</svg>
