<svg width="48" height="48" viewBox="0 0 48 48" fill="none" xmlns="http://www.w3.org/2000/svg">
<path fill-rule="evenodd" clip-rule="evenodd" d="M13.3809 26.6274C12.8169 26.0632 12.5 25.298 12.5 24.5002C12.5 23.7024 12.8169 22.9373 13.3809 22.3731L30.4011 5.35288C30.9686 4.80482 31.7286 4.50156 32.5174 4.50841C33.3063 4.51527 34.0609 4.83169 34.6188 5.38953C35.1766 5.94737 35.493 6.70199 35.4999 7.49086C35.5067 8.27973 35.2035 9.03973 34.6554 9.60718L19.7624 24.5002L34.6554 39.3933C35.2035 39.9608 35.5067 40.7208 35.4999 41.5096C35.493 42.2985 35.1766 43.0531 34.6188 43.611C34.0609 44.1688 33.3063 44.4852 32.5174 44.4921C31.7286 44.4989 30.9686 44.1957 30.4011 43.6476L13.3809 26.6274Z" fill="black"/>
</svg>
