<svg width="20" height="20" viewBox="0 0 20 20" fill="none" xmlns="http://www.w3.org/2000/svg">
<path fill-rule="evenodd" clip-rule="evenodd" d="M0.308442 10.7448C0.110947 10.5472 0 10.2793 0 10C0 9.72066 0.110947 9.45275 0.308442 9.2552L6.26792 3.29572C6.4666 3.10382 6.73271 2.99764 7.00893 3.00004C7.28514 3.00244 7.54937 3.11323 7.74469 3.30855C7.94001 3.50388 8.0508 3.7681 8.0532 4.04432C8.0556 4.32053 7.94942 4.58664 7.75752 4.78533L2.54285 10L7.75752 15.2147C7.94942 15.4134 8.0556 15.6795 8.0532 15.9557C8.0508 16.2319 7.94001 16.4961 7.74469 16.6914C7.54937 16.8868 7.28514 16.9976 7.00893 17C6.73271 17.0024 6.4666 16.8962 6.26792 16.7043L0.308442 10.7448Z" fill="#182126"/>
</svg>
