<svg width="48" height="48" viewBox="0 0 48 48" fill="none" xmlns="http://www.w3.org/2000/svg">
<g clip-path="url(#clip0_372_399)">
<path d="M40.25 17.89H36.99C36.93 16.84 36.07 16 35 16H11C9.9 16 9 16.9 9 18V28.1C9 35.83 15.27 42.1 23 42.1C29.04 42.1 34.17 38.27 36.13 32.91V33C39.92 33 43 29.93 43 26.13V20.64C43 19.12 41.77 17.89 40.25 17.89ZM40.25 25.86C40.25 27.88 38.79 29.56 36.87 29.91C36.95 29.32 37 28.72 37 28.1V20.91H38.6C39.51 20.91 40.25 21.65 40.25 22.56V25.86Z" fill="#FF6600"/>
<path d="M40 38H6C5.45 38 5 38.45 5 39C5 39.55 5.45 40 6 40H7.18C7.59 41.16 8.69 42 10 42H36C37.3 42 38.4 41.16 38.82 40H40C40.55 40 41 39.55 41 39C41 38.45 40.55 38 40 38Z" fill="#38ACBC"/>
<g opacity="0.5" filter="url(#filter0_f_372_399)">
<path fill-rule="evenodd" clip-rule="evenodd" d="M32.8828 38H13.1025C15.2631 40.16 18.1261 41.6176 21.3187 42H24.6805C27.8711 41.6176 30.7275 40.1598 32.8828 38Z" fill="#FF6600"/>
</g>
</g>
<path d="M17.0039 8.5V8.35C16.9939 8.26 17.0039 8.15 17.0239 8.02C17.0739 7.66 17.2139 7.32 17.4439 7C17.5739 6.84 17.6639 6.73 17.7139 6.69C17.7235 6.66774 17.7371 6.64741 17.7539 6.63L17.7939 6.59C17.8401 6.56488 17.8809 6.5309 17.9139 6.49L17.9939 6.41C18.0239 6.38 18.0539 6.37 18.0639 6.35C18.1139 6.3 18.1639 6.27 18.2039 6.25L18.3739 6.14C18.5139 6.05 18.6839 6 18.8739 6H18.9039C19.0039 6 19.0939 6.01 19.1639 6.03C19.1939 6.04 19.2339 6.06 19.2939 6.1V6.11C19.4312 6.17209 19.5481 6.27167 19.6312 6.39728C19.7144 6.52288 19.7604 6.66941 19.7639 6.82C19.7639 6.99 19.7139 7.13 19.6239 7.24C19.5639 7.33 19.4839 7.41 19.4039 7.47L19.3439 7.5L19.3039 7.52L19.2439 7.56C19.2039 7.59 19.1739 7.62 19.1439 7.64C19.1139 7.66 19.0839 7.7 19.0339 7.75C18.9939 7.8 18.9539 7.84 18.9239 7.89C18.8939 7.93 18.8639 7.99 18.8339 8.04C18.8039 8.1 18.7839 8.16 18.7839 8.21V8.36C18.8239 8.51 18.8639 8.63 18.8939 8.72C18.9639 8.86 19.0739 9 19.2339 9.16C19.2439 9.18 19.3239 9.26 19.4739 9.41C20.3339 10.19 20.7439 11.03 20.6839 11.91C20.6639 12.21 20.5939 12.5 20.4739 12.78C20.3539 13.06 20.2139 13.29 20.0439 13.48C19.8839 13.67 19.7539 13.81 19.6539 13.91C19.5539 14 19.4739 14.07 19.4039 14.12C19.3939 14.13 19.3739 14.14 19.3439 14.16C19.3139 14.18 19.2839 14.2 19.2739 14.2C19.1939 14.24 19.1239 14.26 19.0539 14.27C18.9639 14.28 18.9039 14.29 18.8539 14.29C18.5539 14.29 18.3139 14.19 18.1439 13.99C18.0764 13.9085 18.0257 13.8143 17.9948 13.713C17.9639 13.6118 17.9534 13.5054 17.9639 13.4C17.9839 13.18 18.0939 13 18.2939 12.87L18.3039 12.84C18.3139 12.83 18.3339 12.81 18.3539 12.8C18.3739 12.78 18.3939 12.76 18.4239 12.74C18.4539 12.72 18.4839 12.69 18.5039 12.66C18.5327 12.6284 18.5594 12.595 18.5839 12.56C18.6139 12.52 18.6439 12.48 18.6639 12.44C18.6939 12.4 18.7239 12.35 18.7439 12.3C18.7739 12.25 18.7939 12.2 18.8139 12.15C18.8339 12.1 18.8439 12.05 18.8639 11.99C18.8739 11.93 18.8839 11.87 18.8839 11.82C18.9039 11.62 18.8539 11.42 18.7339 11.22C18.6839 11.11 18.6139 11 18.5139 10.89C18.4439 10.81 18.3939 10.76 18.3639 10.73C18.2739 10.62 18.2239 10.56 18.2139 10.55C18.1939 10.54 18.1739 10.52 18.1439 10.49C18.1139 10.46 18.0939 10.45 18.0839 10.44C17.9339 10.3 17.8239 10.18 17.7439 10.08C17.6239 9.92 17.5339 9.82 17.5039 9.76C17.3139 9.5 17.1839 9.24 17.1139 8.98C17.0739 8.84 17.0439 8.73 17.0339 8.66C17.0339 8.64 17.0239 8.61 17.0139 8.58C17.0039 8.55 17.0039 8.53 17.0039 8.5ZM20.8839 8.17C20.8839 8.11 20.8839 8.07 20.8939 8.03C20.9139 7.81 20.9839 7.6 21.0939 7.39C21.2039 7.18 21.3139 7 21.4439 6.86C21.5739 6.72 21.6939 6.59 21.8239 6.48C21.9539 6.37 22.0539 6.29 22.1339 6.23L22.2539 6.16C22.4039 6.07 22.5739 6.02 22.7539 6.02C22.8639 6.02 22.9639 6.03 23.0539 6.05C23.0639 6.05 23.0739 6.06 23.1039 6.07C23.1339 6.09 23.1539 6.1 23.1639 6.11C23.1739 6.11 23.1839 6.11 23.1939 6.12C23.2039 6.12 23.2239 6.14 23.2639 6.17C23.4639 6.29 23.5839 6.47 23.6439 6.71V6.83C23.6439 6.86 23.6339 6.9 23.6239 6.95C23.6139 7 23.6039 7.03 23.6039 7.04C23.5339 7.27 23.3939 7.43 23.1839 7.54C22.8539 7.76 22.6739 7.99 22.6539 8.23C22.6438 8.30298 22.6438 8.37702 22.6539 8.45C22.6739 8.57 22.7339 8.7 22.8239 8.84C22.9339 9 23.0139 9.11 23.0639 9.16C23.2239 9.32 23.3139 9.41 23.3439 9.43C23.4639 9.54 23.6239 9.71 23.8139 9.94C24.3539 10.59 24.6039 11.26 24.5539 11.94C24.5339 12.24 24.4639 12.53 24.3439 12.81C24.2239 13.09 24.0839 13.32 23.9139 13.51C23.7539 13.69 23.6139 13.84 23.5139 13.94C23.4039 14.04 23.3239 14.11 23.2639 14.15L23.1439 14.23C23.0339 14.27 22.9739 14.29 22.9339 14.3C22.8239 14.31 22.7539 14.32 22.7339 14.32H22.7039C22.6401 14.3194 22.5765 14.3127 22.5139 14.3C22.4939 14.3 22.4639 14.3 22.4339 14.29C22.4039 14.28 22.3739 14.28 22.3639 14.28C22.3539 14.28 22.3439 14.28 22.3339 14.27C22.3239 14.26 22.3139 14.26 22.2939 14.25C22.2839 14.24 22.2739 14.24 22.2639 14.24C22.1139 14.13 22.0239 14.07 22.0039 14.03C21.9306 13.9498 21.8757 13.8546 21.8432 13.7509C21.8106 13.6473 21.8011 13.5377 21.8154 13.43C21.8297 13.3223 21.8675 13.2191 21.9259 13.1275C21.9844 13.0359 22.0622 12.9583 22.1539 12.9L22.1839 12.86C22.2039 12.84 22.2339 12.81 22.2739 12.78L22.3939 12.66L22.5239 12.5L22.6439 12.31L22.7339 12.09L22.7739 11.85C22.7839 11.45 22.5539 11.03 22.0839 10.58C21.8939 10.41 21.7539 10.27 21.6439 10.15C21.0939 9.46 20.8439 8.81 20.8839 8.17ZM24.7839 8.02C24.8039 7.8 24.8739 7.59 24.9839 7.38C25.0939 7.17 25.2039 6.99 25.3339 6.85C25.4639 6.71 25.5839 6.58 25.7139 6.47C25.8339 6.36 25.9339 6.28 26.0139 6.22L26.1439 6.15C26.1639 6.13 26.2039 6.11 26.2439 6.07C26.3539 6.03 26.4839 6 26.6239 6C26.9639 6 27.2139 6.13 27.3939 6.38C27.4439 6.45 27.4739 6.52 27.4939 6.61C27.5039 6.63 27.5139 6.66 27.5139 6.69V6.8C27.5139 7.11 27.3639 7.35 27.0639 7.5C26.7439 7.71 26.5739 7.94 26.5439 8.19C26.5039 8.53 26.7339 8.93 27.2239 9.39C28.1039 10.16 28.5039 11 28.4539 11.89C28.4339 12.19 28.3639 12.48 28.2439 12.76C28.1239 13.04 27.9739 13.27 27.8139 13.46C27.6439 13.65 27.5139 13.79 27.4239 13.89C27.3339 13.99 27.2439 14.05 27.1739 14.1C27.0139 14.2 26.8739 14.25 26.7639 14.26C26.7339 14.27 26.6839 14.27 26.6139 14.27C26.3139 14.27 26.0839 14.17 25.9239 13.97C25.7739 13.8 25.7139 13.6 25.7339 13.38C25.7539 13.16 25.8639 12.98 26.0539 12.85C26.0839 12.84 26.1439 12.79 26.2339 12.71C26.3239 12.63 26.4139 12.5 26.5239 12.33C26.6239 12.15 26.6839 11.98 26.6939 11.8C26.7139 11.4 26.4739 10.98 25.9939 10.53C25.5839 10.17 25.2639 9.78 25.0539 9.37C24.8139 8.95 24.7239 8.49 24.7839 8.02Z" fill="#FF6600"/>
<defs>
<filter id="filter0_f_372_399" x="12.1025" y="37" width="21.7803" height="6" filterUnits="userSpaceOnUse" color-interpolation-filters="sRGB">
<feFlood flood-opacity="0" result="BackgroundImageFix"/>
<feBlend mode="normal" in="SourceGraphic" in2="BackgroundImageFix" result="shape"/>
<feGaussianBlur stdDeviation="0.5" result="effect1_foregroundBlur_372_399"/>
</filter>
<clipPath id="clip0_372_399">
<rect width="38" height="28" fill="white" transform="translate(5 14)"/>
</clipPath>
</defs>
</svg>
