<svg width="48" height="48" viewBox="0 0 48 48" fill="none" xmlns="http://www.w3.org/2000/svg">
<mask id="path-1-inside-1_428_1248" fill="white">
<path d="M34.6064 13.3936L13.3932 34.6068L34.6064 13.3936Z"/>
</mask>
<path d="M36.7278 15.5149C37.8993 14.3433 37.8993 12.4438 36.7278 11.2722C35.5562 10.1007 33.6567 10.1007 32.4851 11.2722L36.7278 15.5149ZM11.2719 32.4854C10.1003 33.657 10.1003 35.5565 11.2719 36.7281C12.4435 37.8996 14.343 37.8996 15.5146 36.7281L11.2719 32.4854ZM32.4851 11.2722L11.2719 32.4854L15.5146 36.7281L36.7278 15.5149L32.4851 11.2722Z" fill="black" mask="url(#path-1-inside-1_428_1248)"/>
<mask id="path-3-inside-2_428_1248" fill="white">
<path d="M34.6064 34.6064L13.3932 13.3932L34.6064 34.6064Z"/>
</mask>
<path d="M32.4851 36.7278C33.6567 37.8993 35.5562 37.8993 36.7278 36.7278C37.8993 35.5562 37.8993 33.6567 36.7278 32.4851L32.4851 36.7278ZM15.5146 11.2719C14.343 10.1003 12.4435 10.1003 11.2719 11.2719C10.1004 12.4435 10.1004 14.343 11.2719 15.5146L15.5146 11.2719ZM36.7278 32.4851L15.5146 11.2719L11.2719 15.5146L32.4851 36.7278L36.7278 32.4851Z" fill="black" mask="url(#path-3-inside-2_428_1248)"/>
</svg>
