<svg width="48" height="48" viewBox="0 0 48 48" fill="none" xmlns="http://www.w3.org/2000/svg">
<g id="car">
<path id="Vector" d="M41.544 20.31L38.808 12.102C38.4111 10.907 37.6477 9.8674 36.6262 9.13102C35.6048 8.39463 34.3772 7.99888 33.118 8H14.882C13.6228 7.99888 12.3952 8.39463 11.3738 9.13102C10.3523 9.8674 9.5889 10.907 9.192 12.102L6.456 20.31C5.72844 20.6144 5.10712 21.1271 4.67013 21.7837C4.23315 22.4402 4 23.2113 4 24V30C4 31.476 4.808 32.752 6 33.446V36C6 36.5304 6.21071 37.0391 6.58579 37.4142C6.96086 37.7893 7.46957 38 8 38H10C10.5304 38 11.0391 37.7893 11.4142 37.4142C11.7893 37.0391 12 36.5304 12 36V34H36V36C36 36.5304 36.2107 37.0391 36.5858 37.4142C36.9609 37.7893 37.4696 38 38 38H40C40.5304 38 41.0391 37.7893 41.4142 37.4142C41.7893 37.0391 42 36.5304 42 36V33.446C42.6068 33.098 43.1111 32.5963 43.4623 31.9913C43.8134 31.3863 43.9989 30.6995 44 30V24C44 22.338 42.986 20.916 41.544 20.31ZM14.882 12H33.116C33.5359 11.9999 33.9452 12.132 34.2859 12.3775C34.6266 12.6231 34.8813 12.9696 35.014 13.368L37.226 20H10.774L12.984 13.368C13.258 12.55 14.022 12 14.882 12ZM11 30C10.6059 29.9999 10.2157 29.9221 9.85164 29.7712C9.4876 29.6202 9.15684 29.3991 8.87827 29.1203C8.31566 28.5573 7.99973 27.7939 8 26.998C8.00027 26.2021 8.3167 25.4389 8.87968 24.8763C9.44266 24.3137 10.2061 23.9977 11.002 23.998C11.7979 23.9983 12.5611 24.3147 13.1237 24.8777C13.6863 25.4407 14.0023 26.2041 14.002 27C14.0017 27.7959 13.6853 28.5591 13.1223 29.1217C12.5593 29.6843 11.7959 30.0003 11 30ZM37 30C36.2041 29.9997 35.4409 29.6833 34.8783 29.1203C34.3157 28.5573 33.9997 27.7939 34 26.998C34.0003 26.2021 34.3167 25.4389 34.8797 24.8763C35.4427 24.3137 36.2061 23.9977 37.002 23.998C37.7979 23.9983 38.5611 24.3147 39.1237 24.8777C39.6863 25.4407 40.0023 26.2041 40.002 27C40.0017 27.7959 39.6853 28.5591 39.1223 29.1217C38.5593 29.6843 37.7959 30.0003 37 30Z" fill="black"/>
</g>
</svg>
