<svg width="48" height="48" viewBox="0 0 48 48" fill="none" xmlns="http://www.w3.org/2000/svg">
<path d="M17.6877 32.6704L39.5831 10.7751C40.0998 10.2584 40.7026 10 41.3915 10C42.0805 10 42.6833 10.2584 43.2 10.7751C43.7167 11.2918 43.975 11.9058 43.975 12.6171C43.975 13.3284 43.7167 13.9416 43.2 14.4566L19.4962 38.2249C18.9795 38.7416 18.3767 39 17.6877 39C16.9988 39 16.396 38.7416 15.8793 38.2249L4.77015 27.1158C4.25344 26.5991 4.00543 25.986 4.02609 25.2763C4.04676 24.5667 4.31631 23.9527 4.83474 23.4343C5.35316 22.9159 5.96718 22.6575 6.67679 22.6592C7.38639 22.661 7.99955 22.9193 8.51625 23.4343L17.6877 32.6704Z" fill="black"/>
</svg>
