<svg width="48" height="48" viewBox="0 0 48 48" fill="none" xmlns="http://www.w3.org/2000/svg">
<path fill-rule="evenodd" clip-rule="evenodd" d="M24 6.0018C14.0586 6.0018 6 14.0603 6 24.0016C5.99848 26.6536 6.58301 29.2732 7.7118 31.6731L6.0378 39.8396C5.9782 40.1311 5.99183 40.433 6.07748 40.718C6.16312 41.003 6.3181 41.2624 6.52855 41.4728C6.739 41.6832 6.99834 41.8382 7.28337 41.9239C7.5684 42.0095 7.87021 42.0231 8.1618 41.9635L16.3284 40.2896C18.6576 41.3875 21.2604 41.9995 24 41.9995C33.9414 41.9995 42 33.9428 42 23.9998C42 14.0603 33.9414 6 24 6" fill="black"/>
</svg>
