<svg width="48" height="48" viewBox="0 0 48 48" fill="none" xmlns="http://www.w3.org/2000/svg">
<path fill-rule="evenodd" clip-rule="evenodd" d="M9.996 15.56C13.458 12.69 18.396 10 24 10C29.604 10 34.54 12.69 38.004 15.56C39.5704 16.843 40.9777 18.3088 42.196 19.926C42.702 20.614 43.126 21.29 43.432 21.92C43.712 22.492 44 23.236 44 24C44 24.764 43.71 25.508 43.432 26.08C43.08 26.78 42.6664 27.4473 42.196 28.074C40.9777 29.6912 39.5704 31.1569 38.004 32.44C34.542 35.31 29.604 38 24 38C18.396 38 13.46 35.31 9.996 32.44C8.42964 31.1569 7.02232 29.6912 5.804 28.074C5.33363 27.4473 4.92 26.78 4.568 26.08C4.288 25.508 4 24.764 4 24C4 23.236 4.29 22.492 4.568 21.92C4.874 21.29 5.298 20.614 5.804 19.926C7.02232 18.3088 8.42964 16.843 9.996 15.56ZM24 30C25.5913 30 27.1174 29.3679 28.2426 28.2426C29.3679 27.1174 30 25.5913 30 24C30 22.4087 29.3679 20.8826 28.2426 19.7574C27.1174 18.6321 25.5913 18 24 18C22.4087 18 20.8826 18.6321 19.7574 19.7574C18.6321 20.8826 18 22.4087 18 24C18 25.5913 18.6321 27.1174 19.7574 28.2426C20.8826 29.3679 22.4087 30 24 30Z" fill="black"/>
</svg>
