<svg width="48" height="48" viewBox="0 0 48 48" fill="none" xmlns="http://www.w3.org/2000/svg">
<path d="M28.0022 24V39.76C28.0822 40.36 27.8822 41 27.4222 41.42C27.2372 41.6054 27.0174 41.7525 26.7755 41.8529C26.5335 41.9532 26.2742 42.0049 26.0122 42.0049C25.7503 42.0049 25.4909 41.9532 25.249 41.8529C25.007 41.7525 24.7872 41.6054 24.6022 41.42L20.5822 37.4C20.3642 37.1867 20.1984 36.9259 20.0978 36.6379C19.9972 36.35 19.9645 36.0427 20.0022 35.74V24H19.9422L8.42222 9.24C8.09743 8.82306 7.95088 8.29452 8.01459 7.76986C8.0783 7.2452 8.34709 6.76709 8.76222 6.44C9.14222 6.16 9.56222 6 10.0022 6H38.0022C38.4422 6 38.8622 6.16 39.2422 6.44C39.6573 6.76709 39.9261 7.2452 39.9898 7.76986C40.0535 8.29452 39.907 8.82306 39.5822 9.24L28.0622 24H28.0022Z" fill="#698EA1"/>
</svg>
