<svg width="48" height="48" viewBox="0 0 48 48" fill="none" xmlns="http://www.w3.org/2000/svg">
<g id="&#236;&#167;&#128;&#235;&#143;&#132; &#237;&#149;&#128;">
<path id="Vector" d="M36.7273 9.14727C40.0319 12.3733 41.9219 16.7277 41.9976 21.2896C42.0734 25.8516 40.329 30.2635 37.1333 33.5924L36.7273 34.0025L28.2415 42.2856C27.1648 43.3362 25.7193 43.9479 24.1979 43.9968C22.6765 44.0458 21.193 43.5283 20.0477 42.5492L19.7598 42.2856L11.272 34.0005C7.89639 30.7048 6 26.2348 6 21.5739C6 16.913 7.89639 12.443 11.272 9.14727C14.6476 5.85153 19.2258 4 23.9996 4C28.7734 4 33.3517 5.85153 36.7273 9.14727ZM23.9996 15.716C23.2117 15.716 22.4315 15.8675 21.7036 16.1619C20.9757 16.4563 20.3142 16.8878 19.7571 17.4317C19.2 17.9757 18.758 18.6214 18.4565 19.3322C18.155 20.0429 17.9998 20.8046 17.9998 21.5739C17.9998 22.3432 18.155 23.1049 18.4565 23.8156C18.758 24.5263 19.2 25.1721 19.7571 25.7161C20.3142 26.26 20.9757 26.6915 21.7036 26.9859C22.4315 27.2803 23.2117 27.4318 23.9996 27.4318C25.5909 27.4318 27.117 26.8146 28.2422 25.7161C29.3674 24.6175 29.9995 23.1275 29.9995 21.5739C29.9995 20.0203 29.3674 18.5303 28.2422 17.4317C27.117 16.3331 25.5909 15.716 23.9996 15.716Z" fill="#38ACBC"/>
</g>
</svg>
