<svg width="20" height="20" viewBox="0 0 20 20" fill="none" xmlns="http://www.w3.org/2000/svg">
<path d="M6.10455 9.04547L16.6338 19.431C17.4187 20.206 18.6736 20.186 19.4386 19.391C20.2035 18.596 20.1835 17.3209 19.3986 16.5459L8.87435 6.16032L9.73929 2.10511L7.60444 -5.41827e-07L5.57959 5.7153L6.45272e-07 7.92541L2.12984 10.0305L6.10455 9.04047L6.10455 9.04547Z" fill="#A7BDC8"/>
<path d="M13.9158 16.7544L16.681 13.8642L17.5 2.8828L16.0551 1.5L12.3463 9.71583L9.58107 12.606L1.53756 16.6735L2.98247 18.0563L13.9158 16.7544Z" fill="#A7BDC8"/>
<g opacity="0.5" filter="url(#filter0_f_1136_2870)">
<path d="M12.3467 9.58594L12.2882 9.71556L9.61622 12.5082L13.8883 16.7221L16.6229 13.8639L16.627 13.8098L12.3467 9.58594Z" fill="#A7BDC8"/>
</g>
<defs>
<filter id="filter0_f_1136_2870" x="8.61719" y="8.58594" width="9.00977" height="9.13623" filterUnits="userSpaceOnUse" color-interpolation-filters="sRGB">
<feFlood flood-opacity="0" result="BackgroundImageFix"/>
<feBlend mode="normal" in="SourceGraphic" in2="BackgroundImageFix" result="shape"/>
<feGaussianBlur stdDeviation="0.5" result="effect1_foregroundBlur_1136_2870"/>
</filter>
</defs>
</svg>
