<svg width="37" height="42" viewBox="0 0 37 42" fill="none" xmlns="http://www.w3.org/2000/svg">
<path d="M19.4017 41.0497C16.3683 41.083 13.5517 40.333 10.9517 38.7997C8.38501 37.2663 6.31834 35.1663 4.75167 32.4997C3.21834 29.7997 2.41834 26.8163 2.35167 23.5497C2.31834 20.4163 3.05167 17.5163 4.55167 14.8497C6.05167 12.183 8.11834 10.0663 10.7517 8.49967C13.385 6.89967 16.2683 6.09967 19.4017 6.09967C22.4683 6.06634 25.3017 6.83301 27.9017 8.39967C30.535 9.96634 32.6183 12.1163 34.1517 14.8497C35.685 17.583 36.4517 20.5997 36.4517 23.8997C36.4517 26.9997 35.685 29.8497 34.1517 32.4497C32.6183 35.0497 30.535 37.1163 27.9017 38.6497C25.3017 40.183 22.4683 40.983 19.4017 41.0497ZM19.5517 31.2997C21.085 31.2997 22.385 30.7497 23.4517 29.6497C24.5517 28.5497 25.085 27.1163 25.0517 25.3497C25.0517 23.5497 24.5183 22.0997 23.4517 20.9997C22.385 19.8997 21.085 19.3497 19.5517 19.3497C18.0183 19.3497 16.7183 19.8997 15.6517 20.9997C14.585 22.0997 14.0517 23.5497 14.0517 25.3497C14.0517 27.1163 14.585 28.5497 15.6517 29.6497C16.7183 30.7497 18.0183 31.2997 19.5517 31.2997Z" fill="#C7D5DC"/>
<path d="M9.5953 5.22937C6.30099 3.31517 5.04255e-05 4.18024 5.04255e-05 4.18024C5.04255e-05 4.18024 3.36866 10.5893 7.2295 12.0245C10.1403 13.1066 15.1151 12.0247 15.1151 12.0247C15.1151 12.0247 12.5284 6.93365 9.5953 5.22937Z" fill="#698EA1"/>
<g filter="url(#filter0_f_469_4838)">
<path fill-rule="evenodd" clip-rule="evenodd" d="M12.2725 7.67773C11.7567 7.92306 11.2498 8.19698 10.7519 8.49951C9.21478 9.41402 7.87071 10.5159 6.71973 11.8053C6.8886 11.8874 7.05869 11.9607 7.22974 12.0243C10.1406 13.1064 15.1153 12.0245 15.1153 12.0245C15.1153 12.0245 13.9386 9.70851 12.2725 7.67773Z" fill="#A7BDC8"/>
</g>
<defs>
<filter id="filter0_f_469_4838" x="5.71973" y="6.67773" width="10.3955" height="6.82715" filterUnits="userSpaceOnUse" color-interpolation-filters="sRGB">
<feFlood flood-opacity="0" result="BackgroundImageFix"/>
<feBlend mode="normal" in="SourceGraphic" in2="BackgroundImageFix" result="shape"/>
<feGaussianBlur stdDeviation="0.5" result="effect1_foregroundBlur_469_4838"/>
</filter>
</defs>
</svg>
