<svg width="144" height="75" viewBox="0 0 144 75" fill="none" xmlns="http://www.w3.org/2000/svg">
<path d="M19.4017 57.0497C16.3683 57.083 13.5517 56.333 10.9517 54.7997C8.38501 53.2663 6.31834 51.1663 4.75167 48.4997C3.21834 45.7997 2.41834 42.8163 2.35167 39.5497C2.31834 36.4163 3.05167 33.5163 4.55167 30.8497C6.05167 28.183 8.11834 26.0663 10.7517 24.4997C13.385 22.8997 16.2683 22.0997 19.4017 22.0997C22.4683 22.0663 25.3017 22.833 27.9017 24.3997C30.535 25.9663 32.6183 28.1163 34.1517 30.8497C35.685 33.583 36.4517 36.5997 36.4517 39.8997C36.4517 42.9997 35.685 45.8497 34.1517 48.4497C32.6183 51.0497 30.535 53.1163 27.9017 54.6497C25.3017 56.183 22.4683 56.983 19.4017 57.0497ZM19.5517 47.2997C21.085 47.2997 22.385 46.7497 23.4517 45.6497C24.5517 44.5497 25.085 43.1163 25.0517 41.3497C25.0517 39.5497 24.5183 38.0997 23.4517 36.9997C22.385 35.8997 21.085 35.3497 19.5517 35.3497C18.0183 35.3497 16.7183 35.8997 15.6517 36.9997C14.585 38.0997 14.0517 39.5497 14.0517 41.3497C14.0517 43.1163 14.585 44.5497 15.6517 45.6497C16.7183 46.7497 18.0183 47.2997 19.5517 47.2997Z" fill="#FF6600"/>
<path d="M9.5953 21.2294C6.30099 19.3152 5.04255e-05 20.1802 5.04255e-05 20.1802C5.04255e-05 20.1802 3.36866 26.5893 7.2295 28.0245C10.1403 29.1066 15.1151 28.0247 15.1151 28.0247C15.1151 28.0247 12.5284 22.9336 9.5953 21.2294Z" fill="#38ACBC"/>
<g filter="url(#filter0_f_469_4831)">
<path fill-rule="evenodd" clip-rule="evenodd" d="M12.2725 23.6777C11.7567 23.9231 11.2498 24.197 10.7519 24.4995C9.21478 25.414 7.87071 26.5159 6.71973 27.8053C6.8886 27.8874 7.05869 27.9607 7.22974 28.0243C10.1406 29.1064 15.1153 28.0245 15.1153 28.0245C15.1153 28.0245 13.9386 25.7085 12.2725 23.6777Z" fill="#FF6600" fill-opacity="0.5"/>
</g>
<path d="M109.197 21.4043C109.197 22.179 109.051 22.9082 108.758 23.5918C108.465 24.2689 108.064 24.8613 107.557 25.3691C107.055 25.8704 106.463 26.2676 105.779 26.5605C105.102 26.8535 104.376 27 103.602 27C103.133 27 102.664 26.9414 102.195 26.8242V23.8164C102.404 23.9401 102.628 24.0345 102.869 24.0996C103.11 24.1647 103.354 24.1973 103.602 24.1973C103.986 24.1973 104.347 24.1257 104.686 23.9824C105.031 23.8327 105.33 23.6309 105.584 23.377C105.838 23.123 106.036 22.8268 106.18 22.4883C106.329 22.1497 106.404 21.7884 106.404 21.4043V12.9961H109.197V21.4043ZM121.238 27H111.639V12.9961H121.238V15.7988H114.441V18.6016H119.041V21.4043H114.441V24.1973H121.238V27ZM129.1 21.4043C129.1 22.179 128.953 22.9082 128.66 23.5918C128.367 24.2689 127.967 24.8613 127.459 25.3691C126.958 25.8704 126.365 26.2676 125.682 26.5605C125.005 26.8535 124.279 27 123.504 27C123.035 27 122.566 26.9414 122.098 26.8242V23.8164C122.306 23.9401 122.531 24.0345 122.771 24.0996C123.012 24.1647 123.257 24.1973 123.504 24.1973C123.888 24.1973 124.249 24.1257 124.588 23.9824C124.933 23.8327 125.232 23.6309 125.486 23.377C125.74 23.123 125.939 22.8268 126.082 22.4883C126.232 22.1497 126.307 21.7884 126.307 21.4043V12.9961H129.1V21.4043ZM142.586 21.4043C142.586 22.179 142.439 22.9082 142.146 23.5918C141.854 24.2689 141.453 24.8613 140.945 25.3691C140.438 25.8704 139.842 26.2676 139.158 26.5605C138.481 26.8535 137.755 27 136.98 27C136.206 27 135.477 26.8535 134.793 26.5605C134.116 26.2676 133.523 25.8704 133.016 25.3691C132.514 24.8613 132.117 24.2689 131.824 23.5918C131.531 22.9082 131.385 22.179 131.385 21.4043V12.9961H134.178V21.4043C134.178 21.7884 134.249 22.1497 134.393 22.4883C134.542 22.8268 134.744 23.123 134.998 23.377C135.252 23.6309 135.548 23.8327 135.887 23.9824C136.232 24.1257 136.596 24.1973 136.98 24.1973C137.365 24.1973 137.726 24.1257 138.064 23.9824C138.41 23.8327 138.709 23.6309 138.963 23.377C139.217 23.123 139.415 22.8268 139.559 22.4883C139.708 22.1497 139.783 21.7884 139.783 21.4043V12.9961H142.586V21.4043Z" fill="#FF6600"/>
<path d="M45.1 56.9C43.4333 56.9 42.1833 56.2833 41.35 55.05C40.5167 53.8167 39.95 52 39.65 49.6C39.3833 47.1667 39.25 43.7833 39.25 39.45C39.25 35.2833 39.35 32.0333 39.55 29.7C39.7833 27.3667 40.3167 25.5 41.15 24.1C42.0167 22.7 43.35 22 45.15 22C46.95 22 48.2667 22.7 49.1 24.1C49.9667 25.5 50.5 27.3667 50.7 29.7C50.9333 32.0333 51.05 35.2833 51.05 39.45C51.05 43.55 50.8667 46.8667 50.5 49.4C50.1667 51.9 49.5667 53.7833 48.7 55.05C47.8333 56.2833 46.6333 56.9 45.1 56.9ZM59.4066 56.9C57.74 56.9 56.49 56.2833 55.6566 55.05C54.8233 53.8167 54.2566 52 53.9566 49.6C53.69 47.1667 53.5566 43.7833 53.5566 39.45C53.5566 35.2833 53.6566 32.0333 53.8566 29.7C54.09 27.3667 54.6233 25.5 55.4566 24.1C56.3233 22.7 57.6566 22 59.4566 22C61.2566 22 62.5733 22.7 63.4066 24.1C64.2733 25.5 64.8066 27.3667 65.0066 29.7C65.24 32.0333 65.3566 35.2833 65.3566 39.45C65.3566 43.55 65.1733 46.8667 64.8066 49.4C64.4733 51.9 63.8733 53.7833 63.0066 55.05C62.14 56.2833 60.94 56.9 59.4066 56.9ZM79.4367 57C76.9701 57 74.7867 56.5167 72.8867 55.55C70.9867 54.5833 69.5034 53.2333 68.4367 51.5C67.4034 49.7333 66.8867 47.75 66.8867 45.55C66.8867 43.3833 67.4034 41.3833 68.4367 39.55C69.5034 37.7167 70.9701 36.25 72.8367 35.15C74.7034 34.05 76.8201 33.5 79.1867 33.5C81.3201 33.5 83.2034 33.9333 84.8367 34.8C86.4701 35.6667 87.7201 36.8167 88.5867 38.25C89.4534 39.65 89.8867 41.1167 89.8867 42.65C89.8867 45.15 88.9367 46.9833 87.0367 48.15C85.1701 49.2833 82.9367 49.85 80.3367 49.85C78.6034 49.85 77.1367 49.6333 75.9367 49.2C76.9367 50.8333 78.5867 51.65 80.8867 51.65C81.8201 51.65 82.8201 51.5333 83.8867 51.3C84.2867 51.2 84.6701 51.15 85.0367 51.15C85.7701 51.15 86.3534 51.3333 86.7867 51.7C87.2534 52.0667 87.4867 52.5667 87.4867 53.2C87.4867 54.2333 86.8534 55.1333 85.5867 55.9C84.3201 56.6333 82.2701 57 79.4367 57ZM76.0867 43.1C76.3867 43.5667 76.7867 43.9167 77.2867 44.15C77.8201 44.35 78.4034 44.45 79.0367 44.45C79.7701 44.45 80.4034 44.2833 80.9367 43.95C81.5034 43.6167 81.7867 43.1833 81.7867 42.65C81.7867 42.05 81.5367 41.5333 81.0367 41.1C80.5701 40.6667 79.8867 40.45 78.9867 40.45C78.0867 40.45 77.3701 40.7333 76.8367 41.3C76.3367 41.8333 76.0867 42.4333 76.0867 43.1ZM99.2113 64.4C97.4113 64.4 95.9113 64.05 94.7113 63.35C93.5113 62.65 92.9113 61.6167 92.9113 60.25C92.9113 59.15 93.428 58.2833 94.4613 57.65C95.4947 57.0167 96.7113 56.7333 98.1113 56.8C99.578 56.8667 100.711 56.8 101.511 56.6C102.345 56.4 102.978 56.0333 103.411 55.5C100.345 55.5 97.8947 55.0667 96.0613 54.2C94.228 53.3 92.8947 51.9167 92.0613 50.05C91.2613 48.15 90.8613 45.65 90.8613 42.55C90.8613 39.8833 91.2613 37.7333 92.0613 36.1C92.8947 34.4333 94.1947 33.6 95.9613 33.6C97.528 33.6 98.678 34.05 99.4113 34.95C100.178 35.8167 100.561 36.95 100.561 38.35L100.511 40.55C100.478 40.9833 100.461 41.6167 100.461 42.45C100.461 44.05 100.661 45.2667 101.061 46.1C101.461 46.9 102.261 47.3 103.461 47.3C104.661 47.3 105.461 46.9 105.861 46.1C106.261 45.2667 106.461 44.0667 106.461 42.5C106.461 41.6667 106.445 41.0333 106.411 40.6L106.361 38.45C106.361 36.95 106.728 35.7667 107.461 34.9C108.228 34.0333 109.395 33.6 110.961 33.6C112.728 33.6 114.028 34.4333 114.861 36.1C115.695 37.7667 116.111 39.9167 116.111 42.55C116.111 46.4833 115.545 50.1 114.411 53.4C113.311 56.6667 111.495 59.3167 108.961 61.35C106.461 63.3833 103.211 64.4 99.2113 64.4ZM130.119 57.05C127.719 57.0833 125.569 56.5833 123.669 55.55C121.802 54.5167 120.336 53.1 119.269 51.3C118.236 49.4667 117.686 47.4333 117.619 45.2C117.586 42.9667 118.102 40.9667 119.169 39.2C120.236 37.4333 121.719 36.0333 123.619 35C125.552 33.9667 127.719 33.45 130.119 33.45C132.452 33.45 134.552 33.95 136.419 34.95C138.319 35.95 139.819 37.35 140.919 39.15C142.019 40.95 142.602 42.9667 142.669 45.2C142.702 47.3667 142.186 49.35 141.119 51.15C140.052 52.9167 138.552 54.3333 136.619 55.4C134.719 56.4667 132.552 57.0167 130.119 57.05ZM130.269 49.75C131.169 49.75 131.952 49.4 132.619 48.7C133.286 48 133.619 47.1833 133.619 46.25C133.619 45.3167 133.286 44.5167 132.619 43.85C131.952 43.15 131.169 42.8 130.269 42.8C129.369 42.8 128.586 43.15 127.919 43.85C127.252 44.5167 126.919 45.3167 126.919 46.25C126.919 47.1833 127.252 48 127.919 48.7C128.586 49.4 129.369 49.75 130.269 49.75Z" fill="#FF6600"/>
<defs>
<filter id="filter0_f_469_4831" x="5.71973" y="22.6777" width="10.3955" height="6.82715" filterUnits="userSpaceOnUse" color-interpolation-filters="sRGB">
<feFlood flood-opacity="0" result="BackgroundImageFix"/>
<feBlend mode="normal" in="SourceGraphic" in2="BackgroundImageFix" result="shape"/>
<feGaussianBlur stdDeviation="0.5" result="effect1_foregroundBlur_469_4831"/>
</filter>
</defs>
</svg>
