<svg width="625" height="387" viewBox="0 0 625 387" fill="none" xmlns="http://www.w3.org/2000/svg">
<path d="M211.876 308.156H208.993V286.828H211.876V308.156ZM207.563 307.148H204.727V297.258H202.665V294.586H204.727V287.25H207.563V307.148ZM203.157 291.656H201.798V300.527C202.548 300.457 203.118 300.391 203.509 300.328L203.72 302.484C202.227 302.805 200.583 303.02 198.786 303.129C196.997 303.23 195.173 303.281 193.313 303.281L192.985 300.82H194.766V291.656H193.384V289.242H203.157V291.656ZM199.079 300.703V291.656H197.415V300.773L199.079 300.703ZM231.341 308.203H228.318V286.828H231.341V308.203ZM219.763 288.328C220.833 288.328 221.79 288.641 222.634 289.266C223.486 289.891 224.154 290.777 224.638 291.926C225.122 293.074 225.365 294.406 225.365 295.922C225.365 297.453 225.122 298.797 224.638 299.953C224.154 301.102 223.486 301.988 222.634 302.613C221.79 303.23 220.833 303.539 219.763 303.539C218.669 303.539 217.693 303.23 216.833 302.613C215.974 301.988 215.302 301.102 214.818 299.953C214.341 298.797 214.107 297.453 214.115 295.922C214.107 294.406 214.341 293.074 214.818 291.926C215.302 290.777 215.974 289.891 216.833 289.266C217.693 288.641 218.669 288.328 219.763 288.328ZM219.763 291.023C219.208 291.023 218.72 291.215 218.298 291.598C217.884 291.973 217.564 292.527 217.337 293.262C217.111 293.996 216.997 294.883 216.997 295.922C216.997 296.969 217.111 297.859 217.337 298.594C217.564 299.328 217.884 299.883 218.298 300.258C218.72 300.633 219.208 300.82 219.763 300.82C220.31 300.82 220.786 300.633 221.193 300.258C221.599 299.875 221.915 299.316 222.142 298.582C222.369 297.848 222.482 296.961 222.482 295.922C222.482 294.891 222.369 294.008 222.142 293.273C221.915 292.531 221.595 291.973 221.181 291.598C220.775 291.215 220.302 291.023 219.763 291.023ZM242.017 292.641C242.017 293.82 242.217 294.98 242.615 296.121C243.021 297.254 243.627 298.273 244.431 299.18C245.236 300.086 246.213 300.781 247.361 301.266L245.744 303.609C244.517 303.094 243.467 302.336 242.592 301.336C241.717 300.336 241.029 299.168 240.529 297.832C240.037 299.285 239.346 300.562 238.455 301.664C237.564 302.758 236.51 303.586 235.291 304.148L233.58 301.781C234.721 301.273 235.693 300.535 236.498 299.566C237.31 298.598 237.92 297.512 238.326 296.309C238.74 295.098 238.947 293.875 238.947 292.641V291.328H234.424V288.891H246.471V291.328H242.017V292.641ZM251.603 308.156H248.58V286.828H251.603V308.156ZM273.506 298.617H253.983V296.391H273.506V298.617ZM271.162 304.711H259.209V305.93H271.795V307.969H256.233V302.812H268.209V301.734H256.209V299.672H271.162V304.711ZM271.139 292.219H259.397V293.367H271.514V295.383H256.42V290.32H268.139V289.242H256.373V287.203H271.139V292.219ZM291.484 291.258H287.171C287.187 291.984 287.378 292.684 287.745 293.355C288.113 294.027 288.667 294.629 289.409 295.16C290.159 295.691 291.077 296.094 292.163 296.367L290.851 298.664C289.648 298.359 288.613 297.895 287.745 297.27C286.886 296.637 286.21 295.883 285.718 295.008C285.226 295.977 284.546 296.812 283.679 297.516C282.812 298.211 281.773 298.727 280.562 299.062L279.156 296.695C280.249 296.414 281.171 295.996 281.921 295.441C282.671 294.887 283.234 294.25 283.609 293.531C283.984 292.805 284.179 292.047 284.195 291.258H279.906V288.891H284.195V286.734H287.218V288.891H291.484V291.258ZM296.241 291.609H299.124V294.07H296.241V298.992H293.241V286.828H296.241V291.609ZM296.499 302.25H291.074C291.261 302.789 291.624 303.301 292.163 303.785C292.702 304.27 293.417 304.695 294.308 305.062C295.199 305.422 296.241 305.68 297.437 305.836L296.382 308.109C294.702 307.883 293.261 307.449 292.058 306.809C290.855 306.176 289.937 305.391 289.304 304.453C288.679 305.383 287.769 306.16 286.574 306.785C285.386 307.41 283.96 307.836 282.296 308.062L281.218 305.789C282.421 305.641 283.468 305.395 284.359 305.051C285.257 304.699 285.972 304.285 286.503 303.809C287.034 303.324 287.394 302.805 287.581 302.25H282.132V299.906H296.499V302.25ZM309.308 287.133C310.941 287.133 312.336 287.273 313.492 287.555C314.648 287.836 315.531 288.25 316.14 288.797C316.75 289.336 317.058 289.992 317.066 290.766C317.058 291.547 316.75 292.211 316.14 292.758C315.531 293.305 314.648 293.719 313.492 294C312.336 294.281 310.941 294.422 309.308 294.422C307.668 294.422 306.265 294.281 305.101 294C303.937 293.719 303.051 293.305 302.441 292.758C301.832 292.211 301.527 291.547 301.527 290.766C301.527 289.992 301.832 289.336 302.441 288.797C303.051 288.25 303.937 287.836 305.101 287.555C306.265 287.273 307.668 287.133 309.308 287.133ZM309.308 289.312C307.754 289.312 306.586 289.438 305.804 289.688C305.031 289.93 304.652 290.289 304.668 290.766C304.66 291.281 305.031 291.652 305.781 291.879C306.531 292.105 307.707 292.219 309.308 292.219C310.918 292.219 312.097 292.105 312.847 291.879C313.597 291.652 313.972 291.281 313.972 290.766C313.972 290.289 313.586 289.93 312.812 289.688C312.039 289.438 310.871 289.312 309.308 289.312ZM319.035 297.797H299.582V295.43H319.035V297.797ZM316.668 304.477H304.785V305.766H317.23V308.016H301.855V302.391H313.715V301.219H301.832V299.039H316.668V304.477ZM336.216 288.492C336.216 289.352 336.505 290.199 337.083 291.035C337.661 291.863 338.512 292.582 339.637 293.191C340.762 293.801 342.106 294.203 343.669 294.398L342.497 296.812C340.669 296.547 339.079 296.016 337.727 295.219C336.384 294.414 335.352 293.422 334.634 292.242C333.923 293.422 332.899 294.414 331.563 295.219C330.227 296.016 328.653 296.547 326.841 296.812L325.645 294.398C327.192 294.203 328.528 293.801 329.653 293.191C330.778 292.582 331.63 291.863 332.208 291.035C332.786 290.199 333.075 289.352 333.075 288.492V287.461H336.216V288.492ZM344.348 300.867H336.051V308.156H333.098V300.867H324.895V298.43H344.348V300.867ZM355.341 301.43H357.638V299.297H360.404V305.777C361.529 305.27 362.373 304.57 362.935 303.68C363.498 302.781 363.779 301.812 363.779 300.773V299.133H366.779V300.773C366.763 301.938 367.06 302.977 367.67 303.891C368.279 304.805 369.216 305.469 370.482 305.883L368.935 308.109C367.209 307.516 365.974 306.391 365.232 304.734C364.857 305.508 364.369 306.184 363.767 306.762C363.166 307.34 362.451 307.789 361.623 308.109L360.404 306.27V307.922H352.576V299.297H355.341V301.43ZM357.638 305.648V303.633H355.341V305.648H357.638ZM356.162 287.625C357.06 287.625 357.888 287.781 358.646 288.094C359.404 288.406 360.041 288.848 360.556 289.418C361.08 289.988 361.439 290.648 361.634 291.398H365.209V286.828H368.185V298.125H365.209V293.859H361.646C361.459 294.625 361.103 295.297 360.58 295.875C360.064 296.453 359.424 296.902 358.658 297.223C357.892 297.543 357.06 297.703 356.162 297.703C355.076 297.703 354.099 297.488 353.232 297.059C352.373 296.629 351.697 296.031 351.205 295.266C350.72 294.492 350.482 293.617 350.49 292.641C350.482 291.68 350.72 290.82 351.205 290.062C351.697 289.297 352.373 288.699 353.232 288.27C354.099 287.84 355.076 287.625 356.162 287.625ZM356.162 290.086C355.607 290.086 355.111 290.191 354.674 290.402C354.244 290.605 353.908 290.902 353.666 291.293C353.431 291.676 353.318 292.125 353.326 292.641C353.318 293.172 353.431 293.633 353.666 294.023C353.908 294.414 354.244 294.719 354.674 294.938C355.111 295.148 355.607 295.258 356.162 295.266C356.701 295.258 357.181 295.148 357.603 294.938C358.025 294.719 358.353 294.414 358.588 294.023C358.83 293.633 358.951 293.172 358.951 292.641C358.951 292.125 358.83 291.676 358.588 291.293C358.353 290.902 358.025 290.605 357.603 290.402C357.181 290.191 356.701 290.086 356.162 290.086ZM375.697 301.43H384.486V299.625H387.463V307.922H372.744V299.625H375.697V301.43ZM384.486 305.578V303.703H375.697V305.578H384.486ZM389.924 298.547H370.471V296.133H389.924V298.547ZM381.744 287.766C381.744 288.5 382.022 289.227 382.576 289.945C383.139 290.656 383.963 291.277 385.049 291.809C386.143 292.332 387.447 292.68 388.963 292.852L387.908 295.195C386.104 294.969 384.541 294.5 383.221 293.789C381.908 293.078 380.901 292.199 380.197 291.152C379.494 292.199 378.483 293.078 377.162 293.789C375.85 294.5 374.299 294.969 372.51 295.195L371.432 292.852C372.955 292.672 374.26 292.324 375.346 291.809C376.44 291.285 377.264 290.668 377.819 289.957C378.381 289.246 378.666 288.516 378.674 287.766V287.039H381.744V287.766ZM408.663 308.156H405.686V286.828H408.663V308.156ZM394.835 300.34C397.999 300.285 401.038 299.977 403.952 299.414L404.327 301.875C401.116 302.547 397.725 302.883 394.155 302.883H393.757H391.882V288.867H394.835V300.34ZM427.823 294.75H430.964V297.188H427.823V308.203H424.823V286.828H427.823V294.75ZM421.847 291.211H414.816V300.562C416.495 300.547 417.995 300.488 419.316 300.387C420.636 300.285 421.964 300.117 423.3 299.883L423.628 302.391C422.198 302.633 420.788 302.801 419.398 302.895C418.015 302.98 416.425 303.023 414.628 303.023H413.644H411.839V288.797H421.847V291.211Z" fill="#88A6B4"/>
<g clip-path="url(#clip0_469_4181)">
<path d="M280.344 51.28C280.344 51.28 252.219 54.7072 232.495 70.9121C212.771 87.117 211.998 88.1415 201.194 102.889C190.39 117.629 188.846 131.006 187.648 147.29C186.45 163.574 189.019 167.348 191.762 179.007C194.504 190.667 198.279 200.609 202.053 204.722C205.828 208.834 206.513 210.551 207.372 212.268C208.231 213.986 211.32 218.271 216.119 222.038C220.919 225.804 235.844 237.81 242.014 240.551C248.185 243.293 263.449 247.925 283.173 252.038C302.898 256.15 333.419 253.069 355.886 249.296C378.352 245.522 393.956 232.326 402.876 223.921C411.796 215.515 425.855 199.404 430.142 181.23C434.429 163.055 435.974 147.629 433.231 134.079C430.489 120.53 419.858 99.2743 411.111 89.6783C402.364 80.0823 391.047 71.1646 386.934 68.4157C382.82 65.674 374.585 59.8443 358.809 54.8731C343.032 49.902 333.426 48.7043 320.738 48.358C308.051 48.0116 284.48 50.5946 280.351 51.2728L280.344 51.28Z" fill="#E7EDF0"/>
<path d="M261.878 173.787C263.784 164.977 254.603 155.517 241.373 152.657C228.142 149.798 215.872 154.621 213.967 163.431C212.062 172.241 221.242 181.701 234.473 184.561C247.703 187.42 259.973 182.597 261.878 173.787Z" fill="#F9FAFB"/>
<path d="M224.483 169.09C227.337 169.09 229.65 166.777 229.65 163.924C229.65 161.071 227.337 158.758 224.483 158.758C221.629 158.758 219.315 161.071 219.315 163.924C219.315 166.777 221.629 169.09 224.483 169.09Z" fill="#E7EDF0"/>
<path d="M236.318 178.265C239.172 178.265 241.485 175.953 241.485 173.1C241.485 170.246 239.172 167.934 236.318 167.934C233.464 167.934 231.15 170.246 231.15 173.1C231.15 175.953 233.464 178.265 236.318 178.265Z" fill="#E7EDF0"/>
<path d="M250.212 172.519C253.066 172.519 255.379 170.207 255.379 167.353C255.379 164.5 253.066 162.188 250.212 162.188C247.358 162.188 245.044 164.5 245.044 167.353C245.044 170.207 247.358 172.519 250.212 172.519Z" fill="#E7EDF0"/>
<path d="M388.747 182.816C402.008 179.964 411.22 170.509 409.324 161.697C407.428 152.885 395.141 148.053 381.881 150.905C368.62 153.757 359.407 163.212 361.303 172.024C363.199 180.836 375.486 185.667 388.747 182.816Z" fill="#F9FAFB"/>
<path d="M398.787 167.349C401.645 167.349 403.962 165.037 403.962 162.184C403.962 159.33 401.645 157.018 398.787 157.018C395.929 157.018 393.612 159.33 393.612 162.184C393.612 165.037 395.929 167.349 398.787 167.349Z" fill="#E7EDF0"/>
<path d="M386.93 176.517C389.787 176.517 392.104 174.205 392.104 171.351C392.104 168.498 389.787 166.186 386.93 166.186C384.072 166.186 381.755 168.498 381.755 171.351C381.755 174.205 384.072 176.517 386.93 176.517Z" fill="#E7EDF0"/>
<path d="M373.007 170.775C375.865 170.775 378.181 168.462 378.181 165.609C378.181 162.756 375.865 160.443 373.007 160.443C370.149 160.443 367.832 162.756 367.832 165.609C367.832 168.462 370.149 170.775 373.007 170.775Z" fill="#E7EDF0"/>
<path d="M270.247 167.461C284.561 167.461 296.164 156.336 296.164 142.612C296.164 128.889 284.561 117.764 270.247 117.764C255.934 117.764 244.331 128.889 244.331 142.612C244.331 156.336 255.934 167.461 270.247 167.461Z" fill="white"/>
<path d="M277.645 157.559C285.318 157.559 291.538 151.341 291.538 143.67C291.538 136 285.318 129.781 277.645 129.781C269.972 129.781 263.752 136 263.752 143.67C263.752 151.341 269.972 157.559 277.645 157.559Z" fill="#698EA1"/>
<path d="M270.507 147.351C272.959 147.351 274.946 145.364 274.946 142.914C274.946 140.463 272.959 138.477 270.507 138.477C268.056 138.477 266.069 140.463 266.069 142.914C266.069 145.364 268.056 147.351 270.507 147.351Z" fill="white"/>
<path d="M357.922 165.544C371.848 162.236 380.563 148.73 377.389 135.378C374.215 122.027 360.352 113.886 346.427 117.194C332.502 120.503 323.786 134.009 326.96 147.361C330.135 160.712 343.997 168.853 357.922 165.544Z" fill="white"/>
<path d="M344.738 155.92C352.41 155.92 358.631 149.702 358.631 142.031C358.631 134.361 352.41 128.143 344.738 128.143C337.065 128.143 330.845 134.361 330.845 142.031C330.845 149.702 337.065 155.92 344.738 155.92Z" fill="#698EA1"/>
<path d="M351.86 145.554C354.312 145.554 356.299 143.568 356.299 141.117C356.299 138.666 354.312 136.68 351.86 136.68C349.409 136.68 347.422 138.666 347.422 141.117C347.422 143.568 349.409 145.554 351.86 145.554Z" fill="white"/>
<path d="M245.983 117.83C254.709 114.656 261.009 107.657 266.927 100.817C268.14 99.4175 266.105 97.3684 264.885 98.7754C259.342 105.182 253.41 112.073 245.218 115.045C243.486 115.673 244.237 118.465 245.983 117.83Z" fill="#537384"/>
<path d="M256.297 26.8496C256.297 26.8496 255.352 35.7673 264.611 45.4499C273.871 55.1396 281.759 59.5913 297.196 61.1353C312.634 62.6793 313.233 58.307 318.032 60.789C322.831 63.2709 322.232 63.1916 322.831 60.3633C323.431 57.535 326.433 38.9347 316.055 27.7875C305.676 16.6403 285.62 10.5581 272.673 16.0487C272.673 16.0487 269.757 17.2464 267.787 18.6173C265.816 19.9881 263.153 21.359 260.411 21.2724C257.668 21.1858 255.648 21.3301 256.297 26.8424V26.8496Z" fill="#A7BDC8"/>
<path d="M270.875 31.0691C270.875 31.0691 276.88 33.2553 284.169 34.3664C291.459 35.4775 300.632 39.5973 308.52 45.9393C316.408 52.2813 314.611 54.085 318.126 53.4862C321.641 52.8873 318.985 50.2322 315.557 47.2308C312.128 44.2293 299.867 34.8859 289.662 33.0028C279.457 31.1196 276.202 31.6319 272.514 29.7488C268.826 27.8657 269.67 30.0013 269.67 30.0013C269.67 30.0013 269.728 30.3837 270.883 31.0764L270.875 31.0691Z" fill="#88A6B4"/>
<path d="M332.162 182.522C332.119 180.588 331.628 179.794 330.372 178.171C328.713 176.021 325.27 172.074 319.395 171.021C309.479 169.246 302.998 173.135 299.952 176.844C296.907 180.545 294.713 184.419 296.835 187.579C298.956 190.74 302.002 188.207 302.428 187.385C304.196 183.914 305.899 180.588 310.374 179.354C314.849 178.121 320.442 178.373 324.267 182.313C327.926 186.086 329.579 186.23 331.469 185.011C332.133 184.585 332.191 183.445 332.17 182.522H332.162Z" fill="#698EA1"/>
<path d="M242.276 113.927C242.168 116.005 243.135 117.838 244.759 119.079C245.315 119.505 246.202 119.05 246.347 118.43C246.672 117.059 246.657 115.688 246.26 114.339L244.174 114.916C244.824 116.539 245.676 118.004 246.765 119.375C247.357 120.118 248.649 119.49 248.613 118.61C248.526 116.518 248.447 114.418 248.36 112.326L246.34 112.874C247.191 114.216 248.086 115.522 249.039 116.792C249.703 117.672 250.937 117.347 251.06 116.243C251.247 114.534 251.312 112.824 251.247 111.106L249.226 111.655C249.97 113.394 250.872 115.039 251.94 116.597C252.669 117.658 254.083 116.958 253.917 115.76C253.643 113.74 253.318 111.727 252.943 109.728L250.966 110.565C251.781 111.965 252.777 113.235 253.946 114.353C254.682 115.06 255.686 114.49 255.794 113.588C256.01 111.785 255.801 109.966 255.195 108.249L253.217 109.086C253.766 110.306 254.603 111.251 255.657 112.052C256.321 112.557 257.302 111.871 257.288 111.114C257.252 109.606 257.475 108.177 257.959 106.756L255.982 107.015C257.071 108.444 258.161 109.88 259.244 111.308C259.857 112.116 261.25 111.929 261.264 110.76C261.286 108.422 260.752 106.186 259.727 104.093L258.024 105.407C258.695 106.193 259.366 106.972 260.038 107.759C260.536 108.343 261.719 108.069 261.849 107.282C262.174 105.241 261.914 103.307 261.041 101.438C260.528 100.342 258.616 101.128 259.063 102.275C259.619 103.689 260.29 105.031 261.127 106.308C261.719 107.203 263.105 106.857 263.148 105.76C263.199 104.389 263.098 103.047 262.874 101.698L260.896 102.535C261.719 103.682 262.535 104.829 263.357 105.977C263.863 106.676 265.111 106.698 265.335 105.717C265.746 103.899 265.689 102.059 265.111 100.291L263.134 101.128C263.668 101.994 264.209 102.86 264.743 103.725C265.277 104.591 266.41 104.331 266.721 103.466C267.269 101.929 267.312 100.327 266.901 98.7543L264.924 99.5912C265.292 100.385 265.667 101.186 266.035 101.979C266.62 103.242 268.489 102.145 267.904 100.89C267.536 100.096 267.161 99.2954 266.793 98.5018C266.266 97.369 264.512 98.1771 264.815 99.3387C265.133 100.558 265.061 101.72 264.635 102.903L266.612 102.643C266.078 101.777 265.537 100.912 265.003 100.046C264.375 99.0357 262.629 99.6778 263.025 100.883C263.487 102.29 263.581 103.711 263.249 105.161L265.227 104.901C264.404 103.754 263.588 102.607 262.766 101.46C262.037 100.443 260.586 101.07 260.788 102.297C260.976 103.451 261.026 104.613 260.983 105.782L263.004 105.233C262.268 104.122 261.64 102.961 261.156 101.72L259.179 102.557C259.785 103.855 259.994 105.32 259.771 106.734L261.582 106.258C260.911 105.471 260.24 104.692 259.568 103.906C258.724 102.925 257.353 104.173 257.865 105.219C258.724 106.965 259.128 108.848 259.107 110.796L261.127 110.248C260.038 108.819 258.948 107.383 257.865 105.955C257.302 105.212 256.205 105.277 255.888 106.215C255.346 107.809 255.094 109.469 255.137 111.15L256.768 110.212C256.018 109.642 255.491 108.877 255.108 108.026C254.61 106.914 252.727 107.701 253.131 108.863C253.679 110.428 253.845 111.979 253.65 113.624L255.498 112.86C254.459 111.857 253.585 110.753 252.857 109.505C252.207 108.401 250.655 109.166 250.879 110.342C251.254 112.347 251.579 114.36 251.853 116.373L253.831 115.536C252.763 113.978 251.861 112.333 251.117 110.594C250.684 109.584 249.06 110.125 249.096 111.142C249.161 112.86 249.096 114.57 248.909 116.28L250.93 115.731C249.977 114.461 249.075 113.155 248.23 111.813C247.682 110.948 246.166 111.243 246.21 112.362C246.296 114.454 246.376 116.554 246.462 118.646L248.31 117.881C247.465 116.821 246.773 115.637 246.275 114.382C245.777 113.127 243.785 113.588 244.189 114.959C244.478 115.948 244.521 116.9 244.275 117.903L245.863 117.254C244.838 116.467 244.384 115.226 244.449 113.971C244.521 112.578 242.356 112.585 242.284 113.971L242.276 113.927Z" fill="#698EA1"/>
<path d="M245.451 113.393C245.552 114.512 245.833 115.558 246.317 116.575C246.555 117.073 246.836 117.664 247.334 117.939C248.294 118.48 249.196 117.585 249.435 116.698C249.579 116.149 249.254 115.5 248.677 115.363C248.099 115.226 247.5 115.536 247.342 116.12C247.327 116.178 247.313 116.229 247.291 116.286L247.399 116.027C247.37 116.084 247.305 116.171 247.291 116.229C247.407 116.092 247.428 116.063 247.356 116.142C247.277 116.214 247.313 116.193 247.464 116.056L247.724 115.947L247.681 115.962L247.969 115.926H247.926C248.02 115.94 248.121 115.955 248.215 115.969H248.172C248.258 115.998 248.345 116.034 248.431 116.07C248.366 116.034 248.374 116.048 248.467 116.106C248.547 116.157 248.605 116.221 248.648 116.301C248.619 116.25 248.583 116.2 248.554 116.149C248.496 116.048 248.431 115.947 248.381 115.846C248.265 115.63 248.157 115.413 248.063 115.183L248.172 115.442C247.904 114.815 247.724 114.158 247.63 113.48L247.666 113.768C247.652 113.639 247.637 113.516 247.623 113.386C247.594 113.09 247.522 112.838 247.305 112.621C247.118 112.434 246.807 112.289 246.54 112.304C245.999 112.325 245.407 112.78 245.458 113.386L245.451 113.393Z" fill="#698EA1"/>
<path d="M253.782 111.316C254.157 112.434 254.735 113.43 255.507 114.317C256.034 114.923 257.145 114.606 257.318 113.841C257.542 112.824 257.658 111.778 257.658 110.739L256.864 111.785L256.914 111.77L256.626 111.806C256.626 111.806 256.698 111.806 256.727 111.806L256.438 111.77C256.546 111.799 256.51 111.778 256.33 111.72C256.424 111.778 256.395 111.756 256.243 111.655C256.243 111.677 256.337 111.763 256.366 111.785C256.25 111.633 256.236 111.612 256.315 111.72C256.344 111.763 256.373 111.806 256.409 111.85C256.46 111.922 256.517 111.994 256.568 112.073C256.784 112.376 257.008 112.687 257.225 112.99C257.484 113.35 257.838 113.567 258.3 113.509C258.711 113.451 259.101 113.148 259.202 112.737C259.44 111.727 259.606 110.703 259.7 109.671C259.751 109.108 259.166 108.567 258.618 108.589C257.99 108.617 257.593 109.065 257.535 109.671C257.506 109.952 257.477 110.226 257.441 110.5L257.477 110.212C257.391 110.868 257.268 111.511 257.109 112.153L259.087 111.893C258.784 111.475 258.48 111.049 258.177 110.63C257.968 110.342 257.78 110.111 257.484 109.902C257.138 109.656 256.683 109.599 256.279 109.707C255.825 109.822 255.485 110.284 255.485 110.753C255.485 111.352 255.449 111.951 255.37 112.542L255.406 112.254C255.355 112.6 255.298 112.939 255.218 113.285L257.03 112.809C256.958 112.723 256.885 112.643 256.813 112.557C256.662 112.369 256.958 112.759 256.813 112.564C256.784 112.521 256.748 112.477 256.712 112.427C256.575 112.239 256.452 112.037 256.337 111.835C256.221 111.633 256.128 111.446 256.034 111.244C256.019 111.215 256.005 111.186 255.991 111.15C255.954 111.078 255.969 111.107 256.034 111.258C256.019 111.208 255.991 111.15 255.969 111.107C255.926 110.991 255.882 110.876 255.846 110.76C255.666 110.226 255.096 109.815 254.511 110.003C253.977 110.176 253.558 110.76 253.753 111.337L253.782 111.316Z" fill="#698EA1"/>
<path d="M259.215 108.333C260.009 109.156 260.99 109.755 262.073 110.123C262.398 110.231 262.758 110.123 263.018 109.928C263.264 109.74 263.487 109.408 263.444 109.076C263.386 108.636 263.336 108.196 263.278 107.749L263.199 107.121C263.177 106.919 263.134 106.717 263.155 106.522L263.119 106.811C263.155 106.623 262.989 107.027 263.09 106.861L261.387 107.078C261.661 107.381 261.936 107.691 262.217 107.994C262.47 108.276 262.831 108.463 263.22 108.449C263.704 108.434 264.079 108.153 264.346 107.763C264.873 106.991 264.989 105.996 264.801 105.101C264.685 104.545 264 104.17 263.466 104.343C262.881 104.531 262.585 105.079 262.708 105.678C262.722 105.743 262.73 105.801 262.744 105.866L262.708 105.577C262.737 105.786 262.737 105.996 262.708 106.205L262.744 105.916C262.73 106.01 262.715 106.104 262.693 106.198C262.679 106.263 262.657 106.421 262.607 106.465C262.629 106.443 262.715 106.241 262.643 106.378C262.621 106.414 262.607 106.45 262.585 106.493C262.564 106.537 262.527 106.58 262.506 106.631C262.477 106.681 262.484 106.667 262.542 106.594C262.629 106.457 262.766 106.371 262.932 106.335L263.22 106.299H263.17C263.264 106.313 263.365 106.327 263.458 106.335L263.812 106.537C263.812 106.537 263.769 106.493 263.754 106.472C263.718 106.436 263.689 106.4 263.653 106.364C263.567 106.27 263.487 106.176 263.401 106.082C263.242 105.909 263.083 105.729 262.924 105.555C262.441 105.014 261.582 105.216 261.221 105.772C260.86 106.327 261.012 106.934 261.084 107.532C261.149 108.045 261.214 108.564 261.272 109.076L262.643 108.03C262.535 107.994 262.426 107.951 262.318 107.908C262.195 107.857 262.549 108.009 262.376 107.929C262.318 107.9 262.26 107.879 262.203 107.85C262.001 107.756 261.813 107.648 261.625 107.525C261.539 107.467 261.452 107.41 261.366 107.352C261.322 107.323 261.286 107.28 261.236 107.258C261.366 107.359 261.394 107.381 261.329 107.33C261.308 107.309 261.279 107.294 261.257 107.273C261.077 107.128 260.911 106.97 260.745 106.796C260.348 106.385 259.605 106.371 259.215 106.796C258.825 107.222 258.796 107.893 259.215 108.326V108.333Z" fill="#698EA1"/>
<path d="M345.799 96.9473L345.82 99.9632C345.82 100.815 347.062 101.507 347.668 100.728C348.043 100.245 348.426 99.754 348.801 99.2705L346.99 98.2172C346.802 99.2778 346.621 100.338 346.434 101.399C346.246 102.46 347.379 103.131 348.245 102.452C349.479 101.486 350.468 100.273 351.175 98.8737C351.803 97.64 350.006 96.5649 349.306 97.7843C348.606 99.0036 348.087 100.281 347.747 101.63C347.502 102.597 348.498 103.246 349.335 102.849C350.612 102.25 351.724 101.385 352.633 100.302L350.93 98.9892C350.288 100.447 349.754 101.933 349.342 103.477C349.119 104.328 350.129 105.266 350.93 104.696C352.121 103.852 353.218 102.914 354.207 101.846L352.395 100.793C352.2 101.991 351.89 103.152 351.464 104.292C351.147 105.144 352.301 106.053 353.052 105.512C354.113 104.747 355.174 103.982 356.235 103.217L354.647 101.998C354.279 103.448 353.737 104.804 352.994 106.103C352.359 107.229 353.774 108.167 354.697 107.416C355.982 106.363 357.274 105.31 358.559 104.256L356.711 103.491C356.624 104.761 356.3 105.995 355.751 107.149C355.253 108.188 356.574 109.436 357.454 108.462L359.742 105.923L357.931 104.869C357.49 106.233 357.043 107.604 356.603 108.968C356.199 110.216 357.902 110.735 358.58 109.804C359.331 108.773 360.233 107.828 361.25 107.048L359.663 105.829C359.367 107.157 359.078 108.491 358.782 109.819C358.566 110.815 359.511 111.406 360.37 111.038C362.174 110.273 363.769 109.126 365.083 107.676L363.235 106.911C363.177 108.217 363.062 109.509 362.86 110.8C362.679 111.955 364.159 112.748 364.837 111.637C365.472 110.598 366.108 109.552 366.743 108.513L364.722 107.965C364.772 109.487 364.83 111.002 364.881 112.525C364.917 113.614 366.31 113.975 366.901 113.073C367.638 111.94 368.374 110.807 369.103 109.675L367.082 109.126C367.248 110.49 367.284 111.854 367.19 113.224C367.104 114.487 368.951 114.631 369.319 113.513C369.622 112.589 370.012 111.731 370.503 110.894L368.525 110.634C368.619 111.211 368.626 111.789 368.583 112.373C368.489 113.765 370.654 113.758 370.748 112.373C370.799 111.587 370.741 110.836 370.611 110.057C370.452 109.105 369.067 109.054 368.634 109.797C368.049 110.793 367.587 111.839 367.226 112.936L369.355 113.224C369.449 111.854 369.413 110.49 369.247 109.126C369.124 108.087 367.854 107.618 367.226 108.578C366.49 109.711 365.754 110.843 365.025 111.976L367.046 112.525C366.995 111.002 366.938 109.487 366.887 107.965C366.851 106.897 365.436 106.486 364.866 107.416C364.231 108.455 363.596 109.501 362.961 110.54L364.938 111.377C365.169 109.898 365.328 108.412 365.393 106.911C365.436 105.995 364.166 105.461 363.546 106.146C362.34 107.474 360.919 108.47 359.273 109.17L360.861 110.389C361.157 109.061 361.445 107.727 361.741 106.399C361.922 105.584 360.962 104.552 360.153 105.18C358.826 106.204 357.7 107.359 356.711 108.715L358.688 109.552C359.129 108.188 359.576 106.817 360.016 105.454C360.348 104.436 358.927 103.6 358.205 104.4L355.917 106.94L357.62 108.253C358.342 106.738 358.761 105.18 358.876 103.506C358.948 102.481 357.685 102.2 357.028 102.741C355.744 103.794 354.452 104.848 353.167 105.901L354.871 107.214C355.693 105.757 356.328 104.213 356.74 102.589C356.956 101.745 355.953 100.786 355.152 101.37C354.091 102.135 353.03 102.9 351.969 103.664L353.557 104.884C353.983 103.744 354.293 102.582 354.488 101.385C354.647 100.403 353.485 99.4654 352.677 100.331C351.811 101.262 350.872 102.106 349.833 102.842L351.421 104.061C351.782 102.705 352.229 101.377 352.792 100.093C353.24 99.0757 351.955 97.7482 351.089 98.7799C350.288 99.7395 349.364 100.454 348.231 100.988L349.819 102.207C350.115 101.024 350.555 99.9343 351.161 98.8809L349.292 97.7915C348.657 99.0397 347.805 100.064 346.701 100.93L348.512 101.983C348.7 100.923 348.88 99.8622 349.068 98.8016C349.227 97.878 348 96.7958 347.257 97.7482C346.881 98.2316 346.499 98.7222 346.123 99.2056L347.971 99.9704L347.949 96.9545C347.935 95.562 345.77 95.562 345.784 96.9545L345.799 96.9473Z" fill="#698EA1"/>
<path d="M360.24 105.846C360.153 106.185 360.052 106.524 359.93 106.856C359.872 107.022 359.793 107.188 359.735 107.361C359.648 107.599 359.677 107.866 359.778 108.097C359.807 108.169 359.829 108.219 359.865 108.284C360.038 108.544 360.269 108.732 360.572 108.825C360.839 108.912 361.157 108.898 361.416 108.804C361.712 108.695 361.936 108.558 362.167 108.342C362.398 108.126 362.643 107.88 362.853 107.635C363.149 107.289 363.43 106.921 363.675 106.538L361.698 105.701C361.683 105.795 361.655 105.882 361.619 105.968L361.727 105.708C361.683 105.802 361.633 105.889 361.568 105.975L361.734 105.759C361.669 105.838 361.597 105.911 361.517 105.975L361.734 105.809L361.712 105.831C361.59 105.896 361.481 105.99 361.409 106.113C361.315 106.214 361.25 106.336 361.214 106.48C361.142 106.74 361.178 107.087 361.323 107.317C361.467 107.548 361.691 107.75 361.972 107.815C362.254 107.88 362.578 107.88 362.809 107.707C362.939 107.606 363.076 107.512 363.192 107.397C363.307 107.281 363.416 107.137 363.502 106.993C363.589 106.848 363.654 106.697 363.711 106.545C363.748 106.466 363.769 106.379 363.784 106.293C363.834 106.012 363.834 105.708 363.675 105.456C363.546 105.254 363.38 105.11 363.156 105.016C362.932 104.922 362.679 104.886 362.448 104.958C362.174 105.045 361.958 105.211 361.799 105.456C361.676 105.651 361.539 105.838 361.395 106.019L361.561 105.802C361.258 106.192 360.918 106.589 360.536 106.899L360.752 106.733C360.695 106.776 360.644 106.805 360.579 106.834L360.839 106.726C360.796 106.74 360.745 106.755 360.702 106.762L360.991 106.726C360.991 106.726 360.933 106.726 360.904 106.726L361.193 106.762C361.193 106.762 361.157 106.755 361.135 106.747L361.395 106.856C361.395 106.856 361.373 106.841 361.359 106.834L361.575 107C361.575 107 361.554 106.986 361.546 106.971L361.712 107.188C361.712 107.188 361.691 107.151 361.683 107.13L361.792 107.967C362.001 107.462 362.174 106.949 362.304 106.423C362.376 106.149 362.34 105.838 362.196 105.586C362.066 105.362 361.806 105.146 361.546 105.088C361.272 105.023 360.962 105.037 360.709 105.196C360.457 105.355 360.283 105.564 360.211 105.846H360.24Z" fill="#698EA1"/>
<path d="M259.381 167.57C263.559 167.57 263.567 161.076 259.381 161.076C255.195 161.076 255.195 167.57 259.381 167.57Z" fill="#A7BDC8"/>
<path d="M258.795 166.227C259.12 167.18 259.575 168.024 260.311 168.724C261.047 169.423 261.899 169.9 262.887 170.246C263.652 170.513 264.713 170.318 265.392 169.921C266.07 169.525 266.705 168.752 266.886 167.98C267.073 167.151 267.037 166.22 266.561 165.477C266.085 164.734 265.449 164.279 264.619 163.983C264.547 163.962 264.482 163.933 264.41 163.904L265.182 164.229C264.951 164.128 264.735 164.005 264.526 163.854L265.182 164.359C264.988 164.207 264.814 164.041 264.656 163.854L265.161 164.51C265.016 164.315 264.894 164.12 264.8 163.897L265.125 164.669C265.096 164.604 265.074 164.546 265.053 164.481C264.778 163.68 264.309 162.98 263.559 162.54C262.866 162.136 261.834 161.963 261.054 162.216C260.275 162.468 259.51 162.959 259.113 163.709C258.716 164.46 258.507 165.383 258.788 166.213L258.795 166.227Z" fill="#A7BDC8"/>
<path d="M265.183 167.57C269.362 167.57 269.369 161.076 265.183 161.076C260.997 161.076 260.997 167.57 265.183 167.57Z" fill="#A7BDC8"/>
<path d="M270.12 170.506C277.084 170.506 277.099 159.684 270.12 159.684C263.141 159.684 263.141 170.506 270.12 170.506Z" fill="#A7BDC8"/>
<path d="M276.796 170.506C283.761 170.506 283.775 159.684 276.796 159.684C269.817 159.684 269.817 170.506 276.796 170.506Z" fill="#A7BDC8"/>
<path d="M282.31 168.804C287.42 168.804 287.427 160.867 282.31 160.867C277.193 160.867 277.193 168.804 282.31 168.804Z" fill="#A7BDC8"/>
<path d="M337.02 166.624C342.13 166.624 342.137 158.688 337.02 158.688C331.903 158.688 331.903 166.624 337.02 166.624Z" fill="#A7BDC8"/>
<path d="M341.206 166.962C346.316 166.962 346.323 159.025 341.206 159.025C336.089 159.025 336.089 166.962 341.206 166.962Z" fill="#A7BDC8"/>
<path d="M343.999 167.458C350.032 167.458 350.047 158.078 343.999 158.078C337.951 158.078 337.951 167.458 343.999 167.458Z" fill="#A7BDC8"/>
<path d="M351.342 167.403C357.375 167.403 357.39 158.023 351.342 158.023C345.294 158.023 345.294 167.403 351.342 167.403Z" fill="#A7BDC8"/>
<path d="M356.924 167.29C362.957 167.29 362.972 157.91 356.924 157.91C350.876 157.91 350.876 167.29 356.924 167.29Z" fill="#A7BDC8"/>
<path d="M361.811 166.733C366.921 166.733 366.928 158.797 361.811 158.797C356.694 158.797 356.694 166.733 361.811 166.733Z" fill="#A7BDC8"/>
<path d="M366.696 165.823C370.413 165.823 370.42 160.051 366.696 160.051C362.972 160.051 362.972 165.823 366.696 165.823Z" fill="#A7BDC8"/>
</g>
<path d="M117.695 254.28C117.695 254.28 116.659 243.757 103.657 234.784C90.6531 225.803 80.482 222.544 62.2869 224.443C44.0919 226.343 44.4431 231.535 38.3088 229.813C32.1746 228.092 32.8853 228.041 32.8682 231.45C32.851 234.859 33.8207 257.054 48.4642 267.451C63.1076 277.848 87.719 280.088 101.361 270.659C101.361 270.659 104.442 268.58 106.39 266.527C108.339 264.474 111.087 262.256 114.275 261.702C117.462 261.148 119.761 260.499 117.696 254.289L117.695 254.28Z" fill="#E7EDF0"/>
<path d="M99.8532 252.884C99.8532 252.884 92.3978 251.792 83.7152 252.248C75.0327 252.703 63.4573 250.134 52.8353 244.692C42.2134 239.25 43.8583 236.738 39.9424 238.268C36.0265 239.798 39.7268 242.231 44.4015 244.879C49.0761 247.527 65.4645 255.392 77.6982 255.133C89.9319 254.873 93.5684 253.505 98.2763 254.8C102.984 256.095 101.5 253.83 101.5 253.83C101.5 253.83 101.342 253.402 99.8432 252.878L99.8532 252.884Z" fill="#C7D5DC"/>
<path d="M513.024 241.395C513.024 241.395 513.656 248.316 522.16 254.271C530.666 260.233 537.335 262.421 549.302 261.255C561.268 260.089 561.061 256.676 565.084 257.835C569.108 258.994 568.641 259.024 568.667 256.784C568.694 254.544 568.157 239.953 558.581 233.054C549.005 226.154 532.84 224.571 523.832 230.705C523.832 230.705 521.798 232.057 520.508 233.398C519.219 234.738 517.402 236.183 515.305 236.533C513.208 236.883 511.694 237.299 513.022 241.39L513.024 241.395Z" fill="#E7EDF0"/>
<path d="M524.742 242.394C524.742 242.394 529.637 243.146 535.345 242.886C541.053 242.626 548.649 244.367 555.605 247.992C562.561 251.616 561.468 253.259 564.049 252.272C566.629 251.284 564.208 249.669 561.148 247.907C558.088 246.145 547.354 240.902 539.313 241.017C531.272 241.132 528.875 242.015 525.787 241.142C522.699 240.27 523.664 241.765 523.664 241.765C523.664 241.765 523.766 242.047 524.749 242.399L524.742 242.394Z" fill="#C7D5DC"/>
<path d="M585.303 7.30255C585.303 7.30255 588.512 12.0609 586.18 20.3118C583.851 28.5667 580.726 33.449 572.461 38.9511C564.196 44.4532 562.546 42.1609 560.577 45.0033C558.608 47.8457 558.923 47.6212 557.736 46.2018C556.549 44.7824 549.274 35.1666 551.799 25.7522C554.324 16.3378 563.839 6.88485 572.806 6.10656C572.806 6.10656 574.814 5.90937 576.339 6.0936C577.864 6.27782 579.78 6.25428 581.305 5.38294C582.83 4.5116 584.015 3.98722 585.301 7.29847L585.303 7.30255Z" fill="#E7EDF0"/>
<path d="M578.327 14.06C578.327 14.06 575.588 17.0965 571.8 19.9106C568.012 22.7246 564.061 27.8044 561.503 33.7554C558.945 39.7065 560.502 40.1874 558.335 40.9028C556.168 41.6181 556.874 39.3206 557.912 36.5957C558.95 33.8708 563.081 24.9113 568.286 20.7865C573.491 16.6617 575.484 15.9753 577.005 13.8048C578.525 11.6342 578.688 13.0948 578.688 13.0948C578.688 13.0948 578.77 13.3283 578.325 14.0662L578.327 14.06Z" fill="#C7D5DC"/>
<path d="M46.1035 139.891C46.1035 139.891 45.8349 145.624 39.0368 150.849C32.238 156.078 26.8157 158.127 16.9007 157.604C6.9857 157.08 7.03168 154.256 3.75464 155.36C0.477595 156.463 0.86422 156.471 0.760161 154.624C0.656097 152.777 0.564537 140.72 8.21255 134.677C15.8606 128.634 29.1383 126.736 36.7947 131.467C36.7947 131.467 38.5226 132.508 39.6357 133.567C40.7488 134.626 42.3001 135.751 44.0433 135.963C45.7865 136.175 47.0507 136.463 46.1042 139.886L46.1035 139.891Z" fill="#E7EDF0"/>
<path d="M36.4724 141.142C36.4724 141.142 32.4617 141.942 27.7429 141.936C23.0241 141.931 16.8214 143.645 11.2153 146.89C5.60926 150.135 6.5707 151.451 4.40565 150.731C2.2406 150.01 4.17862 148.589 6.63876 147.023C9.0989 145.458 17.7631 140.739 24.4013 140.54C31.0395 140.34 33.0486 140.981 35.5644 140.148C38.0802 139.315 37.3386 140.584 37.3386 140.584C37.3386 140.584 37.2649 140.82 36.4671 141.146L36.4724 141.142Z" fill="#C7D5DC"/>
<path d="M567.543 293.212C567.543 293.212 572.707 298.353 583.553 297.424C594.405 296.499 601.241 293.773 610.083 284.787C618.924 275.801 616.462 273.195 620.478 271.421C624.494 269.647 624.139 269.986 622.653 268.166C621.168 266.346 610.923 254.97 598.579 255.861C586.236 256.752 572.168 266.35 569.048 277.343C569.048 277.343 568.321 279.799 568.185 281.745C568.049 283.69 567.56 286.074 566.109 287.766C564.657 289.458 563.719 290.811 567.539 293.208L567.543 293.212Z" fill="#E7EDF0"/>
<path d="M577.642 286.133C577.642 286.133 582.085 283.446 586.501 279.397C590.918 275.349 598.199 271.641 606.232 269.878C614.265 268.116 614.492 270.172 615.903 267.642C617.315 265.112 614.281 265.441 610.634 266.082C606.988 266.723 594.827 269.725 588.436 275.226C582.045 280.727 580.711 283.048 577.641 284.423C574.57 285.799 576.352 286.352 576.352 286.352C576.352 286.352 576.623 286.51 577.65 286.132L577.642 286.133Z" fill="#C7D5DC"/>
<defs>
<clipPath id="clip0_469_4181">
<rect width="247.258" height="240" fill="white" transform="translate(187.346 14)"/>
</clipPath>
</defs>
</svg>
