<svg width="60" height="60" viewBox="0 0 60 60" fill="none" xmlns="http://www.w3.org/2000/svg">
<path d="M51.7033 6.887C51.665 7.09912 51.6894 7.30603 51.5989 7.41209C51.246 7.82417 51.3729 8.39968 51.0721 8.8274C50.94 9.01518 50.7783 9.1282 50.5696 9.17167C50.2532 9.236 50.0758 9.40639 50.0445 9.73327C50.0358 9.82021 50.0028 9.95757 49.9437 9.98017C49.5455 10.1349 49.5073 10.5505 49.2882 10.8304C49.1995 10.9434 49.1108 11.0477 49.1056 11.1955C49.0987 11.4094 48.9509 11.5033 48.7979 11.6233C48.5058 11.8528 48.2502 12.1275 47.9755 12.3796C47.7912 12.5482 47.6834 12.7412 47.7407 12.9986C47.8207 13.355 47.6608 13.5637 47.3426 13.7149C46.9757 13.8905 46.7618 14.1687 46.8627 14.6138C46.9253 14.8938 46.8018 15.1146 46.588 15.2885C46.4802 15.3771 46.3515 15.4415 46.2541 15.5388C45.8282 15.97 45.3604 15.824 44.8875 15.6553C44.844 15.6397 44.7954 15.6171 44.771 15.5823C44.5346 15.238 44.1851 14.9807 44.0286 14.5738C43.9486 14.3652 43.9121 14.1739 44.0355 13.974C44.1347 13.8158 44.2094 13.6384 44.3311 13.5028C44.505 13.3081 44.658 13.1203 44.6928 12.8456C44.7136 12.6804 44.8319 12.5569 44.9675 12.4544C45.2648 12.2318 45.5639 12.011 45.8525 11.7763C46.0924 11.5815 46.2628 11.3485 46.3272 11.0269C46.4002 10.6617 46.5289 10.3088 46.6314 9.95061C46.7114 9.66894 46.8662 9.44117 47.1165 9.2899C47.5304 9.04126 47.7946 8.66744 48.0259 8.26058C48.0937 8.14061 48.1685 8.0189 48.2589 7.91632C48.3406 7.82417 48.4067 7.73375 48.4032 7.6103C48.3875 7.12347 48.7092 6.89048 49.0969 6.7566C49.4968 6.6175 49.8933 6.49231 50.2184 6.2089C50.2514 6.17935 50.3001 6.16544 50.3453 6.15153C50.6844 6.04373 51.4842 6.35669 51.6424 6.66618C51.6824 6.74443 51.6876 6.84179 51.698 6.88352L51.7033 6.887Z" fill="#FF6600"/>
<path d="M33.8415 0.00173875C34.4466 0.241681 35.1212 0.187781 35.5054 0.853707C35.462 1.38575 35.4324 1.98387 35.3559 2.57503C35.3281 2.79411 35.1855 2.99928 35.109 3.1801C35.1073 3.34007 35.1664 3.43917 35.2377 3.53306C35.3785 3.71563 35.3768 3.92253 35.3403 4.13292C35.2707 4.52065 35.1838 4.90664 35.1247 5.29612C35.0795 5.59517 35.0638 5.89771 35.0429 6.19851C35.0117 6.63666 35.0134 7.07656 34.7613 7.47298C34.6813 7.59817 34.6952 7.78595 34.6743 7.94591C34.6344 8.2641 34.6796 8.59445 34.4761 8.88655C34.3735 9.03261 34.4813 9.20126 34.5196 9.35601C34.6326 9.83068 34.6239 9.85154 34.2466 10.1002C34.1301 10.1767 34.0032 10.2428 33.9024 10.3349C33.6555 10.5609 33.3981 10.6305 33.073 10.4966C32.9078 10.4288 32.7079 10.4479 32.5253 10.4236C32.1758 10.3766 32.0106 10.2219 32.0211 9.88457C32.0298 9.57682 32.0019 9.28472 31.9063 8.99088C31.8246 8.74224 31.8385 8.48839 31.9254 8.23628C31.9846 8.06067 32.0784 7.86767 32.0489 7.69901C31.9428 7.09047 32.075 6.50278 32.1602 5.91336C32.2471 5.31524 32.3149 4.71712 32.3097 4.11379C32.3062 3.79908 32.5601 3.63043 32.7166 3.4044C32.7461 3.1036 32.6818 2.79759 32.8052 2.50548C32.873 2.34552 32.7896 2.19425 32.7322 2.03777C32.5044 1.41531 32.7026 0.773727 33.2382 0.387733C33.4259 0.252113 33.6276 0.137358 33.845 0L33.8415 0.00173875Z" fill="#FF6600"/>
<path d="M12.9613 45.3908C13.0413 45.0274 13.1943 44.7336 13.4916 44.5076C13.6916 44.3546 13.8393 44.132 14.008 43.9373C14.2045 43.7112 14.434 43.6747 14.7 43.8034C14.9504 43.9234 15.2095 44.0329 15.4529 44.1668C15.5502 44.2207 15.6354 44.3128 15.7015 44.405C15.9971 44.8084 15.9988 45.2813 15.971 45.7438C15.9571 45.9768 15.8041 46.1837 15.5815 46.2967C15.3468 46.4167 15.1608 46.5836 14.9886 46.7783C14.8634 46.9192 14.6983 47.0078 14.5192 47.0704C14.3436 47.133 14.1836 47.2304 14.048 47.366C13.8376 47.5764 13.9176 47.9815 13.5542 48.0893C13.2378 48.1832 13.0674 48.4301 12.9091 48.6961C12.8205 48.8439 12.664 48.9135 12.5005 48.943C12.3197 48.9761 12.1337 48.99 11.9268 49.0143C11.7025 49.3951 11.4191 49.7237 11.0383 49.9706C10.9096 50.0541 10.8366 50.221 10.7288 50.3444C10.5375 50.5618 10.315 50.7461 10.009 50.7078C9.71338 50.6713 9.51865 50.8052 9.34304 51.0086C9.21959 51.1529 9.07875 51.2694 8.89097 51.3268C8.51889 51.4416 8.24591 51.3598 8.05813 51.019C7.91208 50.753 7.78167 50.4818 7.5 50.3114C7.59215 49.6542 7.81123 49.1204 8.33284 48.6735C8.74144 48.324 9.11874 47.9624 9.61949 47.7416C9.78119 47.6703 9.91507 47.5155 10.0368 47.3764C10.3254 47.0444 10.654 46.8114 11.0783 46.8618C11.2991 46.7314 11.2852 46.5123 11.3895 46.361C11.4695 46.2445 11.5477 46.0915 11.6886 46.0863C12.0293 46.0741 12.2241 45.8273 12.4727 45.6656C12.6083 45.5769 12.7561 45.5056 12.9596 45.3943L12.9613 45.3908Z" fill="#FF6600"/>
<path d="M23.7048 56.2004C23.611 56.2682 23.5258 56.3134 23.4614 56.3812C23.1589 56.6976 22.952 57.0645 23.0511 57.5131C23.1797 58.0903 22.799 58.4763 22.5625 58.9127C22.4564 59.1092 22.0235 59.1666 21.7923 59.0014C21.4741 58.7719 21.1889 58.4937 20.8968 58.2294C20.8499 58.186 20.8116 58.106 20.8116 58.0434C20.8186 57.6313 20.6378 57.2279 20.8116 56.8054C20.9246 56.5307 20.9559 56.2212 21.0342 55.9309C21.0655 55.8109 21.0533 55.7013 21.0098 55.5918C20.8986 55.3032 20.9577 55.0493 21.1455 54.8094C21.2828 54.632 21.3124 54.4338 21.1994 54.2217C21.0116 53.8635 21.1055 53.5366 21.3611 53.2584C21.5436 53.0585 21.6619 52.8516 21.641 52.5734C21.6253 52.3561 21.7227 52.1665 21.8044 51.9735C21.9679 51.5858 22.0635 51.1894 22.06 50.7564C22.0531 49.9705 22.5938 49.3916 23.3623 49.1673C23.983 48.9882 24.456 49.1899 24.8889 49.588C25.1202 49.8002 25.1323 49.9914 25.0037 50.2818C24.8646 50.5982 24.562 50.7477 24.3429 50.939C24.3203 51.019 24.2856 51.0712 24.2995 51.1059C24.4942 51.6275 24.3134 52.1126 24.1656 52.6012C24.1378 52.6899 24.1013 52.7768 24.0665 52.862C23.9378 53.1733 23.8839 53.474 24.0787 53.7905C24.2456 54.06 24.1969 54.3434 23.9622 54.552C23.5866 54.8894 23.5292 55.2997 23.6266 55.7605C23.6509 55.8735 23.6666 55.9865 23.7014 56.1969L23.7048 56.2004Z" fill="#FF6600"/>
<path d="M15.0182 10.7435C14.9521 10.6965 14.8808 10.6357 14.8008 10.5939C14.6043 10.4879 14.4861 10.3349 14.4357 10.1123C14.3957 9.93323 14.3296 9.75588 14.2514 9.58723C14.1418 9.34728 13.9784 9.14038 13.7089 9.07952C13.236 8.97346 13.0447 8.60485 12.8691 8.2206C12.8204 8.11628 12.8239 7.96501 12.7491 7.89894C12.3005 7.50251 12.417 7.0261 12.5318 6.54622C12.6465 6.06981 12.7909 5.6021 13.1247 5.2248C13.3229 5.00051 13.502 4.9866 13.735 5.16394C13.9941 5.3639 14.2096 5.60732 14.3957 5.87855C14.4739 5.99331 14.5348 6.13762 14.6426 6.21413C15.0112 6.47319 15.2633 6.82094 15.5085 7.18954C15.6232 7.36341 15.7797 7.50251 15.7762 7.7355C15.7762 7.88503 15.8719 7.99457 15.9779 8.08846C16.1779 8.26233 16.3152 8.46576 16.3639 8.73352C16.3952 8.90565 16.5082 9.02215 16.6856 9.06387C16.8786 9.10908 17.0281 9.22731 17.1289 9.3838C17.308 9.66199 17.5149 9.90541 17.8053 10.0706C17.8436 10.0932 17.8905 10.1314 17.8992 10.1697C18.0122 10.6061 18.3739 10.8391 18.6694 11.1277C18.7512 11.2077 18.8207 11.3051 18.8816 11.4042C18.9894 11.5798 18.9894 11.7641 18.8607 11.9258C18.5825 12.2753 18.2887 12.5987 17.7966 12.6456C17.5428 12.67 17.2924 12.736 17.042 12.7847C16.6595 12.8595 16.3622 12.7395 16.1309 12.4213C15.9397 12.157 15.7275 11.9101 15.4459 11.7328C15.1642 11.5554 15.0338 11.3051 15.0547 10.9695C15.0581 10.9034 15.0321 10.8339 15.0164 10.7452L15.0182 10.7435Z" fill="#FF6600"/>
<path d="M54.5808 24.3298C54.6573 24.262 54.7512 24.1924 54.8277 24.1072C55.0816 23.8308 55.3233 23.5491 55.7579 23.57C55.8605 23.5752 55.9649 23.4674 56.0744 23.4344C56.1822 23.4013 56.3195 23.3544 56.41 23.3909C56.7212 23.5196 57.062 23.4361 57.3715 23.5508C57.4358 23.5752 57.5123 23.6082 57.5749 23.5943C58.0287 23.4969 58.439 23.7073 58.8702 23.7699C59.2197 23.8221 59.411 24.0307 59.4301 24.3767C59.4544 24.8097 59.2197 25.1783 59.098 25.573C59.0789 25.639 58.9554 25.6929 58.872 25.7138C58.7381 25.7468 58.5903 25.7781 58.4582 25.7555C58.1365 25.6982 57.8931 25.8164 57.6132 25.9659C57.1837 26.1937 56.6986 26.3397 56.1961 26.225C55.9336 26.1641 55.6919 26.1798 55.4415 26.2615C55.332 26.298 55.2102 26.3293 55.099 26.3189C54.6921 26.2789 54.4191 26.411 54.1601 26.7622C53.9323 27.07 53.5463 27.2839 53.129 27.2873C52.8073 27.2908 52.5465 27.4004 52.2753 27.5447C51.9189 27.7342 51.6076 27.6368 51.3538 27.3186C51.0147 26.8979 50.9591 26.4145 51.1121 25.9294C51.2599 25.4617 51.4964 25.0305 51.9119 24.7245C52.1432 24.5541 52.3727 24.4132 52.6787 24.448C52.9151 24.4758 53.1412 24.4411 53.3377 24.2776C53.4994 24.1455 53.6906 24.189 53.8749 24.2185C54.1027 24.255 54.3287 24.2881 54.5826 24.3263L54.5808 24.3298Z" fill="#FF6600"/>
<path d="M2.30643 20.3394C2.53942 20.4003 2.73937 20.4577 2.94106 20.5046C3.05234 20.5307 3.17927 20.5724 3.28011 20.5429C3.50615 20.4733 3.69566 20.5185 3.86606 20.6611C4.01559 20.7863 4.17555 20.8593 4.3755 20.8419C4.51981 20.8298 4.65543 20.8802 4.76323 20.9741C5.00839 21.1845 5.26224 21.1775 5.54392 21.0471C5.72126 20.9636 5.92991 20.9671 6.07248 21.1062C6.40632 21.4279 6.90533 21.3861 7.25133 21.6713C7.60777 21.6817 7.8338 21.9338 8.06331 22.1147C8.27543 22.2068 8.458 22.0729 8.66317 22.1251C8.96049 22.2833 9.15522 22.5876 9.41951 22.8136C9.58816 22.9562 9.59164 23.1475 9.49253 23.3231C9.18652 23.8603 8.7727 24.2898 8.1885 24.5297C8.00767 24.6045 7.82337 24.6045 7.6495 24.5054C7.39738 24.3628 7.1331 24.3037 6.84273 24.3506C6.64278 24.3819 6.47239 24.3037 6.34199 24.1559C6.13682 23.9212 5.87079 23.8621 5.58043 23.8899C4.93363 23.9542 4.38767 23.7873 3.98429 23.2448C3.85737 23.0762 3.65394 23.0623 3.47137 23.1214C2.8437 23.3248 2.33425 23.064 1.86132 22.7076C1.6718 22.565 1.45273 22.485 1.25973 22.3563C1.10325 22.252 1.0563 22.1077 1.09977 21.9321C1.11716 21.8643 1.13454 21.7913 1.17627 21.7374C1.54662 21.2679 1.84046 20.7341 2.30643 20.3377V20.3394Z" fill="#FF6600"/>
<path d="M6.97317 33.6145C7.40959 33.7014 7.66344 33.9118 7.83905 34.2404C8.05987 34.6542 8.23026 35.082 8.28764 35.5514C8.35023 36.0626 7.88773 36.5633 7.36438 36.5216C7.24963 36.5129 7.13661 36.4747 7.02533 36.4416C6.88624 36.4016 6.74018 36.379 6.61674 36.4538C6.14033 36.7407 5.57177 36.6572 5.07276 36.8537C4.99104 36.885 4.88672 36.8815 4.79804 36.8659C4.30251 36.7807 3.8348 36.8763 3.35317 37.0032C2.42992 37.2467 1.50666 37.1615 0.604269 36.8572C0.496469 36.8207 0.392146 36.7581 0.299994 36.6885C0.166114 36.5894 0.0722233 36.4573 0.0183232 36.2973C-0.105125 35.9374 0.421704 35.1498 0.804221 35.1533C1.95177 35.1654 3.04542 34.882 4.12864 34.5551C4.33033 34.4943 4.54245 34.4821 4.73371 34.4282C5.19273 34.2978 5.67957 34.3221 6.1299 34.1013C6.43417 33.9518 6.78713 33.8996 6.97491 33.6162L6.97317 33.6145Z" fill="#FF6600"/>
<path d="M45.8333 36.36C45.8577 36.1565 45.8872 35.9201 46.0507 35.7792C46.3341 35.5358 46.468 35.2385 46.5167 34.8786C46.5288 34.7916 46.6053 34.7169 46.6453 34.6317C46.8366 34.2335 47.0174 33.8353 47.0383 33.3781C47.0504 33.1051 47.1235 32.8425 47.1061 32.5539C47.0835 32.194 47.2382 31.8254 47.2365 31.4603C47.2347 30.9491 47.3582 30.4483 47.3095 29.9319C47.2869 29.6903 47.3339 29.4312 47.4469 29.1843C47.5616 28.9339 47.5755 28.6592 47.4764 28.3688C47.3964 28.1341 47.3686 27.8542 47.4121 27.6125C47.5199 27.0109 47.306 26.4667 47.1669 25.912C47.0661 25.5069 46.9148 25.1157 46.8887 24.6932C46.8731 24.4567 46.807 24.2377 46.6662 24.0394C46.6001 23.9473 46.5306 23.836 46.5236 23.7299C46.4923 23.2866 46.0472 22.9684 46.1567 22.4816C46.1672 22.4311 46.0994 22.3581 46.0559 22.3025C45.7308 21.8834 45.5482 21.3583 45.0614 21.0576C45.1657 20.562 44.9379 20.2282 44.5954 19.9448C44.5067 19.8717 44.4337 19.7692 44.3346 19.717C44.0459 19.5623 43.8773 19.291 43.7904 19.0146C43.6582 18.5921 43.3957 18.2878 43.0983 17.9922C43.001 17.8948 42.9053 17.7853 42.848 17.6618C42.7541 17.4654 42.6219 17.3593 42.4237 17.2463C42.1125 17.0689 41.7387 16.909 41.5874 16.5421C41.4518 16.2152 41.1997 16.0379 40.9232 15.8536C40.7337 15.7267 40.4885 15.6519 40.372 15.4363C40.2017 15.1216 39.9165 14.9999 39.5983 14.8869C39.075 14.7008 38.5377 14.5304 38.0996 14.1618C37.7223 14.0923 37.4145 13.7463 36.9781 13.8923C36.8129 13.948 36.6564 13.8732 36.5382 13.7411C36.446 13.6367 36.3539 13.5307 36.2704 13.435C35.9627 13.4072 35.7523 13.3724 35.5436 13.3759C35.3437 13.3794 35.1716 13.3377 35.0359 13.1916C34.8012 12.936 34.53 12.8839 34.2118 13.0195C34.057 13.0856 33.8814 13.1099 33.7423 13.0004C33.3268 12.6735 32.8695 12.5883 32.3618 12.7048C32.2731 12.7256 32.1758 12.6996 32.0836 12.7013C31.3638 12.7083 30.6422 12.6561 29.9311 12.8108C29.5468 12.8943 29.1678 13.0386 28.7783 12.8352C28.7418 12.8161 28.6775 12.8143 28.641 12.8352C28.2671 13.0282 27.8029 12.8873 27.4465 13.1603C27.3769 13.2125 27.2709 13.2455 27.1839 13.242C26.6136 13.2212 26.0764 13.3151 25.5791 13.6141C25.5061 13.6576 25.3948 13.6333 25.3061 13.6576C25.1044 13.715 24.8853 13.7463 24.7115 13.8523C24.3307 14.0871 23.8473 14.054 23.4944 14.3479C22.8406 14.4052 22.2599 14.753 21.6079 14.8243C21.4253 14.8451 21.2236 14.8834 21.0915 15.0207C20.8202 15.3059 20.4673 15.412 20.1195 15.5493C19.8622 15.6502 19.5597 15.7006 19.3841 15.9336C19.1302 16.2691 18.7633 16.4048 18.4069 16.5665C18.3234 16.6047 18.1948 16.6291 18.1687 16.6934C18.0105 17.0863 17.5862 17.2115 17.3498 17.5245C17.2263 17.6879 17.0698 17.8444 16.8942 17.9453C16.7151 18.0478 16.6108 18.1695 16.5639 18.3643C16.4787 18.7242 16.2822 19.0024 15.9414 19.1624C15.7849 19.2354 15.665 19.3432 15.6197 19.5101C15.4737 20.0578 15.0286 20.4577 14.893 21.0089C14.8773 21.0732 14.8338 21.1393 14.7852 21.1862C14.3731 21.5826 14.1523 22.1077 13.8758 22.5876C13.622 23.0258 13.4464 23.5161 13.3455 24.0203C13.2899 24.3037 13.4307 24.5732 13.4342 24.8479C13.4377 25.1435 13.2412 25.4009 13.2186 25.7156C13.1716 26.3345 13.1873 26.9761 12.8552 27.5429C12.7422 27.7359 12.7926 27.9533 12.8152 28.1602C12.8326 28.3201 12.9613 28.4558 12.9213 28.6557C12.8395 28.8192 12.7474 29.0052 12.6483 29.2069C12.9491 29.7215 12.9821 30.271 12.8708 30.8343C12.843 30.9786 12.8917 31.1073 12.9143 31.2447C12.9804 31.6533 13.0604 32.0653 13.0656 32.4774C13.0708 32.8408 13.149 33.1729 13.3125 33.4824C13.4011 33.651 13.4811 33.8127 13.4776 34.0057C13.4724 34.2248 13.5472 34.4161 13.6915 34.5812C13.8619 34.7777 13.7019 35.0455 13.8271 35.2524C13.8636 35.3115 13.9036 35.3724 13.9558 35.4158C14.1279 35.5619 14.2131 35.7392 14.1957 35.9687C14.1836 36.1113 14.2305 36.2417 14.3053 36.3652C14.5765 36.8207 14.5713 37.4171 15.0164 37.7874C15.0477 37.8135 15.0512 37.8726 15.0634 37.9178C15.1294 38.1786 15.2633 38.3821 15.5102 38.5107C15.6423 38.5803 15.6893 38.7176 15.7067 38.8637C15.7206 38.9785 15.7067 39.1158 15.7675 39.201C16.0875 39.6583 16.4665 40.0669 16.8786 40.4424C17.2541 40.4859 17.3445 40.7763 17.4419 41.0736C17.5149 41.2944 17.6106 41.5048 17.8436 41.6213C18.4904 41.943 19.0763 42.3429 19.5857 42.8645C19.8709 43.1566 20.1491 43.4939 20.6116 43.5287C20.8133 43.7112 21.0949 43.6869 21.3227 43.7929C21.9452 44.0816 22.512 44.4954 23.2353 44.5475C23.43 44.5615 23.6335 44.6884 23.8021 44.8066C24.1586 45.0535 24.5654 45.1526 24.9758 45.2204C25.2348 45.2639 25.407 45.3665 25.5165 45.5977C25.5565 45.6794 25.6191 45.749 25.6765 45.8342C25.7929 45.8603 25.9077 45.8777 26.019 45.9107C26.3128 45.9976 26.6206 45.8811 26.9179 45.9907C27.1804 46.088 27.4656 46.0724 27.7473 46.0794C28.3975 46.0933 29.053 45.9837 29.6964 46.1663C29.8268 46.2028 29.9902 46.2132 30.1119 46.1663C30.5066 46.0168 30.8891 45.8551 31.3151 46.0498C31.3499 46.0654 31.4125 46.0463 31.449 46.0237C31.8158 45.789 32.2401 45.7838 32.6487 45.7055C33.3789 45.5647 34.1109 45.4482 34.8516 45.3665C35.4115 45.3056 35.9627 45.2187 36.3035 44.6553C36.9798 44.831 37.5571 44.6345 38.0735 44.2155C38.1847 44.125 38.3169 44.0659 38.4612 44.0764C38.7985 44.1007 39.035 43.9216 39.2558 43.7043C39.3897 43.5721 39.5236 43.4278 39.7235 43.4226C40.0052 43.4139 40.2051 43.24 40.4016 43.087C40.7824 42.7897 41.2345 42.5793 41.5196 42.1603C41.6083 42.0299 41.7422 41.9117 41.8812 41.8421C42.2429 41.663 42.4828 41.3344 42.8202 41.124C43.1749 40.9049 43.2896 40.4268 43.6999 40.2529C43.8147 39.9226 44.1798 39.7435 44.2285 39.3697C44.2563 39.1523 44.4024 38.9941 44.5432 38.8359C44.957 38.3699 45.3517 37.8987 45.5586 37.2884C45.6629 36.9807 45.7951 36.6868 45.8333 36.3565V36.36Z" fill="#FF6600"/>
<path d="M38.0996 55.4023C37.9761 55.0772 37.804 54.7625 37.884 54.3573C37.9049 54.2078 37.9362 54.0061 37.7797 53.867C37.5502 53.6653 37.4806 53.4132 37.4476 53.1228C37.4302 52.9664 37.3659 52.7994 37.2754 52.6725C36.8773 52.1127 36.7938 51.4745 36.7956 50.8156C36.7956 50.6208 36.766 50.44 36.6304 50.2957C36.4217 50.0749 36.2374 49.8454 36.1314 49.5498C36.0879 49.4298 35.9575 49.3342 35.8514 49.2438C35.681 49.096 35.5141 49.0925 35.3472 49.2333C34.9317 49.5828 34.6378 50.0349 34.3509 50.4852C34.1892 50.7391 34.1979 51.0381 34.4344 51.2572C34.7282 51.5302 34.7578 51.8675 34.7108 52.2222C34.6726 52.5126 34.7143 52.7751 34.8395 53.0359C34.8986 53.1611 34.9143 53.3054 34.9664 53.4358C35.0986 53.7714 35.1438 54.0983 35.0134 54.4547C34.8917 54.7868 34.9977 55.098 35.2377 55.3588C35.3003 55.4284 35.3663 55.4944 35.4289 55.564C35.528 55.6735 35.5993 55.8092 35.5524 55.9465C35.3924 56.4281 35.5559 56.8819 35.7123 57.3079C36.0479 58.2155 36.3713 58.2903 37.2076 57.9965C37.4945 57.8956 37.7362 57.6957 37.9222 57.4505C38.0353 57.3027 38.1431 57.148 38.2335 56.9863C38.4108 56.6698 38.4925 56.3395 38.3308 55.983C38.2456 55.7935 38.1726 55.597 38.0979 55.4006L38.0996 55.4023Z" fill="#FF6600"/>
<path d="M59.9673 40.2285C59.9012 40.0303 59.7934 39.8443 59.7378 39.6443C59.6196 39.2149 59.3814 38.8949 58.9815 38.7072C58.7919 38.7628 58.6146 38.8167 58.4355 38.8654C58.2442 38.9158 58.0669 38.8897 57.9122 38.7541C57.4723 38.3646 56.975 38.2655 56.429 38.4881C56.2725 38.3907 56.1439 38.2864 55.9978 38.2221C55.8396 38.1525 55.6727 38.276 55.5179 38.2534C55.0954 38.189 54.6208 38.3038 54.2921 37.8952C54.1983 37.7787 54.0418 37.7665 53.9027 37.8135C53.2107 38.043 52.5256 37.923 51.8406 37.7787C51.7275 37.7543 51.618 37.7039 51.505 37.6831C51.3572 37.6552 51.2303 37.7022 51.1329 37.8222C50.9955 37.9925 50.9173 38.1838 50.9521 38.4046C50.9903 38.6567 51.0373 38.9089 51.0825 39.1749C51.1433 39.2323 51.2129 39.2948 51.2772 39.3592C51.5537 39.6426 51.818 39.9312 52.2596 39.9642C52.383 39.9729 52.5187 40.0755 52.616 40.1694C52.8838 40.4302 53.1742 40.4667 53.5149 40.3346C53.6836 40.2685 53.8783 40.1451 54.0505 40.2459C54.4191 40.4615 54.8051 40.4215 55.1754 40.3728C55.2519 40.4424 55.3128 40.4806 55.3545 40.5345C55.6257 40.884 55.9717 40.9153 56.3595 40.7814C56.4255 40.7588 56.4951 40.7415 56.5577 40.7102C56.8115 40.5832 57.0567 40.6284 57.2966 40.7449C57.4427 40.8162 57.5853 40.8962 57.7278 40.9744C57.8965 41.0683 58.0686 41.1205 58.2634 41.0788C58.7398 40.9762 59.2197 40.8875 59.6926 40.771C59.9638 40.7049 60.0577 40.498 59.9656 40.2268L59.9673 40.2285Z" fill="#FF6600"/>
<path d="M51.3781 52.1196C51.3346 51.8692 51.2912 51.6171 51.2408 51.3667C51.2147 51.2329 51.1104 51.1859 50.9852 51.1755C50.9295 51.0903 50.8722 51.0033 50.8165 50.9181C50.8443 50.7338 50.7557 50.6052 50.6079 50.5217C50.3488 50.3774 50.1019 50.2174 49.8585 50.0436C49.6098 49.8662 49.3056 49.7671 49.0274 49.6332C49.0309 49.4107 48.9004 49.2907 48.704 49.2438C48.5475 49.2072 48.3841 49.2003 48.2224 49.1812C48.1893 49.1116 48.158 49.0421 48.125 48.9708C48.1459 48.7117 48.1441 48.71 47.8972 48.663C47.8485 48.6161 47.8016 48.5709 47.7529 48.5239C47.6607 48.1293 47.6138 48.0997 47.167 48.1519C47.0435 48.0354 46.9201 47.9171 46.7966 47.7989C46.7827 47.7015 46.7444 47.5989 46.6471 47.585C46.3863 47.545 46.1672 47.4286 45.9551 47.279C45.8647 47.2147 45.7447 47.1956 45.656 47.1625C45.4352 47.2773 45.2648 47.4181 45.1918 47.6129C45.0979 47.858 44.9553 48.0562 44.7988 48.2614C44.4911 48.6648 44.5711 49.1586 44.9657 49.5028C45.0614 49.5863 45.1726 49.6019 45.2926 49.5689C45.4717 49.8401 45.8003 49.9219 46.0177 50.1427C46.1029 50.7912 46.3689 51.3007 47.0765 51.4224C47.3947 51.478 47.5669 51.6467 47.6538 51.9475C47.699 52.1005 47.779 52.25 47.8677 52.3839C47.9494 52.5073 48.078 52.563 48.2328 52.5073C48.2206 52.4743 48.205 52.4447 48.1893 52.4134C48.1563 52.3526 48.1198 52.2952 48.0798 52.2378C48.118 52.2952 48.1563 52.3526 48.1893 52.4134C48.205 52.443 48.2206 52.4743 48.2328 52.5073C48.2919 52.5578 48.3493 52.6082 48.4084 52.6569C48.4571 53.0811 48.5962 53.2306 49.0013 53.248C49.3699 53.2637 49.742 53.2132 50.1019 53.3645C50.2149 53.4115 50.3784 53.3663 50.5088 53.3315C50.7104 53.2776 50.9052 53.1993 51.1017 53.1263C51.5137 52.975 51.5311 52.9385 51.4442 52.5247C51.4164 52.3891 51.4025 52.25 51.3781 52.1144V52.1196Z" fill="#FF6600"/>
</svg>
