<svg width="68" height="42" viewBox="0 0 68 42" fill="none" xmlns="http://www.w3.org/2000/svg">
<path d="M0.377235 30.1928C0.155521 29.5801 0.209939 28.9818 0.342968 28.3405C0.514292 27.5196 0.619105 26.6864 0.893224 25.8859C1.01214 25.5366 1.13912 25.2079 1.41324 24.9526C1.43541 24.9322 1.46363 24.9117 1.47371 24.8852C1.84861 23.8988 2.7919 23.4414 3.44696 22.7164C3.60216 22.5449 3.83597 22.4448 4.04358 22.3284C4.30359 22.1814 4.58779 22.0731 4.83772 21.9118C5.24487 21.6484 5.54519 21.34 5.60767 20.7784C5.65806 20.3271 5.70038 19.9187 5.61573 19.4571C5.5089 18.8731 5.49883 18.2543 5.85357 17.7029C6.01683 17.4497 6.11762 17.1781 5.97451 16.8493C5.87373 16.6185 5.94024 16.3572 6.14583 16.1897C6.5429 15.865 6.66988 15.3973 6.82911 14.946C7.03873 14.3497 7.29471 13.7799 7.62124 13.2367C8.06265 12.5016 8.66732 11.9155 9.30828 11.3825C9.61465 11.1272 9.87063 10.8617 10.0782 10.5329C10.2717 10.2266 10.4733 10.002 10.8764 9.8876C11.2694 9.77733 11.6302 9.44445 11.9285 9.13609C12.1422 8.91553 12.3256 8.7542 12.63 8.64801C13.0774 8.48872 13.4866 8.27021 13.9864 8.3131C14.2586 8.3376 14.4883 8.13951 14.7282 8.02311C15.0527 7.86791 15.3732 7.71475 15.7521 7.76172C16.3991 7.84136 16.9977 7.7127 17.4936 7.26751C17.6911 7.31857 17.8705 7.41863 18.0337 7.39413C18.5356 7.32265 19.0214 7.27977 19.4688 7.58609C19.8921 7.53912 20.2871 7.69637 20.6923 7.74538C21.0631 7.79031 21.3594 7.96389 21.6497 8.08438C22.0528 7.96797 22.1758 7.65348 22.335 7.3635C22.5386 6.99591 22.7562 6.63649 22.9618 6.2689C23.1271 5.97075 23.4456 5.84413 23.6632 5.58886C24.1208 5.04973 24.663 4.58208 25.1729 4.08788C25.4793 3.79176 25.8038 3.56508 26.2674 3.56917C26.5375 3.57121 26.6685 3.33024 26.6907 3.0668C26.7209 2.70534 26.9265 2.53992 27.259 2.47661C27.4324 2.44394 27.5997 2.37042 27.771 2.32754C28.3535 2.18459 28.9199 2.02121 29.3593 1.55764C29.5004 1.40857 29.6979 1.31259 29.8773 1.20844C29.9761 1.15126 30.1333 1.06344 30.1978 1.10224C30.5989 1.34118 30.8649 1.03281 31.1814 0.902114C31.6752 0.697898 32.2214 0.646843 32.7052 0.393615C32.8221 0.332351 33.0176 0.326225 33.1365 0.381363C33.469 0.538609 33.7714 0.471216 34.0838 0.344603C34.4184 0.207778 34.7691 0.156725 35.1319 0.150598C35.3375 0.148556 35.5612 0.148556 35.7467 0.0709544C36.0893 -0.0699544 36.3554 0.0158148 36.6698 0.181229C37.0608 0.385445 37.4962 0.503893 37.9497 0.522272C39.0562 0.5672 40.0136 1.04302 40.9227 1.63116C41.1464 1.77615 41.3278 1.95178 41.618 1.99671C42.0171 2.05797 42.3114 2.32345 42.511 2.68083C42.6984 3.01574 42.8375 3.35474 43.2346 3.55487C43.4946 3.68761 43.7042 4.03478 43.811 4.33293C43.9662 4.76179 44.2625 5.0722 44.591 5.29479C44.9942 5.57048 45.3328 5.88497 45.5988 6.28115C46.3103 6.33221 46.9896 6.32812 47.6688 6.45473C48.1485 6.54459 48.6746 6.57318 49.1684 6.36488C49.366 6.28115 49.5917 6.29136 49.763 6.44248C50.0089 6.65691 50.2911 6.70184 50.5975 6.69162C50.6861 6.68754 50.795 6.67937 50.8595 6.72634C51.4702 7.16949 52.2462 7.24913 52.865 7.68003C53.1794 7.89854 53.5221 8.10071 53.9232 8.14156C54.1106 8.15994 54.2557 8.25388 54.3948 8.37436C54.5057 8.47239 54.6206 8.60921 54.7516 8.63372C55.3684 8.74808 55.7312 9.15446 56.0254 9.67113C56.1746 9.93253 56.3802 10.151 56.6724 10.2674C56.7551 10.3001 56.8357 10.343 56.9082 10.3961C57.2086 10.6085 57.3759 10.9373 57.6016 11.213C57.8072 11.4641 58.2083 11.4396 58.4199 11.7317C58.5449 11.9053 58.6941 12.0564 58.69 12.2851C58.6759 12.9856 59.1193 13.5124 59.3713 14.1108C59.4297 14.2476 59.5164 14.3783 59.6172 14.4865C60.0304 14.9256 60.2319 15.428 60.1372 16.0447C60.1009 16.2857 60.1493 16.5267 60.3126 16.7268C60.4839 16.933 60.4637 17.1495 60.4013 17.4048C60.2964 17.8459 60.5101 18.1726 60.9414 18.2625C61.2014 18.3176 61.4614 18.3687 61.7215 18.4259C62.4833 18.5933 63.0477 19.0793 63.6222 19.549C63.8761 19.7553 64.0817 20.0106 64.378 20.176C64.634 20.321 64.8758 20.5374 64.9524 20.8438C65.0573 21.2665 65.3535 21.5177 65.6841 21.7158C66.0529 21.9363 66.2384 22.261 66.313 22.6572C66.3855 23.0493 66.5327 23.3965 66.7584 23.7253C67.1212 24.2542 67.3268 24.8689 67.4115 25.4897C67.48 25.9941 67.6271 26.4127 68 26.7619C67.9637 26.8947 67.9637 27.0295 67.8992 27.1173C67.7057 27.3766 67.617 27.6258 67.7501 27.9525C67.8811 28.2752 67.8226 28.6019 67.6634 28.9123C67.5243 29.1819 67.4316 29.4678 67.4518 29.7802C67.4659 30.0008 67.3973 30.1948 67.2623 30.3684C67.2079 30.4378 67.1413 30.5236 67.1373 30.6032C67.101 31.271 66.6576 31.6815 66.2364 32.1124C65.9461 32.4126 65.6075 32.6679 65.414 33.0599C65.3676 33.1559 65.2467 33.2478 65.1419 33.2764C64.6622 33.401 64.382 33.7522 64.1845 34.1648C63.9769 34.5956 63.6685 34.8775 63.2533 35.096C62.9147 35.2757 62.6164 35.5371 62.306 35.7678C62.1367 35.8924 61.9815 36.0435 61.7557 36.0354C61.4655 36.0252 61.2861 36.1865 61.0664 36.3662C60.758 36.6235 60.3468 36.7522 59.9961 36.9625C59.5346 37.2402 59.0931 37.5547 58.5127 37.4873C58.43 37.4771 58.3292 37.5078 58.2567 37.5527C57.5411 38.0081 56.747 38.0101 55.9408 38.0244C55.2897 38.0367 54.6387 38.0183 53.9877 38.1715C53.5362 38.2777 53.0343 38.2429 52.5647 38.1817C52.2119 38.1347 51.8854 38.0183 51.5226 38.1613C51.317 38.2429 51.1235 38.0775 50.9401 37.9836C50.4483 37.7324 50.0392 37.8059 49.6582 38.2246C49.2349 38.6902 48.7653 39.1149 48.334 39.5724C48.0598 39.8644 47.7313 40.0605 47.3786 40.2279C47.2435 40.2933 47.1045 40.3668 46.9533 40.3014C46.7276 40.2034 46.5522 40.2871 46.3789 40.426C46.0725 40.6711 45.6653 40.4852 45.3489 40.6547C45.0385 40.8222 44.8148 41.1306 44.4318 41.1877C43.9138 41.2653 43.424 41.5349 42.8717 41.3123C42.6561 41.2265 42.392 41.2796 42.1824 41.4185C41.745 41.7085 41.2915 41.7289 40.8259 41.4941C40.6284 41.6166 40.4551 41.7289 40.2757 41.8331C40.0076 41.9903 39.7395 42.0577 39.4251 41.9413C38.8466 41.7269 38.252 41.8249 37.6635 41.8984C37.5466 41.9127 37.4115 42.0087 37.3208 41.974C36.7282 41.7432 36.1599 41.927 35.5713 41.9842C35.1158 42.0291 34.6361 41.88 34.1765 41.7738C34.0193 41.7371 33.8903 41.5676 33.7492 41.4614C33.4267 41.2184 33.1002 41.0448 32.6769 41.2286C32.4189 41.3409 32.2113 41.2184 32.0803 40.9774C31.9171 40.6752 31.7135 40.4566 31.3547 40.3688C30.8589 40.2463 30.3711 40.1238 29.8652 40.2647C29.7564 40.2953 29.6556 40.377 29.5689 40.4566C29.196 40.7997 28.7425 40.9325 28.2568 40.9325C27.9181 40.9325 27.6077 40.9896 27.3115 41.151C27.0958 41.2674 26.864 41.3246 26.6221 41.3082C26.2835 41.2858 25.9731 41.3695 25.6748 41.5247C25.4551 41.639 25.1991 41.7085 24.9835 41.6186C24.5602 41.443 24.1712 41.5962 23.764 41.637C23.377 41.6758 23.0142 41.8065 22.6333 41.8719C21.7364 42.023 20.8656 41.7575 19.9808 41.7943C19.7006 41.8065 19.4063 41.6513 19.1342 41.5349C18.8581 41.4165 18.5638 41.3674 18.2897 41.2715C17.3464 40.9427 16.3447 40.7017 15.6332 39.9093C15.476 39.7337 15.3107 39.6541 15.091 39.6582C14.8229 39.6643 14.5347 39.6153 14.2948 39.701C13.9421 39.8277 13.6035 39.7684 13.3596 39.5806C12.8396 39.1782 12.2893 39.3028 11.735 39.3661C11.5294 39.3906 11.3279 39.4519 11.1284 39.507C10.3342 39.7255 9.55418 39.7807 8.78423 39.3927C8.44965 39.2252 8.07272 39.2375 7.73209 39.3355C7.39549 39.4315 7.0992 39.4927 6.815 39.2354C6.79283 39.215 6.76461 39.1966 6.73639 39.1925C6.38367 39.1456 6.02087 39.1456 5.68427 39.0455C5.35371 38.9475 5.17029 38.5554 4.75911 38.5431C4.56763 38.537 4.34189 38.4288 4.19676 38.294C3.87427 37.9979 3.53767 37.7978 3.08618 37.8059C2.9854 37.8059 2.84834 37.7181 2.78787 37.6303C2.53391 37.2484 2.13885 37.0177 1.83047 36.695C1.61883 36.4724 1.43139 36.2457 1.46162 35.9067C1.48177 35.68 1.37495 35.5044 1.2399 35.3329C1.10889 35.1695 1.0061 34.9837 0.881131 34.8142C0.661432 34.5119 0.534451 34.1872 0.572747 33.8013C0.611043 33.401 0.482046 33.064 0.30266 32.6924C-0.0883632 31.8796 -0.138752 31.0158 0.379253 30.1826L0.377235 30.1928Z" fill="#A7BDC8"/>
</svg>
