<svg width="66" height="56" viewBox="0 0 66 56" fill="none" xmlns="http://www.w3.org/2000/svg">
<path d="M46.1086 14.1671C46.0098 14.3028 45.959 14.4542 45.8604 14.4985C45.4745 14.6677 45.3708 15.1117 45.0176 15.3086C44.8623 15.3956 44.7106 15.4192 44.5499 15.3808C44.306 15.3194 44.1248 15.3795 43.9943 15.5964C43.9593 15.6543 43.8897 15.739 43.8409 15.7348C43.5098 15.7087 43.3435 15.9855 43.0961 16.1078C42.9976 16.157 42.8999 16.1993 42.8463 16.3012C42.7691 16.4473 42.6358 16.4629 42.4862 16.4973C42.2046 16.5599 41.9336 16.6661 41.6563 16.75C41.4701 16.8053 41.3306 16.9047 41.2837 17.1038C41.2197 17.3789 41.0371 17.4721 40.7641 17.4714C40.4471 17.4713 40.2047 17.5936 40.1274 17.9371C40.0788 18.1546 39.9162 18.267 39.7084 18.3168C39.6045 18.3417 39.4924 18.3434 39.3907 18.379C38.9471 18.5374 38.6672 18.2781 38.3928 18.0023C38.368 17.9783 38.341 17.9438 38.3346 17.9118C38.2846 17.5917 38.124 17.2956 38.1498 16.9588C38.1631 16.7845 38.2013 16.6391 38.3564 16.5424C38.4778 16.4657 38.591 16.3658 38.7207 16.3123C38.9074 16.2355 39.0794 16.1542 39.1941 15.9755C39.2632 15.8665 39.3871 15.8199 39.5173 15.7955C39.8 15.7407 40.0847 15.6868 40.3643 15.6184C40.5963 15.5633 40.7942 15.4582 40.9473 15.2546C41.1205 15.0245 41.3292 14.821 41.5221 14.6052C41.673 14.4366 41.8581 14.3278 42.084 14.3059C42.4567 14.2701 42.7685 14.0991 43.0678 13.8933C43.1554 13.8317 43.2489 13.7729 43.3466 13.7306C43.4346 13.6933 43.5119 13.6532 43.5492 13.5651C43.7006 13.2186 44.0048 13.1644 44.3214 13.2005C44.6478 13.2364 44.9685 13.284 45.2916 13.1955C45.3246 13.1872 45.3627 13.1934 45.3989 13.1987C45.6727 13.2383 46.1295 13.7244 46.1385 13.9936C46.1398 14.0616 46.1118 14.1301 46.1056 14.1632L46.1086 14.1671Z" fill="#FF6600"/>
<path d="M35.8775 3.35842C36.2229 3.7285 36.7121 3.91944 36.7614 4.51375C36.5537 4.8718 36.3322 5.27867 36.0821 5.66458C35.9892 5.80795 35.8204 5.90288 35.7072 6.0028C35.6537 6.11446 35.6594 6.20384 35.6796 6.29298C35.717 6.46743 35.6476 6.61239 35.5516 6.74705C35.373 6.99381 35.1825 7.23492 35.0117 7.48545C34.8808 7.67801 34.7677 7.88391 34.6526 8.08887C34.4846 8.38409 34.3393 8.69257 34.027 8.88497C33.9277 8.94579 33.8747 9.08175 33.8075 9.18681C33.671 9.39598 33.5947 9.64118 33.3535 9.77611C33.2339 9.84404 33.2524 9.99739 33.2254 10.1193C33.1456 10.4881 33.1322 10.5009 32.786 10.547C32.6799 10.5613 32.5669 10.5649 32.4651 10.5956C32.2159 10.6714 32.0133 10.6346 31.8281 10.4303C31.7345 10.3277 31.5882 10.2745 31.4667 10.1946C31.2367 10.0435 31.1741 9.88111 31.2926 9.64888C31.4017 9.43623 31.4796 9.22309 31.5102 8.98732C31.5357 8.78761 31.6309 8.61406 31.7763 8.46698C31.8758 8.36532 32.0084 8.26025 32.0421 8.13431C32.1708 7.67342 32.4594 7.3083 32.7174 6.92616C32.9782 6.53813 33.2252 6.14352 33.4239 5.71852C33.529 5.49912 33.7604 5.46548 33.9466 5.35959C34.0686 5.16035 34.1256 4.92515 34.3078 4.76196C34.4085 4.67292 34.4021 4.53981 34.4133 4.41032C34.4621 3.89911 34.8167 3.51745 35.322 3.42714C35.4989 3.39626 35.6791 3.3838 35.8766 3.36038L35.8775 3.35842Z" fill="#FF6600"/>
<path d="M6.04447 28.042C6.22059 27.8157 6.42733 27.6619 6.71193 27.6031C6.90232 27.5642 7.08167 27.4575 7.26448 27.3788C7.47823 27.2862 7.65088 27.3399 7.79564 27.5176C7.93244 27.6867 8.07495 27.8488 8.20406 28.0238C8.25512 28.094 8.28321 28.187 8.29949 28.2742C8.37107 28.6553 8.21544 28.9853 8.04004 29.301C7.95234 29.4589 7.77468 29.552 7.58168 29.5559C7.37602 29.561 7.19078 29.6144 7.006 29.692C6.86959 29.7495 6.72637 29.7556 6.5778 29.7374C6.43317 29.7211 6.29013 29.7369 6.14866 29.7848C5.9307 29.861 5.85073 30.1695 5.56026 30.1243C5.30691 30.0824 5.10534 30.2002 4.90404 30.3326C4.79331 30.4072 4.65964 30.4034 4.53414 30.3674C4.39496 30.3296 4.26131 30.2753 4.1092 30.2241C3.82418 30.4151 3.51565 30.5491 3.16544 30.5933C3.04676 30.6087 2.9393 30.7017 2.82418 30.7501C2.61812 30.8369 2.40072 30.8917 2.19642 30.7626C2 30.6372 1.81917 30.6662 1.62961 30.7488C1.49517 30.8073 1.35737 30.8424 1.20675 30.8184C0.906528 30.7734 0.742828 30.6252 0.725405 30.3231C0.712176 30.0879 0.710654 29.8536 0.571062 29.6399C0.855511 29.2126 1.1882 28.912 1.70342 28.7758C2.10802 28.6686 2.49274 28.5422 2.9182 28.5581C3.05581 28.5638 3.20282 28.4993 3.33341 28.4439C3.64682 28.3098 3.95587 28.2555 4.23617 28.4331C4.43574 28.4155 4.49814 28.2599 4.62162 28.189C4.71809 28.1341 4.82384 28.0547 4.92412 28.0979C5.16602 28.2041 5.38634 28.0977 5.61591 28.068C5.74237 28.0515 5.86816 28.0515 6.04935 28.0419L6.04447 28.042Z" fill="#FF6600"/>
<path d="M9.96922 39.202C9.88175 39.2179 9.8048 39.222 9.73796 39.2453C9.4194 39.3649 9.1518 39.5498 9.07256 39.8972C8.96986 40.344 8.57369 40.4842 8.26203 40.7106C8.12158 40.812 7.79879 40.708 7.69369 40.5131C7.54624 40.2451 7.44034 39.956 7.32383 39.6738C7.30444 39.6284 7.30408 39.5584 7.32669 39.5162C7.46852 39.2302 7.47763 38.8878 7.74036 38.6524C7.91102 38.4981 8.03586 38.293 8.18852 38.1157C8.25051 38.0418 8.2792 37.9616 8.28429 37.8702C8.30219 37.6307 8.42991 37.4751 8.64244 37.3698C8.79798 37.2926 8.88427 37.1629 8.87684 36.9764C8.86504 36.6625 9.04076 36.4673 9.31273 36.3591C9.50726 36.2813 9.65933 36.1759 9.73842 35.9754C9.79978 35.817 9.93153 35.7187 10.0533 35.6109C10.2989 35.3962 10.4961 35.1511 10.6395 34.8465C10.8982 34.2961 11.4703 34.0716 12.0837 34.1751C12.5786 34.258 12.8437 34.5583 13.0156 34.9826C13.1057 35.2087 13.0517 35.3466 12.8646 35.505C12.6602 35.6793 12.3979 35.6813 12.1806 35.741C12.1386 35.7883 12.0971 35.8142 12.0948 35.8444C12.0581 36.2747 11.7679 36.5523 11.5003 36.8432C11.4506 36.8965 11.3969 36.943 11.3442 36.9924C11.1496 37.1665 11.0118 37.3582 11.0436 37.6455C11.0697 37.8892 10.9415 38.071 10.7077 38.1397C10.3315 38.2485 10.1522 38.5166 10.0673 38.8709C10.0455 38.9568 10.0188 39.0427 9.97407 39.2019L9.96922 39.202Z" fill="#FF6600"/>
<path d="M19.0746 4.53502C19.0433 4.4791 19.0138 4.4144 18.9737 4.35667C18.8716 4.21626 18.8396 4.0709 18.8792 3.89722C18.9097 3.75772 18.9236 3.61263 18.9267 3.46965C18.9297 3.26639 18.8859 3.06481 18.7166 2.9332C18.4216 2.70043 18.4087 2.37878 18.4142 2.04908C18.4154 1.96058 18.4681 1.85575 18.4374 1.78329C18.2557 1.35433 18.4969 1.06287 18.738 0.766542C18.9782 0.472175 19.2352 0.193114 19.5951 0.0427791C19.8099 -0.0470152 19.9405 0.00350663 20.0419 0.206157C20.1583 0.432886 20.2283 0.675877 20.2672 0.92809C20.2838 1.03479 20.2764 1.15645 20.3278 1.24609C20.4993 1.54977 20.5621 1.87844 20.6075 2.21806C20.6301 2.37815 20.6914 2.52793 20.6145 2.68856C20.5638 2.79433 20.5942 2.90278 20.638 3.00323C20.7196 3.1916 20.7476 3.38078 20.6919 3.58289C20.6563 3.71275 20.6976 3.83367 20.8075 3.92242C20.9283 4.0188 20.9932 4.15102 21.0116 4.29464C21.0447 4.54889 21.1087 4.78906 21.2561 5.0017C21.2761 5.03057 21.2945 5.07307 21.2892 5.10426C21.2236 5.44849 21.3976 5.73171 21.5096 6.03338C21.5395 6.11751 21.5568 6.20768 21.5663 6.29893C21.5849 6.45714 21.523 6.58643 21.3781 6.65669C21.0669 6.80628 20.7515 6.93455 20.3911 6.80292C20.2055 6.73573 20.0068 6.69596 19.8148 6.64734C19.5218 6.57205 19.3515 6.38698 19.2971 6.08638C19.2514 5.83816 19.1853 5.59219 19.0476 5.37454C18.9079 5.15594 18.9018 4.93629 19.0272 4.70978C19.0517 4.66371 19.0565 4.60822 19.0747 4.53988L19.0746 4.53502Z" fill="#FF6600"/>
<path d="M42.2934 27.3181C42.369 27.2965 42.4594 27.2796 42.5407 27.2463C42.8126 27.1381 43.0757 27.0233 43.3732 27.185C43.4442 27.2238 43.5536 27.1823 43.6407 27.1975C43.7277 27.2127 43.8391 27.2227 43.8909 27.2812C44.0662 27.476 44.3325 27.5312 44.5125 27.7162C44.5493 27.7555 44.5922 27.8024 44.6392 27.8153C44.9909 27.8995 45.2079 28.184 45.4894 28.3742C45.7185 28.5273 45.782 28.7383 45.6804 28.9858C45.5537 29.2959 45.2645 29.4753 45.0476 29.711C45.0123 29.7495 44.9069 29.7472 44.8413 29.7326C44.7356 29.7109 44.6229 29.6834 44.5359 29.6225C44.3303 29.4759 44.1197 29.4762 43.8732 29.4857C43.4961 29.5002 43.1068 29.439 42.7921 29.192C42.6268 29.0623 42.4528 28.991 42.2504 28.9639C42.1615 28.9526 42.0665 28.9337 41.9916 28.8881C41.7193 28.724 41.4843 28.7247 41.184 28.8819C40.9214 29.021 40.5785 29.0398 40.2843 28.9014C40.059 28.7959 39.8375 28.7837 39.5978 28.7941C39.285 28.8057 39.0984 28.6345 39.0273 28.3283C38.9298 27.9204 39.0518 27.5647 39.3223 27.2776C39.5824 27.0024 39.8931 26.7779 40.2866 26.7039C40.5043 26.6636 40.7135 26.641 40.9168 26.7673C41.0727 26.866 41.2443 26.9169 41.4356 26.8712C41.5918 26.8329 41.7126 26.9292 41.8331 27.011C41.9804 27.1128 42.1285 27.2127 42.2935 27.323L42.2934 27.3181Z" fill="#FF6600"/>
<path d="M6.94632 6.96482C7.08904 7.08614 7.21001 7.19223 7.33577 7.29339C7.40605 7.34872 7.48054 7.42051 7.56171 7.43289C7.74458 7.46026 7.86144 7.55475 7.93366 7.71215C7.99575 7.85025 8.08355 7.9549 8.23088 8.011C8.33698 8.05218 8.41457 8.13267 8.46037 8.23407C8.56321 8.46393 8.74221 8.54483 8.98311 8.54701C9.13524 8.54762 9.27995 8.61932 9.33539 8.76627C9.46172 9.10369 9.82612 9.24207 9.97252 9.5578C10.2187 9.68533 10.2937 9.93796 10.3951 10.1406C10.5137 10.2769 10.6847 10.2432 10.8125 10.3501C10.9686 10.5597 11.0021 10.8383 11.1131 11.0865C11.1834 11.2429 11.1235 11.378 10.9936 11.4675C10.5989 11.7409 10.1661 11.902 9.67503 11.8716C9.52272 11.8612 9.39385 11.8019 9.3056 11.673C9.17631 11.4883 9.011 11.3585 8.79037 11.2938C8.64032 11.2485 8.54652 11.1361 8.5057 10.9889C8.44083 10.7556 8.27356 10.6249 8.06146 10.5474C7.58525 10.3748 7.25972 10.0744 7.15735 9.56064C7.12507 9.40069 6.98608 9.3221 6.83846 9.30197C6.32912 9.23386 6.06013 8.88109 5.84665 8.47304C5.76066 8.30905 5.63537 8.18163 5.54272 8.02649C5.46722 7.90124 5.48253 7.78335 5.57218 7.67698C5.6065 7.63562 5.64271 7.59035 5.69005 7.56727C6.10649 7.36454 6.49231 7.08935 6.95128 6.9696L6.94632 6.96482Z" fill="#FF6600"/>
<path d="M5.78146 17.8044C6.05941 18.0121 6.16618 18.2439 6.18042 18.5324C6.19707 18.8968 6.17258 19.2511 6.05632 19.6C5.93087 19.9782 5.43624 20.1724 5.08424 19.9677C5.00636 19.9232 4.94078 19.858 4.87331 19.7968C4.78804 19.7223 4.69516 19.6586 4.58221 19.6671C4.15101 19.7086 3.77962 19.4585 3.36457 19.4259C3.29718 19.4202 3.2253 19.3833 3.16795 19.3414C2.84867 19.1139 2.48716 19.025 2.1084 18.952C1.37927 18.8124 0.758876 18.4406 0.228418 17.9265C0.163856 17.8643 0.114576 17.7853 0.0721406 17.7072C0.0105022 17.5934 -0.0103605 17.4703 0.00468339 17.3378C0.0381551 17.0456 0.67176 16.6723 0.938487 16.8025C1.7397 17.1958 2.60106 17.3674 3.47051 17.5021C3.63285 17.5268 3.78618 17.5906 3.93784 17.6175C4.30376 17.6819 4.63674 17.8607 5.02771 17.8576C5.28998 17.8556 5.55579 17.9371 5.78437 17.8034L5.78146 17.8044Z" fill="#FF6600"/>
<path d="M32.1316 32.7803C32.2158 32.6448 32.3162 32.4907 32.4773 32.4474C32.7577 32.3721 32.9516 32.2097 33.1051 31.975C33.1421 31.9181 33.2225 31.8916 33.2782 31.846C33.5452 31.6319 33.8064 31.415 33.973 31.1023C34.0728 30.9141 34.2132 30.7574 34.2961 30.549C34.4013 30.2888 34.6324 30.084 34.7544 29.8294C34.9251 29.4729 35.1796 29.1637 35.3168 28.7863C35.3817 28.6103 35.5024 28.4441 35.6628 28.3114C35.8279 28.1738 35.9287 27.9885 35.9545 27.7528C35.9772 27.5638 36.0494 27.3575 36.1625 27.2022C36.4409 26.8178 36.4704 26.3672 36.5597 25.9331C36.6239 25.6171 36.649 25.292 36.772 24.9897C36.8409 24.8204 36.8678 24.6431 36.8351 24.4588C36.8207 24.3725 36.8081 24.2725 36.8379 24.1953C36.9644 23.8754 36.7584 23.5022 36.9975 23.2001C37.0222 23.1686 36.9974 23.0941 36.9866 23.0408C36.8981 22.6396 36.9465 22.2101 36.7045 21.8365C36.9424 21.5266 36.8955 21.2152 36.7501 20.9024C36.7116 20.8213 36.6941 20.7263 36.644 20.6541C36.4929 20.4493 36.4658 20.2027 36.4967 19.9815C36.5459 19.6415 36.4641 19.3422 36.353 19.0338C36.3169 18.9322 36.2866 18.8238 36.2865 18.7178C36.2853 18.5486 36.2284 18.4299 36.1282 18.2856C35.9688 18.0575 35.7615 17.8186 35.7771 17.513C35.7924 17.2386 35.6744 17.0304 35.5415 16.8078C35.4498 16.6556 35.3039 16.5207 35.2935 16.3302C35.2785 16.0534 35.121 15.872 34.9341 15.6862C34.628 15.3807 34.3093 15.0812 34.1232 14.6766C33.881 14.5004 33.7818 14.1567 33.426 14.1115C33.2911 14.0951 33.2063 13.9894 33.1677 13.8578C33.1374 13.7542 33.1081 13.6487 33.081 13.5538C32.8739 13.4305 32.7395 13.3373 32.5909 13.2686C32.4512 13.2016 32.3414 13.1178 32.2966 12.9687C32.2167 12.7113 32.0455 12.5836 31.7752 12.5721C31.6445 12.5673 31.513 12.5236 31.4531 12.401C31.2706 12.0343 30.9789 11.8199 30.5842 11.7297C30.5166 11.7142 30.4562 11.6636 30.3913 11.6325C29.8855 11.3951 29.3946 11.1167 28.8451 10.986C28.5473 10.9156 28.2338 10.8883 28.0278 10.6162C28.0088 10.5903 27.9635 10.5686 27.9313 10.5701C27.6049 10.5799 27.3251 10.3255 26.9841 10.3958C26.9171 10.4095 26.834 10.3961 26.7719 10.364C26.3799 10.157 25.9701 10.0427 25.5214 10.0855C25.4552 10.0923 25.3849 10.037 25.3135 10.0244C25.153 9.99575 24.9883 9.94575 24.8306 9.96175C24.4841 9.99812 24.1569 9.81252 23.8113 9.89749C23.3331 9.71903 22.8103 9.76488 22.3273 9.59621C22.1928 9.54867 22.038 9.50822 21.8995 9.55991C21.6129 9.6683 21.3302 9.62203 21.0402 9.60115C20.8254 9.58496 20.596 9.51843 20.3961 9.62259C20.1064 9.77283 19.8035 9.74339 19.4972 9.73637C19.426 9.73356 19.328 9.71074 19.2877 9.74441C19.0442 9.96493 18.7057 9.90881 18.4354 10.049C18.2943 10.1212 18.1316 10.1781 17.9739 10.1892C17.8132 10.2014 17.7 10.2508 17.6009 10.3719C17.4218 10.5943 17.1892 10.7213 16.8976 10.719C16.763 10.7171 16.6418 10.753 16.5569 10.8544C16.2716 11.1874 15.8246 11.3177 15.5453 11.6583C15.5119 11.6977 15.4599 11.7306 15.4094 11.745C14.9879 11.8826 14.656 12.1764 14.3008 12.4181C13.9754 12.6379 13.6892 12.9223 13.4495 13.2409C13.3154 13.4199 13.3237 13.6551 13.2357 13.849C13.1392 14.0556 12.9151 14.1698 12.7934 14.3837C12.5536 14.7986 12.3506 15.2528 11.9279 15.5393C11.7845 15.6367 11.7477 15.8045 11.694 15.957C11.6523 16.0743 11.6978 16.2117 11.6037 16.3376C11.4922 16.4239 11.3653 16.5221 11.227 16.6292C11.2649 17.0904 11.1056 17.4837 10.8403 17.8407C10.7719 17.9331 10.7631 18.0373 10.7329 18.1408C10.6412 18.4485 10.5604 18.7638 10.4264 19.0536C10.3084 19.3102 10.2529 19.5677 10.2638 19.8379C10.2705 19.9855 10.2712 20.1255 10.2045 20.2598C10.1274 20.4107 10.1168 20.5693 10.1618 20.733C10.2162 20.9276 10.0129 21.059 10.0321 21.2464C10.038 21.2998 10.0469 21.357 10.0682 21.4033C10.1415 21.5636 10.1414 21.7153 10.0507 21.8693C9.995 21.9655 9.9853 22.0716 9.99426 22.1843C10.0323 22.595 9.82947 23.0084 10.0166 23.4159C10.0298 23.4438 10.0141 23.4869 10.0069 23.522C9.96692 23.7268 9.99189 23.9121 10.121 24.0871C10.19 24.1804 10.1775 24.2924 10.1406 24.3999C10.112 24.4849 10.0561 24.5762 10.0713 24.6557C10.1428 25.0824 10.2715 25.4957 10.4351 25.8967C10.6838 26.0543 10.6502 26.2863 10.6197 26.5269C10.5967 26.7061 10.5933 26.8851 10.7182 27.0436C11.063 27.4857 11.3431 27.9618 11.5248 28.4967C11.628 28.7965 11.7103 29.1249 12.0228 29.3059C12.1036 29.5011 12.3088 29.5777 12.4326 29.7285C12.7729 30.1395 13.0326 30.6178 13.5225 30.8982C13.6556 30.9739 13.7551 31.1299 13.8338 31.2688C14.0012 31.5608 14.2537 31.7661 14.5176 31.9526C14.6846 32.0687 14.772 32.1996 14.7709 32.399C14.7712 32.469 14.791 32.5387 14.8042 32.6172C14.8785 32.6744 14.9506 32.7259 15.019 32.7851C15.1966 32.9448 15.4525 32.9662 15.6236 33.1444C15.7758 33.3016 15.9802 33.385 16.1761 33.4861C16.628 33.7145 17.1232 33.8577 17.5149 34.2018C17.5932 34.2707 17.7056 34.3341 17.8062 34.3413C18.1324 34.3675 18.4555 34.385 18.6899 34.6634C18.7079 34.6864 18.7597 34.6944 18.7928 34.691C19.1294 34.6499 19.4285 34.7883 19.7421 34.871C20.3027 35.0191 20.8558 35.1828 21.4006 35.3739C21.8148 35.5193 22.2287 35.6452 22.6583 35.3645C23.0745 35.7131 23.5446 35.7721 24.0475 35.6517C24.1562 35.6267 24.2684 35.6298 24.365 35.6857C24.5928 35.8165 24.8201 35.7712 25.0488 35.6929C25.1873 35.646 25.3276 35.5904 25.4722 35.6524C25.6718 35.7408 25.8717 35.6872 26.061 35.6454C26.4262 35.565 26.8153 35.5708 27.1548 35.3721C27.259 35.3113 27.3938 35.2723 27.5157 35.2704C27.8296 35.2666 28.1066 35.1175 28.4151 35.0847C28.7382 35.0516 28.9774 34.7543 29.3248 34.7714C29.5162 34.5789 29.8321 34.576 29.9923 34.3325C30.0842 34.1911 30.24 34.1284 30.3909 34.0658C30.8379 33.8802 31.2711 33.683 31.6212 33.3257C31.7972 33.1451 31.9873 32.9857 32.1255 32.7677L32.1316 32.7803Z" fill="#FF6600"/>
<path d="M20.336 43.4826C20.3582 43.214 20.3432 42.9371 20.5334 42.6814C20.5979 42.5822 20.6881 42.4544 20.6248 42.3037C20.5309 42.0854 20.5661 41.8855 20.6391 41.6725C20.6799 41.5571 20.69 41.4199 20.6701 41.2996C20.5783 40.774 20.7321 40.301 20.9545 39.8416C21.0193 39.7065 21.0606 39.5697 21.012 39.4236C20.9385 39.1982 20.8874 38.9763 20.9111 38.7348C20.922 38.6365 20.8614 38.5256 20.8166 38.4271C20.7453 38.2677 20.6291 38.2072 20.4661 38.2496C20.0585 38.353 19.6999 38.5714 19.349 38.7887C19.1515 38.9132 19.058 39.1237 19.1501 39.3556C19.2648 39.6466 19.1739 39.892 19.0223 40.1228C18.8981 40.3114 18.8394 40.5096 18.8408 40.7342C18.8408 40.8402 18.8039 40.9477 18.7961 41.0548C18.7761 41.3341 18.7007 41.5774 18.4891 41.7819C18.2928 41.9745 18.2625 42.2248 18.3445 42.488C18.3673 42.5567 18.39 42.6254 18.4098 42.6951C18.4421 42.8045 18.4483 42.923 18.3679 43.005C18.0944 43.2882 18.0566 43.6602 18.0252 44.0087C17.9574 44.7565 18.1593 44.9158 18.8434 44.9929C19.0779 45.0185 19.3138 44.9605 19.5282 44.8513C19.6566 44.7852 19.785 44.7142 19.9024 44.6307C20.1324 44.4688 20.3001 44.2649 20.3071 43.9624C20.3098 43.8 20.3263 43.6393 20.3379 43.4787L20.336 43.4826Z" fill="#FF6600"/>
<path d="M40.7561 40.2336C40.7755 40.0719 40.7626 39.9068 40.7908 39.747C40.8517 39.4077 40.7913 39.1042 40.5727 38.8382C40.4221 38.8142 40.2783 38.7911 40.1364 38.7641C39.9857 38.7353 39.8682 38.6574 39.8059 38.5095C39.6273 38.0893 39.3118 37.8539 38.8539 37.8249C38.7765 37.7035 38.7207 37.5877 38.6399 37.4937C38.5531 37.3919 38.3938 37.4215 38.293 37.354C38.0194 37.1676 37.6463 37.0877 37.553 36.6914C37.5275 36.5781 37.421 36.5174 37.3067 36.5036C36.7436 36.4315 36.3037 36.1173 35.8713 35.7874C35.7991 35.7311 35.7412 35.6601 35.6671 35.6077C35.5722 35.5382 35.4676 35.5291 35.3584 35.5803C35.2047 35.6536 35.0859 35.7604 35.0373 35.9274C34.9805 36.1169 34.9275 36.3083 34.8728 36.5085C34.8964 36.5703 34.925 36.637 34.9467 36.7028C35.0468 36.9939 35.1352 37.2843 35.4329 37.4557C35.5167 37.5031 35.5784 37.6218 35.6144 37.7184C35.7161 37.9911 35.9066 38.1136 36.1889 38.1356C36.3285 38.1471 36.5076 38.1269 36.5938 38.2549C36.7794 38.5292 37.0642 38.6318 37.3409 38.721C37.3725 38.7963 37.4007 38.8436 37.4124 38.8949C37.487 39.2292 37.7178 39.3687 38.0344 39.4047C38.0892 39.4116 38.1421 39.4225 38.1957 39.4217C38.417 39.4193 38.5732 39.5326 38.7011 39.695C38.78 39.793 38.8531 39.8979 38.9272 40.0008C39.0144 40.122 39.1186 40.2176 39.2685 40.2533C39.6378 40.341 40.0034 40.4415 40.3754 40.5185C40.5888 40.5629 40.7222 40.451 40.7483 40.2299L40.7561 40.2336Z" fill="#FF6600"/>
<path d="M30.7514 45.6505C30.8043 45.4591 30.8583 45.2706 30.9064 45.0793C30.9317 44.9758 30.8748 44.9077 30.7911 44.8603C30.7808 44.7807 30.7696 44.7031 30.7593 44.6236C30.8409 44.5037 30.821 44.3834 30.7449 44.2747C30.6106 44.0852 30.4909 43.8906 30.3789 43.6901C30.2628 43.4828 30.084 43.3105 29.9322 43.1222C30.0102 42.9693 29.9581 42.8408 29.8363 42.7415C29.7383 42.6633 29.626 42.6047 29.5213 42.5353C29.5211 42.475 29.5229 42.4157 29.5228 42.3554C29.6228 42.1818 29.6238 42.1798 29.4665 42.0636C29.4481 42.0162 29.4306 41.9669 29.4102 41.9186C29.4765 41.6133 29.4534 41.5757 29.1236 41.4611C29.0764 41.3374 29.0292 41.2136 28.982 41.0899C29.005 41.0166 29.0112 40.9329 28.9489 40.8911C28.779 40.776 28.6649 40.6202 28.567 40.4457C28.5256 40.3705 28.4476 40.3162 28.3958 40.2626C28.2019 40.2684 28.0369 40.3098 27.9181 40.4215C27.7716 40.5608 27.6046 40.6518 27.4259 40.7421C27.0743 40.9205 26.9663 41.2926 27.1265 41.6654C27.1652 41.7562 27.2393 41.8037 27.3323 41.8218C27.3672 42.0721 27.5703 42.2392 27.6497 42.4674C27.492 42.9482 27.5083 43.3943 27.965 43.7189C28.1706 43.8655 28.2344 44.0406 28.195 44.2794C28.1749 44.4022 28.1803 44.5324 28.1982 44.6566C28.214 44.7701 28.2858 44.8526 28.4128 44.8653C28.4133 44.839 28.4147 44.8108 28.4123 44.7856C28.4113 44.7321 28.4025 44.6797 28.3937 44.6273C28.4025 44.6797 28.4083 44.7331 28.4123 44.7856C28.4138 44.8128 28.4133 44.839 28.4128 44.8653C28.4373 44.9203 28.4617 44.9754 28.4842 45.0295C28.376 45.3413 28.4237 45.4942 28.7015 45.6417C28.9557 45.7778 29.2333 45.865 29.4356 46.0943C29.4984 46.1653 29.6285 46.1867 29.7322 46.2075C29.8918 46.2381 30.0558 46.2493 30.2179 46.2643C30.5579 46.2971 30.5819 46.2772 30.6588 45.9601C30.6841 45.8566 30.7212 45.754 30.7494 45.6495L30.7514 45.6505Z" fill="#FF6600"/>
<path d="M9.251 46.1184C9.06384 45.6218 9.11015 45.1383 9.22398 44.619C9.36676 43.9542 9.45551 43.2801 9.68511 42.6323C9.78544 42.349 9.89156 42.0828 10.1212 41.8769C10.1405 41.8599 10.1636 41.8448 10.1713 41.8241C10.4858 41.0252 11.2769 40.6551 11.8248 40.0678C11.9541 39.9299 12.1509 39.8468 12.3245 39.7524C12.5426 39.6334 12.7799 39.5466 12.9902 39.4144C13.3317 39.201 13.5825 38.9517 13.6346 38.4966C13.6771 38.1321 13.7118 37.7997 13.6423 37.4277C13.5536 36.9556 13.544 36.4533 13.8411 36.0076C13.9781 35.8017 14.0629 35.5827 13.9414 35.3164C13.8584 35.1294 13.9124 34.9179 14.0842 34.782C14.416 34.5195 14.5241 34.1418 14.6572 33.7754C14.8328 33.2938 15.0469 32.8312 15.3209 32.3912C15.6914 31.7963 16.1988 31.3223 16.7333 30.8898C16.9899 30.684 17.204 30.4687 17.3796 30.2024C17.5417 29.955 17.7115 29.7718 18.0472 29.6793C18.3771 29.5887 18.6781 29.3205 18.9289 29.0693C19.1084 28.8899 19.2627 28.7615 19.5174 28.6746C19.8917 28.5462 20.2351 28.3687 20.6538 28.4046C20.8834 28.4235 21.0744 28.263 21.2751 28.1704C21.5471 28.0439 21.8173 27.9211 22.1337 27.9589C22.6759 28.025 23.1775 27.9193 23.5923 27.5604C23.7583 27.602 23.9087 27.6832 24.0457 27.6643C24.4663 27.6058 24.8734 27.5718 25.2497 27.8192C25.6047 27.7814 25.9346 27.9079 26.2742 27.9476C26.5848 27.9835 26.8337 28.1251 27.0769 28.2214C27.4145 28.127 27.5187 27.872 27.6518 27.6379C27.8216 27.3395 28.0049 27.0506 28.1766 26.7522C28.3155 26.5105 28.5837 26.4085 28.7651 26.2008C29.149 25.7645 29.6044 25.3868 30.0308 24.9865C30.2874 24.7466 30.5594 24.5635 30.9472 24.5672C31.173 24.5691 31.283 24.3727 31.3023 24.1593C31.3274 23.8666 31.501 23.7325 31.7788 23.6815C31.9255 23.6551 32.0644 23.5947 32.2091 23.5607C32.6972 23.4455 33.1719 23.3114 33.5404 22.9375C33.6581 22.8166 33.824 22.7392 33.9745 22.6561C34.0575 22.6108 34.1887 22.539 34.2427 22.5692C34.5784 22.7619 34.8003 22.5145 35.0665 22.4068C35.4814 22.2406 35.9367 22.1991 36.3419 21.9951C36.4403 21.946 36.6043 21.9404 36.7027 21.9857C36.9825 22.1122 37.2352 22.0593 37.4957 21.9555C37.7774 21.8441 38.0706 21.8025 38.3736 21.7987C38.5472 21.7968 38.7324 21.7968 38.8887 21.7345C39.1762 21.6193 39.4 21.6892 39.6624 21.8233C39.9904 21.9895 40.3551 22.0839 40.7352 22.099C41.6632 22.1368 42.4659 22.5201 43.226 22.9979C43.4132 23.115 43.5656 23.2566 43.8087 23.2925C44.1425 23.3435 44.3895 23.5569 44.5573 23.8458C44.7156 24.1178 44.8313 24.3916 45.1632 24.554C45.3812 24.6617 45.5568 24.943 45.6475 25.1829C45.7787 25.5303 46.0276 25.7815 46.3015 25.9628C46.6392 26.1856 46.9228 26.4406 47.1466 26.7616C47.7428 26.8032 48.312 26.7994 48.8812 26.9014C49.2825 26.9731 49.7243 26.9977 50.1372 26.8296C50.3031 26.7616 50.4922 26.7711 50.635 26.8919C50.8414 27.0657 51.0768 27.1016 51.3334 27.094C51.4068 27.0921 51.4994 27.0846 51.5534 27.1223C52.0647 27.4811 52.7149 27.5453 53.2339 27.8947C53.4982 28.0722 53.7857 28.2365 54.1195 28.2686C54.2777 28.2837 54.3993 28.3593 54.515 28.4575C54.6077 28.5368 54.7041 28.6482 54.8141 28.6671C55.3312 28.7596 55.636 29.0882 55.8811 29.5075C56.0065 29.719 56.1782 29.8965 56.4232 29.989C56.4927 30.0155 56.5602 30.0513 56.62 30.0929C56.8728 30.2647 57.0117 30.531 57.2008 30.7539C57.3744 30.9578 57.7101 30.937 57.8857 31.175C57.9899 31.3147 58.1153 31.4375 58.1115 31.6225C58.0999 32.1891 58.4703 32.6159 58.6826 33.0993C58.7308 33.2089 58.8041 33.3165 58.889 33.4034C59.2344 33.7603 59.4042 34.1644 59.3251 34.6649C59.2942 34.8594 59.3347 35.0558 59.4717 35.2182C59.6145 35.3863 59.5971 35.56 59.5469 35.7658C59.4582 36.1228 59.6376 36.3872 60.0004 36.4608C60.2184 36.5042 60.4364 36.5477 60.6544 36.593C61.2931 36.729 61.7658 37.1218 62.2481 37.5014C62.4604 37.6675 62.634 37.8734 62.881 38.0093C63.0951 38.1264 63.2977 38.3021 63.3614 38.5494C63.4482 38.8913 63.6971 39.0952 63.975 39.2557C64.2837 39.4351 64.4399 39.6958 64.5017 40.0187C64.5634 40.3359 64.685 40.6173 64.8741 40.8836C65.1789 41.3123 65.3506 41.8089 65.4201 42.3113C65.478 42.7192 65.5995 43.0591 65.9121 43.3424C65.8831 43.45 65.8812 43.5596 65.8272 43.6294C65.6651 43.8391 65.5899 44.0411 65.7018 44.3055C65.8118 44.5661 65.7635 44.8324 65.6285 45.0835C65.5108 45.3026 65.4355 45.533 65.451 45.7861C65.4625 45.9636 65.4066 46.1222 65.2927 46.262C65.2464 46.3186 65.1924 46.3866 65.1886 46.4527C65.1596 46.9947 64.7853 47.3252 64.4342 47.6745C64.1911 47.9163 63.9074 48.124 63.7454 48.4412C63.7068 48.5187 63.6045 48.5942 63.5177 48.615C63.1144 48.7151 62.881 49.0002 62.7151 49.3345C62.5414 49.682 62.2829 49.9105 61.9356 50.088C61.6519 50.2334 61.403 50.4449 61.1426 50.6319C61.0017 50.7339 60.8705 50.8547 60.6814 50.849C60.4383 50.8415 60.2878 50.9699 60.1045 51.1172C59.846 51.3249 59.5026 51.4288 59.2074 51.6007C58.8196 51.8254 58.451 52.0784 57.9648 52.0256C57.8954 52.018 57.8105 52.0426 57.7507 52.0784C57.1526 52.4467 56.485 52.4486 55.8097 52.4599C55.2656 52.4694 54.7196 52.4542 54.1716 52.5789C53.7934 52.6658 53.3728 52.6374 52.9792 52.5864C52.684 52.5487 52.4101 52.4542 52.1052 52.5694C51.9335 52.6355 51.7695 52.5015 51.6171 52.4259C51.2042 52.222 50.8627 52.2824 50.5424 52.6204C50.1874 52.9981 49.7938 53.3399 49.433 53.712C49.2034 53.948 48.9275 54.1067 48.6323 54.2426C48.5184 54.2955 48.4027 54.3559 48.2753 54.3031C48.0862 54.2237 47.9396 54.2898 47.793 54.4031C47.5364 54.6014 47.1949 54.4504 46.9305 54.5882C46.6701 54.7242 46.4829 54.9735 46.1607 55.0207C45.7266 55.0849 45.3156 55.3002 44.8525 55.1227C44.6712 55.0528 44.4493 55.0962 44.2757 55.2076C43.9091 55.4418 43.529 55.4588 43.1392 55.2681C42.9733 55.3663 42.8286 55.4569 42.6781 55.5419C42.4543 55.6684 42.2285 55.7232 41.9642 55.6288C41.4799 55.455 40.9821 55.5343 40.4863 55.5929C40.3879 55.6042 40.276 55.6816 40.1988 55.6533C39.7029 55.4664 39.2264 55.6137 38.7324 55.6609C38.3504 55.6967 37.9491 55.5759 37.5632 55.4909C37.4301 55.4607 37.324 55.3247 37.2043 55.2379C36.9342 55.0396 36.6602 54.8998 36.3052 55.049C36.0891 55.1396 35.9155 55.0396 35.8055 54.845C35.6685 54.6014 35.4968 54.4239 35.1978 54.3522C34.7829 54.2521 34.3739 54.1539 33.9494 54.2691C33.8587 54.2936 33.7738 54.3597 33.7005 54.4239C33.388 54.7015 33.0079 54.8092 32.6008 54.8092C32.3171 54.8092 32.0567 54.8545 31.8078 54.9848C31.6283 55.0792 31.4315 55.1245 31.229 55.1113C30.9453 55.0924 30.6848 55.1604 30.4359 55.2869C30.2507 55.3795 30.0366 55.4361 29.8552 55.3625C29.5002 55.2209 29.1741 55.3436 28.8326 55.3776C28.5085 55.4097 28.2036 55.5155 27.8853 55.5683C27.1328 55.6911 26.4035 55.4758 25.6606 55.506C25.4272 55.5155 25.1783 55.3889 24.9506 55.2945C24.7191 55.2001 24.4721 55.1585 24.2425 55.0811C23.4515 54.8148 22.6122 54.6203 22.016 53.9782C21.8848 53.8366 21.7459 53.7705 21.5626 53.7743C21.3388 53.78 21.0976 53.7403 20.895 53.8102C20.5979 53.9121 20.3162 53.8649 20.1117 53.712C19.6756 53.3853 19.2145 53.4872 18.7495 53.5382C18.5778 53.5571 18.408 53.6081 18.2401 53.6515C17.5745 53.8291 16.9204 53.8725 16.276 53.559C15.9962 53.423 15.6798 53.4325 15.3942 53.5118C15.1125 53.5892 14.8637 53.6402 14.6244 53.4325C14.607 53.4174 14.582 53.4023 14.5588 53.3985C14.2636 53.3607 13.9588 53.3607 13.6771 53.2795C13.3992 53.2002 13.2449 52.8829 12.9014 52.8735C12.7394 52.8697 12.5522 52.781 12.4287 52.6714C12.1586 52.4316 11.8769 52.2692 11.4988 52.2748C11.4139 52.2748 11.2981 52.205 11.2479 52.1313C11.0338 51.8216 10.7038 51.6365 10.4453 51.374C10.2678 51.1927 10.1115 51.0096 10.1366 50.7357C10.154 50.5526 10.0652 50.409 9.95138 50.2712C9.84333 50.139 9.75456 49.9898 9.65038 49.8519C9.46708 49.6083 9.36097 49.3439 9.39184 49.0323C9.42464 48.7094 9.31658 48.4356 9.16609 48.1353C8.83809 47.4781 8.79566 46.7775 9.22978 46.1033L9.251 46.1184Z" fill="#A7BDC8"/>
</svg>
