<svg width="80" height="80" viewBox="0 0 80 80" fill="none" xmlns="http://www.w3.org/2000/svg">
<g clip-path="url(#clip0_797_35940)">
<g opacity="0.1" filter="url(#filter0_f_797_35940)">
<circle cx="40" cy="40" r="27" fill="#38ACBC"/>
</g>
<path d="M20.3773 22.3777L20.3783 22.3767C24.9036 17.8247 30.8771 14.9967 37.2662 14.3818L37.2681 14.3816C37.5129 14.3561 37.7449 14.2596 37.9354 14.1039C38.126 13.9482 38.2669 13.7402 38.3407 13.5054L38.3427 13.4993L38.3426 13.4993C38.4456 13.1393 38.6631 12.8227 38.9621 12.5973C39.2611 12.3719 39.6253 12.25 39.9997 12.25C40.3742 12.25 40.7384 12.3719 41.0374 12.5973C41.3364 12.8227 41.5538 13.1393 41.6569 13.4993L41.6587 13.5055L41.6587 13.5054C41.7326 13.7402 41.8734 13.9482 42.064 14.1039C42.2546 14.2596 42.4866 14.3561 42.7314 14.3816L42.7326 14.3817C49.576 15.059 55.9241 18.253 60.5463 23.3447C65.1686 28.4364 67.7356 35.0629 67.7497 41.9397L67.7498 41.9432C67.7545 42.243 67.6843 42.5393 67.5455 42.8052C67.407 43.0706 67.2046 43.2972 66.9565 43.4647C66.6204 43.6839 66.2192 43.781 65.82 43.7396C65.4202 43.6982 65.0469 43.5204 64.7628 43.2362L64.7627 43.2361C63.5009 41.9747 61.7901 41.2655 60.0059 41.264C58.2216 41.2626 56.5097 41.969 55.2458 43.2283L55.2438 43.2303C55.083 43.3941 54.8914 43.5246 54.68 43.6141C54.4686 43.7036 54.2416 43.7505 54.012 43.752C53.7824 43.7536 53.5548 43.7097 53.3422 43.623C53.1297 43.5363 52.9364 43.4085 52.7734 43.2468C52.7734 43.2468 52.7733 43.2468 52.7733 43.2467L52.5972 43.4242C51.2688 42.102 49.5098 41.3007 47.6403 41.1661C45.7709 41.0314 43.9152 41.5723 42.411 42.6904L20.3773 22.3777ZM20.3773 22.3777C17.7998 24.9412 15.7548 27.9891 14.3599 31.346C12.9651 34.703 12.2479 38.3026 12.2498 41.9378L12.2497 41.942C12.2447 42.2535 12.3207 42.561 12.4701 42.8344C12.6194 43.1073 12.8368 43.3369 13.1011 43.5007C13.4354 43.7006 13.8268 43.7833 14.2135 43.7356C14.6007 43.6879 14.9608 43.5121 15.2367 43.2362L15.2368 43.2361C16.5004 41.9736 18.2135 41.2644 19.9997 41.2644C21.7859 41.2644 23.4991 41.9736 24.7627 43.2361L24.586 43.4129L24.7627 43.2361C25.0909 43.5641 25.5358 43.7483 25.9997 43.7483C26.4637 43.7483 26.9086 43.5641 27.2368 43.2361L27.2375 43.2354C28.6092 41.8758 30.4228 41.0529 32.3493 40.9161C34.2758 40.7793 36.1876 41.3376 37.7376 42.4898L37.7387 42.4906C37.8974 42.6099 38.0262 42.7645 38.115 42.9421C38.2036 43.1198 38.2498 43.3156 38.2497 43.5142C38.2497 43.5142 38.2497 43.5142 38.2497 43.5143V61.8979C38.2497 65.124 40.8586 67.7897 44.0737 67.7492C45.5626 67.7283 46.9854 67.1313 48.0435 66.0837C49.1016 65.0362 49.7126 63.6195 49.7486 62.1311C49.7708 61.1308 49.0035 60.2664 48.0315 60.2492L48.0315 60.2492C47.799 60.2449 47.568 60.2871 47.352 60.3731L47.2595 60.1409L47.352 60.3732C47.136 60.4592 46.9393 60.5874 46.7735 60.7504C46.6076 60.9133 46.4758 61.1076 46.3859 61.3221C46.296 61.5365 46.2497 61.7666 46.2497 61.9992C46.2497 62.3043 46.1877 62.6061 46.0674 62.8865C45.9471 63.1668 45.7711 63.4198 45.55 63.63C45.3288 63.8402 45.0673 64.0032 44.7812 64.1092C44.4952 64.2151 44.1905 64.2618 43.8858 64.2464L43.8857 64.2464C42.6702 64.1841 41.7497 63.1408 41.7497 61.9417V43.5143L20.3773 22.3777Z" fill="url(#paint0_linear_797_35940)" stroke="#D7EDF0" stroke-width="0.5"/>
</g>
<defs>
<filter id="filter0_f_797_35940" x="-10.4" y="-10.4" width="100.8" height="100.8" filterUnits="userSpaceOnUse" color-interpolation-filters="sRGB">
<feFlood flood-opacity="0" result="BackgroundImageFix"/>
<feBlend mode="normal" in="SourceGraphic" in2="BackgroundImageFix" result="shape"/>
<feGaussianBlur stdDeviation="11.7" result="effect1_foregroundBlur_797_35940"/>
</filter>
<linearGradient id="paint0_linear_797_35940" x1="25" y1="21.5001" x2="68" y2="66.5001" gradientUnits="userSpaceOnUse">
<stop stop-color="#38ACBC"/>
<stop offset="1" stop-color="#ACD9DF"/>
</linearGradient>
<clipPath id="clip0_797_35940">
<rect width="80" height="80" fill="white"/>
</clipPath>
</defs>
</svg>
