<svg width="80" height="80" viewBox="0 0 80 80" fill="none" xmlns="http://www.w3.org/2000/svg">
<g clip-path="url(#clip0_797_35940)">
<g opacity="0.1" filter="url(#filter0_f_797_35940)">
<circle cx="40" cy="40" r="27" fill="#38ACBC"/>
</g>
<path d="M40 12.25C39.6724 12.25 39.3523 12.3433 39.0771 12.5176L38.9619 12.5977C38.7005 12.7948 38.5014 13.0616 38.3867 13.3662L38.3428 13.499L38.3408 13.5059C38.2854 13.6818 38.1918 13.8424 38.0684 13.9775L37.9355 14.1035C37.7927 14.2202 37.6265 14.3044 37.4492 14.3496L37.2686 14.3818H37.2666C31.0771 14.9776 25.2772 17.6501 20.8066 21.9551L20.3779 22.377L20.377 22.3779C17.9606 24.7812 16.0123 27.6104 14.6289 30.7207L14.3604 31.3457C13.0526 34.4929 12.3402 37.8537 12.2578 41.2568L12.25 41.9375V41.9424C12.2457 42.2149 12.3033 42.4843 12.418 42.7305L12.4697 42.834C12.6187 43.1064 12.8359 43.3362 13.0996 43.5C13.3924 43.6755 13.7293 43.7605 14.0684 43.7471L14.2139 43.7354C14.5526 43.6935 14.8709 43.5541 15.1299 43.335L15.2363 43.2363C16.4999 41.9738 18.2138 41.2646 20 41.2646C21.6745 41.2647 23.2847 41.8878 24.5205 43.0059L24.7627 43.2363C25.0908 43.5642 25.5361 43.748 26 43.748C26.4058 43.748 26.7971 43.6074 27.1084 43.3525L27.2363 43.2363L27.2373 43.2354L27.5 42.9863C28.7473 41.8561 30.3173 41.1445 31.9893 40.9502L32.3496 40.916C34.1554 40.7879 35.9483 41.2704 37.4424 42.2803L37.7373 42.4902H37.7383C37.8574 42.5797 37.9599 42.6894 38.041 42.8135L38.1152 42.9424C38.2038 43.12 38.2501 43.3162 38.25 43.5146V61.8984C38.2503 65.1244 40.8591 67.7887 44.0742 67.748C45.4699 67.7283 46.8073 67.2032 47.8408 66.2744L48.0439 66.084C49.0358 65.1019 49.6348 63.7951 49.7354 62.4092L49.749 62.1309C49.7697 61.1931 49.0961 60.3744 48.2109 60.2617L48.0312 60.249C47.857 60.2459 47.6835 60.2685 47.5166 60.3164L47.3516 60.373C47.1897 60.4376 47.0387 60.526 46.9033 60.6348L46.7734 60.75C46.649 60.8722 46.5437 61.0123 46.4609 61.165L46.3857 61.3223C46.2959 61.5366 46.25 61.7666 46.25 61.999L46.2383 62.2275C46.2229 62.3787 46.192 62.5279 46.1465 62.6729L46.0674 62.8867C45.9471 63.167 45.7709 63.4197 45.5498 63.6299C45.384 63.7875 45.1958 63.9191 44.9912 64.0195L44.7812 64.1094C44.5668 64.1888 44.3418 64.2345 44.1143 64.2461H43.8857C42.6703 64.1838 41.75 63.1405 41.75 61.9414V43.5146L41.7578 43.3662C41.7692 43.2679 41.7925 43.1712 41.8262 43.0781L41.8848 42.9424C41.9512 42.8092 42.0402 42.689 42.1475 42.5869L42.2607 42.4902H42.2617C43.717 41.4085 45.4912 40.8495 47.2969 40.8984L47.6582 40.917C49.4668 41.0473 51.1756 41.7815 52.5117 42.9971L52.7734 43.2471C52.9363 43.4085 53.1295 43.5364 53.3418 43.623C53.5543 43.7097 53.7822 43.7534 54.0117 43.752L54.1836 43.7422C54.2973 43.7302 54.4094 43.7068 54.5186 43.6729L54.6797 43.6143C54.8382 43.5471 54.9856 43.4566 55.1172 43.3467L55.2441 43.2305L55.2461 43.2285L55.4883 42.999C56.6418 41.9582 58.12 41.3482 59.6719 41.2725L60.0059 41.2637C61.6784 41.265 63.2863 41.8888 64.5205 43.0059L64.7627 43.2363C65.0114 43.4851 65.3286 43.6522 65.6719 43.7178L65.8203 43.7393C66.1701 43.7755 66.5214 43.7055 66.8291 43.54L66.958 43.4639C67.2054 43.2966 67.4076 43.0704 67.5459 42.8057C67.65 42.6063 67.715 42.3893 67.7393 42.167L67.75 41.9434V41.9395C67.7362 35.2776 65.3266 28.8504 60.9736 23.8262L60.5459 23.3447C56.0682 18.4124 49.9712 15.2601 43.373 14.4521L42.7324 14.3818H42.7314C42.5477 14.3627 42.3711 14.3032 42.2139 14.209L42.0645 14.1035C41.874 13.9479 41.733 13.7404 41.6592 13.5059L41.8975 13.4307L41.6582 13.5059L41.6572 13.499C41.567 13.184 41.3889 12.9021 41.1455 12.6855L41.0371 12.5977C40.7382 12.3723 40.3743 12.2501 40 12.25Z" fill="url(#paint0_linear_797_35940)" stroke="#D7EDF0" stroke-width="0.5"/>
</g>
<defs>
<filter id="filter0_f_797_35940" x="-10.4" y="-10.4" width="100.8" height="100.8" filterUnits="userSpaceOnUse" color-interpolation-filters="sRGB">
<feFlood flood-opacity="0" result="BackgroundImageFix"/>
<feBlend mode="normal" in="SourceGraphic" in2="BackgroundImageFix" result="shape"/>
<feGaussianBlur stdDeviation="11.7" result="effect1_foregroundBlur_797_35940"/>
</filter>
<linearGradient id="paint0_linear_797_35940" x1="25" y1="21.5001" x2="68" y2="66.5001" gradientUnits="userSpaceOnUse">
<stop stop-color="#38ACBC"/>
<stop offset="1" stop-color="#ACD9DF"/>
</linearGradient>
<clipPath id="clip0_797_35940">
<rect width="80" height="80" fill="white"/>
</clipPath>
</defs>
</svg>
