<svg width="52" height="60" viewBox="0 0 52 60" fill="none" xmlns="http://www.w3.org/2000/svg">
<path d="M51.9509 33.0536C51.8466 32.608 51.6421 32.2417 51.3608 31.8892C51.469 31.6259 51.5673 31.3843 51.6499 31.1863C51.5378 30.6991 51.1819 30.3605 51.174 29.8991C51.1681 29.5942 51.0501 29.3249 50.9714 29.0417C50.7826 28.3605 50.5997 27.6813 50.6311 26.9625C50.639 26.7903 50.6528 26.5427 50.5525 26.4556C50.1394 26.0952 50.1512 25.5546 49.9172 25.1229C49.7697 24.8517 49.7323 24.5685 49.7559 24.2675C49.7815 23.9348 49.6792 23.6537 49.5297 23.3467C49.1363 22.5368 48.7056 21.7289 48.682 20.7883C48.68 20.6834 48.6073 20.5566 48.5305 20.4794C48.0841 20.0458 48.1116 19.3032 47.5334 18.9547C47.4803 18.923 47.4802 18.7923 47.4665 18.7052C47.4271 18.4497 47.2639 18.2854 47.0711 18.1448C46.9295 18.0418 46.7545 17.9844 46.6325 17.7507C46.7014 17.226 46.3808 16.824 45.9697 16.4616C45.7966 16.3072 45.6019 16.1527 45.5508 15.9072C45.4721 15.527 45.2203 15.2577 44.9076 15.1072C44.5595 14.9389 44.5064 14.626 44.3707 14.3428C44.2173 14.024 43.7944 14.0656 43.6233 13.7706C43.6095 13.7448 43.6016 13.7151 43.5918 13.6874C43.4305 13.224 43.0903 13.0656 42.6281 13.0973C42.512 13.1052 42.3921 13.0973 42.274 12.9686C42.2347 12.8379 42.2052 12.6597 42.1304 12.5052C41.9633 12.1567 41.7764 12.0557 41.3595 12.133C41.1687 12.1686 41.031 12.1429 40.8697 12.0458C40.5177 11.834 40.1538 11.6379 39.7171 11.7191L39.6857 11.6953C39.6385 11.4379 39.5972 11.1765 39.5401 10.9211C39.4536 10.5369 39.2333 10.2755 38.8222 10.2696C38.5036 10.2656 38.2597 10.1468 38.0552 9.90922C37.8762 9.7013 37.6638 9.56665 37.3727 9.55675C37.2645 9.55278 37.1465 9.4914 37.054 9.42605C36.3204 8.89734 35.3881 8.91516 34.6053 8.52705C34.5325 8.49141 34.4322 8.51319 34.3437 8.5013C33.8914 8.44388 33.439 8.35873 33.0377 8.45972C32.9433 8.37259 32.8922 8.34091 32.8607 8.29339C32.5873 7.87953 32.2589 7.64983 31.7534 7.90527C31.5842 7.99042 31.4132 7.95676 31.2578 7.84191C31.1181 7.73696 30.9883 7.60626 30.7523 7.65379C30.707 7.67953 30.6264 7.71517 30.5576 7.76666C30.4651 7.83795 30.3825 7.92508 30.292 7.99834C30.1131 8.14488 29.9203 8.15478 29.7217 8.03993C29.1493 7.7132 28.5573 7.57458 27.8945 7.76468C27.5326 7.86765 27.2848 7.65775 27.2257 7.25973C27.1943 7.05577 27.1884 6.85181 27.1097 6.65577C26.9818 6.33697 26.9897 6.01024 27.1746 5.71915C27.4067 5.3548 27.3595 4.99836 27.21 4.62807C27.1549 4.49144 27.1136 4.34887 27.0645 4.21025C26.8481 3.61224 26.8127 3.0063 26.9641 2.38453C27.0192 2.15879 27.0448 1.91918 27.0487 1.68552C27.0605 1.04196 26.8324 0.731071 26.2128 0.505331C25.7742 0.344936 25.3061 0.283552 24.8852 0.0558315C24.6571 -0.06892 24.421 0.0241488 24.2755 0.247909C24.1988 0.36672 24.1516 0.511271 24.1103 0.647904C23.886 1.37463 23.9942 2.18056 23.6009 2.86967C23.5753 2.91521 23.5812 2.9865 23.5851 3.04392C23.6559 4.03996 23.652 5.04985 23.831 6.02608C23.9451 6.64984 23.9234 7.17261 23.6009 7.75082C23.1603 7.5528 22.7492 7.58448 22.4148 7.98646C22.0077 7.74289 21.636 7.5231 21.1698 7.7429C21.044 7.8023 20.8374 7.69141 20.6526 7.65577C20.389 7.84587 20.1904 8.16665 19.8658 8.21022C19.2797 8.28745 18.7998 8.69339 18.194 8.69735C17.9344 8.69735 17.7711 8.87754 17.7161 9.13892L17.7043 9.1508C17.0729 9.5508 16.4494 9.93298 15.6489 9.9211C15.2339 9.91516 14.8523 10.1112 14.7402 10.6003C14.7048 10.7508 14.6026 10.8835 14.457 10.9132C13.8689 11.0379 13.4697 11.5429 12.8934 11.6894C12.7872 11.7171 12.6534 11.7805 12.6042 11.8676C12.4567 12.127 12.1971 12.1785 11.965 12.2934C11.2275 12.6557 10.5509 13.0874 10.0788 13.8023C9.89002 14.0894 9.63237 14.3409 9.2272 14.3527C8.93217 14.3607 8.68827 14.5765 8.6686 14.8339C8.6214 15.3983 8.20444 15.6894 7.92515 16.0993C7.29183 16.0418 6.98696 16.3408 6.75881 16.925C6.55229 17.4517 6.35364 18.0379 5.87767 18.4141C5.44693 18.7527 5.36629 19.1725 5.48627 19.6695C5.45873 19.7131 5.42922 19.7547 5.40365 19.7982C5.32498 19.8339 5.19713 19.8497 5.17746 19.9072C4.92767 20.5903 4.46547 21.1131 3.95015 21.6002C3.77117 21.7685 3.66498 21.9705 3.66891 22.224C3.67284 22.5131 3.5745 22.7329 3.30308 22.8695C3.01592 23.0141 2.85267 23.3012 2.8507 23.5863C2.84873 24.0675 2.62648 24.5012 2.63238 24.9725C2.63632 25.2536 2.54976 25.4834 2.37471 25.6992C2.14459 25.9863 2.05019 26.3309 2.1092 26.6952C2.2036 27.2714 1.94595 27.7229 1.64109 28.1625C1.59192 28.2338 1.53094 28.3031 1.46604 28.3605C1.03136 28.7506 1.3972 29.4239 0.9586 29.818C0.907462 29.8635 0.885834 30.0021 0.917304 30.0655C1.08645 30.418 0.999906 30.7447 0.887796 31.0892C0.824858 31.2853 0.877961 31.4952 0.960569 31.6912C1.15529 32.1546 1.05695 32.5506 0.66948 32.8754C0.429526 33.0773 0.346906 33.3387 0.337072 33.6556C0.315437 34.3268 0.0794293 34.9763 0.154169 35.6615C0.167937 35.7961 0.0735317 35.9407 0.0341949 36.0813C-0.0228435 36.2892 -0.0189156 36.4951 0.126631 36.6674C0.362651 36.9446 0.396083 37.2456 0.244636 37.5704C0.148261 37.7803 0.189574 37.9783 0.303651 38.1585C0.490501 38.4555 0.683247 38.7506 0.889765 39.0337C0.995975 39.1783 1.15134 39.2892 1.34016 39.2674C1.76106 39.2179 2.15049 39.107 2.2508 38.604C2.29604 38.5822 2.33932 38.5585 2.38259 38.5308C2.62254 38.5902 2.81333 38.4892 2.87233 38.2714C2.95494 37.9605 3.12213 37.7565 3.39945 37.61C3.60991 37.4991 3.74167 37.2951 3.85378 37.0833C3.96786 36.8674 4.15078 36.7248 4.37106 36.6219C4.58348 36.5229 4.78214 36.3902 4.99456 36.2951C5.59051 36.0298 6.14318 35.713 6.55819 35.1862C6.80601 34.8734 7.13055 34.7862 7.50425 34.9308C7.79927 35.0437 8.06872 35.0476 8.33228 34.8417C8.41685 34.7763 8.56633 34.713 8.65091 34.7447C9.06394 34.8971 9.45141 34.8496 9.85067 34.6991C9.95098 34.6615 10.0985 34.6635 10.1949 34.711C10.5745 34.8912 10.9265 34.7763 11.3042 34.6932C11.55 34.6397 11.7998 34.4813 12.142 34.614C12.4135 34.8694 12.7301 35.21 13.212 35.1922C13.568 35.1783 13.8217 35.2892 14.0381 35.5783C14.1699 35.7565 14.3842 35.7941 14.5731 35.604C14.6753 35.6179 14.7796 35.6318 14.8819 35.6456C15.1002 36.0892 15.2654 36.5605 15.6056 36.9347C15.6509 37.5446 16.1524 37.9605 16.2724 38.5426C16.3117 38.7367 16.418 38.9327 16.6146 39.0357C16.8723 39.1704 17.1201 39.3506 17.3955 39.4139C17.9934 39.5545 18.5579 39.4714 18.9886 38.9644C19.0929 38.8436 19.1145 38.705 19.0712 38.5545C19.1027 38.5149 19.1302 38.4733 19.1578 38.4298C19.7439 38.4258 20.031 37.9862 20.3103 37.5783C20.4736 37.3387 20.6545 37.208 20.9201 37.1228C21.2485 37.0159 21.5907 36.9328 21.8445 36.6436C22.0962 36.3565 22.3559 36.0496 22.6745 35.8595C23.0167 35.6555 23.4337 35.5763 23.8192 35.4437C23.9352 35.4041 24.0473 35.4159 24.2066 35.5011C24.2499 36.0318 24.6452 36.5565 24.3286 37.1664C24.2853 37.2496 24.3306 37.4001 24.3738 37.505C24.4761 37.7605 24.4643 38.0258 24.4682 38.2912C24.4741 38.7624 24.4918 39.2258 24.5921 39.6951C24.6964 40.1763 24.7475 40.6892 24.3935 41.1367C24.3129 41.2377 24.2892 41.4198 24.303 41.5585C24.36 42.1684 24.0218 42.7683 24.2716 43.3862C24.3089 43.4772 24.2283 43.6119 24.2165 43.7287C24.2047 43.8436 24.1771 43.9683 24.2086 44.0713C24.3581 44.5466 24.2637 45.0713 24.5508 45.5228C24.6964 45.7525 24.6669 46.0356 24.4977 46.2753C24.4132 46.396 24.3247 46.5149 24.3247 46.7386C24.3679 46.8139 24.4328 46.9445 24.5115 47.0653C24.5961 47.196 24.6374 47.3307 24.6059 47.4832C24.4407 48.2574 24.4092 49.0554 24.1398 49.8455C24.6138 50.4376 24.4879 51.1049 24.2971 51.7841C24.7633 52.1782 24.9659 52.6277 24.6669 53.1999C24.6295 53.2712 24.6453 53.3742 24.6433 53.4633C24.6433 54.3782 24.6413 55.293 24.6433 56.2098C24.6433 56.3266 24.6354 56.4712 24.6964 56.5524C24.9521 56.8871 25.0052 57.3187 25.2333 57.6593C25.4123 57.9266 25.6011 58.2534 25.9571 58.2455C26.4646 58.2336 26.7655 58.5167 27.0723 58.8454C27.3359 59.1286 27.6624 59.39 28.0184 59.4553C28.4373 59.5326 28.7933 59.685 29.1434 59.9009C29.3303 60.0177 29.5466 60.0415 29.7295 59.9167C30.1131 59.6494 30.5654 59.6454 30.9922 59.5801C31.4643 59.5068 31.9009 59.3563 32.2962 59.1167C32.8765 58.7662 33.4469 58.3821 33.4174 57.5702L33.5944 57.392C34.1294 57.2791 34.3555 56.792 34.7076 56.4554C34.6781 55.9029 35.3429 55.5069 35.0557 54.893C35.0026 54.7782 35.0026 54.6395 35.0872 54.5603C35.6301 54.0494 35.0597 53.4336 35.2485 52.891C35.2662 52.8396 35.1718 52.7386 35.1147 52.6752C34.5739 52.091 33.8855 51.8079 33.1145 51.7306C32.6621 51.6851 32.5146 51.8178 32.3887 52.2891C32.2825 52.6871 32.192 53.095 31.958 53.4356C31.7672 53.7128 31.657 53.99 31.6669 54.3326C31.6787 54.7029 31.5252 55.0118 31.1869 55.2574C30.9214 55.1742 30.6441 55.093 30.3707 54.9979C30.2527 54.9583 30.1445 54.9564 30.0324 54.9999C29.9242 54.994 29.818 54.9861 29.7099 54.9782C29.645 54.79 29.5092 54.7524 29.3322 54.794C29.2673 54.7247 29.2004 54.6554 29.1355 54.5841C29.2004 54.3049 29.0175 54.1524 28.8405 53.99C28.693 53.8534 28.4216 53.9148 28.337 53.6237C28.4393 53.3227 28.6124 52.9168 28.4176 52.6376C28.1029 52.1861 28.1679 51.7722 28.276 51.3089C28.3154 51.1425 28.3134 50.9445 28.2662 50.7821C28.1482 50.3802 28.1619 49.9643 28.0892 49.5643C28.0184 49.1703 28.0046 48.8119 28.1561 48.4495C28.2524 48.2198 28.2406 48.0099 28.1797 47.7663C28.0794 47.3703 27.9417 46.9386 28.0105 46.5564C28.1364 45.8654 28.0203 45.1366 28.3468 44.4753C28.5553 44.0515 28.5376 43.6218 28.221 43.2297C28.0793 43.0555 28.0951 42.8436 28.1423 42.6357C28.276 42.0436 28.5121 41.4614 28.3095 40.8337C28.2859 40.7624 28.3331 40.6614 28.3587 40.5783C28.5416 39.9703 28.5081 39.3407 28.4275 38.7347C28.3803 38.3783 28.3842 38.0436 28.4393 37.6991C28.2741 37.4773 28.1187 37.2694 27.9889 37.0951C27.9712 36.8456 28.1344 36.7308 28.2033 36.5724C28.3134 36.3149 28.2957 36.0536 28.2072 35.7942C28.1423 35.608 28.1521 35.4417 28.3213 35.3229C28.457 35.2258 28.5966 35.2635 28.7264 35.3545C29.0746 35.5941 29.4601 35.7248 29.879 35.7229C30.235 35.7209 30.4317 35.9031 30.6795 36.1506C31.0965 36.5644 31.3482 37.2436 32.0681 37.1941C32.3572 37.7506 32.373 37.7327 33.0751 38.311C33.4213 38.5961 33.7458 38.608 34.1313 38.4694C34.7273 38.2555 35.0813 37.7981 35.3173 37.2496C35.4668 36.903 35.6713 36.6179 36.0116 36.4991C36.4128 36.3605 36.7354 36.1149 37.0501 35.8575C37.2389 35.7031 37.4218 35.5922 37.6736 35.5704C37.8742 35.5526 38.065 35.4615 38.2656 35.4258C38.8891 35.313 39.4339 34.911 40.1125 34.9704C40.3268 34.9882 40.553 34.8951 40.7891 34.9882C40.9779 35.0635 41.1982 35.0694 41.3929 34.9922C41.5955 34.911 41.7843 34.9704 41.9849 34.9803C42.8169 35.0159 43.521 35.5149 44.3373 35.5961C44.3923 35.6021 44.4552 35.6338 44.4926 35.6734C44.8604 36.0773 45.3325 36.2793 45.8478 36.4179C46.0051 36.4615 46.1448 36.6021 46.2726 36.7189C46.4929 36.9229 46.7565 37.0496 47.0181 37.1842C47.1774 37.2674 47.3406 37.309 47.5216 37.2318C47.9012 37.0694 48.1864 37.2298 48.4676 37.4932C48.7646 37.7724 49.097 38.0179 49.4274 38.2595C49.7087 38.4654 50.045 38.4595 50.3282 38.2595C50.5682 38.0912 50.8003 37.9149 51.0304 37.7347C51.1956 37.606 51.351 37.4516 51.3412 37.2258C51.3176 36.711 51.4965 36.2397 51.6185 35.7565C51.6617 35.5823 51.7345 35.3961 51.6598 35.2377C51.4493 34.7961 51.6539 34.4377 51.8407 34.0694C52.0059 33.7447 52.0414 33.4357 51.9529 33.0536H51.9509Z" fill="#38ACBC"/>
</svg>
