<svg width="60" height="55" viewBox="0 0 60 55" fill="none" xmlns="http://www.w3.org/2000/svg">
<path d="M28.1534 25.4359C28.1534 24.9295 28.1477 24.5365 28.1534 24.1435C28.1591 23.7788 28.1326 23.4142 28.2516 23.0552C28.3027 22.9002 28.3216 22.7151 28.2913 22.5564C28.229 22.2238 28.1213 21.9045 28.2819 21.5682C28.3121 21.5039 28.2913 21.3962 28.2592 21.3225C28.091 20.9144 28.1496 20.4893 28.1439 20.0698C28.1402 19.7902 28.1591 19.5124 28.074 19.2328C27.9739 18.9021 27.8756 18.579 27.5431 18.4109C27.3258 18.3013 27.22 18.0934 27.1047 17.9083C26.9158 17.6041 26.8081 17.2451 26.4812 17.0372C26.4397 17.0108 26.4 16.9428 26.3981 16.8936C26.3773 16.1926 25.7632 15.8733 25.3986 15.4104C25.0679 14.991 24.7297 14.5866 24.4557 14.1256C24.2989 13.8629 24.1175 13.5984 23.8946 13.3925C23.4789 13.007 23.169 12.5346 22.827 12.0963C22.5852 11.7864 22.3357 11.4841 22.0731 11.1931C21.9012 11.0004 21.8615 10.7963 22.024 10.5847C22.1487 10.4241 22.2432 10.2541 22.228 10.0462C22.2016 9.69101 22.4057 9.45294 22.6551 9.26399C23.1425 8.89177 23.7075 8.73495 24.3197 8.78407C24.5483 8.80108 24.7883 8.88043 24.8903 9.09583C25.1756 9.70423 25.7028 10.0991 26.143 10.5677C26.3735 10.8134 26.6437 11.0325 26.6305 11.4199C26.6286 11.4728 26.6456 11.5427 26.6815 11.5767C27.152 12.0415 27.4278 12.6915 27.9928 13.0354C28.1421 12.9957 28.1307 12.9069 28.1496 12.8275C28.2535 12.3835 27.9663 11.9603 28.1043 11.5011C28.2271 11.093 28.1553 10.6622 28.057 10.2503C28.006 10.0387 28.0854 9.85539 28.1572 9.67778C28.3461 9.20731 28.3499 8.75384 28.1439 8.28525C27.8964 7.72219 27.9871 7.12512 28.0136 6.5375C28.0192 6.39957 28.1175 6.23707 28.0703 6.13126C27.7868 5.48695 28.314 5.08451 28.5162 4.59514C28.6069 4.37407 28.8487 4.17944 29.1246 4.19456C29.5951 4.22101 29.9994 4.01696 30.4132 3.86958C30.7268 3.95083 30.9649 4.14922 31.2786 4.21724C31.715 4.30983 31.9663 4.68582 32.1213 5.09205C32.4122 5.8554 32.5067 6.62064 32.0362 7.3802C32.2724 7.84501 32.4198 8.30982 32.2063 8.8332C32.1269 9.0297 32.1779 9.27911 32.1761 9.50395C32.1742 10.1237 32.1723 10.7434 32.1761 11.3632C32.1761 11.503 32.1591 11.6598 32.212 11.7808C32.3669 12.1416 32.3461 12.4874 32.212 12.8464C32.1855 12.9182 32.2233 13.0108 32.3669 13.0883C32.6201 12.9749 32.7372 12.665 32.9602 12.4742C33.2001 12.2701 33.374 12.0396 33.4099 11.6957C33.442 11.384 33.6612 11.1686 33.8974 10.9418C34.3773 10.4808 34.895 10.0217 35.0839 9.34146C35.1633 9.05804 35.356 8.89932 35.6092 8.8502C36.1307 8.74817 36.6201 8.7236 37.1529 8.99191C37.8029 9.31878 38.0806 9.85728 38.3527 10.4468C38.4604 10.6811 38.4113 10.8833 38.2374 11.0647C38.1203 11.1856 37.9975 11.3046 37.8879 11.4312C37.7972 11.537 37.6593 11.6504 37.6498 11.7694C37.5856 12.4893 37.0452 12.8918 36.6087 13.3509C36.1817 13.8006 35.8643 14.3145 35.5242 14.8247C35.2559 15.2271 35.0499 15.7165 34.6021 15.981C34.3697 16.119 34.2205 16.3117 34.1222 16.5498C33.9144 17.058 33.5913 17.485 33.1642 17.8176C32.6957 18.1841 32.5596 18.7566 32.2327 19.2101C32.1609 19.3084 32.1836 19.4822 32.1836 19.622C32.1779 20.2134 32.1798 20.8048 32.1836 21.3981C32.1836 21.5379 32.1742 21.6891 32.2233 21.8138C32.3215 22.0651 32.28 22.2956 32.2479 22.5526C32.1383 23.418 32.142 24.289 32.2479 25.1581C32.2516 25.1827 32.2781 25.2035 32.297 25.2281C32.5275 25.3169 32.7259 25.1336 32.9507 25.1487C33.2304 25.1695 33.4363 25.0542 33.5686 24.7973C33.6177 24.7009 33.6952 24.5875 33.7878 24.5516C34.5983 24.2285 35.1614 23.486 36.0154 23.2366C36.4519 22.7906 37.0905 22.6376 37.5138 22.1577C37.9899 21.6154 38.4339 21.0845 38.2979 20.3457C38.4207 20.0283 38.7665 19.9697 38.8269 19.6485C38.9365 19.076 39.1198 18.5224 39.3088 17.9706C39.3749 17.7798 39.4108 17.6079 39.5827 17.4794C39.9115 17.2319 40.108 16.9069 40.1571 16.4855C40.176 16.3249 40.2611 16.1662 40.3366 16.0188C40.4406 15.8148 40.5105 15.6088 40.5105 15.3745C40.5105 14.8814 40.7315 14.4846 40.9809 14.0576C41.2851 13.5361 41.7462 13.1752 42.0863 12.7047C42.1921 12.5573 42.3395 12.4874 42.519 12.478C42.7438 12.4685 42.9668 12.4591 43.1822 12.5592C43.5619 12.7368 43.9512 12.8918 44.3234 13.0807C44.5275 13.1846 44.6692 13.3641 44.7051 13.6098C44.7485 13.914 44.7976 14.2163 44.8505 14.5507C44.4821 14.9324 44.2251 15.3896 44.1741 15.9432C44.1722 15.9716 44.1685 16.0018 44.1571 16.0264C43.9965 16.3722 43.6413 16.6008 43.6545 17.0618C43.6659 17.4473 43.3069 17.7477 43.254 18.1501C43.2351 18.2918 43.0423 18.4052 42.9516 18.545C42.8232 18.7472 42.7967 18.9588 42.9989 19.2026C43.3428 19.0382 43.6715 18.8511 43.9493 18.5696C44.0645 18.4524 44.2081 18.307 44.3555 18.2862C44.7636 18.2276 45.0735 18.0065 45.4193 17.8138C45.7159 17.6475 45.9597 17.4737 46.2053 17.2318C46.5114 16.9314 46.9309 16.7085 47.3409 16.5573C48.0891 16.2796 48.7599 15.8903 49.406 15.3745C49.7991 15.3462 50.2809 15.7675 50.5435 15.2328C50.8269 15.2593 50.9384 15.3972 51.0555 15.5124C51.6885 16.1303 52.0853 16.9012 52.4311 17.6985C52.5066 17.8705 52.4178 18.0689 52.2459 18.118C51.8945 18.2219 51.7301 18.5016 51.4939 18.7378C51.0196 19.2101 50.4679 19.6088 49.8349 19.8676C49.68 19.9319 49.4684 19.9508 49.3796 20.0642C48.8146 20.784 47.8605 20.9012 47.218 21.4964C47.1236 21.5833 46.9573 21.5927 46.8288 21.6456C46.672 21.7099 46.5227 21.793 46.3659 21.8497C46.0447 21.9668 45.9672 22.3901 45.5704 22.4373C45.27 22.4732 44.979 22.6055 44.6881 22.7075C44.6181 22.7321 44.518 22.7623 44.5501 22.9343C44.8751 23.0042 45.2303 22.9418 45.5799 22.9569C46.0296 22.9777 46.483 22.9475 46.8931 23.195C47.0914 23.3159 47.3314 23.3273 47.5525 23.2989C48.2421 23.2101 48.8864 23.4501 49.5496 23.5427C49.7424 23.5691 49.9313 23.6352 50.1259 23.6541C50.5133 23.69 50.7683 23.947 50.8855 24.2493C51.0215 24.597 51.1878 24.9919 50.9346 25.3754C50.8042 25.5719 50.8288 25.8119 50.7551 26.0197C50.5983 26.4619 50.3753 26.8095 49.8142 26.8454C49.4268 26.87 49.0527 26.9966 48.6635 26.8341C48.5671 26.7944 48.4405 26.8228 48.3291 26.8246C47.3975 26.8511 46.4925 26.6527 45.5761 26.5242C45.0225 26.4468 44.4575 26.4562 43.9115 26.3107C43.1123 26.0953 42.2922 26.1785 41.4816 26.1407C41.2587 26.1293 41.0168 26.1803 40.826 26.0311C40.2875 25.6097 39.7282 25.8043 39.2313 26.0443C38.8629 26.2219 38.4415 26.3409 38.1467 26.6716C38.0409 26.7906 37.8709 26.8776 37.7122 26.9229C37.1548 27.0778 36.7013 27.4066 36.2459 27.7392C35.7415 28.1057 35.1841 28.374 34.6286 28.648C34.451 28.7368 34.2677 28.818 34.296 29.1052C34.5379 29.1959 34.8081 29.264 35.0461 29.3943C35.2899 29.5266 35.4939 29.7344 35.732 29.8799C35.9701 30.0273 36.2214 30.169 36.484 30.2635C37.1 30.4845 37.6347 30.8416 38.1789 31.1874C38.6531 31.4878 39.133 31.7769 39.6338 32.0849C40.0872 31.9564 40.5596 31.9149 41.0395 31.9224C41.2644 31.9262 41.4968 31.9319 41.7008 31.8166C42.2261 31.5181 42.7778 31.5313 43.339 31.6711C43.4845 31.707 43.6205 31.7127 43.7358 31.6125C43.9512 31.4236 44.1685 31.399 44.4349 31.5162C44.6994 31.6333 44.9753 31.5899 45.2568 31.5011C45.7367 31.3499 46.2299 31.2309 46.7211 31.1213C46.9101 31.0797 47.116 31.0665 47.3069 31.0929C47.8926 31.1704 48.4632 30.9418 49.0584 31.0363C49.2757 31.0703 49.527 30.8832 49.8085 30.7812C50.2317 31.0363 50.5737 31.3782 50.706 31.9016C50.7948 32.255 50.9289 32.5951 51.0896 32.8671C51.0102 33.3641 50.6172 33.6286 50.5511 34.0273C50.0201 34.203 49.527 34.305 49.0149 34.2786C48.6975 34.2616 48.3914 34.3334 48.1099 34.4581C47.715 34.6357 47.2747 34.5884 46.8817 34.7472C46.8326 34.7679 46.7589 34.7831 46.7173 34.7604C46.1203 34.4656 45.646 34.8586 45.1548 35.006C45.0508 35.1987 45.1396 35.3064 45.2511 35.3971C45.3154 35.45 45.3928 35.5048 45.4722 35.5162C46.211 35.6277 46.6796 36.1832 47.2445 36.578C47.3352 36.6423 47.4542 36.7764 47.5166 36.7557C47.9531 36.6007 48.1477 36.9578 48.45 37.1222C48.7693 37.296 49.117 37.4132 49.3796 37.6815C49.4174 37.7212 49.4684 37.7703 49.5156 37.776C50.3281 37.8723 50.7665 38.5865 51.4202 38.9493C51.8775 39.2025 52.1061 39.7448 52.3083 40.2172C51.3597 42.3201 51.4126 41.9328 50.5813 42.5601C50.2091 42.4278 49.8009 42.3145 49.4004 42.5261C49.0055 42.2634 48.7523 41.827 48.2459 41.8213C47.9965 41.3981 47.3749 41.4226 47.1803 40.9257C47.1462 40.8388 47.014 40.7368 46.9214 40.733C46.5378 40.7141 46.2374 40.4779 45.8916 40.3759C45.5837 40.2852 45.3116 40.1794 45.1359 39.8884C45.0055 39.6711 44.7296 39.7183 44.5445 39.5917C44.0608 39.2592 43.4939 39.0778 43.031 38.6489C42.8005 38.8964 42.8024 39.1231 42.9309 39.3045C43.1217 39.5728 43.1935 39.8544 43.1841 40.1737C43.1765 40.4212 43.2974 40.6026 43.5185 40.7179C43.7018 40.8142 43.8189 40.9578 43.8643 41.1676C44.0551 42.048 44.3687 42.8832 44.8109 43.6673C44.8373 43.7146 44.8392 43.775 44.8524 43.8298C44.6654 44.6139 44.0079 44.9692 43.3711 45.2016C42.6569 45.4623 41.9257 45.2771 41.3664 44.6857C41.2927 44.6083 41.2058 44.4911 41.2115 44.3966C41.2304 44.0017 41.0187 43.7013 40.8336 43.3896C40.6408 43.0665 40.5936 42.6961 40.5331 42.3428C40.4273 41.7287 40.1023 41.2035 39.9228 40.6234C39.4184 40.2398 39.3466 39.6333 39.1312 39.1005C39.099 39.023 39.014 38.9512 39.0159 38.8794C39.031 38.3881 38.8194 38.0159 38.4415 37.725C38.3111 37.2318 37.9181 36.8029 38.0844 36.2058C37.7046 35.8242 37.4004 35.3348 36.8015 35.1931C36.7278 35.1761 36.6711 35.0892 36.6068 35.0363C36.1515 34.664 35.6791 34.3239 35.1198 34.1104C34.8364 34.0027 34.5473 33.8742 34.33 33.6343C34.2582 33.5549 34.1468 33.4548 34.0561 33.4548C33.6328 33.4604 33.4004 33.1638 33.1378 32.9144C33.0074 32.7916 32.8525 32.7424 32.6749 32.7462C32.4538 32.75 32.2516 32.8634 32.2384 33.0655C32.2025 33.6135 31.9436 34.1293 32.1458 34.7207C32.2762 35.1005 32.2516 35.571 32.1742 35.9772C32.0325 36.7141 32.2157 37.4302 32.2195 38.1539C32.2214 38.596 32.3518 39.0419 32.7561 39.3423C33.0074 39.5294 33.1888 39.7864 33.3173 40.0736C33.4231 40.3097 33.5761 40.5062 33.7613 40.6839C33.8426 40.7613 33.9522 40.8464 33.971 40.9427C34.1279 41.8081 34.8874 42.254 35.3277 42.921C35.39 43.0136 35.4902 43.0872 35.5336 43.1874C35.8227 43.8506 36.3763 44.3003 36.8355 44.8256C36.8714 44.8671 36.9394 44.8917 36.9583 44.9389C37.253 45.6588 37.903 46.1142 38.3092 46.7509C38.4283 46.9361 38.4623 47.1175 38.3338 47.3007C38.2185 47.4632 38.1222 47.622 38.0995 47.8317C38.0239 48.5535 37.4439 48.8218 36.7221 48.9843C36.5332 49.0258 36.3291 48.988 36.1326 48.9975C35.7604 49.0164 35.4637 48.8879 35.2937 48.5478C35.1652 48.287 34.9649 48.0943 34.7665 47.894C34.2922 47.4179 33.8161 46.9417 33.6801 46.2408C33.6649 46.1633 33.6045 46.0877 33.5497 46.0272C33.1359 45.5813 32.7164 45.1373 32.2781 44.6706C32.246 45.4491 32.1704 46.1879 32.1798 46.9304C32.1893 47.6919 32.1893 48.4514 32.1931 49.2129C32.1931 49.4094 32.2271 49.6172 32.1817 49.8024C32.0627 50.2748 31.9625 50.7169 32.2913 51.1647C32.3896 51.2988 32.3763 51.5558 32.3385 51.741C32.2497 52.1793 32.1175 52.6101 31.9966 53.0409C31.9569 53.1826 31.8567 53.2828 31.7301 53.3546C31.3617 53.5643 30.9744 53.7306 30.5643 53.844C30.4321 53.8798 28.8053 53.6248 28.6768 53.5586C28.4576 53.4472 28.3159 53.279 28.331 53.0258C28.3556 52.6215 28.2875 52.2436 28.0854 51.8884C28.0476 51.8203 28.0174 51.7013 28.0495 51.6484C28.314 51.2176 27.9323 50.7415 28.1232 50.3466C28.2989 49.9857 28.246 49.6626 28.2441 49.296C28.2403 48.5213 28.0192 47.7448 28.2309 46.9682C28.2535 46.8888 28.2857 46.7925 28.2611 46.7226C28.074 46.2011 28.195 45.6588 28.1458 45.1298C28.1364 45.0183 28.1269 44.903 27.9418 44.8388C27.6716 45.1146 27.3844 45.4113 27.0972 45.706C27.0783 45.7268 27.0613 45.7495 27.0481 45.7741C26.8799 46.0575 27.0008 46.4769 26.6362 46.664C26.3452 46.8133 26.211 47.108 25.9956 47.3234C25.6555 47.6654 25.3721 48.0414 25.2153 48.5081C25.1151 48.8029 24.879 48.9597 24.5729 48.9748C24.2347 48.9918 23.887 49.0353 23.562 48.971C23.1161 48.8822 22.7174 48.6309 22.4661 48.2455C22.2394 47.8959 22.0334 47.5218 21.9257 47.1005C21.9956 47.0003 22.0485 46.8983 22.126 46.8189C22.4359 46.4958 22.7061 46.1879 22.8157 45.7004C22.9309 45.1883 23.3372 44.7632 23.7642 44.4496C24.1931 44.1359 24.3801 43.6522 24.7297 43.2932C24.758 42.8548 25.1076 42.5884 25.3551 42.3163C25.9106 41.7098 26.3112 41.0032 26.8043 40.3589C26.8553 40.2927 26.8931 40.1888 26.9593 40.1643C27.7094 39.8903 27.6829 39.0721 28.0816 38.5506C28.1969 38.3995 28.1496 38.1142 28.1515 37.8912C28.1591 37.2148 28.1458 36.5384 28.1572 35.8619C28.1647 35.4708 28.0986 35.0722 28.2743 34.6943C28.3064 34.6243 28.314 34.5185 28.2875 34.4467C28.0646 33.8705 28.1628 33.2866 28.2535 32.6877C27.9456 32.476 27.6376 32.5516 27.3749 32.7065C26.8969 32.99 26.349 33.1713 25.9824 33.6267C25.9125 33.7136 25.8218 33.8194 25.7254 33.8383C24.8374 34.014 24.3008 34.8171 23.4656 35.0873C23.1633 35.1855 22.9649 35.4444 22.7779 35.6957C22.6437 35.8752 22.5209 36.066 22.4 36.255C22.1733 36.6089 22.0844 37.007 22.1336 37.4491C22.0126 37.5738 21.8823 37.7193 21.7425 37.8553C21.5535 38.0405 21.3816 38.2956 21.4061 38.5166C21.4666 39.0665 21.049 39.4538 21.0093 39.9564C20.998 40.1057 20.9168 40.2228 20.811 40.3173C20.4671 40.6291 20.2044 40.9786 20.1704 41.4661C20.1629 41.57 20.0986 41.6834 20.0287 41.7665C19.8511 41.9781 19.819 42.2238 19.836 42.4807C19.8606 42.8983 19.7188 43.2516 19.4487 43.5634C19.358 43.6692 19.2162 43.7826 19.2087 43.8997C19.1558 44.6895 18.3887 44.8426 17.9768 45.3093C17.8407 45.4623 17.6026 45.4434 17.4156 45.3659C17.1567 45.2582 16.8809 45.1543 16.6674 44.9805C16.3821 44.7481 15.9588 44.7613 15.7453 44.4174C15.5564 44.1151 15.6962 43.7429 15.5148 43.4425C15.4902 43.4009 15.5053 43.3329 15.5016 43.2781C15.5261 43.0948 15.6678 42.9909 15.7812 42.8681C15.8568 42.7849 15.9569 42.7094 15.9985 42.6111C16.229 42.0764 16.4992 41.5511 16.6504 40.9937C16.8053 40.4193 16.9583 39.8638 17.3532 39.4009C17.3891 39.3593 17.4194 39.3102 17.4439 39.2592C17.4987 39.1496 17.4912 39.0381 17.4231 38.9418C17.3513 38.8416 17.2361 38.8227 17.1208 38.8303C16.8563 38.8492 16.622 38.9663 16.4368 39.1345C16.1175 39.4255 15.7453 39.6163 15.3693 39.8071C15.2446 39.8714 15.1104 39.9356 15.0141 40.032C14.5493 40.5025 13.9182 40.6933 13.374 41.0258C12.7751 41.3924 12.0873 41.5851 11.5299 42.0046C11.0557 42.3617 10.5739 42.4411 10.0221 42.2861C9.86153 42.2408 9.68959 42.2181 9.52332 42.2238C9.01694 42.2408 8.69196 41.9309 8.58615 41.5209C8.49734 41.177 8.3065 40.9144 8.16479 40.6158C7.94751 40.1567 7.96073 40.032 8.38208 39.69C8.5408 39.5615 8.63716 39.3971 8.76186 39.2498C9.08685 38.8681 9.37216 38.4373 9.90877 38.2993C10.0335 38.2672 10.1506 38.1539 10.2413 38.0499C10.4567 37.8043 10.7326 37.6853 11.0349 37.5984C11.3353 37.5133 11.6206 37.4037 11.8303 37.1487C11.9758 36.9711 12.1667 36.8596 12.3972 36.8029C12.6164 36.7481 12.8582 36.6612 12.9735 36.4741C13.323 35.9073 13.9088 35.7958 14.4718 35.6503C14.742 35.5804 14.9328 35.4557 15.0538 35.2158C15.0764 35.1723 15.0575 35.1081 15.0575 35.0495C15.0443 35.0344 15.0292 35.0003 15.0084 34.9966C14.1147 34.7755 13.2361 34.4713 12.3065 34.4505C11.5394 34.4335 10.8081 34.2257 10.0713 34.0594C9.65747 33.9649 9.4005 33.5398 9.37405 33.109C9.34571 32.6499 9.56489 32.2304 9.57244 31.7788C9.91822 31.4274 10.1638 30.9399 10.742 30.904C10.9385 30.8927 11.1577 30.8511 11.3296 30.9191C11.8757 31.1364 12.4444 31.0438 12.9999 31.074C13.5687 31.1043 14.1166 31.1855 14.6362 31.4198C15.0122 31.5899 15.3939 31.6371 15.7831 31.4859C15.9777 31.4104 16.1761 31.3726 16.3575 31.4538C16.6825 31.6012 17.0207 31.5899 17.3551 31.5785C17.9503 31.5596 18.5153 31.7505 19.101 31.8072C19.5431 31.8506 19.9758 31.9886 20.4161 32.0603C20.6995 32.1057 20.9527 32.0452 21.204 31.8563C22.2167 31.0986 23.3013 30.4562 24.4633 29.9517C24.6182 29.8837 24.775 29.8138 24.9111 29.7155C25.2776 29.4548 25.6612 29.2262 26.0599 29.1033C26.1676 28.8275 26.0769 28.6234 25.8671 28.5875C25.0641 28.4515 24.5011 27.8487 23.7812 27.5559C23.6338 27.4954 23.528 27.3348 23.3995 27.2271C23.3145 27.1553 23.2276 27.0552 23.1274 27.0344C22.3887 26.8719 21.8502 26.3693 21.2606 25.9517C21.1152 25.8497 20.9659 25.793 20.7921 25.7949C20.1175 25.8024 19.4316 25.7609 18.7836 25.982C18.3169 26.1407 17.8483 26.1633 17.3684 26.152C17.0604 26.1444 16.7486 26.1123 16.4879 26.3485C16.3537 26.4694 16.1761 26.4675 16.0079 26.4033C15.5375 26.22 15.0708 26.288 14.5965 26.3957C13.9125 26.5526 13.2323 26.6848 12.5181 26.6697C11.9947 26.6584 11.4657 26.7869 10.9423 26.8794C10.3717 26.9796 9.93144 26.7831 9.73493 26.254C9.58945 25.861 9.48364 25.451 9.3835 25.041C9.33626 24.8483 9.37594 24.6499 9.46474 24.4647C9.58567 24.2134 9.69715 23.9564 9.8313 23.6636C10.4699 23.6636 11.0783 23.3972 11.734 23.4539C11.8946 23.469 12.0892 23.4463 12.2234 23.365C12.7165 23.0741 13.2531 23.1081 13.7859 23.11C14.0958 23.11 14.3962 23.1308 14.6967 23.0042C14.9328 22.9059 15.1936 22.9267 15.4411 23.0212C15.545 23.0608 15.6546 23.0911 15.7151 22.9531C15.7359 22.8379 15.6508 22.8095 15.5753 22.7755C15.016 22.5186 14.451 22.2937 13.9635 21.8799C13.6121 21.5814 13.136 21.4227 12.6995 21.2394C12.5124 21.16 12.3499 21.0693 12.2082 20.9295C11.9645 20.6896 11.6924 20.4893 11.3504 20.4156C11.1766 20.3778 11.0481 20.2758 10.9196 20.1643C10.8138 20.0736 10.7042 19.9451 10.5814 19.9224C9.84264 19.7845 9.36838 19.2574 8.86578 18.7774C8.5219 18.4506 8.18558 18.1123 7.8587 17.7193C8.13645 17.332 8.45955 16.9938 8.40475 16.5044C8.67495 16.2248 8.93002 15.93 9.21911 15.6712C9.52709 15.3972 9.87853 15.2423 10.2999 15.4577C10.3962 15.5068 10.5228 15.4898 10.6287 15.5238C10.9801 15.6353 11.3712 15.6031 11.6962 15.7278C12.0174 15.8507 12.263 16.1624 12.5483 16.3873C12.6353 16.4572 12.7316 16.5327 12.8355 16.5611C13.4194 16.7198 13.8294 17.1808 14.3698 17.4189C14.725 17.5757 15.0311 17.8535 15.392 17.9801C15.8908 18.152 16.2989 18.4165 16.6428 18.8058C16.7996 18.9834 16.9924 19.0816 17.2418 19.0401C17.3854 19.0155 17.5271 18.8492 17.4534 18.7396C17.2059 18.375 17.1681 17.9669 17.1227 17.5474C17.1057 17.4 16.9753 17.2375 16.8525 17.1355C16.5975 16.9258 16.4803 16.6631 16.3972 16.3533C16.2177 15.6806 15.9853 15.0287 15.6338 14.4203C15.3788 13.9763 15.4298 13.8497 15.7604 13.4435C16.0703 13.0618 16.4992 12.8388 16.879 12.5554C17.1303 12.3684 17.4836 12.4647 17.7897 12.478C18.3112 12.4987 19.0273 13.075 19.1463 13.5871C19.2125 13.8686 19.3315 14.1161 19.4524 14.3693C19.6244 14.7264 19.7415 15.0987 19.8473 15.4803C19.9796 15.9584 19.9928 16.4912 20.4085 16.8558C20.4595 17.3225 20.8771 17.6343 20.9753 18.0424C21.083 18.4808 21.3683 18.8568 21.3835 19.3216C21.3872 19.4236 21.4401 19.5691 21.5176 19.6182C22.0183 19.9376 21.9938 20.5516 22.3055 20.9749C22.3509 21.0372 22.3603 21.1336 22.3735 21.2148C22.4964 21.9895 22.8724 22.5564 23.6395 22.836C23.8473 22.9116 24.0287 23.059 24.2233 23.1704C24.9262 23.5767 25.5705 24.0736 26.2998 24.4364C26.4774 24.5252 26.6362 24.631 26.8402 24.6499C26.9857 24.6631 27.1236 24.7273 27.1954 24.852C27.3863 25.1789 27.7434 25.2035 28.1609 25.4302L28.1534 25.4359Z" fill="#C7D5DC"/>
<path d="M3.18044 47.1912C3.46764 47.2536 3.76617 47.1704 4.0118 47.2328C4.36891 47.3235 4.7657 47.1912 5.08124 47.4047C5.35899 47.5918 5.59517 47.8412 5.93906 47.9186C6.2187 48.4458 6.81576 48.7368 7.0595 49.2432C7.28435 49.7099 7.64713 50.1369 7.69625 50.6924C7.71515 50.9134 7.98156 51.0438 7.974 51.3612C7.9022 51.5313 7.80395 51.7618 7.72082 51.9602C7.68681 52.2172 7.92488 52.3249 7.9381 52.5554C7.70003 52.9937 7.59611 53.553 7.08407 53.8308C6.44543 54.1746 5.83891 54.5884 5.1058 54.7283C5.02456 54.7434 4.93764 54.7604 4.86584 54.8001C4.1932 55.1704 3.56023 54.9758 2.96505 54.6262C2.58338 54.4033 2.17903 54.2276 1.81625 53.9536C1.45348 53.6796 1.03402 53.5096 1.03213 52.9673C0.63345 52.6404 0.60322 52.1378 0.436948 51.7013C0.293349 51.3291 0.261226 50.9437 0.24611 50.545C0.225326 49.9971 0.204542 49.4812 0.718475 49.1033C0.860185 48.9994 0.867743 48.7217 1.00756 48.6083C1.39679 48.289 1.61408 47.7391 2.28295 47.7769C2.63817 47.7958 2.91214 47.4406 3.18422 47.1912H3.18044Z" fill="#C7D5DC"/>
<path d="M48.1703 0.00189131C48.4481 0.0566857 48.6389 0.113368 48.8317 0.130373C49.5005 0.190836 49.9993 0.479925 50.4566 0.999527C50.8685 1.46811 51.0272 2.09541 51.5147 2.49787C51.5884 2.55833 51.6205 2.70004 51.6224 2.80585C51.6281 3.17241 51.6356 3.53141 51.7792 3.88285C51.8567 4.07368 51.7452 4.26452 51.681 4.45158C51.5544 4.82569 51.441 5.20169 51.4693 5.60604C51.5128 6.23901 51.1255 6.6169 50.6115 6.82663C50.0919 7.03825 49.5818 7.2971 49.0508 7.45392C48.4405 7.63153 47.7887 7.71846 47.201 7.27632C46.9384 7.07793 46.6645 6.87575 46.2979 6.85875C46.0579 6.84741 45.8746 6.66224 45.8066 6.44307C45.7197 6.16154 45.5723 5.93858 45.3721 5.73452C45.3343 5.69484 45.287 5.64193 45.2851 5.59281C45.2681 5.06376 44.9431 4.55549 45.1132 4.02267C45.2455 3.60509 45.253 3.1913 45.2341 2.77184C45.2209 2.45063 45.3116 2.16154 45.4098 1.86867C45.5062 1.58714 45.6876 1.3453 45.9389 1.2376C46.2639 1.09967 46.5265 0.973075 46.6531 0.598962C46.7249 0.391121 46.9951 0.315543 47.2294 0.315543C47.6016 0.313653 47.9682 0.307982 48.1684 0L48.1703 0.00189131Z" fill="#C7D5DC"/>
<path d="M55.9191 26.8757C56.2479 27.1742 56.6276 27.2309 57.032 27.2007C57.6895 27.1534 58.2431 27.3707 58.6815 27.8714C58.8308 28.0415 58.997 28.187 59.2332 28.2361C59.4524 28.2833 59.5488 28.4458 59.5847 28.6593C59.6262 28.9069 59.6829 29.1525 59.7207 29.4019C59.7604 29.6532 59.8019 29.9139 59.6886 30.1501C59.5166 30.511 59.39 30.8738 59.4127 31.2819C59.4222 31.4614 59.2993 31.5956 59.1765 31.7146C58.5908 32.2776 57.8823 32.5271 57.0943 32.3683C56.7032 32.2909 56.3216 32.2399 55.9304 32.2436C55.5148 32.2474 55.1312 32.1416 54.8723 31.8166C54.4907 31.3386 54.0844 30.8605 54.024 30.2106C53.9994 29.9498 53.8596 29.7344 53.7689 29.5001C53.6347 29.16 53.6574 28.8464 53.9276 28.5649C54.0429 28.4458 54.16 28.3079 54.2167 28.1567C54.4132 27.6333 54.8421 27.3934 55.3126 27.1874C55.4902 27.11 55.6584 27.0098 55.9172 26.8757H55.9191Z" fill="#C7D5DC"/>
</svg>
