<svg width="80" height="80" viewBox="0 0 80 80" fill="none" xmlns="http://www.w3.org/2000/svg">
<g clip-path="url(#clip0_797_26933)">
<g opacity="0.1" filter="url(#filter0_f_797_26933)">
<circle cx="40.5" cy="40.5" r="21.5" fill="#C7D5DC"/>
</g>
<path fill-rule="evenodd" clip-rule="evenodd" d="M39.4997 10.9424C40.6362 10.9424 41.5575 11.8637 41.5575 13.0002V19.0071L46.2757 14.2888C47.0794 13.4852 48.3823 13.4852 49.1859 14.2888C49.9895 15.0924 49.9895 16.3953 49.1859 17.1989L41.5575 24.8273V36.873L51.9889 30.8502L54.7809 20.4298C55.075 19.3321 56.2034 18.6806 57.3011 18.9747C58.3989 19.2689 59.0504 20.3972 58.7562 21.495L57.0294 27.94L62.2313 24.9366C63.2155 24.3684 64.474 24.7056 65.0423 25.6898C65.6105 26.674 65.2733 27.9325 64.2891 28.5008L59.0872 31.5042L65.5323 33.231C66.63 33.5251 67.2815 34.6535 66.9874 35.7513C66.6932 36.849 65.5649 37.5005 64.4671 37.2064L54.0467 34.4144L43.6152 40.4372L54.0467 46.4601L64.4671 43.6681C65.5649 43.3739 66.6932 44.0254 66.9874 45.1232C67.2815 46.2209 66.63 47.3493 65.5323 47.6434L59.0872 49.3703L64.2891 52.3737C65.2733 52.9419 65.6105 54.2004 65.0423 55.1847C64.474 56.1689 63.2155 56.5061 62.2313 55.9378L57.029 52.9342L58.7563 59.3823C59.0503 60.4801 58.3988 61.6084 57.301 61.9025C56.2032 62.1965 55.0749 61.545 54.7809 60.4472L51.9888 50.0242L41.5575 44.0014V56.0471L49.1859 63.6755C49.9895 64.4791 49.9895 65.782 49.1859 66.5856C48.3823 67.3892 47.0794 67.3892 46.2757 66.5856L41.5575 61.8674V67.8743C41.5575 69.0107 40.6362 69.932 39.4997 69.932C38.3632 69.932 37.4419 69.0107 37.4419 67.8743V61.8674L32.7236 66.5856C31.92 67.3892 30.6171 67.3892 29.8135 66.5856C29.0099 65.782 29.0099 64.4791 29.8135 63.6755L37.4419 56.0471V44.0014L27.0106 50.0241L24.2185 60.4498C23.9246 61.5476 22.7963 62.1992 21.6985 61.9053C20.6007 61.6113 19.9491 60.483 20.2431 59.3852L21.9707 52.934L16.7681 55.9378C15.7839 56.5061 14.5254 56.1689 13.9571 55.1847C13.3889 54.2004 13.7261 52.9419 14.7103 52.3737L19.9122 49.3703L13.4671 47.6434C12.3694 47.3493 11.7179 46.2209 12.012 45.1232C12.3062 44.0254 13.4345 43.3739 14.5323 43.6681L24.9526 46.4601L35.3842 40.4372L24.9526 34.4144L14.5323 37.2064C13.4345 37.5005 12.3062 36.849 12.012 35.7513C11.7179 34.6535 12.3694 33.5251 13.4671 33.231L19.9122 31.5042L14.7103 28.5008C13.7261 27.9325 13.3889 26.674 13.9571 25.6898C14.5254 24.7056 15.7839 24.3684 16.7681 24.9366L21.97 27.94L20.2431 21.495C19.949 20.3972 20.6005 19.2689 21.6982 18.9747C22.796 18.6806 23.9244 19.3321 24.2185 20.4298L27.0105 30.8502L37.4419 36.873V24.8273L29.8135 17.1989C29.0099 16.3953 29.0099 15.0924 29.8135 14.2888C30.6171 13.4852 31.92 13.4852 32.7236 14.2888L37.4419 19.0071V13.0002C37.4419 11.8637 38.3632 10.9424 39.4997 10.9424Z" fill="url(#paint0_linear_797_26933)" stroke="#F9FAFB" stroke-width="0.4" stroke-linecap="round"/>
</g>
<defs>
<filter id="filter0_f_797_26933" x="-4.4" y="-4.4" width="89.8" height="89.8" filterUnits="userSpaceOnUse" color-interpolation-filters="sRGB">
<feFlood flood-opacity="0" result="BackgroundImageFix"/>
<feBlend mode="normal" in="SourceGraphic" in2="BackgroundImageFix" result="shape"/>
<feGaussianBlur stdDeviation="11.7" result="effect1_foregroundBlur_797_26933"/>
</filter>
<linearGradient id="paint0_linear_797_26933" x1="35.4998" y1="29.0002" x2="59.4998" y2="64.0002" gradientUnits="userSpaceOnUse">
<stop stop-color="#C7D5DC"/>
<stop offset="1" stop-color="#E4E6E7"/>
</linearGradient>
<clipPath id="clip0_797_26933">
<rect width="80" height="80" fill="white"/>
</clipPath>
</defs>
</svg>
