<svg width="55" height="69" viewBox="0 0 55 69" fill="none" xmlns="http://www.w3.org/2000/svg">
<path d="M36.8965 5.0462C37.6613 4.97158 38.3888 5.23481 39.1391 5.18092C39.164 5.18092 39.1888 5.18093 39.2116 5.18507C39.4852 5.25969 39.7381 5.05034 39.991 5.10216C40.2438 5.15398 40.4718 5.31772 40.7185 5.41306C40.8014 5.44623 40.9071 5.43379 41.0004 5.41928C41.0999 5.40477 41.1911 5.39648 41.2781 5.45244C41.8191 5.81309 42.4989 5.87528 43.0254 6.27945C43.1912 6.40588 43.4171 6.46806 43.6244 6.52195C43.7923 6.56548 43.9477 6.61522 44.0638 6.74995C44.1799 6.88467 44.3229 6.94478 44.4991 6.98001C44.7934 7.04219 45.0069 7.21837 45.1685 7.48782C45.382 7.8381 45.6287 8.16144 46.0722 8.26508C46.2753 8.31275 46.3541 8.52209 46.4329 8.69619C46.5406 8.92833 46.6961 9.10244 46.9427 9.17499C47.2702 9.27033 47.4008 9.52941 47.4609 9.81752C47.577 10.3688 47.9024 10.8269 48.1076 11.3368C48.1698 11.4902 48.261 11.6456 48.377 11.7617C48.603 11.9835 48.7024 12.2301 48.661 12.5431C48.6237 12.8125 48.6651 13.0758 48.7999 13.3141C48.9118 13.5152 48.9242 13.7038 48.8662 13.9359C48.7791 14.2862 48.974 14.5412 49.3243 14.6179C49.488 14.6531 49.658 14.6572 49.8196 14.6966C50.4166 14.8438 50.9451 15.1547 51.4073 15.5319C51.7161 15.7848 52.0022 16.0729 52.3255 16.3175C52.4519 16.4128 52.5411 16.5807 52.6032 16.7341C52.7193 17.016 52.9017 17.2336 53.1608 17.3787C53.4903 17.5611 53.6437 17.8512 53.6852 18.1995C53.7163 18.4502 53.8013 18.6513 53.9671 18.8441C54.222 19.1425 54.3526 19.5156 54.4231 19.8949C54.479 20.2017 54.6407 20.4794 54.6241 20.809C54.6117 21.0722 54.9101 21.1841 54.991 21.408C55.0303 21.5738 54.9329 21.6898 54.8542 21.808C54.7692 21.9365 54.7443 22.0712 54.7816 22.2205C54.8106 22.3365 54.8832 22.4712 54.85 22.5707C54.6614 23.1615 54.649 23.7998 54.365 24.3615C54.3319 24.4258 54.2697 24.4838 54.2614 24.5501C54.1868 25.1264 53.7681 25.4704 53.3971 25.8497C53.2624 25.9865 53.1276 26.1275 53.0219 26.285C52.9245 26.428 52.8271 26.5627 52.6613 26.627C52.2778 26.7741 52.0208 27.0602 51.8322 27.4042C51.6975 27.6488 51.5109 27.8167 51.2809 27.9597C51.0363 28.1152 50.7876 28.2686 50.572 28.4592C50.3461 28.6603 50.1243 28.8178 49.8072 28.8095C49.7222 28.8095 49.6082 28.8551 49.5543 28.9194C49.1771 29.3546 48.5926 29.4645 48.1656 29.821C48.0806 29.8935 47.9418 29.9371 47.8299 29.9329C47.4236 29.9143 47.0941 30.1091 46.7334 30.2417C46.3417 30.3848 45.9168 30.5464 45.4711 30.3889C45.4048 30.3661 45.3198 30.3412 45.2577 30.362C44.7892 30.5153 44.2959 30.4345 43.8275 30.5215C43.5083 30.5817 43.214 30.5568 42.9031 30.5464C42.501 30.5319 42.1072 30.3537 41.6926 30.5029C41.533 30.5609 41.3652 30.4469 41.2118 30.3765C41.0128 30.2873 40.818 30.1858 40.5444 30.2583C40.3475 30.4428 40.1547 30.6915 39.8873 30.8594C39.7692 30.934 39.6718 31.0501 39.5847 31.162C39.1204 31.7465 38.5774 32.1942 37.7919 32.2419C37.3131 32.5279 36.7369 32.5093 36.2394 32.787C35.8166 33.0233 35.3088 33.1725 34.7885 33.0502C34.6144 33.0088 34.4507 33.0461 34.2932 33.1041C34.09 33.1808 33.8911 33.2679 33.6548 33.3632C33.5926 33.3466 33.4931 33.3383 33.4123 33.2948C33.1718 33.1642 32.9439 33.1767 32.7387 33.3487C32.4485 33.5933 32.1645 33.6016 31.8018 33.4793C31.3956 33.3404 30.952 33.4855 30.525 33.4959C30.4069 33.4979 30.2659 33.5974 30.1768 33.5601C29.7001 33.357 29.2379 33.5684 28.7778 33.5539C28.301 33.5373 27.7684 33.5269 27.3518 33.1829C27.1155 32.988 26.8439 32.9197 26.5393 32.9549C26.4211 32.9694 26.3009 32.957 26.1579 32.957C25.8076 32.5652 25.4511 32.161 24.7215 32.1486C24.4624 32.2315 24.0396 32.2813 23.6686 32.5486C23.4261 32.7227 23.1069 32.8202 22.7753 32.7725C22.6633 32.7559 22.5224 32.7663 22.425 32.8202C21.8819 33.129 21.2581 33.0875 20.6798 33.2388C20.5202 33.2803 20.3378 33.2886 20.1782 33.2534C19.6621 33.1394 19.1916 33.2616 18.7087 33.4357C18.2734 33.5912 17.8112 33.5995 17.3573 33.5083C17.1189 33.4606 16.893 33.3881 16.6463 33.4627C16.5593 33.4896 16.4557 33.4772 16.3645 33.4585C15.6805 33.3197 15.0131 33.1207 14.3726 32.8409C14.2628 32.7932 14.1508 32.7414 14.0348 32.7207C13.5187 32.6233 13.071 32.3808 12.7228 32.0035C12.3974 31.6491 11.9932 31.5683 11.6056 31.7092C11.1392 31.8771 10.8097 31.7838 10.5382 31.4149C9.88319 31.5185 9.26553 31.5289 8.6458 31.6595C8.12141 31.7693 7.54313 31.7859 7.02496 31.4916C6.78246 31.3548 6.51093 31.3506 6.25185 31.446C6.00935 31.5351 5.77928 31.5227 5.54714 31.4232C5.50361 31.4045 5.45594 31.3776 5.41034 31.3755C4.76366 31.3527 4.24756 30.961 3.66929 30.7496C3.46409 30.6749 3.27548 30.5672 3.11588 30.4117C3.02883 30.3247 2.92727 30.2459 2.80291 30.25C2.45677 30.2625 2.20805 30.1215 2.00907 29.8376C1.93238 29.7277 1.77486 29.6759 1.66293 29.5847C1.37483 29.3484 1.13647 29.079 1.17378 28.6686C1.19036 28.4841 1.10952 28.3494 0.989309 28.2167C0.875311 28.0924 0.790331 27.9431 0.682552 27.8146C0.502229 27.6011 0.408958 27.369 0.454557 27.0809C0.508447 26.7348 0.423467 26.4404 0.216198 26.1337C-0.100922 25.6673 0.017221 25.1119 0.0420932 24.5833C0.272161 24.2475 0.187181 23.8848 0.110492 23.5325C0.0586747 23.2879 0.0711107 23.0744 0.164381 22.834C0.292888 22.5003 0.377868 22.1438 0.425539 21.7893C0.51881 21.0867 0.659752 20.411 1.19865 19.8949C1.3997 19.4161 1.74998 19.0638 2.12307 18.7093C2.53138 18.3238 2.94592 17.9715 3.46616 17.7538C3.55529 17.7165 3.6382 17.6688 3.72732 17.6274C4.42789 17.2978 4.68697 16.5931 4.58334 15.7516C4.51494 15.2044 4.37814 14.6572 4.72635 14.1432C4.85486 13.9546 4.82999 13.7287 4.81341 13.509C4.7989 13.3141 4.81341 13.1235 4.9502 12.9639C5.27147 12.5928 5.45387 12.1451 5.59688 11.6891C5.82488 10.9575 6.29538 10.3688 6.73686 9.77192C6.95863 9.47345 7.3027 9.25375 7.61775 9.03819C7.80636 8.90968 7.94316 8.76459 8.04265 8.56354C8.20432 8.22984 8.40951 7.93345 8.82405 7.88578C9.07899 7.60182 9.50803 7.54586 9.71323 7.18935C9.76712 7.09608 9.89355 7.01939 10.0013 6.9883C10.1899 6.93649 10.3703 6.89918 10.5133 6.7458C10.6003 6.65253 10.7351 6.64424 10.8532 6.66497C11.2615 6.73544 11.6118 6.56962 11.96 6.40174C12.246 6.26287 12.5238 6.13436 12.8575 6.20069C13.073 6.24214 13.2927 6.18618 13.4979 6.11778C13.9083 5.98306 14.3084 5.87734 14.7581 5.9188C15.0421 5.94367 15.3302 5.86491 15.5872 6.05145C15.6059 6.06596 15.6349 6.07839 15.6556 6.07425C16.236 5.91673 16.7044 6.33748 17.2474 6.38308C17.6723 6.41832 17.8236 6.39966 18.0081 6.01415C18.489 5.01304 19.316 4.30003 20.0497 3.51034C20.2445 3.301 20.4995 3.14969 20.7254 2.97144C20.8497 2.87195 20.999 2.89475 21.142 2.88854C21.3949 2.88024 21.542 2.7476 21.5959 2.50302C21.627 2.36208 21.6457 2.21492 21.8135 2.06775C22.7048 1.87914 23.5857 1.51642 24.3256 0.846941C24.6241 0.97752 24.8542 0.946432 25.1443 0.784763C25.5547 0.552622 26.046 0.463495 26.5061 0.316334C26.5724 0.295608 26.6636 0.272811 26.7175 0.299756C27.0844 0.484225 27.4202 0.310115 27.7704 0.237571C28.2181 0.144301 28.67 0.0841939 29.1198 0.0054319C29.2483 -0.0173676 29.354 0.0365214 29.4659 0.0759024C29.7395 0.173319 30.0131 0.268663 30.2887 0.355716C30.4027 0.390952 30.525 0.434477 30.639 0.426186C31.5945 0.359861 32.3428 0.867672 33.1076 1.31744C33.3128 1.43766 33.4745 1.59311 33.7377 1.63663C34.0486 1.68845 34.2973 1.90401 34.4548 2.19212C34.5916 2.44498 34.716 2.68748 35.0041 2.83464C35.1761 2.92377 35.2901 3.15591 35.3896 3.34453C35.5388 3.62641 35.7461 3.85648 35.9534 4.0907C36.0011 4.14459 36.0321 4.24615 36.084 4.25858C36.5047 4.35185 36.6892 4.69799 36.8985 5.03998L36.8965 5.0462Z" fill="#909090"/>
<path d="M26.676 53.9677C26.5724 53.8827 26.4791 53.8496 26.3838 53.8786C25.6915 54.0838 24.9495 54.061 24.2676 54.3221C24.2012 54.347 24.1142 54.3864 24.0582 54.3657C23.5628 54.1729 23.1732 54.4133 22.7794 54.6849C22.6405 54.633 22.5037 54.5895 22.3731 54.5336C22.2052 54.461 22.0415 54.4714 21.886 54.5584C21.6477 54.6911 21.3927 54.7615 21.1212 54.7305C20.8124 54.6952 20.5699 54.888 20.2507 54.9584C20.1222 54.9066 19.9709 54.8382 19.8113 54.7823C19.4071 54.6413 19.0071 54.6496 18.6133 54.8196C18.4806 54.8776 18.3521 54.9481 18.2133 54.9875C17.9376 55.0662 17.6557 54.9875 17.5189 54.7346C17.3137 54.3553 17.0484 54.0092 16.9012 53.5925C16.7976 53.3003 16.8225 53.0267 17.0484 52.8713C17.3179 52.6847 17.3883 52.4277 17.5023 52.1645C17.6453 51.8328 17.8277 51.5178 17.9894 51.1945C18.0682 51.0369 18.1925 50.9271 18.35 50.8525C18.4786 50.7903 18.6071 50.726 18.7128 50.6742C18.9656 50.0669 19.1812 49.4741 19.6973 49.0679C19.7346 49.0389 19.7885 48.9995 19.7926 48.9622C19.8299 48.5311 20.1802 48.3611 20.4497 48.0999C20.7564 47.8015 20.9699 47.4077 21.0777 46.9765C21.1958 46.506 21.515 46.1951 21.8985 45.934C21.9565 45.8946 22.056 45.8718 22.0747 45.8179C22.2115 45.4262 22.4726 45.1215 22.7441 44.821C22.7566 44.3525 23.0219 44.0644 23.4468 43.9256C23.4468 43.4385 23.6064 43.0799 23.9691 42.8208C24.0437 42.7669 24.1183 42.684 24.1494 42.597C24.3297 42.085 24.765 41.7368 25.0013 41.2601C25.0738 41.1129 25.194 40.972 25.3267 40.8787C26.0024 40.3958 26.4397 39.6973 26.9662 39.0796C27.3289 38.6547 27.6543 38.2132 27.7725 37.6495C27.7911 37.5624 27.8471 37.4339 27.9155 37.4111C28.3487 37.266 28.4751 36.8308 28.7508 36.5406C29.1135 36.1592 29.4285 35.7302 29.7975 35.2825C30.1851 35.3177 30.6203 35.3156 30.9146 35.7115C30.9706 35.7882 31.0597 35.8732 31.0597 35.954C31.0597 36.3955 31.2898 36.8681 30.8981 37.2619C30.9146 37.7966 30.3716 38.1884 30.5146 38.7604C30.5519 38.9055 30.4794 39.0465 30.3695 39.1522C30.0089 39.5024 29.9944 39.9087 30.1706 40.3502C30.1954 40.4144 30.1851 40.4911 30.1934 40.5865C30.1104 40.688 30.0296 40.8103 29.9281 40.9077C29.7436 41.0839 29.6855 41.2912 29.6399 41.542C29.4679 42.4622 29.2565 43.3763 29.0513 44.2904C28.9829 44.595 28.73 44.8355 28.7466 45.1712C28.4896 45.5153 28.5186 45.9485 28.3963 46.334C28.33 46.5413 28.3217 46.7568 28.1393 46.9123C28.0626 46.9786 28.0523 47.0864 28.0999 47.1776C28.1518 47.2729 28.2492 47.2999 28.3466 47.2667C28.5767 47.188 28.7964 47.1859 29.0451 47.2087C29.3415 47.2356 29.6545 47.1071 30.0068 47.0367C30.3509 47.2916 30.8462 47.2667 31.2048 47.532C31.466 47.5424 31.6442 47.3994 31.8328 47.304C32.2204 47.1071 32.6122 47.0781 33.0184 47.2045C33.1594 47.2481 33.3044 47.3206 33.4392 47.2709C34.1542 47.0138 34.8672 47.3704 35.5803 47.2626C35.7606 47.2356 35.9077 47.3227 36.0404 47.4346C36.2456 47.6108 36.4798 47.6315 36.7182 47.5258C36.998 47.3994 37.2633 47.3932 37.5555 47.5071C37.7504 47.5818 37.9783 47.5714 38.2084 47.6004C38.6748 48.0087 38.88 48.4979 38.6913 49.1383C38.6188 49.385 38.6416 49.6441 38.4862 49.8907C38.2623 50.2514 38.026 50.5623 37.6032 50.6949C37.3296 50.7799 37.1493 50.9706 37.0933 51.2546C37.0539 51.4598 36.9358 51.6007 36.7866 51.7313C36.7327 51.7789 36.658 51.8204 36.6332 51.8826C36.4715 52.2619 36.2559 52.5956 35.8787 52.7966C35.7088 53.1863 35.2569 53.3273 35.0704 53.7086C35.0331 53.7832 34.9253 53.833 34.8403 53.8765C34.6724 53.9636 34.5999 54.1004 34.5854 54.2828C34.5543 54.7139 34.3159 54.9895 33.9263 55.1533C33.8392 55.1906 33.7273 55.232 33.6858 55.3046C33.4848 55.6528 33.1925 55.8849 32.8381 56.0611C32.6785 56.1399 32.6329 56.3264 32.5873 56.4881C32.5002 56.8011 32.3199 57.0456 32.0981 57.2778C31.8494 57.5369 31.5551 57.7628 31.4183 58.1151C31.41 58.1359 31.3934 58.1607 31.3748 58.1711C30.7385 58.4903 30.4918 59.251 29.8161 59.5391C29.5757 59.6427 29.4576 59.9246 29.3456 60.165C29.1902 60.4967 28.9788 60.7247 28.5787 60.7205C28.4896 60.7205 28.3798 60.7578 28.3134 60.8179C28.0253 61.077 27.7165 61.3029 27.3849 61.5019C27.2294 61.5952 27.1817 61.7693 27.1817 61.9455C27.1797 62.1942 27.0491 62.3496 26.8377 62.4533C26.7734 62.4844 26.7092 62.5217 26.6491 62.5611C26.3713 62.7372 26.3568 63.1165 26.0791 63.2948C25.8407 63.4461 25.536 63.4979 25.4055 63.8067C25.3163 64.0181 25.1298 64.1425 24.8976 64.1674C24.6013 64.1985 24.4334 64.3871 24.28 64.6171C24.1743 64.7747 24.0561 64.9509 23.8986 65.0462C23.6022 65.2265 23.3452 65.4234 23.2188 65.7613C23.196 65.8214 23.1255 65.8732 23.0654 65.9105C22.4187 66.3064 21.942 66.8722 21.4529 67.4422C21.1316 67.8174 20.6839 68.1138 20.2092 68.2858C19.8921 68.4019 19.5377 68.2713 19.2682 68.062C19.1232 67.95 19.0361 67.7573 18.9428 67.5873C18.8537 67.4215 18.918 67.2474 19.0009 67.1023C19.1812 66.7873 19.3097 66.4494 19.4403 66.1116C19.5004 65.9561 19.5874 65.8048 19.6911 65.6722C20.2217 64.9882 20.2341 64.8721 20.516 64.0555C20.6756 63.5953 20.887 63.129 21.287 62.7808C21.5731 62.532 21.799 62.2108 22.0436 61.9144C22.1037 61.8418 22.1244 61.7278 22.1949 61.6698C22.655 61.2905 22.8042 60.7392 22.9224 60.2086C23.0385 59.6842 23.2996 59.3214 23.7515 59.0997C24.0852 58.9359 24.2945 58.7141 24.3567 58.3494C24.3691 58.2789 24.3898 58.2001 24.4354 58.1483C24.9723 57.5472 25.2314 56.7762 25.6791 56.1233C25.9029 55.7958 26.0894 55.3564 26.1164 54.9895C26.133 54.7823 26.2262 54.6289 26.3672 54.4859C26.4957 54.3532 26.6864 54.2558 26.6719 53.9781L26.676 53.9677Z" fill="#F5CC50"/>
</svg>
