<svg width="80" height="80" viewBox="0 0 80 80" fill="none" xmlns="http://www.w3.org/2000/svg">
<g clip-path="url(#clip0_797_26932)">
<g opacity="0.1" filter="url(#filter0_f_797_26932)">
<circle cx="40" cy="40" r="27" fill="#A7BDC8"/>
</g>
<path d="M61.7143 29.321V29.3209L61.7077 29.3211C60.5375 29.352 59.4242 29.8321 58.5985 30.6617C57.9961 31.2089 57.2067 31.5041 56.3929 31.4865C55.5771 31.4689 54.7993 31.1382 54.2206 30.5629C53.642 29.9876 53.3067 29.2118 53.2842 28.3962C53.2618 27.5826 53.5524 26.7915 54.0958 26.1859C56.1192 24.1603 58.8532 23.0043 61.716 22.9639C64.377 22.9643 66.929 24.0216 68.8106 25.9033C70.6927 27.7853 71.75 30.3379 71.75 32.9996C71.75 35.6612 70.6927 38.2138 68.8106 40.0959C66.9285 41.978 64.3759 43.0353 61.7143 43.0353H11.4286C10.5856 43.0353 9.77708 42.7004 9.18098 42.1043C8.58488 41.5082 8.25 40.6997 8.25 39.8567C8.25 39.0137 8.58488 38.2052 9.18098 37.6091C9.77708 37.013 10.5856 36.6782 11.4286 36.6782H61.7143C62.6899 36.6782 63.6256 36.2906 64.3154 35.6007C65.0053 34.9109 65.3929 33.9752 65.3929 32.9996C65.3929 32.024 65.0053 31.0883 64.3154 30.3984C63.6256 29.7086 62.6899 29.321 61.7143 29.321Z" fill="url(#paint0_linear_797_26932)" stroke="#E7EDF0" stroke-width="0.5"/>
<path d="M38.8571 15.6071V15.607L38.8499 15.6072C37.6839 15.6412 36.5754 16.1211 35.7528 16.9479C35.1503 17.495 34.3609 17.7903 33.5472 17.7727C32.7314 17.755 31.9536 17.4243 31.3749 16.849C30.7963 16.2738 30.461 15.498 30.4385 14.6823C30.4161 13.8687 30.7067 13.0777 31.2501 12.472C33.2707 10.4492 36.0001 9.29334 38.859 9.25C41.52 9.2505 44.0718 10.3078 45.9535 12.1894C47.8355 14.0715 48.8929 16.6241 48.8929 19.2857C48.8929 21.9474 47.8355 24.5 45.9535 26.382C44.0714 28.2641 41.5188 29.3214 38.8571 29.3214H11.4286C10.5856 29.3214 9.77708 28.9865 9.18098 28.3904C8.58488 27.7943 8.25 26.9859 8.25 26.1429C8.25 25.2998 8.58488 24.4914 9.18098 23.8953C9.77708 23.2992 10.5856 22.9643 11.4286 22.9643H38.8571C39.8328 22.9643 40.7684 22.5767 41.4583 21.8869C42.1481 21.197 42.5357 20.2613 42.5357 19.2857C42.5357 18.3101 42.1481 17.3744 41.4583 16.6846C40.7684 15.9947 39.8328 15.6071 38.8571 15.6071Z" fill="url(#paint1_linear_797_26932)" stroke="#E7EDF0" stroke-width="0.5"/>
<path d="M43.4213 64.1068L43.4213 64.1069H43.4286C44.4042 64.1069 45.3398 63.7193 46.0297 63.0294C46.7196 62.3396 47.1071 61.4039 47.1071 60.4283C47.1071 59.4527 46.7196 58.517 46.0297 57.8272C45.3398 57.1373 44.4042 56.7497 43.4286 56.7497H11.4286C10.5856 56.7497 9.77708 56.4148 9.18098 55.8187C8.58488 55.2226 8.25 54.4142 8.25 53.5711C8.25 52.7281 8.58488 51.9197 9.18098 51.3236C9.77708 50.7275 10.5856 50.3926 11.4286 50.3926H43.4286C46.0902 50.3926 48.6428 51.4499 50.5249 53.332C52.407 55.214 53.4643 57.7667 53.4643 60.4283C53.4643 63.0899 52.407 65.6426 50.5249 67.5246C48.6432 69.4063 46.0913 70.4635 43.4303 70.464C40.5683 70.4213 37.8358 69.2638 35.8141 67.2374L35.8143 67.2372L35.8056 67.2293C35.4874 66.9392 35.2314 66.5875 35.0533 66.1955C34.8751 65.8035 34.7785 65.3795 34.7691 64.949C34.7598 64.5185 34.8381 64.0907 34.9991 63.6914C35.1602 63.292 35.4007 62.9296 35.706 62.6261C36.0114 62.3225 36.3752 62.0842 36.7755 61.9255C37.1757 61.7668 37.604 61.6911 38.0344 61.7029C38.4648 61.7148 38.8883 61.8139 39.2793 61.9944C39.6702 62.1749 40.0204 62.4329 40.3085 62.7528L40.3083 62.753L40.317 62.7617C41.1412 63.5911 42.2524 64.0726 43.4213 64.1068Z" fill="url(#paint2_linear_797_26932)" stroke="#E7EDF0" stroke-width="0.5"/>
</g>
<defs>
<filter id="filter0_f_797_26932" x="-10.4" y="-10.4" width="100.8" height="100.8" filterUnits="userSpaceOnUse" color-interpolation-filters="sRGB">
<feFlood flood-opacity="0" result="BackgroundImageFix"/>
<feBlend mode="normal" in="SourceGraphic" in2="BackgroundImageFix" result="shape"/>
<feGaussianBlur stdDeviation="11.7" result="effect1_foregroundBlur_797_26932"/>
</filter>
<linearGradient id="paint0_linear_797_26932" x1="69.5" y1="41.8805" x2="56.3889" y2="10.1253" gradientUnits="userSpaceOnUse">
<stop offset="0.0324074" stop-color="#A7BDC8"/>
<stop offset="1" stop-color="#5A889F"/>
</linearGradient>
<linearGradient id="paint1_linear_797_26932" x1="47.5357" y1="28.1667" x2="30.6353" y2="1.8525" gradientUnits="userSpaceOnUse">
<stop offset="0.0324074" stop-color="#A7BDC8"/>
<stop offset="1" stop-color="#5A889F"/>
</linearGradient>
<linearGradient id="paint2_linear_797_26932" x1="51.9286" y1="69.3092" x2="35.8246" y2="41.4492" gradientUnits="userSpaceOnUse">
<stop offset="0.0324074" stop-color="#A7BDC8"/>
<stop offset="1" stop-color="#5A889F"/>
</linearGradient>
<clipPath id="clip0_797_26932">
<rect width="80" height="80" fill="white"/>
</clipPath>
</defs>
</svg>
