<svg width="60" height="59" viewBox="0 0 60 59" fill="none" xmlns="http://www.w3.org/2000/svg">
<path d="M9.82101 31.1418C10.6886 32.1045 11.2096 33.1239 12.0636 33.8737C12.2357 34.0232 12.3467 34.2202 12.3785 34.4558C12.4645 35.1173 12.793 35.7538 12.5778 36.4741C12.417 36.7664 12.0659 36.7618 11.7827 36.8773C11.3206 37.0676 10.906 36.9793 10.5527 36.6078C10.3058 36.345 10.0113 36.123 9.79156 35.8399C9.01686 34.8341 7.96352 35.0788 6.94417 35.1762C6.86035 35.183 6.77202 35.2373 6.70407 35.294C6.11058 35.7742 5.51934 36.2544 4.93492 36.7437C4.54983 37.0676 4.44792 37.5025 4.56118 37.9692C4.65632 38.3611 4.79223 38.7462 4.95759 39.1131C5.06632 39.3578 5.26564 39.6092 5.53294 39.6545C6.62251 39.8357 7.33834 40.5878 8.10399 41.2651C8.35089 41.4825 8.61365 41.7 8.94664 41.5686C9.77571 41.2447 10.5368 41.3693 11.2096 41.879C11.751 41.7136 12.2312 41.623 12.7341 41.6524C12.9561 41.666 13.2279 41.7023 13.4 41.5981C14.4126 40.9865 15.5973 41.2334 16.6642 40.9072C16.9293 40.8256 17.1988 40.8324 17.4593 40.9298C17.6791 41.0114 17.9214 41.0725 18.0981 40.9026C18.5466 40.4723 19.0926 40.5402 19.6272 40.5561C20.1527 40.5719 20.5967 40.4315 20.95 40.0169C21.1539 39.7814 21.3804 39.5027 21.7202 39.5163C22.3658 39.5413 22.7917 39.1788 23.2742 38.8322C23.7702 38.4743 24.2618 38.0711 24.9504 38.0304C25.2857 38.01 25.6549 37.8106 25.9245 37.5886C26.6969 36.9566 27.5939 36.5398 28.4343 36.0256C29.0845 35.6292 29.7074 35.1762 30.0947 34.4762C30.2012 34.2859 30.3688 34.0232 30.5432 33.9937C31.5671 33.8102 32.0881 32.9268 32.8107 32.356C33.787 31.5881 34.9151 30.9493 35.5607 29.8099C35.6762 29.6037 35.8914 29.495 36.1247 29.4859C36.6231 29.4678 36.9448 29.1665 37.2664 28.8404C37.9279 28.1676 38.5961 27.5129 39.1624 26.7405C39.663 26.0564 40.3539 25.515 40.9451 24.8966C41.2849 24.541 41.6542 24.1899 41.9056 23.7731C42.2091 23.2702 42.413 22.756 43.0948 22.5997C43.5094 22.5045 43.6407 22.0175 43.7721 21.6415C43.8945 21.2926 44.0032 20.9687 44.3656 20.7898C45.1245 20.416 45.3986 19.6662 45.6432 18.9527C45.8018 18.4838 46.0283 18.0738 46.2367 17.6366C46.7418 16.5855 47.555 15.8357 48.3547 15.0588C48.8666 14.5627 49.1543 13.8537 49.8361 13.5207C49.9086 13.4867 49.972 13.3893 49.9947 13.3077C50.2824 12.3269 51.1839 11.7515 51.6098 10.8726C51.8725 10.3312 52.5114 10.261 52.7832 9.79212C53.0505 9.33002 53.1954 8.79769 53.4763 8.34691C53.7957 7.83271 54.5817 7.65375 55.173 7.87574C55.2545 7.90746 55.3587 7.95276 55.395 8.02072C55.7529 8.7252 56.3328 9.34814 56.2195 10.2338C56.1833 10.5193 56.0609 10.7503 55.8616 10.9406C55.5241 11.2622 55.3564 11.6745 55.1684 12.0868C54.6837 13.1401 54.1921 14.1889 53.6734 15.2264C53.4265 15.7202 52.9214 15.9875 52.4728 16.4066C52.5204 17.1292 52.1784 17.7272 51.5917 18.2074C51.4535 18.3207 51.2927 18.4566 51.2428 18.6129C51.014 19.3287 50.604 19.8859 49.9584 20.2778C49.8588 20.3367 49.7659 20.4953 49.7614 20.6085C49.7432 21.2224 49.3106 21.5667 48.9278 21.9428C47.965 22.8896 47.0408 23.8659 46.3431 25.037C46.1868 25.3021 45.9264 25.5059 45.7044 25.7302C45.2921 26.1425 44.8368 26.5117 44.8232 27.1845C44.8164 27.5175 44.5423 27.7372 44.2773 27.9161C43.942 28.1427 43.6045 28.3669 43.2579 28.5753C42.8253 28.8358 42.4719 29.1801 42.1955 29.5969C41.3755 30.836 40.2973 31.8599 39.3708 33.0106C38.6255 33.3481 38.2155 34.1228 37.4635 34.4626C37.2211 34.5714 36.9968 34.7367 36.7952 34.9111C36.2516 35.3868 35.9073 36.0981 35.35 36.49C34.7679 36.9 34.197 37.3032 33.6488 37.7653C32.3146 38.8957 30.9442 39.9852 29.5488 41.0386C29.021 41.4372 28.3777 41.6841 27.7933 42.0103C27.6392 42.0964 27.4172 42.1961 27.3787 42.332C27.1862 43.0116 26.7422 43.2562 26.074 43.2404C25.7319 43.2313 25.4963 43.4827 25.2879 43.7183C24.8281 44.2438 24.2776 44.527 23.58 44.6856C22.5787 44.9143 21.5979 45.2655 20.6397 45.6438C19.9624 45.911 19.3304 46.1738 18.5806 45.9246C18.2861 45.8272 17.9645 45.9745 17.6723 46.1127C17.4299 46.2282 17.1716 46.389 16.9202 46.3935C15.3504 46.4207 13.8078 46.8624 12.2289 46.688C12.0523 46.6676 11.8688 46.6495 11.7011 46.5951C11.0374 46.3732 10.3715 46.3641 9.71229 46.5861C9.25018 46.7424 8.84016 46.7152 8.44828 46.3958C8.05413 46.0764 7.59657 45.8929 7.07557 45.9224C6.45037 45.9564 5.92257 45.7094 5.48991 45.2904C5.14107 44.9529 4.75825 44.7784 4.27803 44.8237C3.65283 44.8849 3.25413 44.5134 2.93247 44.0694C2.64026 43.6639 2.3639 43.2789 1.90859 43.0274C1.6345 42.8779 1.41024 42.6129 1.40345 42.2686C1.39212 41.7634 1.08632 41.4395 0.755598 41.1292C0.230067 40.6331 0.0284516 40.026 0.00806466 39.3125C-0.0327093 37.8627 0.0647184 36.447 0.683123 35.1037C0.791854 34.8658 0.766929 34.5646 0.873394 34.3222C1.21318 33.5407 1.55069 32.7524 2.37297 32.322C2.56778 32.2201 2.84414 32.0909 2.88945 31.9211C3.08425 31.2007 3.57581 31.0444 4.22366 31.0829C4.50002 31.0988 4.75144 31.0059 4.99608 30.8768C5.97919 30.3648 6.98949 30.4373 8.01337 30.7477C8.61139 30.9289 9.20035 31.1645 9.83008 31.1328L9.82101 31.1418Z" fill="#A7BDC8"/>
<path d="M22.9956 14.1414C23.1315 14.3136 23.2289 14.4654 23.3557 14.59C23.8042 15.0249 23.8201 15.53 23.6343 16.0827C23.29 17.1021 22.8868 18.0943 22.3885 19.0502C22.2752 19.2676 22.1234 19.399 21.9218 19.5078C21.7248 19.6142 21.5254 19.723 21.3351 19.843C20.2342 20.5316 19.3531 20.33 18.4492 19.1317C18.6984 18.7489 18.9952 18.3457 18.9521 17.8156C18.9385 17.6503 18.9974 17.4373 19.1016 17.3128C19.4482 16.896 19.4935 16.418 19.4663 15.9129C19.421 15.1019 19.4663 14.2977 19.7087 13.6159C19.6317 13.1765 19.3599 12.9885 19.1696 12.7393C18.9793 12.4901 18.8072 12.2273 18.6259 11.9668C18.0528 11.8332 17.4956 11.6701 16.9248 11.5818C16.3449 11.4911 15.7582 11.5047 15.2055 11.7743C14.9631 11.8921 14.7139 12.0303 14.4557 12.0665C13.5428 12.1956 13.0716 12.8276 12.682 13.5593C12.1746 14.5175 11.794 15.5074 11.8303 16.6219C11.8371 16.8371 11.7668 17.0681 11.6853 17.272C11.5562 17.5936 11.5811 17.8927 11.7533 18.1758C12.0455 18.6538 12.1633 19.1612 12.1429 19.7207C12.127 20.1398 12.3241 20.5112 12.58 20.8306C12.8609 21.1818 13.1826 21.4898 13.2823 21.9633C13.3276 22.183 13.5382 22.3347 13.7693 22.3868C14.0887 22.4593 14.322 22.6768 14.5984 22.8263C15.4206 23.2703 16.3335 23.5013 17.1626 23.9544C17.6655 24.2285 18.3337 24.1583 18.8864 23.9997C19.6566 23.7822 20.3701 23.8275 21.1381 23.9997C21.8335 24.1537 22.5742 24.1832 23.1383 23.5353C23.2719 23.3835 23.5256 23.2635 23.7272 23.259C24.255 23.2431 24.6854 23.0755 25.0569 22.7017C25.3763 22.3778 25.8089 22.4503 26.2099 22.448C26.6335 22.4457 27.014 22.3801 27.2655 21.9836C27.569 21.5057 28.2395 21.5623 28.5635 21.073C28.8443 20.6494 29.3336 20.4773 29.8003 20.2915C30.3258 20.0809 30.7471 19.6663 31.3791 19.6482C31.6328 19.6414 31.9046 19.3265 32.1176 19.1C33.1324 18.0218 34.2016 17.0024 35.3183 16.0284C35.6219 15.7634 35.8393 15.4326 36.2833 15.3556C36.4328 15.3307 36.6004 15.1653 36.682 15.0204C36.9198 14.5968 37.3684 14.4563 37.7648 14.1664C37.7942 14.0169 37.8622 13.8447 37.8599 13.6748C37.8486 13.1697 38.0819 12.8027 38.4896 12.5535C39.398 12.0031 40.0436 11.2035 40.6235 10.3404C40.8727 9.96891 41.0584 9.54758 41.5115 9.35731C41.5907 9.32559 41.6995 9.24858 41.7085 9.18289C41.8241 8.26321 42.8298 7.90303 43.0473 7.04678C43.079 6.92219 43.1515 6.74551 43.2466 6.71153C43.9851 6.44197 44.1119 5.70124 44.4177 5.13947C44.9433 4.17222 45.872 3.68519 46.6739 3.05546C47.068 2.74513 47.4486 2.46877 47.6978 2.018C47.8223 1.79147 48.0285 1.57401 48.2528 1.4449C48.622 1.2297 48.9074 0.996381 49.0025 0.552398C49.0773 0.203554 49.3446 0.0336637 49.6934 0.015542C51.1749 -0.0592103 51.4059 0.0880296 51.3448 1.53097C51.3357 1.75297 51.3153 1.98175 51.2564 2.19695C51.1477 2.59336 50.8917 2.91276 50.6539 3.24348C50.416 3.57647 50.561 4.0363 50.2779 4.37835C49.7297 5.04206 49.4148 5.82583 49.1158 6.63451C48.8055 7.47491 48.2573 8.2179 47.6434 8.87029C47.136 9.40714 46.7147 9.92588 46.6105 10.6983C46.5267 11.3326 46.2141 11.8853 45.5639 12.1707C45.2717 12.2998 45.0543 12.5422 44.8957 12.8231C44.4449 13.6114 43.6294 14.1052 43.2194 14.923C42.5331 15.3216 42.0846 16.0873 41.2011 16.1892C40.7934 16.2368 40.5555 16.5154 40.5283 16.9186C40.4944 17.3784 40.2044 17.5936 39.8714 17.8609C38.8566 18.6742 37.8826 19.5395 36.9131 20.4093C35.7147 21.4853 34.6139 22.6836 33.2706 23.5965C33.1596 23.6712 33.0282 23.7505 32.9693 23.8615C32.6499 24.4618 32.0859 24.7336 31.506 24.9918C31.1707 25.1414 30.8898 25.3611 30.6497 25.6352C30.3734 25.95 30.0585 26.1766 29.6123 26.1834C29.2747 26.1879 29.0459 26.4303 28.8081 26.6387C28.3528 27.0373 27.8386 27.2888 27.2134 27.2503C26.74 27.2208 26.3368 27.4383 25.9426 27.6512C25.4148 27.9366 24.8643 28.0861 24.2595 28.059C23.9922 28.0476 23.6638 27.9978 23.4644 28.1247C22.7101 28.6026 21.9467 28.4735 21.1403 28.3421C20.6148 28.256 20.0598 28.2991 19.5207 28.3376C18.5195 28.4055 17.5658 28.059 16.5759 28.0273C16.4513 28.0227 16.3018 27.9593 16.2089 27.8755C15.842 27.5425 15.4048 27.5176 14.9427 27.5244C14.313 27.5334 13.6742 27.5583 13.1486 27.1053C13.1146 27.0759 13.0671 27.0464 13.0286 27.0487C11.9866 27.1166 11.4271 26.3668 10.7837 25.7484C10.4009 25.3792 10.0929 24.9058 9.51976 24.7744C9.32042 24.7291 9.23659 24.5615 9.18902 24.3848C9.11427 24.1084 8.9625 23.8932 8.70653 23.7664C8.29879 23.5648 8.10399 23.2476 8.12211 22.7923C8.1357 22.4639 8.06094 22.149 7.79817 21.9383C7.31341 21.5442 7.29984 21.0119 7.30437 20.4637C7.3089 19.6527 7.3157 18.8418 7.3089 18.0308C7.30437 17.5348 7.36552 17.016 7.23867 16.5516C7.03253 15.7996 6.98043 15.1472 7.63508 14.5854C7.75287 14.4835 7.78458 14.2683 7.82989 14.0984C7.86387 13.9693 7.84801 13.8288 7.8616 13.6952C8.05415 11.8173 9.16412 10.5465 10.5663 9.40941C11.264 8.8431 12.0432 8.61205 12.8564 8.381C14.0411 8.04348 15.2575 8.04801 16.4649 8.10237C18.0075 8.17259 19.4709 8.57807 20.7779 9.43659C21.539 9.9372 22.1166 10.6372 22.7169 11.3054C23.1269 11.763 23.2198 13.1334 22.9978 14.1437L22.9956 14.1414Z" fill="#A7BDC8"/>
<path d="M46.0056 58.8863C45.4982 58.5013 44.941 58.2702 44.2682 58.3495C43.6974 58.4174 43.233 58.1003 42.8094 57.7537C42.567 57.5544 42.3541 57.2871 42.0121 57.2916C41.3959 57.3007 41.0856 56.9088 40.9701 56.4104C40.7979 55.6788 40.3426 55.2461 39.7174 54.9222C39.5996 54.861 39.5113 54.7387 39.3912 54.6844C38.2427 54.1611 37.9347 53.1282 37.9007 52.025C37.8554 50.4575 37.8033 48.8786 38.1385 47.3269C38.177 47.1548 38.1884 46.935 38.2994 46.824C38.8136 46.3098 38.5734 45.7458 38.4035 45.1659C39.065 44.355 39.6472 43.5146 40.0436 42.5586C40.0957 42.4363 40.2135 42.3389 40.252 42.2143C40.5465 41.2335 40.9248 40.3251 41.5726 39.4825C42.1072 38.7893 42.6327 38.0758 43.1832 37.3917C43.3757 37.1516 43.6226 36.9432 43.7472 36.6555C44.0032 36.071 44.3158 35.5387 44.7915 35.0993C44.9478 34.9543 45.129 34.73 45.1313 34.5398C45.1358 33.8579 45.6002 33.4932 46.017 33.0877C46.7645 32.3606 47.3988 31.5542 47.8518 30.6073C47.9651 30.3695 48.1259 30.1362 48.3162 29.9527C49.5145 28.7952 50.4523 27.427 51.4625 26.1154C52.0877 25.2999 52.8194 24.566 53.5035 23.7958C53.7096 23.5625 53.9566 23.3496 54.1129 23.0845C54.507 22.4118 54.9736 21.8409 55.6849 21.4649C55.9409 21.329 56.0972 21.0051 56.2897 20.7582C57.0373 19.8 58.034 19.5621 59.1711 19.7886C59.3704 19.8294 59.5607 20.0061 59.7148 20.1601C60.0341 20.4773 60.0455 20.8782 59.9413 21.3403C59.6672 21.5827 59.3614 21.8409 59.0669 22.1173C58.8698 22.3008 58.5935 22.4752 58.5255 22.7062C58.2378 23.678 57.4495 24.2353 56.8062 24.908C56.1244 25.6216 55.4516 26.3102 54.9601 27.2072C54.4504 28.1382 53.6938 28.9379 53.0165 29.7715C52.4207 30.5031 51.7842 31.2031 51.3787 32.0661C51.1998 32.4467 50.903 32.7208 50.6154 33.0017C50.1555 33.4547 49.8089 33.9553 49.7115 34.6145C49.63 35.1627 49.3786 35.6407 48.9572 36.0121C48.6039 36.3225 48.4974 36.7393 48.3184 37.1516C48.0557 37.7518 47.8201 38.3793 47.4101 38.9275C46.8551 39.6705 46.3613 40.4701 46.1415 41.4011C45.9445 42.2302 45.6092 43.0071 45.2694 43.7932C44.8277 44.8193 44.5219 45.9134 44.5831 47.0642C44.608 47.524 44.5378 47.9566 44.3022 48.3621C43.7314 49.343 44.2365 50.2853 44.4268 51.2344C44.4426 51.3137 44.5106 51.3975 44.5785 51.4519C45.727 52.3852 46.9276 53.2188 48.4204 53.511C48.7851 53.5812 49.1384 53.5721 49.4624 53.3683C51.0571 52.3534 52.1761 50.9128 53.1116 49.3022C53.4242 48.7631 53.3495 48.2104 53.0006 47.78C52.3596 46.9871 51.9314 46.1513 51.8816 45.1093C51.8657 44.7853 51.5758 44.4705 51.3991 44.1601C51.0072 43.4647 51.1137 42.9664 51.7502 42.5564C52.5317 42.0535 52.9893 42.1033 53.6666 42.7308C54.4617 43.467 55.1481 44.3029 55.7936 45.1659C56.5004 46.1105 56.8493 47.2363 57.2253 48.3395C57.3295 48.6453 57.2593 48.9488 57.0758 49.2388C56.7133 49.8141 56.5412 50.4507 56.4483 51.1325C56.3713 51.7011 56.2172 52.2742 55.8208 52.7431C55.6781 52.9107 55.5785 53.1236 55.4924 53.3298C55.0801 54.3197 54.387 55.0694 53.5103 55.6584C53.1298 55.9144 52.8579 56.2134 52.6699 56.6642C52.3709 57.3845 51.8567 57.9463 51.0254 58.1048C50.851 58.1388 50.6471 58.1705 50.5247 58.2793C50.0694 58.6847 49.5303 58.6417 48.9912 58.6326C48.0036 58.619 47.0137 58.5375 46.0124 58.8909L46.0056 58.8863Z" fill="#A7BDC8"/>
</svg>
